<svg width="24" height="24" viewBox="0 0 24 24" fill="none" xmlns="http://www.w3.org/2000/svg">
<g clip-path="url(#clip0)">
<path d="M22.6154 16.2308L22.6154 14.3755L24 14.3755L24 9.5295L22.6154 9.5295L22.6154 7.76919C22.6154 6.62384 21.6837 5.69238 20.5384 5.69238L2.07688 5.69238C0.931887 5.69238 2.28475e-05 6.62409 2.27974e-05 7.76919L2.24275e-05 16.2308C2.23775e-05 17.3765 0.931886 18.3078 2.07688 18.3078L20.5385 18.3078C21.6837 18.3078 22.6154 17.3765 22.6154 16.2308ZM2.07672 16.9234C1.69518 16.9234 1.38459 16.6127 1.38459 16.2308L1.38459 7.76919C1.38459 7.38764 1.69462 7.077 2.07672 7.077L20.5385 7.077C20.92 7.077 21.2308 7.38764 21.2308 7.76919L21.2308 16.2308C21.2308 16.6127 20.9201 16.9234 20.5385 16.9234L2.07672 16.9234ZM2.20399 16.1684L2.20399 7.8317L5.24165 7.8317L5.24165 16.1684L2.20399 16.1684ZM5.98988 16.1684L5.98988 7.8317L9.02739 7.8317L9.02739 16.1684L5.98988 16.1684ZM9.77588 16.1684L9.77588 7.8317L12.8136 7.8317L12.8136 16.1684L9.77588 16.1684Z" fill="#2AED80"/>
<rect x="13.5996" y="7.78027" width="3" height="8.3" fill="#2AED80"/>
</g>
<defs>
<clipPath id="clip0">
<rect width="24" height="24" fill="white"/>
</clipPath>
</defs>
</svg>
