<svg width="236" height="236" viewBox="0 0 236 236" fill="none" xmlns="http://www.w3.org/2000/svg">
<rect width="236" height="236" fill="#EFF2F6"/>
<path d="M118 116.512C133.122 116.512 145.381 101.622 145.381 83.2553C145.381 64.8879 141.356 49.998 118 49.998C94.644 49.998 90.6191 64.8879 90.6191 83.2553C90.6196 101.622 102.879 116.512 118 116.512Z" fill="white"/>
<path d="M169.657 165.95C169.151 133.953 164.972 124.836 132.995 119.064C132.995 119.064 128.492 124.8 118.001 124.8C107.509 124.8 103.008 119.064 103.008 119.064C71.3795 124.772 66.9458 133.755 66.3631 164.91C66.3157 167.454 66.2938 167.587 66.2852 167.292C66.2868 167.845 66.2893 168.869 66.2893 170.654C66.2893 170.654 73.9026 186.001 118.001 186.001C162.1 186.001 169.714 170.654 169.714 170.654C169.714 169.507 169.715 168.709 169.716 168.167C169.707 168.35 169.689 167.996 169.657 165.95Z" fill="white"/>
<path d="M155.998 110.574C168.28 110.574 178.236 98.4812 178.236 83.5637C178.236 68.6459 174.967 56.5527 155.998 56.5527C152.807 56.5527 150.061 56.896 147.7 57.5369C152.081 65.6138 152.681 75.4242 152.681 83.255C152.681 92.1216 150.278 100.587 145.852 107.596C148.894 109.496 152.341 110.574 155.998 110.574Z" fill="white"/>
<path d="M197.952 150.726C197.539 124.739 194.146 117.334 168.174 112.646C168.174 112.646 164.518 117.305 155.997 117.305C155.645 117.305 155.303 117.294 154.967 117.279C160.381 119.72 165.306 123.119 168.933 128.093C175.204 136.691 176.646 148.241 176.943 165.21C194.416 161.757 197.997 154.547 197.997 154.547C197.997 153.607 197.997 152.963 197.999 152.522C197.992 152.677 197.978 152.399 197.952 150.726Z" fill="white"/>
<path d="M80.001 110.574C83.6578 110.574 87.1045 109.495 90.148 107.596C85.7218 100.587 83.3182 92.1216 83.3182 83.2551C83.3182 75.4238 83.9187 65.6134 88.2992 57.5369C85.9377 56.896 83.1925 56.5527 80.001 56.5527C61.0319 56.5527 57.7637 68.6459 57.7637 83.5637C57.7637 98.4808 67.7199 110.574 80.001 110.574Z" fill="white"/>
<path d="M81.0313 117.279C80.6958 117.294 80.3542 117.305 80.001 117.305C71.4798 117.305 67.8238 112.646 67.8238 112.646C41.853 117.334 38.4587 124.738 38.0474 150.726C38.0206 152.4 38.007 152.677 38 152.522C38.0008 152.962 38.0016 153.607 38.0016 154.547C38.0016 154.547 41.5831 161.757 59.0549 165.21C59.3537 148.241 60.7945 136.691 67.0659 128.092C70.6926 123.12 75.6172 119.72 81.0313 117.279Z" fill="white"/>
</svg>
