<svg width="98" height="98" viewBox="0 0 98 98" fill="none" xmlns="http://www.w3.org/2000/svg">
<g clip-path="url(#clip0)">
<path d="M59.0704 22.1038C63.5709 24.9255 66.7267 29.7005 67.3012 35.2431C69.1366 36.1007 71.1736 36.5938 73.3334 36.5938C81.2179 36.5938 87.6084 30.2033 87.6084 22.32C87.6084 14.4354 81.2179 8.04492 73.3334 8.04492C65.5241 8.04735 59.1895 14.3237 59.0704 22.1038ZM49.7185 51.3317C57.6031 51.3317 63.9936 44.94 63.9936 37.0566C63.9936 29.1733 57.6019 22.7828 49.7185 22.7828C41.8352 22.7828 35.441 29.1745 35.441 37.0579C35.441 44.9412 41.8352 51.3317 49.7185 51.3317ZM55.7738 52.3047H43.6609C33.5826 52.3047 25.3834 60.5051 25.3834 70.5834V85.3966L25.421 85.6286L26.4414 85.948C36.0593 88.9532 44.4152 89.9553 51.2928 89.9553C64.7261 89.9553 72.5122 86.1254 72.992 85.8812L73.9456 85.399H74.0476V70.5834C74.0513 60.5051 65.8521 52.3047 55.7738 52.3047ZM79.391 37.568H67.3717C67.2417 42.377 65.1889 46.7074 61.942 49.8218C70.9003 52.4857 77.4548 60.793 77.4548 70.6052V75.1701C89.3224 74.7352 96.1611 71.3717 96.6117 71.1458L97.5653 70.6623H97.6673V55.8443C97.6673 45.7672 89.4681 37.568 79.391 37.568ZM24.6704 36.5963C27.4629 36.5963 30.0612 35.7812 32.2622 34.3928C32.9618 29.8292 35.4082 25.8414 38.9029 23.1253C38.9175 22.8581 38.943 22.5933 38.943 22.3236C38.943 14.4391 32.5513 8.04857 24.6704 8.04857C16.7846 8.04857 10.3953 14.4391 10.3953 22.3236C10.3953 30.2046 16.7846 36.5963 24.6704 36.5963ZM37.4902 49.8218C34.2591 46.7232 32.2136 42.4159 32.0642 37.6361C31.6184 37.6033 31.1775 37.568 30.7232 37.568H18.6115C8.53316 37.568 0.333984 45.7672 0.333984 55.8443V70.6599L0.37164 70.8883L1.39198 71.2102C9.10771 73.6189 15.9938 74.7291 21.9749 75.079V70.6052C21.9774 60.793 28.5294 52.4881 37.4902 49.8218Z" fill="white"/>
</g>
<defs>
<clipPath id="clip0">
<rect width="97.3333" height="97.3333" fill="white" transform="translate(0.333984 0.333984)"/>
</clipPath>
</defs>
</svg>
