<svg width="66" height="39" viewBox="0 0 66 39" fill="none" xmlns="http://www.w3.org/2000/svg">
<path fill-rule="evenodd" clip-rule="evenodd" d="M3.74634 19.7245L12.3056 23.0987L12.402 16.7984C9.39832 14.4712 8.05166 8.02117 6.25626 4.08981C5.85306 3.20691 5.40902 2.37266 4.73436 1.96773C2.69437 0.743727 2.1533 2.61087 2.20887 4.1698C2.34153 7.88754 3.74634 15.4145 3.74634 19.7245Z" fill="#009541"/>
<path fill-rule="evenodd" clip-rule="evenodd" d="M11.5109 27.4497L12.3053 23.0988L3.74598 19.7246C3.69054 22.0304 3.01457 25.562 2.66728 28.028C2.32401 30.4649 1.89752 32.5067 2.21287 34.4015C2.53403 36.3311 3.137 37.1709 5.04288 35.7552C7.82076 33.6922 7.80115 27.8089 11.5109 27.4497Z" fill="#FEED00"/>
<path fill-rule="evenodd" clip-rule="evenodd" d="M12.402 16.7982L12.3057 23.0984L17.9171 23.1953C18.7643 20.278 19.6279 19.8194 21.7635 18.121C22.8384 17.2661 26.3268 15.0161 25.7716 13.1841C24.9969 10.6265 20.3276 13.5147 19.3088 14.0696C17.1766 15.2306 15.3248 16.5804 12.402 16.7982Z" fill="#008BD2"/>
<path fill-rule="evenodd" clip-rule="evenodd" d="M11.5107 27.4495C15.4365 29.1241 19.2962 36.6637 22.1008 36.4568C24.147 36.3059 22.6401 34.5573 20.8935 30.2584C19.8916 27.7924 18.9514 25.5566 17.9165 23.1955L12.3051 23.0986L11.5107 27.4495Z" fill="#E30512"/>
<path d="M15.3623 14.3486C18.5828 14.3486 21.1934 11.7825 21.1934 8.61717C21.1934 5.45179 18.5828 2.88574 15.3623 2.88574C12.1419 2.88574 9.53125 5.45179 9.53125 8.61717C9.53125 11.7825 12.1419 14.3486 15.3623 14.3486Z" fill="#D40074"/>
<path fill-rule="evenodd" clip-rule="evenodd" d="M28.3468 31.7119L30.2671 29.8243C30.3423 29.7442 30.4382 29.6973 30.5501 29.6973C30.6411 29.6973 30.7241 29.7261 30.7921 29.7859C30.8623 29.8458 30.9087 29.9228 30.9183 30.015C30.9275 30.1119 30.8944 30.201 30.8334 30.2766L30.8284 30.2827L29.2491 31.8349L30.9723 33.7437L30.9751 33.7471C31.0485 33.8395 31.0912 33.9467 31.0752 34.0645C31.0648 34.17 31.0083 34.255 30.9172 34.3116C30.833 34.3652 30.7389 34.3861 30.6405 34.3717C30.5245 34.356 30.4293 34.2964 30.3611 34.2037L28.7439 32.3381L28.3468 32.6951V33.9867C28.3468 34.0978 28.3074 34.1979 28.2237 34.2731C28.1526 34.3418 28.0634 34.3796 27.9632 34.3796C27.8634 34.3796 27.7716 34.3494 27.6967 34.2841L27.6928 34.2807L27.6891 34.277C27.6144 34.2014 27.5781 34.1078 27.5781 34.0025V30.0902C27.5781 29.9808 27.6105 29.8792 27.6891 29.7999L27.6928 29.7961L27.6967 29.7927C27.7716 29.7275 27.8634 29.6973 27.9632 29.6973C28.0597 29.6973 28.1478 29.7297 28.2202 29.7927L28.2224 29.7946C28.306 29.8706 28.3468 29.9706 28.3468 30.0823V31.7119ZM35.1279 29.9941C35.277 30.1192 35.3329 30.2953 35.3329 30.4834V33.9867C35.3329 34.0971 35.2929 34.197 35.2098 34.2718C35.1387 34.3405 35.0495 34.3796 34.9492 34.3796C34.8494 34.3796 34.7576 34.348 34.6828 34.2829L34.6768 34.2776L34.6713 34.2717C34.5987 34.1921 34.5642 34.0932 34.5642 33.9867V30.6774C34.5642 30.6515 34.5611 30.575 34.546 30.5475C34.522 30.5326 34.4515 30.5293 34.4297 30.5293H33.2336C33.2013 30.5293 33.1428 30.5331 33.1149 30.5567C33.0875 30.6014 33.0829 30.6837 33.0829 30.7315V32.5088C33.0829 32.8912 33.0536 33.4025 32.8711 33.7483C32.6318 34.1988 32.1839 34.3615 31.6873 34.3717H31.6844C31.5027 34.3717 31.3663 34.2773 31.3472 34.0937C31.3266 33.9063 31.4498 33.7942 31.6347 33.7942C31.9526 33.7902 32.1888 33.6779 32.3083 33.3782C32.4077 33.1382 32.4163 32.7268 32.4163 32.4705V30.4914C32.4163 30.2988 32.4807 30.1273 32.6306 29.9997C32.7873 29.8683 32.9938 29.8279 33.1947 29.8279H34.6176C34.8028 29.8279 34.987 29.8697 35.1279 29.9941ZM40.2124 29.8044C40.2972 29.8824 40.3349 29.9846 40.3349 30.0981V33.9787C40.3349 34.0906 40.295 34.1913 40.2144 34.2705C40.1403 34.3434 40.0464 34.3796 39.9418 34.3796C39.8378 34.3796 39.7444 34.3433 39.6715 34.2715C39.5895 34.1931 39.558 34.0892 39.558 33.9787V31.2871L37.3694 33.8288V34.0025C37.3694 34.1124 37.327 34.2077 37.2449 34.2822L37.2428 34.2842C37.1704 34.3471 37.0823 34.3796 36.9857 34.3796C36.8899 34.3796 36.7999 34.3544 36.7247 34.2952L36.7218 34.2931L36.7192 34.2908C36.6383 34.2203 36.6007 34.1238 36.6007 34.0183V30.0598C36.6007 29.9538 36.6378 29.857 36.7193 29.7861L36.7218 29.7838L36.7246 29.7817C36.7998 29.7225 36.8899 29.6973 36.9857 29.6973C37.0784 29.6973 37.1646 29.7244 37.2371 29.7815C37.3259 29.8508 37.3694 29.9488 37.3694 30.0598V32.7947L39.558 30.226V30.0981C39.558 29.9857 39.5879 29.8796 39.6704 29.7985L39.6734 29.7955L39.6766 29.7927C39.7511 29.7279 39.8426 29.6973 39.9418 29.6973C40.0455 29.6973 40.1386 29.7328 40.2124 29.8044ZM42.3807 31.6145H44.6244V30.0757C44.6244 29.9682 44.6588 29.8685 44.7368 29.7918L44.7431 29.7856L44.7504 29.7802C44.8256 29.7231 44.9149 29.6973 45.0094 29.6973C45.1073 29.6973 45.1956 29.7303 45.2674 29.7948C45.3545 29.8716 45.3931 29.9763 45.3931 30.0902V33.9867C45.3931 34.0985 45.3533 34.1992 45.2727 34.2784L45.2697 34.2814L45.2665 34.2841C45.1941 34.3471 45.106 34.3796 45.0094 34.3796C44.9097 34.3796 44.8179 34.3494 44.7429 34.2842L44.7369 34.2789L44.7315 34.273C44.6584 34.1929 44.6244 34.0939 44.6244 33.9867V32.3159H42.3807V33.9642C42.3807 34.0786 42.3451 34.1856 42.263 34.2678C42.1928 34.3434 42.102 34.3876 41.997 34.3876H41.9915L41.9861 34.387C41.8854 34.3793 41.7959 34.3408 41.7244 34.2705L41.7193 34.2655L41.7147 34.26C41.6428 34.1731 41.612 34.0673 41.612 33.9563V30.1139C41.612 30.0007 41.6407 29.8911 41.7192 29.8052L41.7238 29.8001L41.7289 29.7955C41.8038 29.7283 41.8961 29.6973 41.997 29.6973C42.0996 29.6973 42.1899 29.7365 42.2607 29.808C42.3451 29.891 42.3807 29.9977 42.3807 30.1139V31.6145ZM50.2807 29.8044C50.3655 29.8824 50.4031 29.9846 50.4031 30.0981V33.9787C50.4031 34.0906 50.3633 34.1913 50.2827 34.2705C50.2085 34.3434 50.1147 34.3796 50.0101 34.3796C49.9061 34.3796 49.8127 34.3433 49.7397 34.2715C49.6578 34.1931 49.6264 34.0892 49.6264 33.9787V31.2871L47.4377 33.8288V34.0025C47.4377 34.1124 47.3953 34.2077 47.3132 34.2822L47.3111 34.2842C47.2387 34.3471 47.1506 34.3796 47.054 34.3796C46.9582 34.3796 46.8683 34.3544 46.793 34.2952L46.7902 34.2931L46.7875 34.2908C46.7066 34.2203 46.669 34.1238 46.669 34.0183V30.0598C46.669 29.9538 46.7061 29.857 46.7876 29.7861L46.7902 29.7838L46.7929 29.7817C46.8682 29.7225 46.9582 29.6973 47.054 29.6973C47.1467 29.6973 47.2329 29.7244 47.3055 29.7815C47.3942 29.8508 47.4377 29.9488 47.4377 30.0598V32.7947L49.6264 30.226V30.0981C49.6264 29.9857 49.6562 29.8796 49.7387 29.7985L49.7417 29.7955L49.7449 29.7927C49.8193 29.7279 49.9109 29.6973 50.0101 29.6973C50.1137 29.6973 50.2069 29.7328 50.2807 29.8044ZM52.3456 31.7119L54.2659 29.8243C54.3411 29.7442 54.437 29.6973 54.5488 29.6973C54.6399 29.6973 54.7229 29.7261 54.7908 29.7859C54.8611 29.8458 54.9075 29.9228 54.9171 30.015C54.9263 30.1119 54.8932 30.201 54.8322 30.2766L54.8271 30.2827L53.2479 31.8349L54.9711 33.7437L54.9738 33.7471C55.0473 33.8395 55.09 33.9467 55.0739 34.0645C55.0636 34.17 55.0071 34.255 54.9159 34.3116C54.8318 34.3652 54.7376 34.3861 54.6393 34.3717C54.5233 34.356 54.428 34.2964 54.3599 34.2037L52.7427 32.3381L52.3456 32.6951V33.9867C52.3456 34.0978 52.3061 34.1979 52.2225 34.2731C52.1513 34.3418 52.0621 34.3796 51.962 34.3796C51.8622 34.3796 51.7704 34.3494 51.6954 34.2841L51.6915 34.2807L51.6879 34.277C51.6131 34.2014 51.5769 34.1078 51.5769 34.0025V30.0902C51.5769 29.9808 51.6093 29.8792 51.6879 29.7999L51.6915 29.7961L51.6954 29.7927C51.7704 29.7275 51.8622 29.6973 51.962 29.6973C52.0585 29.6973 52.1466 29.7297 52.219 29.7927L52.2211 29.7946C52.3048 29.8706 52.3456 29.9706 52.3456 30.0823V31.7119Z" fill="#D40074"/>
<path d="M29.0376 26.2903V21.5914L25.828 26.3133L25.412 26.9251H23.8643V26.2903V19.2023C23.8643 18.4355 25.5168 18.258 25.5168 19.2023V24.0388L28.7912 19.1966C28.8884 19.0528 28.9078 18.8848 29.0903 18.7776C29.6829 18.4293 30.6867 18.4001 30.6867 19.2248V26.3015C30.6867 27.4381 29.0376 27.2395 29.0376 26.2903ZM39.1314 18.8948V19.202V26.3068C39.1314 27.4359 37.4822 27.2359 37.4822 26.2955V23.6242H34.1102V26.2843C34.1102 27.4588 32.461 27.2174 32.461 26.3068V19.2135C32.461 18.4365 34.1102 18.2167 34.1102 19.2023V21.8966H37.4822V19.1907C37.4822 18.4084 39.1314 18.4233 39.1314 18.8948ZM41.5354 26.9251V28.3624C41.5354 29.2784 39.9622 29.0348 39.9622 28.3737V26.071C39.9622 25.0519 39.7395 25.1976 40.9133 25.1976C41.1261 24.8507 41.3294 24.2882 41.4965 23.5806C41.6732 22.8317 41.8066 21.9277 41.8651 20.9498C42.1144 19.0172 41.6534 18.6825 43.1815 18.6825H45.4329C47.236 18.7243 46.8619 18.4382 47.0739 20.3702V25.1976C48.3741 25.2398 48.1427 25.0486 48.215 26.3011V28.3455C48.215 29.0695 46.6419 29.252 46.6419 28.3792V26.9251H41.5354ZM45.4247 20.4101H43.5313L43.4669 21.5158C43.4016 22.3862 43.2712 23.1907 43.113 23.8571C42.9827 24.406 42.8317 24.866 42.6805 25.1976H45.4247V20.4101ZM53.7391 25.1817C55.6642 24.7548 54.9044 26.4197 54.7602 26.4384C54.5391 26.5948 54.3011 26.724 54.047 26.8252C53.5913 27.0068 53.0853 27.0989 52.5333 27.0989C51.9502 27.0989 51.424 27.0019 50.9529 26.8057C50.4786 26.6081 50.0643 26.3119 49.7086 25.9149C49.3555 25.5208 49.0902 25.0617 48.9132 24.538C48.7381 24.0197 48.6504 23.4416 48.6504 22.8038C48.6504 22.1951 48.7334 21.6368 48.8975 21.1292C49.0637 20.6149 49.3125 20.1559 49.6418 19.7524C49.974 19.3372 50.3712 19.027 50.8315 18.8199C51.2941 18.6117 51.8164 18.5088 52.3964 18.5088C52.8777 18.5088 53.3239 18.5984 53.7326 18.7801C54.1362 18.9595 54.5011 19.2283 54.8247 19.5886C55.1477 19.9397 55.3901 20.3411 55.5515 20.7949C55.7121 21.2463 55.7924 21.7474 55.7924 22.3C55.7924 22.478 55.7852 22.6459 55.7724 22.8028C55.7586 22.9739 55.7379 23.1311 55.7129 23.2738L55.6819 23.4504H50.4751C50.5558 24.0184 50.7771 24.4771 51.1083 24.8023C51.4825 25.1697 52.003 25.3713 52.6246 25.3713C53.0442 25.3713 53.4158 25.3074 53.7391 25.1817ZM53.5841 20.723C53.2854 20.4082 52.8596 20.2364 52.3355 20.2364C51.7943 20.2364 51.3416 20.4211 51.0085 20.7402C50.7092 21.0271 50.5023 21.4245 50.4097 21.8966H54.0805C54.0226 21.4016 53.8506 21.0039 53.5841 20.723ZM58.6681 26.7378C58.767 27.6931 59.2148 30.9783 59.0834 31.3988C58.8697 32.0828 57.7294 32.172 57.255 31.6041C57.0979 31.416 57.019 29.8351 57.019 29.5136V18.6825H58.6681V19.2806C58.8755 19.1039 59.1147 18.9508 59.374 18.8289C59.8041 18.6267 60.2905 18.5088 60.7802 18.5088C61.2946 18.5088 61.7624 18.6085 62.1792 18.8101C62.5913 19.0096 62.9499 19.3078 63.2506 19.7069C63.5548 20.0921 63.7828 20.5347 63.9343 21.0324C64.0854 21.5287 64.1609 22.0795 64.1609 22.6822C64.1609 23.3013 64.0739 23.8736 63.9018 24.3966C63.7281 24.9246 63.4679 25.4002 63.1238 25.8205C62.4262 26.6727 61.5022 27.0989 60.3846 27.0989C59.9588 27.0989 59.571 27.0519 59.2255 26.9556C59.0248 26.8997 58.8388 26.8273 58.6681 26.7378ZM61.8794 20.8902C61.539 20.475 61.0456 20.2364 60.4302 20.2364C60.0633 20.2364 59.7293 20.3184 59.4318 20.4804C58.0612 21.2268 58.2586 24.8537 59.3773 25.2288C59.6587 25.3231 59.9589 25.3713 60.278 25.3713C60.9249 25.3713 61.4563 25.1105 61.8276 24.665C62.2166 24.1979 62.4356 23.5266 62.4356 22.7343C62.4356 21.9663 62.2388 21.3286 61.8794 20.8902Z" fill="#008BD2"/>
</svg>
