<svg width="146" height="146" viewBox="0 0 146 146" fill="none" xmlns="http://www.w3.org/2000/svg">
<g clip-path="url(#clip0)">
<path d="M88.0357 32.8377C94.7555 37.051 99.4675 44.1807 100.325 52.4567C103.066 53.7372 106.108 54.4735 109.332 54.4735C121.105 54.4735 130.647 44.9316 130.647 33.1605C130.647 21.3877 121.105 11.8457 109.332 11.8457C97.6719 11.8493 88.2134 21.2208 88.0357 32.8377ZM74.0718 76.4794C85.8447 76.4794 95.3867 66.9356 95.3867 55.1646C95.3867 43.3935 85.8429 33.8516 74.0718 33.8516C62.3008 33.8516 52.7534 43.3954 52.7534 55.1664C52.7534 66.9374 62.3008 76.4794 74.0718 76.4794ZM83.1132 77.9322H65.0268C49.9784 77.9322 37.7358 90.1766 37.7358 105.225V127.343L37.792 127.69L39.3155 128.167C53.6766 132.654 66.1531 134.15 76.4224 134.15C96.4803 134.15 108.106 128.432 108.823 128.067L110.246 127.347H110.399V105.225C110.404 90.1766 98.1616 77.9322 83.1132 77.9322ZM118.377 55.9282H100.431C100.237 63.1087 97.1714 69.5746 92.3233 74.225C105.699 78.2024 115.486 90.6065 115.486 105.258V112.074C133.206 111.424 143.418 106.402 144.09 106.065L145.514 105.343H145.667V83.2174C145.667 68.1708 133.424 55.9282 118.377 55.9282ZM36.6711 54.4772C40.8409 54.4772 44.7204 53.2602 48.0069 51.1871C49.0516 44.3729 52.7044 38.4185 57.9225 34.363C57.9442 33.964 57.9823 33.5686 57.9823 33.166C57.9823 21.3931 48.4385 11.8511 36.6711 11.8511C24.8965 11.8511 15.3563 21.3931 15.3563 33.166C15.3563 44.9334 24.8965 54.4772 36.6711 54.4772ZM55.8131 74.225C50.9886 69.5982 47.9343 63.1667 47.7112 56.0297C47.0456 55.9808 46.3872 55.9282 45.7089 55.9282H27.6243C12.5759 55.9282 0.333252 68.1708 0.333252 83.2174V105.339L0.389477 105.68L1.913 106.161C13.4337 109.758 23.7157 111.415 32.6465 111.938V105.258C32.6501 90.6065 42.4333 78.2061 55.8131 74.225Z" fill="#EFF2F6"/>
</g>
<defs>
<clipPath id="clip0">
<rect width="145.333" height="145.333" fill="white" transform="translate(0.333252 0.333008)"/>
</clipPath>
</defs>
</svg>
