<svg width="60" height="60" viewBox="0 0 60 60" fill="none" xmlns="http://www.w3.org/2000/svg">
<path d="M36.2074 13.4193C38.9817 15.1588 40.927 18.1022 41.2812 21.5189C42.4126 22.0476 43.6683 22.3516 44.9996 22.3516C49.86 22.3516 53.7993 18.4122 53.7993 13.5526C53.7993 8.69228 49.86 4.75293 44.9996 4.75293C40.1857 4.75443 36.2808 8.62339 36.2074 13.4193ZM30.4425 31.4366C35.3029 31.4366 39.2422 27.4965 39.2422 22.6369C39.2422 17.7773 35.3021 13.8379 30.4425 13.8379C25.5829 13.8379 21.6413 17.778 21.6413 22.6376C21.6413 27.4972 25.5829 31.4366 30.4425 31.4366ZM34.1752 32.0363H26.7083C20.4957 32.0363 15.4414 37.0914 15.4414 43.304V52.4354L15.4646 52.5785L16.0936 52.7754C22.0225 54.6279 27.1733 55.2456 31.413 55.2456C39.6937 55.2456 44.4935 52.8847 44.7892 52.7342L45.377 52.4369H45.4399V43.304C45.4422 37.0914 40.3879 32.0363 34.1752 32.0363ZM48.7338 22.9521H41.3246C41.2445 25.9165 39.979 28.586 37.9775 30.5058C43.4998 32.1479 47.5402 37.2688 47.5402 43.3175V46.1314C54.8559 45.8634 59.0715 43.79 59.3493 43.6507L59.9371 43.3527H60V34.2183C60 28.0064 54.9457 22.9521 48.7338 22.9521ZM15.0019 22.3531C16.7233 22.3531 18.325 21.8506 19.6818 20.9948C20.1131 18.1816 21.6211 15.7234 23.7754 14.0491C23.7844 13.8843 23.8001 13.7211 23.8001 13.5549C23.8001 8.69453 19.86 4.75518 15.0019 4.75518C10.1408 4.75518 6.20217 8.69453 6.20217 13.5549C6.20217 18.413 10.1408 22.3531 15.0019 22.3531ZM22.9045 30.5058C20.9128 28.5957 19.6518 25.9405 19.5597 22.994C19.2849 22.9738 19.0131 22.9521 18.7331 22.9521H11.2669C5.05429 22.9521 0 28.0064 0 34.2183V43.3512L0.0232123 43.492L0.65219 43.6904C5.40846 45.1752 9.65331 45.8596 13.3403 46.0753V43.3175C13.3418 37.2688 17.3808 32.1494 22.9045 30.5058Z" fill="white"/>
</svg>
