<svg width="98" height="98" viewBox="0 0 98 98" fill="none" xmlns="http://www.w3.org/2000/svg">
<g clip-path="url(#clip0)">
<path d="M59.0695 22.1038C63.5699 24.9255 66.7257 29.7005 67.3002 35.2431C69.1356 36.1007 71.1727 36.5938 73.3324 36.5938C81.217 36.5938 87.6075 30.2034 87.6075 22.32C87.6075 14.4354 81.217 8.04492 73.3324 8.04492C65.5231 8.04735 59.1885 14.3237 59.0695 22.1038ZM49.7176 51.3317C57.6021 51.3317 63.9926 44.94 63.9926 37.0566C63.9926 29.1733 57.6009 22.7828 49.7176 22.7828C41.8342 22.7828 35.4401 29.1745 35.4401 37.0579C35.4401 44.9412 41.8342 51.3317 49.7176 51.3317ZM55.7728 52.3047H43.6599C33.5816 52.3047 25.3824 60.5051 25.3824 70.5834V85.3966L25.4201 85.6286L26.4404 85.948C36.0583 88.9532 44.4142 89.9553 51.2918 89.9553C64.7251 89.9553 72.5113 86.1254 72.9911 85.8812L73.9446 85.399H74.0466V70.5834C74.0503 60.5051 65.8511 52.3047 55.7728 52.3047ZM79.3901 37.568H67.3707C67.2407 42.377 65.1879 46.7074 61.941 49.8219C70.8994 52.4857 77.4539 60.793 77.4539 70.6052V75.1701C89.3214 74.7352 96.1601 71.3717 96.6108 71.1458L97.5643 70.6623H97.6663V55.8443C97.6663 45.7672 89.4672 37.568 79.3901 37.568ZM24.6694 36.5963C27.462 36.5963 30.0602 35.7812 32.2612 34.3928C32.9609 29.8292 35.4073 25.8414 38.9019 23.1253C38.9165 22.8581 38.942 22.5933 38.942 22.3236C38.942 14.4391 32.5503 8.04857 24.6694 8.04857C16.7836 8.04857 10.3943 14.4391 10.3943 22.3236C10.3943 30.2046 16.7836 36.5963 24.6694 36.5963ZM37.4892 49.8219C34.2582 46.7232 32.2126 42.4159 32.0632 37.6361C31.6174 37.6033 31.1765 37.568 30.7222 37.568H18.6105C8.53218 37.568 0.333008 45.7672 0.333008 55.8443V70.6599L0.370663 70.8883L1.39101 71.2102C9.10673 73.6189 15.9928 74.7291 21.974 75.079V70.6052C21.9764 60.793 28.5285 52.4881 37.4892 49.8219Z" fill="white"/>
</g>
<defs>
<clipPath id="clip0">
<rect width="97.3333" height="97.3333" fill="white" transform="translate(0.333008 0.333984)"/>
</clipPath>
</defs>
</svg>
