<svg width="24" height="24" viewBox="0 0 24 24" fill="none" xmlns="http://www.w3.org/2000/svg">
<rect width="24" height="24" rx="5" fill="#2787F5"/>
<g clip-path="url(#clip0)">
<g clip-path="url(#clip1)">
<path d="M19.0714 15.2201C19.0327 15.1553 18.7933 14.635 17.6412 13.5658C16.4352 12.4461 16.5972 12.6279 18.0499 10.6918C18.9346 9.51276 19.2884 8.79271 19.1777 8.48488C19.0723 8.19146 18.4216 8.26887 18.4216 8.26887L16.2578 8.28147C16.2578 8.28147 16.0976 8.25987 15.9779 8.33097C15.8618 8.40118 15.7871 8.56319 15.7871 8.56319C15.7871 8.56319 15.4442 9.47586 14.987 10.2517C14.023 11.8889 13.6369 11.9753 13.4793 11.8736C13.113 11.6369 13.2048 10.9214 13.2048 10.4137C13.2048 8.82691 13.4451 8.16536 12.7359 7.99435C12.5001 7.93764 12.3273 7.89984 11.7251 7.89354C10.9529 7.88544 10.2985 7.89624 9.92858 8.07715C9.68196 8.19776 9.49205 8.46688 9.60816 8.48218C9.75127 8.50108 10.0753 8.56949 10.2472 8.80351C10.4695 9.10503 10.4614 9.78368 10.4614 9.78368C10.4614 9.78368 10.5892 11.6513 10.1635 11.8835C9.87098 12.0428 9.47045 11.7179 8.61088 10.2319C8.17075 9.47136 7.83773 8.62979 7.83773 8.62979C7.83773 8.62979 7.77382 8.47318 7.65951 8.38948C7.5209 8.28777 7.32649 8.25537 7.32649 8.25537L5.26894 8.26797C5.26894 8.26797 4.96022 8.27697 4.84681 8.41108C4.746 8.53079 4.83871 8.7774 4.83871 8.7774C4.83871 8.7774 6.44983 12.546 8.27336 14.446C9.94658 16.1877 11.8457 16.0733 11.8457 16.0733H12.7062C12.7062 16.0733 12.9663 16.0445 13.0986 15.9014C13.221 15.77 13.2165 15.5234 13.2165 15.5234C13.2165 15.5234 13.1994 14.3686 13.7359 14.1985C14.2642 14.0311 14.9428 15.3146 15.662 15.8087C16.2056 16.1823 16.6188 16.1003 16.6188 16.1003L18.5422 16.0733C18.5422 16.0733 19.5485 16.0112 19.0714 15.2201Z" fill="white"/>
</g>
</g>
<defs>
<clipPath id="clip0">
<rect width="14.4" height="14.4" fill="white" transform="translate(4.7998 4.79999)"/>
</clipPath>
<clipPath id="clip1">
<rect width="14.4" height="14.4" fill="white" transform="translate(4.7998 4.79999)"/>
</clipPath>
</defs>
</svg>
