<svg width="24" height="24" viewBox="0 0 24 24" fill="none" xmlns="http://www.w3.org/2000/svg">
<rect width="24" height="24" rx="5" fill="#2D88FF"/>
<path d="M14.9994 6.0025L13.4432 6C11.695 6 10.5652 7.15914 10.5652 8.95322V10.3148H9.00055C8.86534 10.3148 8.75586 10.4245 8.75586 10.5597V12.5325C8.75586 12.6677 8.86547 12.7772 9.00055 12.7772H10.5652V17.7553C10.5652 17.8905 10.6747 18 10.8099 18H12.8512C12.9864 18 13.0959 17.8904 13.0959 17.7553V12.7772H14.9253C15.0605 12.7772 15.17 12.6677 15.17 12.5325L15.1708 10.5597C15.1708 10.4947 15.1449 10.4326 15.0991 10.3866C15.0533 10.3407 14.9909 10.3148 14.926 10.3148H13.0959V9.16058C13.0959 8.60579 13.2281 8.32415 13.9508 8.32415L14.9991 8.32377C15.1342 8.32377 15.2437 8.21416 15.2437 8.07909V6.24718C15.2437 6.11223 15.1343 6.00275 14.9994 6.0025Z" fill="white"/>
</svg>
