<svg width="24" height="24" viewBox="0 0 24 24" fill="none" xmlns="http://www.w3.org/2000/svg">
<rect width="24" height="24" rx="5" fill="#1DA1F2"/>
<g clip-path="url(#clip0)">
<path fill-rule="evenodd" clip-rule="evenodd" d="M18.5989 7.87048C18.1123 8.08518 17.5904 8.23095 17.0428 8.29595C17.6022 7.96109 18.0316 7.42925 18.2325 6.79695C17.7085 7.10818 17.1294 7.33273 16.5129 7.45486C16.0185 6.92893 15.3153 6.59998 14.5352 6.59998C13.0402 6.59998 11.8268 7.81335 11.8268 9.30841C11.8268 9.52115 11.8504 9.72797 11.8977 9.92495C9.64627 9.81267 7.65089 8.73324 6.31539 7.09439C6.08296 7.49425 5.94901 7.95912 5.94901 8.4555C5.94901 9.39508 6.42767 10.2244 7.15451 10.7089C6.71131 10.6951 6.29372 10.573 5.92735 10.3701C5.92735 10.3819 5.92735 10.3918 5.92735 10.4036C5.92735 11.7155 6.86102 12.8107 8.1 13.0589C7.87348 13.1199 7.63317 13.1534 7.38695 13.1534C7.21164 13.1534 7.04224 13.1357 6.87678 13.1042C7.22148 14.1797 8.22213 14.9636 9.40596 14.9853C8.4782 15.7121 7.31209 16.1455 6.04159 16.1455C5.82295 16.1455 5.60824 16.1317 5.39551 16.1081C6.59313 16.8763 8.01727 17.3254 9.54778 17.3254C14.5293 17.3254 17.2535 13.1987 17.2535 9.61963C17.2535 9.50145 17.2516 9.38523 17.2456 9.26901C17.7755 8.88688 18.2345 8.41019 18.5969 7.86654L18.5989 7.87048Z" fill="white"/>
</g>
<defs>
<clipPath id="clip0">
<rect width="13.2" height="10.7274" fill="white" transform="translate(5.3999 6.59998)"/>
</clipPath>
</defs>
</svg>
