<svg width="24" height="24" viewBox="0 0 24 24" fill="none" xmlns="http://www.w3.org/2000/svg">
<rect width="24" height="24" rx="5" fill="#EE8208"/>
<path d="M7.92134 12.484C7.5842 13.1467 7.96699 13.4635 8.84036 14.0047C9.58284 14.4633 10.6086 14.6311 11.2674 14.6982C10.9974 14.9578 12.2349 13.7676 8.67097 17.1957C7.91529 17.92 9.13186 19.0821 9.88699 18.3732L11.9313 16.4015C12.7139 17.1544 13.4641 17.876 13.9756 18.3759C14.7313 19.0876 15.9473 17.9354 15.1998 17.1984C15.1437 17.1451 12.4296 14.5414 12.5951 14.7009C13.2622 14.6338 14.2726 14.4562 15.0062 14.0074L15.0057 14.0069C15.8791 13.4629 16.2619 13.1467 15.9297 12.484C15.7289 12.1078 15.1877 11.7932 14.4673 12.3371C14.4673 12.3371 13.4943 13.0823 11.9252 13.0823C10.3556 13.0823 9.3832 12.3371 9.3832 12.3371C8.66327 11.7904 8.11988 12.1078 7.92134 12.484Z" fill="white"/>
<path d="M11.9241 12.0779C13.8369 12.0779 15.3989 10.583 15.3989 8.74277C15.3989 6.89482 13.8369 5.39996 11.9241 5.39996C10.0107 5.39996 8.44873 6.89482 8.44873 8.74277C8.44873 10.583 10.0107 12.0779 11.9241 12.0779ZM11.9241 7.09337C12.864 7.09337 13.6307 7.8309 13.6307 8.74277C13.6307 9.64695 12.864 10.3845 11.9241 10.3845C10.9842 10.3845 10.2175 9.64695 10.2175 8.74277C10.2169 7.83035 10.9836 7.09337 11.9241 7.09337Z" fill="white"/>
</svg>
