<svg width="24" height="24" viewBox="0 0 24 24" fill="none" xmlns="http://www.w3.org/2000/svg">
<rect width="24" height="24" rx="5" fill="#DD4F43"/>
<g clip-path="url(#clip0)">
<path d="M9.46855 9.04688C10.4436 9.04688 11.3256 9.54719 11.8311 10.2366L13.0291 9.02996C12.3126 8.09821 10.9335 7.35938 9.46855 7.35938C6.90358 7.35938 4.7998 9.43502 4.7998 12C4.7998 14.565 6.90358 16.6406 9.46855 16.6406C11.5948 16.6406 13.3835 15.2147 13.932 13.2656C14.0501 12.8606 14.1092 12.4387 14.1092 12V11.5781H9.89043V13.2653H12.1264C11.6623 14.261 10.6413 14.9531 9.46855 14.9531C7.84016 14.9531 6.4873 13.6284 6.4873 12C6.4873 10.3716 7.84016 9.04688 9.46855 9.04688Z" fill="white"/>
<path d="M17.9062 9.89062H16.2188V11.1562H14.9531V12.8438H16.2188V14.1094H17.9062V12.8438H19.2V11.1562H17.9062V9.89062Z" fill="white"/>
</g>
<defs>
<clipPath id="clip0">
<rect width="14.4" height="14.4" fill="white" transform="translate(4.7998 4.79999)"/>
</clipPath>
</defs>
</svg>
