<svg width="24" height="24" viewBox="0 0 24 24" fill="none" xmlns="http://www.w3.org/2000/svg">
<rect width="24" height="24" rx="5" fill="#EFF2F6"/>
<rect width="24" height="24" rx="5" fill="url(#paint0_linear)"/>
<path d="M14.9571 5.39996H9.04255C7.03399 5.39996 5.3999 7.03413 5.3999 9.04269V14.9572C5.3999 16.9659 7.03399 18.6 9.04255 18.6H14.9571C16.9658 18.6 18.5999 16.9658 18.5999 14.9572V9.04269C18.6 7.03413 16.9658 5.39996 14.9571 5.39996ZM17.4288 14.9572C17.4288 16.3201 16.32 17.4288 14.9572 17.4288H9.04255C7.67978 17.4289 6.57107 16.3201 6.57107 14.9572V9.04269C6.57107 7.67991 7.67978 6.57113 9.04255 6.57113H14.9571C16.32 6.57113 17.4287 7.67991 17.4287 9.04269L17.4288 14.9572Z" fill="white"/>
<path d="M11.9995 8.59961C10.1239 8.59961 8.59814 10.1254 8.59814 12.0009C8.59814 13.8763 10.1239 15.4021 11.9995 15.4021C13.875 15.4021 15.4008 13.8763 15.4008 12.0009C15.4008 10.1254 13.875 8.59961 11.9995 8.59961ZM11.9995 14.2308C10.7698 14.2308 9.76931 13.2305 9.76931 12.0008C9.76931 10.7711 10.7697 9.7707 11.9995 9.7707C13.2292 9.7707 14.2296 10.7711 14.2296 12.0008C14.2296 13.2305 13.2291 14.2308 11.9995 14.2308Z" fill="white"/>
<path d="M15.5439 7.60431C15.3183 7.60431 15.0966 7.69566 14.9372 7.85572C14.7771 8.015 14.6851 8.23674 14.6851 8.46317C14.6851 8.68889 14.7772 8.91055 14.9372 9.07061C15.0965 9.22989 15.3183 9.32202 15.5439 9.32202C15.7703 9.32202 15.9913 9.22989 16.1514 9.07061C16.3114 8.91055 16.4028 8.68881 16.4028 8.46317C16.4028 8.23674 16.3114 8.015 16.1514 7.85572C15.9921 7.69566 15.7703 7.60431 15.5439 7.60431Z" fill="white"/>
<defs>
<linearGradient id="paint0_linear" x1="12" y1="0" x2="12" y2="24" gradientUnits="userSpaceOnUse">
<stop stop-color="#D82C7C"/>
<stop offset="0.5" stop-color="#E64D5A"/>
<stop offset="1" stop-color="#FAA869"/>
</linearGradient>
</defs>
</svg>
