<svg width="28" height="28" viewBox="0 0 28 28" fill="none" xmlns="http://www.w3.org/2000/svg">
<path d="M24.9245 18.8471L19.0651 16.0982C19.6469 15.3882 20.0758 14.563 20.3186 13.6773C21.4348 13.4269 22.2715 12.4283 22.2715 11.2377C22.2715 10.1314 21.5491 9.19023 20.551 8.86211V6.55102C20.551 2.93891 17.6121 0 14 0C10.3879 0 7.44898 2.93891 7.44898 6.55102V8.86211C6.45094 9.19023 5.72852 10.1314 5.72852 11.2377C5.72852 12.4283 6.56523 13.4269 7.68141 13.6773C7.92411 14.563 8.35308 15.3882 8.9349 16.0982L3.07552 18.8471C1.20723 19.7236 0 21.6234 0 23.6871V28H28V23.6871C28 21.6234 26.7928 19.7236 24.9245 18.8471ZM9.08961 6.55102C9.08961 3.84344 11.2924 1.64062 14 1.64062C16.7076 1.64062 18.9104 3.84344 18.9104 6.55102V8.03578C16.9291 7.29094 16.1153 5.94125 16.0792 5.87945L15.4842 4.80156L14.7197 5.78047C14.7027 5.80234 13.0905 7.81375 9.08961 8.70078V6.55102ZM7.36914 11.2377C7.36914 10.7636 7.75469 10.378 8.22883 10.378H9.08961C12.3463 9.72563 14.3199 8.37156 15.2862 7.525C15.9299 8.23539 17.0931 9.22359 18.9104 9.765V10.378H19.7712C20.2453 10.378 20.6309 10.7636 20.6309 11.2377C20.6309 11.7119 20.2453 12.0974 19.7712 12.0974H18.9558L18.8393 12.7794C18.4362 15.1419 16.4008 16.8563 14 16.8563C11.5992 16.8563 9.56375 15.1419 9.1607 12.7794L9.04422 12.0974H8.22883C7.75469 12.0974 7.36914 11.7119 7.36914 11.2377ZM16.0617 18.1636L14 21.3289L11.9384 18.1636C12.5985 18.3824 13.2943 18.497 14 18.497C14.7057 18.497 15.4015 18.3824 16.0617 18.1636ZM7.34634 26.3594C6.74324 26.3594 6.25259 25.8687 6.25259 25.2656C6.25259 24.6625 6.74324 24.1719 7.34634 24.1719C7.94943 24.1719 8.44009 24.6625 8.44009 25.2656C8.44009 25.8687 7.94943 26.3594 7.34634 26.3594ZM1.64062 23.6871C1.64062 22.2567 2.47734 20.94 3.77234 20.3324L6.52608 19.0405V22.6571C5.41789 23.0064 4.61202 24.0436 4.61202 25.2656C4.61202 25.6544 4.6941 26.0242 4.84099 26.3594H1.64062V23.6871ZM9.85173 26.3594C9.99862 26.0242 10.0807 25.6544 10.0807 25.2656C10.0807 24.0436 9.27484 23.0064 8.16665 22.6571V18.2709L9.60941 17.594L14 24.3351L18.3906 17.594L19.7239 18.2195V21.5192C18.4062 21.8326 17.4229 23.0187 17.4229 24.431V26.3594H9.85173ZM19.0636 26.3594V24.431C19.0636 23.685 19.6704 23.0781 20.4164 23.0781H20.672C21.418 23.0781 22.025 23.685 22.025 24.431V26.3594H19.0636ZM26.3594 26.3594H23.6656V24.431C23.6656 23.0188 22.6823 21.8326 21.3645 21.5192V18.9891L24.2277 20.3323C25.5227 20.94 26.3594 22.2567 26.3594 23.6871V26.3594Z" fill="black"/>
<path d="M24.9245 18.8471L19.0651 16.0982C19.6469 15.3882 20.0758 14.563 20.3186 13.6773C21.4348 13.4269 22.2715 12.4283 22.2715 11.2377C22.2715 10.1314 21.5491 9.19023 20.551 8.86211V6.55102C20.551 2.93891 17.6121 0 14 0C10.3879 0 7.44898 2.93891 7.44898 6.55102V8.86211C6.45094 9.19023 5.72852 10.1314 5.72852 11.2377C5.72852 12.4283 6.56523 13.4269 7.68141 13.6773C7.92411 14.563 8.35308 15.3882 8.9349 16.0982L3.07552 18.8471C1.20723 19.7236 0 21.6234 0 23.6871V28H28V23.6871C28 21.6234 26.7928 19.7236 24.9245 18.8471ZM9.08961 6.55102C9.08961 3.84344 11.2924 1.64062 14 1.64062C16.7076 1.64062 18.9104 3.84344 18.9104 6.55102V8.03578C16.9291 7.29094 16.1153 5.94125 16.0792 5.87945L15.4842 4.80156L14.7197 5.78047C14.7027 5.80234 13.0905 7.81375 9.08961 8.70078V6.55102ZM7.36914 11.2377C7.36914 10.7636 7.75469 10.378 8.22883 10.378H9.08961C12.3463 9.72563 14.3199 8.37156 15.2862 7.525C15.9299 8.23539 17.0931 9.22359 18.9104 9.765V10.378H19.7712C20.2453 10.378 20.6309 10.7636 20.6309 11.2377C20.6309 11.7119 20.2453 12.0974 19.7712 12.0974H18.9558L18.8393 12.7794C18.4362 15.1419 16.4008 16.8563 14 16.8563C11.5992 16.8563 9.56375 15.1419 9.1607 12.7794L9.04422 12.0974H8.22883C7.75469 12.0974 7.36914 11.7119 7.36914 11.2377ZM16.0617 18.1636L14 21.3289L11.9384 18.1636C12.5985 18.3824 13.2943 18.497 14 18.497C14.7057 18.497 15.4015 18.3824 16.0617 18.1636ZM7.34634 26.3594C6.74324 26.3594 6.25259 25.8687 6.25259 25.2656C6.25259 24.6625 6.74324 24.1719 7.34634 24.1719C7.94943 24.1719 8.44009 24.6625 8.44009 25.2656C8.44009 25.8687 7.94943 26.3594 7.34634 26.3594ZM1.64062 23.6871C1.64062 22.2567 2.47734 20.94 3.77234 20.3324L6.52608 19.0405V22.6571C5.41789 23.0064 4.61202 24.0436 4.61202 25.2656C4.61202 25.6544 4.6941 26.0242 4.84099 26.3594H1.64062V23.6871ZM9.85173 26.3594C9.99862 26.0242 10.0807 25.6544 10.0807 25.2656C10.0807 24.0436 9.27484 23.0064 8.16665 22.6571V18.2709L9.60941 17.594L14 24.3351L18.3906 17.594L19.7239 18.2195V21.5192C18.4062 21.8326 17.4229 23.0187 17.4229 24.431V26.3594H9.85173ZM19.0636 26.3594V24.431C19.0636 23.685 19.6704 23.0781 20.4164 23.0781H20.672C21.418 23.0781 22.025 23.685 22.025 24.431V26.3594H19.0636ZM26.3594 26.3594H23.6656V24.431C23.6656 23.0188 22.6823 21.8326 21.3645 21.5192V18.9891L24.2277 20.3323C25.5227 20.94 26.3594 22.2567 26.3594 23.6871V26.3594Z" fill="url(#paint0_linear)"/>
<defs>
<linearGradient id="paint0_linear" x1="0.0836281" y1="28.4318" x2="29.3922" y2="26.89" gradientUnits="userSpaceOnUse">
<stop stop-color="#2AED80"/>
<stop offset="1" stop-color="#10B7F5"/>
</linearGradient>
</defs>
</svg>
