<svg width="30" height="30" viewBox="0 0 30 30" fill="none" xmlns="http://www.w3.org/2000/svg">
<circle cx="15" cy="15" r="15" fill="#2D88FF"/>
<g clip-path="url(#clip0)">
<path d="M17.9997 8.6694L16.2707 8.66663C14.3282 8.66663 13.0728 9.95456 13.0728 11.948V13.4609H11.3344C11.1841 13.4609 11.0625 13.5827 11.0625 13.7329V15.925C11.0625 16.0752 11.1843 16.1968 11.3344 16.1968H13.0728V21.7281C13.0728 21.8783 13.1945 22 13.3447 22H15.6129C15.7631 22 15.8848 21.8782 15.8848 21.7281V16.1968H17.9175C18.0677 16.1968 18.1893 16.0752 18.1893 15.925L18.1902 13.7329C18.1902 13.6608 18.1615 13.5917 18.1106 13.5407C18.0596 13.4896 17.9903 13.4609 17.9182 13.4609H15.8848V12.1784C15.8848 11.5619 16.0317 11.249 16.8347 11.249L17.9994 11.2486C18.1495 11.2486 18.2712 11.1268 18.2712 10.9767V8.94127C18.2712 8.79133 18.1497 8.66968 17.9997 8.6694Z" fill="white"/>
</g>
<defs>
<clipPath id="clip0">
<rect width="13.3335" height="13.3333" fill="white" transform="translate(8 8.66663)"/>
</clipPath>
</defs>
</svg>
