<svg width="30" height="30" viewBox="0 0 30 30" fill="none" xmlns="http://www.w3.org/2000/svg">
<circle cx="15" cy="15" r="15" fill="#D93383"/>
<g clip-path="url(#clip0)">
<path d="M18.3207 8.66663H12.3464C10.3176 8.66663 8.66699 10.3173 8.66699 12.3461V18.3204C8.66699 20.3493 10.3176 21.9999 12.3464 21.9999H18.3207C20.3497 21.9999 22.0002 20.3492 22.0002 18.3204V12.3461C22.0003 10.3173 20.3497 8.66663 18.3207 8.66663ZM20.8173 18.3204C20.8173 19.697 19.6974 20.8169 18.3207 20.8169H12.3464C10.9699 20.817 9.84998 19.697 9.84998 18.3204V12.3461C9.84998 10.9696 10.9699 9.84962 12.3464 9.84962H18.3207C19.6973 9.84962 20.8173 10.9696 20.8173 12.3461V18.3204H20.8173Z" fill="white"/>
<path d="M15.3331 11.8978C13.4387 11.8978 11.8975 13.439 11.8975 15.3335C11.8975 17.2278 13.4387 18.769 15.3331 18.769C17.2275 18.769 18.7687 17.2278 18.7687 15.3335C18.7687 13.439 17.2275 11.8978 15.3331 11.8978ZM15.3331 17.5859C14.091 17.5859 13.0805 16.5755 13.0805 15.3334C13.0805 14.0912 14.091 13.0807 15.3331 13.0807C16.5752 13.0807 17.5858 14.0912 17.5858 15.3334C17.5858 16.5755 16.5752 17.5859 15.3331 17.5859Z" fill="white"/>
<path d="M18.9134 10.8947C18.6855 10.8947 18.4616 10.9869 18.3006 11.1486C18.1389 11.3095 18.0459 11.5335 18.0459 11.7622C18.0459 11.9902 18.139 12.2141 18.3006 12.3758C18.4615 12.5366 18.6855 12.6297 18.9134 12.6297C19.1421 12.6297 19.3653 12.5366 19.527 12.3758C19.6887 12.2141 19.7809 11.9901 19.7809 11.7622C19.7809 11.5335 19.6887 11.3095 19.527 11.1486C19.3661 10.9869 19.1421 10.8947 18.9134 10.8947Z" fill="white"/>
</g>
<defs>
<clipPath id="clip0">
<rect width="13.3333" height="13.3333" fill="white" transform="translate(8.66699 8.66663)"/>
</clipPath>
</defs>
</svg>
