<svg width="170" height="19" viewBox="0 0 170 19" fill="none" xmlns="http://www.w3.org/2000/svg">
<path d="M0 18.0981H3.83822V6.55801L8.79485 14.0819H8.89653L13.904 6.48176V18.0981H17.7931V0.305023H13.5736L8.89653 7.82894L4.2195 0.305023H0V18.0981Z" fill="#262728"/>
<path d="M23.7148 18.0981H37.2629V14.6157H27.6038V10.8792H35.992V7.39683H27.6038V3.78738H37.1358V0.305023H23.7148V18.0981Z" fill="#262728"/>
<path d="M42.3905 18.0981H49.3297C54.9218 18.0981 58.7855 14.209 58.7855 9.20155C58.7855 4.14324 54.9218 0.305023 49.3297 0.305023H42.3905V18.0981ZM46.3049 14.5649V3.83822H49.3297C52.5325 3.83822 54.6931 6.04964 54.6931 9.20155C54.6931 12.4043 52.5325 14.5649 49.3297 14.5649H46.3049Z" fill="#262728"/>
<path d="M64.0987 18.0981H68.0132V0.305023H64.0987V18.0981Z" fill="#262728"/>
<path d="M82.4444 18.4031C85.8759 18.4031 87.9094 17.3355 89.7395 15.3783L87.2485 12.7093C85.8505 13.9803 84.605 14.7937 82.5715 14.7937C79.5212 14.7937 77.4115 12.2518 77.4115 9.20155C77.4115 6.10048 79.5721 3.60945 82.5715 3.60945C84.605 3.60945 85.7742 4.34659 87.1468 5.5921L89.4853 2.89773C87.8331 1.27093 85.9522 0 82.5969 0C77.1319 0 73.3191 4.14324 73.3191 9.20155C73.3191 14.3615 77.2081 18.4031 82.4444 18.4031Z" fill="#262728"/>
<path d="M100.868 18.3523C102.8 18.3523 104.401 17.7931 105.494 16.7001C106.562 15.6325 107.172 14.0565 107.172 11.9468V0.305023H103.155V11.7688C103.155 13.8277 102.24 14.7174 100.766 14.7174C99.5206 14.7174 98.5292 14.0565 97.5125 12.9381L95.0469 15.6833C96.267 17.1322 98.0971 18.3523 100.868 18.3523Z" fill="url(#paint0_linear)"/>
<path d="M121.463 18.4031C126.954 18.4031 130.945 14.2599 130.945 9.20155C130.945 4.0924 127.005 0 121.514 0C116.024 0 112.033 4.14324 112.033 9.20155C112.033 14.3107 115.973 18.4031 121.463 18.4031ZM121.514 14.7937C118.362 14.7937 116.125 12.2518 116.125 9.20155C116.125 6.10048 118.311 3.60945 121.463 3.60945C124.615 3.60945 126.852 6.15131 126.852 9.20155C126.852 12.3026 124.666 14.7937 121.514 14.7937Z" fill="url(#paint1_linear)"/>
<path d="M136.064 18.0981H144.529C148.545 18.0981 151.188 16.4713 151.188 13.2177C151.188 10.7775 149.917 9.58283 147.858 8.79485C149.129 8.08313 150.197 6.96471 150.197 4.95664C150.197 3.6857 149.79 2.69438 148.977 1.88098C147.96 0.864234 146.359 0.305023 144.325 0.305023H136.064V9.20155V18.0981ZM139.877 7.4985V3.73654H143.741C145.393 3.73654 146.308 4.39743 146.308 5.56668C146.308 6.93929 145.215 7.4985 143.486 7.4985H139.877ZM139.877 14.6666V10.7521H144.401C146.41 10.7521 147.299 11.4892 147.299 12.6839C147.299 14.0565 146.257 14.6666 144.529 14.6666H139.877Z" fill="url(#paint2_linear)"/>
<path d="M163.467 18.3523C167.306 18.3523 170 16.3696 170 12.8364C170 9.68451 167.967 8.38815 164.357 7.44766C161.281 6.65969 160.519 6.27841 160.519 5.10915C160.519 4.19408 161.307 3.50777 162.807 3.50777C164.306 3.50777 165.857 4.16866 167.433 5.26166L169.466 2.3131C167.662 0.864233 165.45 0.0508366 162.857 0.0508366C159.223 0.0508366 156.63 2.186 156.63 5.41417C156.63 8.9982 158.943 9.98953 162.527 10.9046C165.501 11.6672 166.111 12.1755 166.111 13.1669C166.111 14.2599 165.145 14.8953 163.544 14.8953C161.51 14.8953 159.833 14.0565 158.231 12.7347L155.918 15.5054C158.053 17.4118 160.773 18.3523 163.467 18.3523Z" fill="url(#paint3_linear)"/>
<defs>
<linearGradient id="paint0_linear" x1="95.2869" y1="18.6869" x2="175.414" y2="0.279275" gradientUnits="userSpaceOnUse">
<stop stop-color="#2AED80"/>
<stop offset="1" stop-color="#10B7F5"/>
</linearGradient>
<linearGradient id="paint1_linear" x1="95.2869" y1="18.6869" x2="175.414" y2="0.279275" gradientUnits="userSpaceOnUse">
<stop stop-color="#2AED80"/>
<stop offset="1" stop-color="#10B7F5"/>
</linearGradient>
<linearGradient id="paint2_linear" x1="95.2869" y1="18.6869" x2="175.414" y2="0.279275" gradientUnits="userSpaceOnUse">
<stop stop-color="#2AED80"/>
<stop offset="1" stop-color="#10B7F5"/>
</linearGradient>
<linearGradient id="paint3_linear" x1="95.2869" y1="18.6869" x2="175.414" y2="0.279275" gradientUnits="userSpaceOnUse">
<stop stop-color="#2AED80"/>
<stop offset="1" stop-color="#10B7F5"/>
</linearGradient>
</defs>
</svg>
