<svg width="218" height="22" viewBox="0 0 218 22" fill="none" xmlns="http://www.w3.org/2000/svg">
<path d="M0 21.4334H4.54557V7.76661L10.4157 16.6771H10.5361L16.4664 7.6763V21.4334H21.0722V0.361237H16.0751L10.5361 9.27177L4.99712 0.361237H0V21.4334Z" fill="#262728"/>
<path d="M30.6499 21.4334H46.6949V17.3093H35.2557V12.8841H45.1898V8.76001H35.2557V4.48537H46.5444V0.361237H30.6499V21.4334Z" fill="#262728"/>
<path d="M55.3322 21.4334H63.5503C70.173 21.4334 74.7487 16.8277 74.7487 10.8973C74.7487 4.90681 70.173 0.361237 63.5503 0.361237H55.3322V21.4334ZM59.968 17.2491V4.54557H63.5503C67.3433 4.54557 69.9021 7.16455 69.9021 10.8973C69.9021 14.6903 67.3433 17.2491 63.5503 17.2491H59.968Z" fill="#262728"/>
<path d="M83.6058 21.4334H88.2417V0.361237H83.6058V21.4334Z" fill="#262728"/>
<path d="M107.897 21.7947C111.961 21.7947 114.369 20.5303 116.537 18.2124L113.587 15.0516C111.931 16.5567 110.456 17.52 108.048 17.52C104.435 17.52 101.937 14.5097 101.937 10.8973C101.937 7.22475 104.496 4.27464 108.048 4.27464C110.456 4.27464 111.841 5.14764 113.466 6.62269L116.236 3.43176C114.279 1.50516 112.051 0 108.078 0C101.606 0 97.0901 4.90681 97.0901 10.8973C97.0901 17.0083 101.696 21.7947 107.897 21.7947Z" fill="#262728"/>
<path d="M129.716 21.7345C132.004 21.7345 133.9 21.0722 135.195 19.7778C136.459 18.5134 137.181 16.647 137.181 14.1485V0.361237H132.425V13.9378C132.425 16.3761 131.341 17.4297 129.595 17.4297C128.12 17.4297 126.946 16.647 125.742 15.3225L122.822 18.5736C124.267 20.2895 126.435 21.7345 129.716 21.7345Z" fill="url(#paint0_linear)"/>
<path d="M156.672 21.7947C163.174 21.7947 167.9 16.8879 167.9 10.8973C167.9 4.84661 163.234 0 156.732 0C150.23 0 145.504 4.90681 145.504 10.8973C145.504 16.9481 150.17 21.7947 156.672 21.7947ZM156.732 17.52C152.999 17.52 150.35 14.5097 150.35 10.8973C150.35 7.22475 152.939 4.27464 156.672 4.27464C160.405 4.27464 163.054 7.28496 163.054 10.8973C163.054 14.5699 160.465 17.52 156.732 17.52Z" fill="url(#paint1_linear)"/>
<path d="M176.528 21.4334H186.552C191.309 21.4334 194.44 19.5068 194.44 15.6536C194.44 12.7637 192.934 11.3489 190.496 10.4157C192.001 9.5728 193.265 8.24826 193.265 5.87011C193.265 4.36495 192.784 3.19093 191.821 2.22763C190.616 1.02351 188.72 0.361237 186.312 0.361237H176.528V21.4334ZM181.044 8.88043V4.42516H185.619C187.576 4.42516 188.66 5.20784 188.66 6.59259C188.66 8.21816 187.365 8.88043 185.318 8.88043H181.044ZM181.044 17.3695V12.7336H186.402C188.78 12.7336 189.834 13.6066 189.834 15.0215C189.834 16.647 188.6 17.3695 186.552 17.3695H181.044Z" fill="url(#paint2_linear)"/>
<path d="M210.264 21.7345C214.81 21.7345 218.001 19.3864 218.001 15.2021C218.001 11.4693 215.592 9.93404 211.318 8.82022C207.675 7.88702 206.772 7.43547 206.772 6.05073C206.772 4.96702 207.705 4.15423 209.481 4.15423C211.258 4.15423 213.094 4.93691 214.96 6.23135L217.368 2.73938C215.231 1.02351 212.612 0.0602055 209.542 0.0602055C205.237 0.0602055 202.166 2.58887 202.166 6.41197C202.166 10.6565 204.906 11.8305 209.15 12.9142C212.672 13.8173 213.395 14.4194 213.395 15.5934C213.395 16.8879 212.251 17.6404 210.354 17.6404C207.946 17.6404 205.959 16.647 204.063 15.0817L201.323 18.3629C203.852 20.6206 207.073 21.7345 210.264 21.7345Z" fill="url(#paint3_linear)"/>
<defs>
<linearGradient id="paint0_linear" x1="123.107" y1="22.1307" x2="218.001" y2="0.33074" gradientUnits="userSpaceOnUse">
<stop stop-color="#2AED80"/>
<stop offset="1" stop-color="#10B7F5"/>
</linearGradient>
<linearGradient id="paint1_linear" x1="123.107" y1="22.1307" x2="218.001" y2="0.33074" gradientUnits="userSpaceOnUse">
<stop stop-color="#2AED80"/>
<stop offset="1" stop-color="#10B7F5"/>
</linearGradient>
<linearGradient id="paint2_linear" x1="123.107" y1="22.1307" x2="218.001" y2="0.33074" gradientUnits="userSpaceOnUse">
<stop stop-color="#2AED80"/>
<stop offset="1" stop-color="#10B7F5"/>
</linearGradient>
<linearGradient id="paint3_linear" x1="123.107" y1="22.1307" x2="218.001" y2="0.33074" gradientUnits="userSpaceOnUse">
<stop stop-color="#2AED80"/>
<stop offset="1" stop-color="#10B7F5"/>
</linearGradient>
</defs>
</svg>
