<svg width="36" height="36" viewBox="0 0 36 36" fill="none" xmlns="http://www.w3.org/2000/svg">
<circle cx="18" cy="18" r="18" fill="#EE8208"/>
<g clip-path="url(#clip0)">
<path d="M17.6036 22.2983C16.1683 22.1486 14.8742 21.7952 13.7662 20.9286C13.6288 20.8208 13.4868 20.7168 13.3614 20.5964C12.8764 20.1307 12.8276 19.5972 13.2113 19.0475C13.5396 18.5771 14.0907 18.4513 14.6634 18.7214C14.7744 18.7737 14.88 18.8391 14.9813 18.9093C17.0462 20.3281 19.8828 20.3672 21.9555 18.9731C22.1608 18.8156 22.3803 18.6872 22.6347 18.6217C23.1294 18.4947 23.5907 18.6764 23.8561 19.1092C24.1594 19.6034 24.1555 20.0859 23.7819 20.4696C23.2087 21.0579 22.5193 21.4835 21.7534 21.7806C21.0292 22.0614 20.2359 22.2027 19.4508 22.2966C19.5693 22.4255 19.6251 22.4889 19.6992 22.5634C20.7653 23.6345 21.836 24.7012 22.8986 25.7756C23.2606 26.1417 23.3363 26.5957 23.1369 27.0215C22.919 27.4869 22.4311 27.793 21.9527 27.7603C21.6497 27.7393 21.4133 27.5885 21.2033 27.3769C20.3988 26.5674 19.5791 25.7727 18.7909 24.9479C18.5615 24.708 18.4512 24.7534 18.2488 24.9616C17.4394 25.7948 16.6169 26.6153 15.7895 27.431C15.4179 27.7973 14.9758 27.8632 14.545 27.654C14.087 27.432 13.7955 26.9645 13.818 26.4946C13.8335 26.1768 13.9898 25.9341 14.208 25.7163C15.263 24.6628 16.3151 23.6066 17.3677 22.5514C17.4373 22.4812 17.5022 22.4067 17.6036 22.2983Z" fill="white"/>
<path d="M18.478 18.6291C15.9175 18.6204 13.8179 16.4977 13.8328 13.9331C13.8476 11.3402 15.9485 9.25066 18.5343 9.25783C21.1252 9.26481 23.2049 11.3844 23.1919 14.0042C23.1787 16.5636 21.0645 18.638 18.478 18.6291ZM20.8051 13.9393C20.8006 12.6659 19.7865 11.6522 18.5157 11.651C17.2341 11.6497 16.2109 12.6818 16.2208 13.9668C16.2303 15.2354 17.2531 16.2419 18.5275 16.2373C19.798 16.2328 20.8094 15.2125 20.8051 13.9393Z" fill="white"/>
</g>
<defs>
<clipPath id="clip0">
<rect width="18.5143" height="18.5143" fill="white" transform="translate(9.25781 9.25781)"/>
</clipPath>
</defs>
</svg>
