<svg width="36" height="36" viewBox="0 0 36 36" fill="none" xmlns="http://www.w3.org/2000/svg">
<circle cx="18" cy="18" r="18" fill="#03A9F4"/>
<g clip-path="url(#clip0)">
<path d="M27.7714 12.774C27.0829 13.076 26.3492 13.2762 25.5844 13.3734C26.3712 12.9036 26.9718 12.1653 27.2541 11.2755C26.5205 11.7129 25.7105 12.0219 24.8473 12.1943C24.1507 11.4525 23.1578 10.9932 22.0748 10.9932C19.9734 10.9932 18.2816 12.6988 18.2816 14.7898C18.2816 15.0906 18.3071 15.3799 18.3696 15.6553C15.2141 15.5014 12.4219 13.989 10.5461 11.6851C10.2187 12.2533 10.0266 12.9036 10.0266 13.6037C10.0266 14.9182 10.7035 16.0834 11.7125 16.758C11.1027 16.7465 10.5045 16.5694 9.99765 16.2906C9.99765 16.3021 9.99765 16.3172 9.99765 16.3322C9.99765 18.1767 11.3133 19.7088 13.0386 20.0617C12.7297 20.1462 12.3929 20.1867 12.0435 20.1867C11.8005 20.1867 11.5552 20.1728 11.3249 20.1219C11.8167 21.625 13.2122 22.7301 14.8715 22.7659C13.5802 23.7761 11.9405 24.3848 10.1654 24.3848C9.85417 24.3848 9.55562 24.3709 9.25708 24.3327C10.9384 25.417 12.931 26.036 15.0798 26.036C22.0643 26.036 25.8829 20.2503 25.8829 15.2352C25.8829 15.0675 25.8771 14.9055 25.869 14.7446C26.6223 14.21 27.2553 13.5423 27.7714 12.774Z" fill="white"/>
</g>
<defs>
<clipPath id="clip0">
<rect width="18.5143" height="18.5143" fill="white" transform="translate(9.25708 9.25781)"/>
</clipPath>
</defs>
</svg>
