<svg width="36" height="36" viewBox="0 0 36 36" fill="none" xmlns="http://www.w3.org/2000/svg">
<circle cx="18" cy="18" r="18" fill="#4A76A8"/>
<g clip-path="url(#clip0)">
<path d="M27.4075 22.8305C27.3494 22.7333 26.9903 21.953 25.2622 20.349C23.453 18.6695 23.696 18.9422 25.8751 16.0382C27.2023 14.2695 27.7328 13.1895 27.5668 12.7277C27.4088 12.2876 26.4327 12.4037 26.4327 12.4037L23.1871 12.4226C23.1871 12.4226 22.9467 12.3902 22.7672 12.4969C22.593 12.6022 22.481 12.8452 22.481 12.8452C22.481 12.8452 21.9666 14.2142 21.2807 15.378C19.8348 17.8338 19.2556 17.9634 19.0193 17.8108C18.4698 17.4558 18.6075 16.3824 18.6075 15.621C18.6075 13.2408 18.968 12.2484 17.9041 11.9919C17.5504 11.9069 17.2912 11.8502 16.388 11.8407C15.2296 11.8286 14.2481 11.8448 13.6932 12.1161C13.3232 12.297 13.0384 12.7007 13.2125 12.7237C13.4272 12.752 13.9132 12.8546 14.1711 13.2057C14.5046 13.6579 14.4924 14.6759 14.4924 14.6759C14.4924 14.6759 14.6841 17.4774 14.0455 17.8257C13.6068 18.0647 13.006 17.5773 11.7166 15.3483C11.0564 14.2074 10.5569 12.9451 10.5569 12.9451C10.5569 12.9451 10.461 12.7102 10.2896 12.5846C10.0817 12.432 9.79003 12.3834 9.79003 12.3834L6.7037 12.4023C6.7037 12.4023 6.24062 12.4158 6.07051 12.617C5.9193 12.7966 6.05836 13.1665 6.05836 13.1665C6.05836 13.1665 8.47503 18.8194 11.2103 21.6694C13.7202 24.2819 16.5689 24.1104 16.5689 24.1104H17.8596C17.8596 24.1104 18.2497 24.0672 18.4482 23.8525C18.6318 23.6554 18.6251 23.2855 18.6251 23.2855C18.6251 23.2855 18.5994 21.5533 19.4041 21.2982C20.1966 21.047 21.2146 22.9723 22.2933 23.7135C23.1088 24.2738 23.7285 24.1509 23.7285 24.1509L26.6136 24.1104C26.6136 24.1104 28.123 24.0173 27.4075 22.8305Z" fill="white"/>
</g>
<defs>
<clipPath id="clip0">
<rect width="21.6" height="21.6" fill="white" transform="translate(6 7.2002)"/>
</clipPath>
</defs>
</svg>
