<svg width="30" height="30" viewBox="0 0 30 30" fill="none" xmlns="http://www.w3.org/2000/svg">
<circle cx="15" cy="15" r="15" fill="#D93383"/>
<g clip-path="url(#clip0)">
<path d="M18.3202 8.66602H12.3459C10.3171 8.66602 8.6665 10.3167 8.6665 12.3455V18.3198C8.6665 20.3487 10.3171 21.9993 12.3459 21.9993H18.3202C20.3492 21.9993 21.9998 20.3486 21.9998 18.3198V12.3455C21.9998 10.3167 20.3492 8.66602 18.3202 8.66602ZM20.8168 18.3198C20.8168 19.6964 19.6969 20.8163 18.3203 20.8163H12.3459C10.9694 20.8164 9.84949 19.6964 9.84949 18.3198V12.3455C9.84949 10.969 10.9694 9.84901 12.3459 9.84901H18.3202C19.6968 9.84901 20.8168 10.969 20.8168 12.3455V18.3198H20.8168Z" fill="white"/>
<path d="M15.3331 11.8975C13.4387 11.8975 11.8975 13.4387 11.8975 15.3331C11.8975 17.2275 13.4387 18.7686 15.3331 18.7686C17.2275 18.7686 18.7687 17.2275 18.7687 15.3331C18.7687 13.4387 17.2275 11.8975 15.3331 11.8975ZM15.3331 17.5855C14.091 17.5855 13.0805 16.5751 13.0805 15.333C13.0805 14.0909 14.091 13.0804 15.3331 13.0804C16.5752 13.0804 17.5858 14.0909 17.5858 15.333C17.5858 16.5751 16.5752 17.5855 15.3331 17.5855Z" fill="white"/>
<path d="M18.9129 10.8945C18.685 10.8945 18.4611 10.9868 18.3001 11.1485C18.1384 11.3094 18.0454 11.5333 18.0454 11.7621C18.0454 11.9901 18.1385 12.214 18.3001 12.3756C18.461 12.5365 18.685 12.6296 18.9129 12.6296C19.1416 12.6296 19.3648 12.5365 19.5265 12.3756C19.6882 12.214 19.7805 11.99 19.7805 11.7621C19.7805 11.5333 19.6882 11.3094 19.5265 11.1485C19.3656 10.9868 19.1416 10.8945 18.9129 10.8945Z" fill="white"/>
</g>
<defs>
<clipPath id="clip0">
<rect width="13.3333" height="13.3333" fill="white" transform="translate(8.6665 8.66602)"/>
</clipPath>
</defs>
</svg>
