<svg width="30" height="30" viewBox="0 0 30 30" fill="none" xmlns="http://www.w3.org/2000/svg">
<circle cx="15" cy="15" r="15" fill="#2D88FF"/>
<g clip-path="url(#clip0)">
<path d="M17.9992 8.66879L16.2702 8.66602C14.3277 8.66602 13.0724 9.95395 13.0724 11.9474V13.4603H11.3339C11.1837 13.4603 11.062 13.5821 11.062 13.7323V15.9244C11.062 16.0746 11.1838 16.1962 11.3339 16.1962H13.0724V21.7275C13.0724 21.8777 13.194 21.9993 13.3442 21.9993H15.6124C15.7627 21.9993 15.8843 21.8776 15.8843 21.7275V16.1962H17.917C18.0672 16.1962 18.1889 16.0746 18.1889 15.9244L18.1897 13.7323C18.1897 13.6602 18.161 13.5911 18.1101 13.54C18.0592 13.489 17.9898 13.4603 17.9177 13.4603H15.8843V12.1778C15.8843 11.5613 16.0312 11.2484 16.8342 11.2484L17.999 11.248C18.149 11.248 18.2707 11.1262 18.2707 10.9761V8.94066C18.2707 8.79072 18.1492 8.66907 17.9992 8.66879Z" fill="white"/>
</g>
<defs>
<clipPath id="clip0">
<rect width="13.3335" height="13.3333" fill="white" transform="translate(8 8.66602)"/>
</clipPath>
</defs>
</svg>
