<svg width="30" height="30" viewBox="0 0 30 30" fill="none" xmlns="http://www.w3.org/2000/svg">
<circle cx="15" cy="15" r="15" fill="#2787F5"/>
<g clip-path="url(#clip0)">
<path d="M21.881 18.3139C21.8452 18.2539 21.6235 17.7722 20.5567 16.7821C19.44 15.7454 19.59 15.9137 20.9351 14.1211C21.7543 13.0293 22.0818 12.3626 21.9793 12.0776C21.8818 11.8059 21.2793 11.8776 21.2793 11.8776L19.2758 11.8893C19.2758 11.8893 19.1275 11.8692 19.0166 11.9351C18.9091 12.0001 18.8399 12.1501 18.8399 12.1501C18.8399 12.1501 18.5224 12.9952 18.099 13.7136C17.2065 15.2295 16.849 15.3095 16.7031 15.2153C16.3639 14.9961 16.4489 14.3336 16.4489 13.8636C16.4489 12.3943 16.6714 11.7817 16.0147 11.6234C15.7964 11.5709 15.6364 11.5359 15.0788 11.5301C14.3638 11.5226 13.7579 11.5326 13.4154 11.7001C13.187 11.8117 13.0112 12.0609 13.1187 12.0751C13.2512 12.0926 13.5512 12.1559 13.7104 12.3726C13.9162 12.6518 13.9087 13.2802 13.9087 13.2802C13.9087 13.2802 14.0271 15.0095 13.6329 15.2245C13.362 15.372 12.9912 15.0712 12.1953 13.6952C11.7878 12.991 11.4794 12.2118 11.4794 12.2118C11.4794 12.2118 11.4202 12.0668 11.3144 11.9893C11.186 11.8951 11.006 11.8651 11.006 11.8651L9.10089 11.8768C9.10089 11.8768 8.81503 11.8851 8.71003 12.0093C8.61669 12.1201 8.70253 12.3485 8.70253 12.3485C8.70253 12.3485 10.1943 15.8379 11.8828 17.5972C13.432 19.2098 15.1905 19.104 15.1905 19.104H15.9872C15.9872 19.104 16.2281 19.0773 16.3506 18.9448C16.4639 18.8231 16.4598 18.5947 16.4598 18.5947C16.4598 18.5947 16.4439 17.5255 16.9406 17.368C17.4298 17.213 18.0582 18.4014 18.7241 18.8589C19.2275 19.2048 19.61 19.129 19.61 19.129L21.391 19.104C21.391 19.104 22.3227 19.0465 21.881 18.3139Z" fill="white"/>
</g>
<defs>
<clipPath id="clip0">
<rect width="13.3333" height="13.3333" fill="white" transform="translate(8.6665 8.66602)"/>
</clipPath>
</defs>
</svg>
