<svg width="36" height="36" viewBox="0 0 36 36" fill="none" xmlns="http://www.w3.org/2000/svg">
<circle cx="18" cy="18" r="18" fill="#EE8208"/>
<g clip-path="url(#clip0)">
<path d="M17.6044 22.2986C16.1691 22.1489 14.875 21.7954 13.767 20.9288C13.6295 20.821 13.4876 20.7171 13.3621 20.5967C12.8771 20.1309 12.8283 19.5975 13.212 19.0478C13.5403 18.5773 14.0914 18.4515 14.6642 18.7216C14.7751 18.774 14.8808 18.8393 14.982 18.9095C17.0469 20.3283 19.8835 20.3675 21.9562 18.9733C22.1615 18.8158 22.381 18.6875 22.6354 18.6219C23.1301 18.4949 23.5914 18.6766 23.8569 19.1094C24.1601 19.6037 24.1562 20.0861 23.7826 20.4699C23.2094 21.0582 22.5201 21.4838 21.7541 21.7809C21.0299 22.0616 20.2366 22.203 19.4515 22.2968C19.57 22.4258 19.6258 22.4892 19.6999 22.5636C20.766 23.6348 21.8367 24.7015 22.8993 25.7759C23.2614 26.142 23.337 26.5959 23.1377 27.0217C22.9197 27.4871 22.4318 27.7933 21.9535 27.7605C21.6504 27.7396 21.414 27.5887 21.204 27.3772C20.3995 26.5676 19.5799 25.773 18.7917 24.9481C18.5623 24.7082 18.4519 24.7536 18.2495 24.9619C17.4401 25.7951 16.6176 26.6155 15.7902 27.4313C15.4187 27.7975 14.9766 27.8635 14.5457 27.6542C14.0877 27.4322 13.7963 26.9647 13.8188 26.4949C13.8343 26.1771 13.9906 25.9343 14.2087 25.7165C15.2637 24.6631 16.3159 23.6069 17.3684 22.5516C17.438 22.4814 17.503 22.407 17.6044 22.2986Z" fill="white"/>
<path d="M18.4793 18.629C15.9187 18.6202 13.8191 16.4976 13.8341 13.933C13.8488 11.3401 15.9498 9.25053 18.5355 9.25771C21.1265 9.26469 23.2061 11.3843 23.1931 14.0041C23.1799 16.5635 21.0658 18.6379 18.4793 18.629ZM20.8063 13.9392C20.8019 12.6658 19.7877 11.6521 18.5169 11.6509C17.2354 11.6495 16.2121 12.6817 16.222 13.9667C16.2315 15.2352 17.2544 16.2418 18.5287 16.2371C19.7992 16.2327 20.8106 15.2124 20.8063 13.9392Z" fill="white"/>
</g>
<defs>
<clipPath id="clip0">
<rect width="18.5143" height="18.5143" fill="white" transform="translate(9.25781 9.25781)"/>
</clipPath>
</defs>
</svg>
