<svg width="24" height="24" viewBox="0 0 24 24" fill="none" xmlns="http://www.w3.org/2000/svg">
<g clip-path="url(#clip0)">
<path d="M18.75 24H5.25C4.01 24 3 22.991 3 21.75V11.25C3 10.009 4.01 9 5.25 9H18.75C19.99 9 21 10.009 21 11.25V21.75C21 22.991 19.99 24 18.75 24ZM5.25 10.5C4.837 10.5 4.5 10.836 4.5 11.25V21.75C4.5 22.164 4.837 22.5 5.25 22.5H18.75C19.163 22.5 19.5 22.164 19.5 21.75V11.25C19.5 10.836 19.163 10.5 18.75 10.5H5.25Z" fill="#F15A22"/>
<path d="M17.25 10.5C16.836 10.5 16.5 10.164 16.5 9.75V6C16.5 3.519 14.481 1.5 12 1.5C9.519 1.5 7.5 3.519 7.5 6V9.75C7.5 10.164 7.164 10.5 6.75 10.5C6.336 10.5 6 10.164 6 9.75V6C6 2.691 8.691 0 12 0C15.309 0 18 2.691 18 6V9.75C18 10.164 17.664 10.5 17.25 10.5Z" fill="#F15A22"/>
<path d="M12.0002 17.0012C10.8972 17.0012 10.0002 16.1042 10.0002 15.0012C10.0002 13.8982 10.8972 13.0012 12.0002 13.0012C13.1032 13.0012 14.0002 13.8982 14.0002 15.0012C14.0002 16.1042 13.1032 17.0012 12.0002 17.0012ZM12.0002 14.5012C11.7252 14.5012 11.5002 14.7252 11.5002 15.0012C11.5002 15.2772 11.7252 15.5012 12.0002 15.5012C12.2752 15.5012 12.5002 15.2772 12.5002 15.0012C12.5002 14.7252 12.2752 14.5012 12.0002 14.5012Z" fill="#F15A22"/>
<path d="M12 20C11.586 20 11.25 19.664 11.25 19.25V16.5C11.25 16.086 11.586 15.75 12 15.75C12.414 15.75 12.75 16.086 12.75 16.5V19.25C12.75 19.664 12.414 20 12 20Z" fill="#F15A22"/>
</g>
<defs>
<clipPath id="clip0">
<rect width="24" height="24" fill="white"/>
</clipPath>
</defs>
</svg>
