<svg width="236" height="236" viewBox="0 0 236 236" fill="none" xmlns="http://www.w3.org/2000/svg">
<rect width="236" height="236" fill="#EFF2F6"/>
<rect width="236" height="236" stroke="#E5E6E9"/>
<path d="M118 116.513C133.122 116.513 145.381 101.623 145.381 83.2563C145.381 64.8889 141.356 49.999 118 49.999C94.644 49.999 90.6191 64.8889 90.6191 83.2563C90.6196 101.623 102.879 116.513 118 116.513Z" fill="white"/>
<path d="M169.657 165.95C169.151 133.953 164.972 124.836 132.995 119.064C132.995 119.064 128.492 124.8 118.001 124.8C107.509 124.8 103.008 119.064 103.008 119.064C71.3795 124.772 66.9458 133.755 66.3631 164.91C66.3157 167.454 66.2938 167.587 66.2852 167.292C66.2868 167.845 66.2893 168.869 66.2893 170.654C66.2893 170.654 73.9026 186.001 118.001 186.001C162.1 186.001 169.714 170.654 169.714 170.654C169.714 169.507 169.715 168.709 169.716 168.167C169.707 168.35 169.689 167.996 169.657 165.95Z" fill="white"/>
</svg>
