<svg width="289" height="217" viewBox="0 0 289 217" fill="none" xmlns="http://www.w3.org/2000/svg">
<path d="M132.458 75.6865C132.458 137.593 85.5922 202.353 12.0417 216.875L0.192667 191.274C26.865 181.22 50.3221 146.215 52.9352 122.083C22.9394 117.363 0 91.4129 0 60.0805C0 21.7639 31.1157 0.125 62.6046 0.125C98.9103 0.125 132.458 27.881 132.458 75.6865ZM289 75.6865C289 137.593 242.134 202.353 168.583 216.875L156.734 191.274C183.407 181.22 206.864 146.215 209.477 122.083C179.481 117.363 156.542 91.4129 156.542 60.0805C156.542 21.7639 187.657 0.125 219.146 0.125C255.452 0.125 289 27.881 289 75.6865Z" fill="white"/>
</svg>
