<svg width="559" height="370" viewBox="0 0 559 370" fill="none" xmlns="http://www.w3.org/2000/svg">
<path d="M113.493 6.58517L3.15168 188.274C1.10286 191.054 -0.0018764 194.417 2.39245e-06 197.87L46.9699 369.653H516.199L558.472 212.651C558.472 209.437 557.513 206.296 555.719 203.628L447.205 7.1582C445.725 4.95485 443.724 3.14979 441.385 1.90133C439.041 0.652876 436.43 0 433.776 0H126.523C123.987 0.000939397 121.487 0.597457 119.224 1.74117C116.961 2.88489 114.998 4.54386 113.493 6.58517Z" fill="#EFF2F6"/>
<path d="M114.63 71.1973C112.2 77.0197 110.713 83.192 110.224 89.4827H109.989L94.1512 89.1492H93.9492V88.6795C94.0056 88.2662 94.0572 87.8528 94.1089 87.4348C94.3574 85.2789 94.7623 83.1437 95.3207 81.0469C96.2371 77.6036 97.5236 74.2696 99.1582 71.1034C99.1892 71.0259 99.2455 70.9615 99.3183 70.9202C99.3907 70.8793 99.4752 70.8643 99.5574 70.8779C104.489 70.9874 109.422 71.0907 114.358 71.1879L114.63 71.1973Z" fill="white"/>
<path d="M113.277 112.229H113.019L98.3265 111.924C98.2485 111.931 98.17 111.911 98.1047 111.868C98.0399 111.824 97.992 111.759 97.9695 111.684C96.3185 108.057 95.1499 104.229 94.4937 100.298C94.1687 98.4 93.9634 96.4831 93.8784 94.5588C93.8699 94.4939 93.8573 94.4296 93.8408 94.3662V93.8965H94.0851L109.834 94.2253C110.125 94.2253 110.111 94.2253 110.125 94.5259C110.196 95.8363 110.257 97.1468 110.355 98.4526C110.52 100.527 110.81 102.59 111.224 104.629C111.716 107.126 112.377 109.587 113.202 111.994C113.249 112.06 113.249 112.135 113.277 112.229Z" fill="white"/>
<path d="M176.062 118.284C176.01 118.373 175.973 118.439 175.931 118.505C174.622 120.415 173.166 122.221 171.577 123.906C169.662 125.98 167.543 127.855 165.25 129.5C160.819 132.712 155.836 135.082 150.548 136.489C148.492 137.028 146.402 137.425 144.292 137.678L143.676 137.772H143.315L142.977 137.541L143.376 137.269C148.001 134.26 152.072 130.475 155.409 126.081C157.295 123.599 158.962 120.959 160.393 118.19C160.42 118.115 160.472 118.051 160.541 118.01C160.61 117.97 160.69 117.953 160.769 117.964L175.799 118.284H176.062Z" fill="white"/>
<path d="M161.675 90.5493L140.675 90.1124L141.06 71.7613C141.141 71.7566 141.222 71.7566 141.304 71.7613L157.457 72.0948C157.529 72.0868 157.6 72.1042 157.66 72.1451C157.719 72.1855 157.762 72.2461 157.781 72.3156C159.217 75.7984 160.263 79.4292 160.9 83.1421C161.234 85.0745 161.463 87.0233 161.586 88.9805C161.628 89.4972 161.628 90.0091 161.675 90.5493Z" fill="white"/>
<path d="M161.449 95.4477C161.421 95.8798 161.407 96.3119 161.36 96.7394C161.247 97.7586 161.153 98.7826 160.989 99.7971C160.763 101.206 160.519 102.615 160.209 103.987C159.519 107.045 158.544 110.033 157.297 112.911C157.277 112.996 157.226 113.07 157.153 113.118C157.082 113.167 156.994 113.187 156.907 113.174C151.396 113.052 145.885 112.935 140.374 112.822H140.073L140.449 95.0391L161.449 95.4477Z" fill="white"/>
<path d="M136.32 71.7678L135.935 90.1471L115.428 89.715C115.465 89.2453 115.489 88.7756 115.55 88.3435C115.672 87.3195 115.78 86.2862 115.963 85.2716C116.245 83.7169 116.546 82.1669 116.903 80.631C117.656 77.5399 118.711 74.5301 120.054 71.6457C120.079 71.5738 120.128 71.5123 120.193 71.4728C120.259 71.4334 120.336 71.4179 120.411 71.4296L136.048 71.7631L136.32 71.7678Z" fill="white"/>
<path d="M135.855 95.1518C135.73 100.916 135.607 106.677 135.489 112.432V112.695H135.211C129.838 112.582 124.468 112.471 119.101 112.362C119.021 112.37 118.942 112.349 118.876 112.303C118.811 112.258 118.764 112.19 118.744 112.113C117.559 109.104 116.689 105.981 116.146 102.794C115.874 101.155 115.677 99.5059 115.503 97.8478C115.385 96.7722 115.381 95.6778 115.329 94.5928C115.329 94.5646 115.329 94.5364 115.329 94.4801C115.409 94.4754 115.489 94.4754 115.569 94.4801L135.592 94.8934C135.794 94.8887 135.86 94.9357 135.855 95.1518Z" fill="white"/>
<path d="M183.949 91.1492L166.739 90.7875C166.521 84.4424 165.297 78.1724 163.113 72.2109H163.381L179.154 72.535C179.233 72.5275 179.312 72.5463 179.379 72.5886C179.447 72.6313 179.498 72.6952 179.525 72.7699C181.277 76.4495 182.525 80.3489 183.235 84.362C183.609 86.502 183.843 88.664 183.935 90.8345C183.959 90.9331 183.949 91.0318 183.949 91.1492Z" fill="white"/>
<path d="M183.863 95.7765C183.835 96.1945 183.816 96.5891 183.779 96.9789C183.318 102.141 181.95 107.181 179.739 111.868C179.495 112.399 179.227 112.921 178.979 113.447C178.959 113.498 178.924 113.541 178.877 113.57C178.83 113.599 178.775 113.612 178.72 113.606C173.45 113.49 168.179 113.378 162.905 113.268H162.736C162.938 112.723 163.14 112.192 163.333 111.657C164.319 108.943 165.09 106.155 165.639 103.32C166.049 101.262 166.339 99.1828 166.508 97.0917C166.55 96.622 166.593 96.1053 166.621 95.6168C166.621 95.4806 166.668 95.4195 166.809 95.4336C166.86 95.4383 166.912 95.4383 166.964 95.4336L183.863 95.7765Z" fill="#DADDDF"/>
<path d="M176.658 67.8104C176.658 67.8104 176.634 67.8527 176.62 67.8762H176.404L161.35 67.5662C161.275 67.5737 161.199 67.5558 161.135 67.5159C161.07 67.476 161.02 67.4163 160.993 67.3454C159.076 63.3041 156.641 59.5287 153.75 56.1149C152.045 54.1417 150.158 52.3334 148.114 50.7134C147.104 49.9008 146.057 49.1399 145.023 48.3649L144.85 48.2287L145.061 48.0925C145.037 47.9938 145.009 47.8952 144.972 47.7637C151.384 48.6326 157.533 50.8731 163.001 54.3324C168.468 57.7917 173.126 62.3887 176.658 67.8104Z" fill="white"/>
<path d="M132.037 137.326C131.894 137.363 131.748 137.383 131.6 137.387C129.951 137.134 128.317 136.781 126.711 136.331C120.253 134.541 114.287 131.308 109.261 126.876C107.354 125.213 105.599 123.385 104.015 121.413C102.84 119.915 101.757 118.346 100.774 116.716L100.708 116.57H100.957C105.632 116.67 110.304 116.766 114.973 116.857C115.048 116.853 115.123 116.873 115.186 116.916C115.248 116.958 115.296 117.02 115.32 117.092C116.715 120.076 118.38 122.926 120.294 125.607C122.065 128.04 124.038 130.318 126.194 132.418C127.966 134.165 129.876 135.767 131.905 137.209C131.952 137.244 131.997 137.283 132.037 137.326Z" fill="white"/>
<path d="M133.718 47.9651C133.07 48.4348 132.309 48.9374 131.562 49.4823C129.076 51.3324 126.76 53.3996 124.639 55.6588C121.768 58.6663 119.3 62.034 117.298 65.6775C117.175 65.9076 117.058 66.1472 116.922 66.3679C116.896 66.4036 116.863 66.4337 116.825 66.4562C116.787 66.4788 116.745 66.4938 116.701 66.4994C116.447 66.4994 116.189 66.4994 115.935 66.4994L102.234 66.2129C110.092 55.5977 120.482 49.332 133.568 47.627L133.474 47.8007L133.718 47.9651Z" fill="white"/>
<path d="M154.836 117.852C152.835 121.204 150.441 124.305 147.706 127.091C145.289 129.595 142.582 131.803 139.642 133.667L139.98 117.561L154.836 117.852Z" fill="white"/>
<path d="M135.362 117.448L135.028 133.244C129.187 129.05 124.417 123.536 121.106 117.152L135.362 117.448Z" fill="white"/>
<path d="M155.428 67.295L141.163 66.9991L141.478 51.9688C144.365 53.934 147.004 56.2392 149.341 58.8357C151.655 61.4383 153.695 64.273 155.428 67.295Z" fill="white"/>
<path d="M136.734 52.3203L136.424 67.0219L122.728 66.7542C126.2 60.9111 130.998 55.9666 136.734 52.3203Z" fill="white"/>
<path d="M487.824 216.952C496.382 206.76 494.715 193.303 489.285 186.422L478.571 187.361C483.146 190.71 485.203 199.747 481.723 204.219C478.242 208.69 470.126 210.794 465.753 207.164C462.32 204.346 459.849 196.328 455.42 196.788C454.837 187.286 445.852 179.099 436.336 179.409C435.18 176.988 433.494 174.859 431.404 173.182C429.309 171.506 426.867 170.324 424.251 169.725C421.639 169.127 418.924 169.128 416.308 169.728C413.696 170.328 411.249 171.512 409.159 173.19L408.689 209.071C408.689 209.071 415.035 219.343 427.383 218.028C430.634 217.68 433.405 216.943 435.58 215.088C435.89 215.482 436.27 215.813 436.702 216.065C438.398 217.041 440.582 216.825 442.339 215.942C442.559 215.825 442.78 215.698 442.992 215.567C446.519 221.034 453.795 226.022 459.666 227.361C468.219 229.296 482.193 223.664 487.824 216.952Z" fill="white"/>
<g opacity="0.2">
<path opacity="0.2" d="M454.523 200.308C454.514 200.255 454.514 200.201 454.523 200.148L454.612 199.678C454.655 199.481 454.702 199.232 454.739 198.932C454.777 198.631 454.838 198.298 454.857 197.908C455.04 195.718 454.791 193.515 454.129 191.421C453.678 189.975 453.03 188.6 452.198 187.335C451.259 185.877 450.075 184.592 448.699 183.535C445.529 181.084 441.588 179.852 437.586 180.064C437.008 180.064 436.445 180.172 435.914 180.242H435.81L435.778 180.148C434.528 176.552 432.067 173.5 428.821 171.511C428.098 171.074 427.346 170.691 426.567 170.365C425.829 170.071 425.073 169.823 424.303 169.622C422.927 169.242 421.503 169.038 420.076 169.012C418.014 168.956 415.966 169.362 414.077 170.2C413.782 170.323 413.49 170.465 413.209 170.623C412.997 170.725 412.791 170.839 412.593 170.966L412.217 171.187C412.175 171.216 412.133 171.239 412.086 171.257C412.086 171.257 412.124 171.224 412.203 171.168L412.565 170.924C412.762 170.79 412.964 170.668 413.176 170.557C413.457 170.395 413.744 170.247 414.04 170.116C415.928 169.235 417.995 168.8 420.08 168.843C421.522 168.859 422.955 169.056 424.345 169.43C425.125 169.629 425.89 169.876 426.637 170.167C427.426 170.495 428.192 170.881 428.925 171.323C432.227 173.328 434.73 176.42 436.003 180.069L435.867 179.989C438.14 179.625 440.47 179.735 442.701 180.312C444.932 180.889 447.017 181.921 448.83 183.342C450.221 184.421 451.414 185.73 452.363 187.213C453.194 188.496 453.842 189.891 454.284 191.355C454.937 193.472 455.162 195.698 454.941 197.903C454.913 198.293 454.847 198.636 454.8 198.932C454.763 199.181 454.716 199.429 454.65 199.674L454.537 200.143C454.537 200.198 454.533 200.254 454.523 200.308Z" fill="black"/>
</g>
<g opacity="0.2">
<path opacity="0.2" d="M460.507 201.457C460.46 201.457 460.399 201.048 460.121 200.447C459.957 200.098 459.755 199.769 459.516 199.465C459.224 199.095 458.886 198.762 458.51 198.474C458.13 198.194 457.721 197.961 457.284 197.779C456.927 197.635 456.552 197.532 456.171 197.473C455.518 197.37 455.1 197.422 455.096 197.375C455.19 197.335 455.288 197.313 455.387 197.309C455.655 197.277 455.927 197.277 456.195 197.309C456.594 197.347 456.989 197.437 457.364 197.577C457.825 197.755 458.261 197.995 458.661 198.291C459.051 198.593 459.398 198.945 459.699 199.338C459.938 199.663 460.131 200.016 460.281 200.39C460.384 200.641 460.455 200.902 460.493 201.17C460.516 201.349 460.525 201.452 460.507 201.457Z" fill="black"/>
</g>
<g opacity="0.2">
<path opacity="0.2" d="M458.783 213.694C458.783 213.694 458.689 213.412 458.459 212.928C458.13 212.245 457.666 211.636 457.097 211.134C456.252 210.369 455.181 209.898 454.049 209.791C452.635 209.661 451.221 210.078 450.103 210.956L449.953 211.078L449.911 210.89C449.775 210.263 449.563 209.654 449.281 209.077C448.572 207.584 447.454 206.324 446.055 205.441C444.904 204.733 443.603 204.306 442.259 204.192C441.353 204.114 440.442 204.171 439.549 204.361C438.915 204.507 438.577 204.633 438.572 204.61C438.647 204.562 438.727 204.525 438.812 204.502C439.047 204.41 439.282 204.333 439.526 204.272C440.644 203.984 441.804 203.922 442.945 204.09C444.087 204.258 445.186 204.652 446.172 205.249C447.619 206.143 448.774 207.434 449.502 208.969C449.789 209.568 450.005 210.198 450.146 210.848L449.953 210.777C451.118 209.864 452.593 209.438 454.068 209.589C455.237 209.706 456.341 210.2 457.205 210.998C457.778 211.523 458.234 212.163 458.539 212.877C458.624 213.066 458.689 213.263 458.741 213.464C458.769 213.537 458.783 213.615 458.783 213.694Z" fill="black"/>
</g>
<g opacity="0.2">
<path opacity="0.2" d="M492.658 208.363C492.639 208.488 492.606 208.611 492.564 208.73C492.489 208.969 492.39 209.321 492.23 209.768C491.765 211.02 491.188 212.228 490.502 213.375C489.473 215.077 488.247 216.653 486.852 218.072C486.035 218.905 485.166 219.69 484.255 220.42C483.283 221.216 482.268 221.954 481.211 222.633C477.505 225.041 473.419 226.8 469.121 227.832C467.825 228.145 466.5 228.341 465.166 228.419C464.697 228.419 464.326 228.419 464.077 228.419C463.95 228.419 463.823 228.409 463.696 228.387C463.823 228.376 463.95 228.376 464.077 228.387C464.326 228.387 464.692 228.387 465.157 228.34C466.482 228.224 467.797 228.003 469.084 227.677C473.339 226.604 477.393 224.837 481.075 222.445C482.123 221.768 483.137 221.034 484.105 220.247C485.011 219.513 485.875 218.73 486.693 217.898C488.083 216.503 489.309 214.956 490.352 213.286C491.047 212.154 491.643 210.966 492.141 209.735C492.315 209.293 492.423 208.946 492.517 208.716C492.555 208.595 492.602 208.477 492.658 208.363Z" fill="black"/>
</g>
<g opacity="0.2">
<path opacity="0.2" d="M482.991 199.68C483.015 199.889 483.015 200.1 482.991 200.309C482.94 200.877 482.836 201.44 482.691 201.991C482.198 203.828 481.202 205.493 479.816 206.798C478.435 208.105 476.716 209.001 474.852 209.388C474.293 209.511 473.724 209.581 473.156 209.595C472.949 209.61 472.738 209.601 472.531 209.567C473.297 209.495 474.058 209.38 474.814 209.224C476.627 208.8 478.294 207.902 479.652 206.624C481.005 205.345 481.996 203.73 482.522 201.944C482.724 201.2 482.883 200.443 482.991 199.68Z" fill="black"/>
</g>
<path d="M423.814 84.0898H170.632C169.519 84.0898 168.617 84.9921 168.617 86.1049V270.546C168.617 271.659 169.519 272.561 170.632 272.561H423.814C424.927 272.561 425.829 271.659 425.829 270.546V86.1049C425.829 84.9921 424.927 84.0898 423.814 84.0898Z" fill="#10B7F5"/>
<path opacity="0.6" d="M423.814 84.0898H170.632C169.519 84.0898 168.617 84.9921 168.617 86.1049V270.546C168.617 271.659 169.519 272.561 170.632 272.561H423.814C424.927 272.561 425.829 271.659 425.829 270.546V86.1049C425.829 84.9921 424.927 84.0898 423.814 84.0898Z" fill="white"/>
<path opacity="0.4" d="M170.21 83.7559H424.049C424.584 83.7559 425.096 83.9682 425.472 84.3463C425.853 84.7239 426.064 85.2363 426.064 85.7709V99.7162H168.204V85.7709C168.204 85.2382 168.415 84.7272 168.791 84.3495C169.167 83.9719 169.677 83.7582 170.21 83.7559Z" fill="#10B7F5"/>
<path d="M421.118 84.043H167.936C166.823 84.043 165.921 84.9448 165.921 86.058V270.499C165.921 271.612 166.823 272.514 167.936 272.514H421.118C422.231 272.514 423.133 271.612 423.133 270.499V86.058C423.133 84.9448 422.231 84.043 421.118 84.043Z" fill="#10B7F5"/>
<path opacity="0.8" d="M421.118 84.043H167.936C166.823 84.043 165.921 84.9448 165.921 86.058V270.499C165.921 271.612 166.823 272.514 167.936 272.514H421.118C422.231 272.514 423.133 271.612 423.133 270.499V86.058C423.133 84.9448 422.231 84.043 421.118 84.043Z" fill="white"/>
<path d="M420.954 272.838H168.106C166.1 272.838 165.593 272.369 165.593 270.396V86.1612C165.593 84.1932 166.1 83.7188 168.106 83.7188H420.954C422.959 83.7188 423.467 84.1885 423.467 86.1612V270.396C423.467 272.359 422.959 272.838 420.954 272.838ZM168.106 84.3669C166.462 84.3669 166.255 84.5501 166.255 86.1612V270.396C166.255 272.002 166.462 272.19 168.106 272.19H420.954C422.593 272.19 422.804 272.002 422.804 270.396V86.1612C422.804 84.5501 422.593 84.3669 420.954 84.3669H168.106Z" fill="#10B7F5"/>
<path opacity="0.6" d="M420.954 272.838H168.106C166.1 272.838 165.593 272.369 165.593 270.396V86.1612C165.593 84.1932 166.1 83.7188 168.106 83.7188H420.954C422.959 83.7188 423.467 84.1885 423.467 86.1612V270.396C423.467 272.359 422.959 272.838 420.954 272.838ZM168.106 84.3669C166.462 84.3669 166.255 84.5501 166.255 86.1612V270.396C166.255 272.002 166.462 272.19 168.106 272.19H420.954C422.593 272.19 422.804 272.002 422.804 270.396V86.1612C422.804 84.5501 422.593 84.3669 420.954 84.3669H168.106Z" fill="white"/>
<path d="M167.588 83.7559H421.428C421.963 83.7559 422.475 83.9682 422.851 84.3463C423.231 84.7239 423.443 85.2363 423.443 85.7709V99.7162H165.578V85.7709C165.578 85.2373 165.79 84.7253 166.167 84.3477C166.544 83.97 167.055 83.7573 167.588 83.7559Z" fill="#10B7F5"/>
<path d="M174.512 94.2787C175.771 94.2787 176.79 93.259 176.79 92.0007C176.79 90.7428 175.771 89.7227 174.512 89.7227C173.254 89.7227 172.234 90.7428 172.234 92.0007C172.234 93.259 173.254 94.2787 174.512 94.2787Z" fill="white"/>
<path d="M181.755 94.2787C183.013 94.2787 184.033 93.259 184.033 92.0007C184.033 90.7428 183.013 89.7227 181.755 89.7227C180.496 89.7227 179.477 90.7428 179.477 92.0007C179.477 93.259 180.496 94.2787 181.755 94.2787Z" fill="white"/>
<path d="M188.993 94.2787C190.251 94.2787 191.271 93.259 191.271 92.0007C191.271 90.7428 190.251 89.7227 188.993 89.7227C187.735 89.7227 186.715 90.7428 186.715 92.0007C186.715 93.259 187.735 94.2787 188.993 94.2787Z" fill="white"/>
<path d="M377.938 160.904H211.12C207.626 160.904 204.793 163.737 204.793 167.231V167.898C204.793 171.392 207.626 174.225 211.12 174.225H377.938C381.433 174.225 384.265 171.392 384.265 167.898V167.231C384.265 163.737 381.433 160.904 377.938 160.904Z" fill="white"/>
<path d="M377.939 160.904H364.068V174.22H377.939C379.615 174.22 381.226 173.554 382.41 172.367C383.598 171.181 384.265 169.572 384.265 167.893V167.231C384.265 165.553 383.598 163.944 382.41 162.757C381.226 161.571 379.615 160.904 377.939 160.904Z" fill="#10B7F5"/>
<path d="M369.235 171.078C369.206 171.045 369.183 171.007 369.169 170.965C369.155 170.924 369.149 170.88 369.152 170.836C369.155 170.792 369.167 170.749 369.187 170.71C369.207 170.671 369.234 170.636 369.268 170.608L371.903 168.217C371.932 168.19 371.967 168.168 372.006 168.154C372.044 168.141 372.085 168.135 372.125 168.137C372.165 168.14 372.205 168.151 372.241 168.17C372.277 168.188 372.309 168.214 372.335 168.245L372.668 168.645C372.698 168.677 372.721 168.715 372.735 168.756C372.75 168.798 372.756 168.842 372.753 168.886C372.751 168.929 372.739 168.972 372.72 169.012C372.7 169.05 372.673 169.086 372.64 169.114L369.986 171.496C369.956 171.523 369.921 171.543 369.883 171.556C369.844 171.57 369.804 171.574 369.763 171.571C369.723 171.568 369.683 171.557 369.648 171.538C369.612 171.52 369.58 171.494 369.554 171.463L369.235 171.078Z" fill="white"/>
<path d="M375.031 163.539C375.351 163.542 375.67 163.595 375.971 163.699C376.624 163.927 377.173 164.377 377.526 164.971C377.878 165.565 378.009 166.265 377.901 166.947C377.789 167.629 377.436 168.249 376.915 168.699C376.389 169.148 375.722 169.399 375.031 169.406C374.712 169.403 374.395 169.349 374.092 169.246C373.434 169.023 372.877 168.573 372.519 167.978C372.162 167.382 372.028 166.679 372.14 165.994C372.254 165.308 372.606 164.685 373.136 164.236C373.665 163.786 374.337 163.539 375.031 163.539ZM375.031 164.333C374.527 164.336 374.04 164.516 373.656 164.843C373.272 165.17 373.016 165.622 372.932 166.119C372.849 166.617 372.943 167.127 373.199 167.562C373.455 167.996 373.856 168.326 374.332 168.494C374.557 168.57 374.793 168.609 375.031 168.612C375.478 168.612 375.91 168.474 376.276 168.215C376.638 167.957 376.91 167.591 377.056 167.17C377.15 166.904 377.187 166.623 377.169 166.343C377.154 166.062 377.079 165.788 376.957 165.535C376.835 165.283 376.661 165.057 376.455 164.871C376.243 164.684 375.999 164.541 375.731 164.45C375.506 164.371 375.271 164.331 375.031 164.333Z" fill="white"/>
<path d="M214.188 168.618C214.823 168.618 215.339 168.103 215.339 167.467C215.339 166.832 214.823 166.316 214.188 166.316C213.552 166.316 213.037 166.832 213.037 167.467C213.037 168.103 213.552 168.618 214.188 168.618Z" fill="#B2B6BB"/>
<path d="M218.025 168.618C218.66 168.618 219.176 168.103 219.176 167.467C219.176 166.832 218.66 166.316 218.025 166.316C217.389 166.316 216.874 166.832 216.874 167.467C216.874 168.103 217.389 168.618 218.025 168.618Z" fill="#B2B6BB"/>
<path d="M221.858 168.618C222.493 168.618 223.009 168.103 223.009 167.467C223.009 166.832 222.493 166.316 221.858 166.316C221.222 166.316 220.707 166.832 220.707 167.467C220.707 168.103 221.222 168.618 221.858 168.618Z" fill="#B2B6BB"/>
<path d="M225.695 168.618C226.33 168.618 226.845 168.103 226.845 167.467C226.845 166.832 226.33 166.316 225.695 166.316C225.059 166.316 224.544 166.832 224.544 167.467C224.544 168.103 225.059 168.618 225.695 168.618Z" fill="#B2B6BB"/>
<path d="M229.528 168.618C230.163 168.618 230.678 168.103 230.678 167.467C230.678 166.832 230.163 166.316 229.528 166.316C228.892 166.316 228.377 166.832 228.377 167.467C228.377 168.103 228.892 168.618 229.528 168.618Z" fill="#B2B6BB"/>
<path d="M233.366 168.618C234.001 168.618 234.516 168.103 234.516 167.467C234.516 166.832 234.001 166.316 233.366 166.316C232.73 166.316 232.215 166.832 232.215 167.467C232.215 168.103 232.73 168.618 233.366 168.618Z" fill="#B2B6BB"/>
<path d="M247.489 130.744H243.233C240.722 130.744 238.687 132.78 238.687 135.291V146.47C238.687 148.981 240.722 151.016 243.233 151.016H247.489C250 151.016 252.035 148.981 252.035 146.47V135.291C252.035 132.78 250 130.744 247.489 130.744Z" fill="white"/>
<path d="M267.325 137.664H263.069C260.558 137.664 258.522 139.7 258.522 142.211V146.466C258.522 148.977 260.558 151.013 263.069 151.013H267.325C269.836 151.013 271.871 148.977 271.871 146.466V142.211C271.871 139.7 269.836 137.664 267.325 137.664Z" fill="white"/>
<path d="M287.16 137.664H282.904C280.393 137.664 278.357 139.7 278.357 142.211V146.466C278.357 148.977 280.393 151.013 282.904 151.013H287.16C289.671 151.013 291.706 148.977 291.706 146.466V142.211C291.706 139.7 289.671 137.664 287.16 137.664Z" fill="white"/>
<path d="M306.995 130.744H302.739C300.228 130.744 298.192 132.78 298.192 135.291V146.47C298.192 148.981 300.228 151.016 302.739 151.016H306.995C309.506 151.016 311.541 148.981 311.541 146.47V135.291C311.541 132.78 309.506 130.744 306.995 130.744Z" fill="white"/>
<path d="M322.58 130.744H322.575C320.064 130.744 318.028 132.78 318.028 135.291V146.47C318.028 148.981 320.064 151.016 322.575 151.016H322.58C325.091 151.016 327.126 148.981 327.126 146.47V135.291C327.126 132.78 325.091 130.744 322.58 130.744Z" fill="white"/>
<path d="M339.945 137.664H338.16C335.649 137.664 333.613 139.7 333.613 142.211V146.466C333.613 148.977 335.649 151.013 338.16 151.013H339.945C342.456 151.013 344.492 148.977 344.492 146.466V142.211C344.492 139.7 342.456 137.664 339.945 137.664Z" fill="white"/>
<path d="M356.14 191.654H232.914C232.087 191.654 231.416 192.325 231.416 193.153V216.854C231.416 217.681 232.087 218.352 232.914 218.352H356.14C356.967 218.352 357.638 217.681 357.638 216.854V193.153C357.638 192.325 356.967 191.654 356.14 191.654Z" fill="white"/>
<path d="M348.987 196.805H239.547V198.214H348.987V196.805Z" fill="#DADDDF"/>
<path d="M348.987 201.502H239.547V203.381H348.987V201.502Z" fill="#DADDDF"/>
<path d="M348.987 206.668H239.547V208.077H348.987V206.668Z" fill="#DADDDF"/>
<path d="M310.471 211.834H239.547V213.243H310.471V211.834Z" fill="#DADDDF"/>
<path d="M356.14 225.004H232.914C232.087 225.004 231.416 225.675 231.416 226.502V250.203C231.416 251.031 232.087 251.702 232.914 251.702H356.14C356.967 251.702 357.638 251.031 357.638 250.203V226.502C357.638 225.675 356.967 225.004 356.14 225.004Z" fill="white"/>
<path d="M348.987 230.152H239.547V231.561H348.987V230.152Z" fill="#DADDDF"/>
<path d="M348.987 234.85H239.547V236.728H348.987V234.85Z" fill="#DADDDF"/>
<path d="M348.987 240.018H239.547V241.427H348.987V240.018Z" fill="#DADDDF"/>
<path d="M310.471 245.182H239.547V246.591H310.471V245.182Z" fill="#DADDDF"/>
<path d="M285.863 332.461L245.821 341.921C245.676 341.954 245.524 341.929 245.397 341.851C245.27 341.773 245.18 341.648 245.145 341.503L232.933 289.789C232.915 289.717 232.912 289.644 232.924 289.571C232.935 289.498 232.961 289.429 232.999 289.366C233.038 289.304 233.088 289.25 233.148 289.207C233.207 289.164 233.275 289.133 233.346 289.117L263.346 282.029L276.314 289.591L286.281 331.784C286.315 331.93 286.29 332.082 286.212 332.209C286.134 332.336 286.008 332.426 285.863 332.461Z" fill="white"/>
<path opacity="0.2" d="M263.346 282.029L276.314 289.591L266.267 291.963C266.122 291.997 265.969 291.972 265.843 291.894C265.716 291.815 265.625 291.691 265.591 291.545L263.346 282.029Z" fill="black"/>
<path opacity="0.1" d="M243.535 335.287L285.001 325.492L286.53 331.97C286.558 332.085 286.538 332.206 286.476 332.307C286.413 332.408 286.314 332.479 286.199 332.507L245.602 342.096C245.545 342.109 245.486 342.112 245.428 342.102C245.37 342.093 245.315 342.072 245.265 342.041C245.215 342.011 245.172 341.97 245.137 341.923C245.103 341.875 245.079 341.821 245.065 341.764L243.535 335.287Z" fill="black"/>
<path d="M420.713 298.431L420.948 294.946C420.953 294.886 420.944 294.826 420.911 294.775C420.878 294.724 420.831 294.685 420.774 294.664L411.319 291.695C411.249 291.678 411.174 291.689 411.113 291.726C411.052 291.763 411.005 291.823 410.986 291.893L409.929 295.265L398.948 330.197C398.933 330.23 398.929 330.266 398.929 330.302C398.929 330.338 398.938 330.374 398.952 330.406C398.971 330.439 398.99 330.468 399.018 330.493C399.041 330.517 399.074 330.537 399.107 330.549L447.204 345.674C447.275 345.69 447.35 345.679 447.411 345.641C447.477 345.603 447.519 345.542 447.538 345.472L458.43 310.817C458.454 310.748 458.454 310.673 458.421 310.606C458.393 310.54 458.336 310.487 458.27 310.46L420.882 298.717C420.826 298.697 420.779 298.657 420.746 298.605C420.718 298.552 420.704 298.491 420.713 298.431Z" fill="#10B7F5"/>
<path opacity="0.2" d="M420.713 298.431L420.948 294.946C420.953 294.886 420.944 294.826 420.911 294.775C420.878 294.724 420.831 294.685 420.774 294.664L411.319 291.695C411.249 291.678 411.174 291.689 411.113 291.726C411.052 291.763 411.005 291.823 410.986 291.893L409.929 295.265L398.948 330.197C398.933 330.23 398.929 330.266 398.929 330.302C398.929 330.338 398.938 330.374 398.952 330.406C398.971 330.439 398.99 330.468 399.018 330.493C399.041 330.517 399.074 330.537 399.107 330.549L447.204 345.674C447.275 345.69 447.35 345.679 447.411 345.641C447.477 345.603 447.519 345.542 447.538 345.472L458.43 310.817C458.454 310.748 458.454 310.673 458.421 310.606C458.393 310.54 458.336 310.487 458.27 310.46L420.882 298.717C420.826 298.697 420.779 298.657 420.746 298.605C420.718 298.552 420.704 298.491 420.713 298.431Z" fill="black"/>
<path d="M420.713 298.431L420.948 294.946C420.953 294.886 420.944 294.826 420.911 294.775C420.878 294.724 420.831 294.685 420.774 294.664L411.319 291.695C411.249 291.678 411.174 291.689 411.113 291.726C411.052 291.763 411.005 291.823 410.986 291.893L409.929 295.265L398.948 330.197C398.933 330.23 398.929 330.266 398.929 330.302C398.929 330.338 398.938 330.374 398.952 330.406C398.971 330.439 398.99 330.468 399.018 330.493C399.041 330.517 399.074 330.537 399.107 330.549L447.204 345.674C447.275 345.69 447.35 345.679 447.411 345.641C447.477 345.603 447.519 345.542 447.538 345.472L458.43 310.817C458.454 310.748 458.454 310.673 458.421 310.606C458.393 310.54 458.336 310.487 458.27 310.46L420.882 298.717C420.826 298.697 420.779 298.657 420.746 298.605C420.718 298.552 420.704 298.491 420.713 298.431Z" fill="#F15A22"/>
<path opacity="0.2" d="M420.713 298.431L420.948 294.946C420.953 294.886 420.944 294.826 420.911 294.775C420.878 294.724 420.831 294.685 420.774 294.664L411.319 291.695C411.249 291.678 411.174 291.689 411.113 291.726C411.052 291.763 411.005 291.823 410.986 291.893L409.929 295.265L398.948 330.197C398.933 330.23 398.929 330.266 398.929 330.302C398.929 330.338 398.938 330.374 398.952 330.406C398.971 330.439 398.99 330.468 399.018 330.493C399.041 330.517 399.074 330.537 399.107 330.549L447.204 345.674C447.275 345.69 447.35 345.679 447.411 345.641C447.477 345.603 447.519 345.542 447.538 345.472L458.43 310.817C458.454 310.748 458.454 310.673 458.421 310.606C458.393 310.54 458.336 310.487 458.27 310.46L420.882 298.717C420.826 298.697 420.779 298.657 420.746 298.605C420.718 298.552 420.704 298.491 420.713 298.431Z" fill="black"/>
<path d="M404.421 315.023L434.871 336.267L462.142 297.179L439.536 281.406L426.497 283.384L404.421 315.023Z" fill="white"/>
<path opacity="0.2" d="M439.535 281.406L426.496 283.384L434.335 288.856L439.535 281.406Z" fill="black"/>
<g opacity="0.2">
<path opacity="0.2" d="M454.626 301.649L437.693 289.838L436.993 290.844L453.921 302.654L454.626 301.649Z" fill="black"/>
<path opacity="0.2" d="M452.855 304.188L435.927 292.377L435.228 293.383L452.155 305.194L452.855 304.188Z" fill="black"/>
<path opacity="0.2" d="M451.099 306.719L434.167 294.908L433.467 295.914L450.395 307.724L451.099 306.719Z" fill="black"/>
<path opacity="0.2" d="M449.323 309.255L424.518 291.951L423.818 292.957L448.623 310.26L449.323 309.255Z" fill="black"/>
<path opacity="0.2" d="M447.552 311.786L422.747 294.482L422.047 295.488L446.852 312.792L447.552 311.786Z" fill="black"/>
<path opacity="0.2" d="M445.791 314.313L420.986 297.01L420.286 298.015L445.091 315.319L445.791 314.313Z" fill="black"/>
<path opacity="0.2" d="M444.015 316.854L419.215 299.551L418.511 300.556L443.315 317.86L444.015 316.854Z" fill="black"/>
<path opacity="0.2" d="M442.259 319.386L417.455 302.082L416.75 303.088L441.555 320.391L442.259 319.386Z" fill="black"/>
<path opacity="0.2" d="M440.488 321.914L415.683 304.609L414.983 305.615L439.788 322.919L440.488 321.914Z" fill="black"/>
<path opacity="0.2" d="M438.717 324.455L413.913 307.15L413.208 308.156L438.013 325.46L438.717 324.455Z" fill="black"/>
<path opacity="0.2" d="M436.951 326.986L412.146 309.682L411.446 310.687L436.251 327.991L436.951 326.986Z" fill="black"/>
<path opacity="0.2" d="M435.18 329.52L410.376 312.217L409.676 313.222L434.481 330.526L435.18 329.52Z" fill="black"/>
</g>
<path d="M398.966 330.507L447.064 345.626C447.101 345.635 447.139 345.636 447.176 345.63C447.219 345.623 447.251 345.608 447.284 345.586C447.317 345.564 447.345 345.537 447.364 345.504C447.388 345.471 447.402 345.435 447.406 345.396L454.095 312.625C454.114 312.56 454.104 312.491 454.071 312.432C454.043 312.373 453.992 312.328 453.926 312.306L415.735 300.291C415.683 300.273 415.641 300.24 415.608 300.196C415.58 300.152 415.561 300.1 415.561 300.047L415.406 296.703C415.406 296.649 415.387 296.597 415.359 296.553C415.326 296.51 415.284 296.477 415.232 296.458L406.557 293.734C406.519 293.725 406.482 293.724 406.439 293.731C406.402 293.738 406.369 293.753 406.336 293.774C406.303 293.796 406.275 293.824 406.256 293.857C406.233 293.89 406.219 293.926 406.214 293.964L398.821 330.183C398.802 330.245 398.807 330.312 398.835 330.371C398.863 330.431 398.91 330.479 398.966 330.507Z" fill="#10B7F5"/>
<path d="M398.966 330.507L447.064 345.626C447.101 345.635 447.139 345.636 447.176 345.63C447.219 345.623 447.251 345.608 447.284 345.586C447.317 345.564 447.345 345.537 447.364 345.504C447.388 345.471 447.402 345.435 447.406 345.396L454.095 312.625C454.114 312.56 454.104 312.491 454.071 312.432C454.043 312.373 453.992 312.328 453.926 312.306L415.735 300.291C415.683 300.273 415.641 300.24 415.608 300.196C415.58 300.152 415.561 300.1 415.561 300.047L415.406 296.703C415.406 296.649 415.387 296.597 415.359 296.553C415.326 296.51 415.284 296.477 415.232 296.458L406.557 293.734C406.519 293.725 406.482 293.724 406.439 293.731C406.402 293.738 406.369 293.753 406.336 293.774C406.303 293.796 406.275 293.824 406.256 293.857C406.233 293.89 406.219 293.926 406.214 293.964L398.821 330.183C398.802 330.245 398.807 330.312 398.835 330.371C398.863 330.431 398.91 330.479 398.966 330.507Z" fill="#F15A22"/>
<path d="M203.019 140L181.469 123.203L186.992 117.355C186.992 117.355 214.287 130.794 220.28 140L214.15 144.607L203.019 140Z" fill="#FFBE9D"/>
<path d="M123.371 212.093L132.446 237.363L139.139 235.489L135.513 209.951L123.371 212.093Z" fill="#FFBE9D"/>
<path d="M164.672 145.663L177.95 145.578C177.95 145.578 185.935 143.549 189.279 143.131L203.018 139.984C203.018 139.984 215.531 142.478 220.27 139.984C220.27 139.984 222.999 146.682 215.855 150.233L186.992 164.662L188.246 173.023C188.246 173.023 191.792 200.148 192.736 220.43L146.044 223.999L143.535 193.939L136.852 178.058L134.761 197.696L136.434 209.814L122.404 212.29L119.243 199.195C119.004 198.202 118.926 197.178 119.012 196.16L121.798 162.572C121.798 162.572 121.798 154.212 127.65 151.299L147.974 144.93L164.672 145.663Z" fill="#263238"/>
<path d="M168.748 124.638C170.018 124.483 171.175 123.83 171.963 122.822C172.751 121.814 173.107 120.535 172.952 119.265C172.797 117.995 172.144 116.838 171.136 116.05C170.128 115.262 168.849 114.906 167.579 115.061C167.433 115.061 167.038 115.009 167.109 115.15C168.504 119.237 167.682 124.723 168.748 124.638Z" fill="black"/>
<path d="M147.974 144.926C147.974 145.17 157.166 151.074 161.285 150.247C163.375 149.829 164.718 145.917 164.671 145.677L163.544 139.2V135.842C163.737 135.067 164.662 134.334 164.662 133.31C164.953 128.59 165.489 124.306 165.489 124.306C165.489 124.306 150.059 113.973 149.087 126.011L148.697 127.763L147.974 144.926Z" fill="#FFBE9D"/>
<path opacity="0.15" d="M153.892 138.146C155.009 139.274 156.414 140.223 159.162 140.392C161.266 141.636 162.581 141.632 163.793 141.486L163.436 138.828C162.121 140.237 156.592 140.603 154.253 137.771C154.197 137.682 154 137.696 153.91 137.771C153.877 137.827 153.857 137.891 153.854 137.956C153.851 138.022 153.864 138.087 153.892 138.146Z" fill="black"/>
<path d="M166.697 109.567C166.697 109.567 174.475 137.407 161.53 139.825C150.323 141.911 148.163 124.358 148.163 124.358L148.115 112.935L156.64 109.027L166.697 109.567Z" fill="#FFBE9D"/>
<path d="M163.506 116.617C162.046 114.879 159.749 113.7 157.428 113.935C154.812 114.198 152.849 116.457 153.337 119.496L153.441 120.168C153.489 120.474 153.414 120.786 153.234 121.038C153.055 121.29 152.783 121.462 152.478 121.516C152.191 121.544 151.913 121.629 151.66 121.766C151.406 121.903 151.182 122.088 151.001 122.311C150.819 122.535 150.684 122.792 150.602 123.069C150.52 123.345 150.493 123.634 150.524 123.921L150.735 125.907C150.743 126.023 150.705 126.137 150.63 126.225C150.554 126.313 150.447 126.367 150.331 126.377C150.331 126.377 149.758 126.518 149.622 126.044L149.152 123.93L150.214 111.718L159.993 108.289L164.455 111.488L163.506 116.617Z" fill="black"/>
<path opacity="0.15" d="M148.331 126.846C148.331 126.846 149.036 129.171 149.585 128.1L148.749 130.19L148.331 126.846Z" fill="black"/>
<path d="M163.54 132.042L158.251 131.248C158.272 131.844 158.497 132.415 158.89 132.864C159.283 133.314 159.818 133.613 160.407 133.714C162.929 134.146 163.54 132.042 163.54 132.042Z" fill="white"/>
<path d="M158.213 123.588C158.002 123.605 157.801 123.685 157.634 123.817C157.469 123.949 157.346 124.127 157.281 124.328C157.217 124.53 157.214 124.747 157.272 124.95C157.331 125.154 157.448 125.336 157.61 125.473C157.772 125.61 157.97 125.695 158.181 125.719C158.392 125.743 158.604 125.704 158.793 125.606C158.981 125.509 159.136 125.358 159.239 125.173C159.341 124.987 159.386 124.776 159.369 124.565C159.345 124.282 159.209 124.02 158.993 123.837C158.776 123.654 158.495 123.564 158.213 123.588Z" fill="black"/>
<path d="M158.788 124.51C158.894 124.501 158.973 124.408 158.964 124.302C158.956 124.196 158.863 124.117 158.757 124.126C158.651 124.135 158.572 124.228 158.581 124.333C158.589 124.439 158.682 124.518 158.788 124.51Z" fill="white"/>
<path d="M145.917 343.049L158.383 343.012L156.433 360.86H145.884L145.917 343.049Z" fill="#FFBE9D"/>
<path opacity="0.15" d="M145.917 360.967L145.955 348.323L157.843 348.285L157.659 349.802L150.074 350.958C149.727 351.004 149.407 351.171 149.169 351.427C148.932 351.685 148.792 352.017 148.773 352.367L148.519 357.858L145.917 360.967Z" fill="black"/>
<path d="M145.659 356.886L145.621 357.933C145.611 358.82 145.452 359.7 145.152 360.535L143.851 364.185C143.493 365.218 143.311 366.304 143.311 367.398V367.581C143.317 367.759 143.358 367.934 143.432 368.096C143.506 368.258 143.613 368.403 143.744 368.524C143.875 368.645 144.029 368.738 144.196 368.799C144.364 368.859 144.542 368.886 144.72 368.877H157.688C158.046 368.888 158.394 368.759 158.657 368.517C158.921 368.274 159.079 367.938 159.097 367.581V367.111C159.096 366.166 158.951 365.227 158.665 364.326L157.542 360.606C157.296 359.847 157.174 359.054 157.181 358.257V356.886C157.174 356.022 156.838 355.194 156.241 354.57L156.063 354.354C154.872 353.142 153.249 352.45 151.55 352.43C149.851 352.41 148.213 353.062 146.993 354.246L146.669 354.57C146.066 355.196 145.707 356.018 145.659 356.886Z" fill="#263238"/>
<path opacity="0.6" d="M143.311 366.566H159.06C159.091 366.746 159.103 366.929 159.097 367.111V367.581C159.091 367.759 159.05 367.934 158.975 368.096C158.901 368.258 158.795 368.403 158.664 368.524C158.533 368.645 158.379 368.738 158.212 368.798C158.044 368.859 157.866 368.886 157.688 368.877H144.72C144.362 368.889 144.014 368.759 143.75 368.517C143.487 368.275 143.329 367.938 143.311 367.581V366.566Z" fill="black"/>
<path d="M154.23 357.464C154.262 357.386 154.265 357.299 154.239 357.219C154.212 357.138 154.157 357.071 154.085 357.028C153.247 356.616 152.326 356.402 151.393 356.402C150.46 356.402 149.539 356.616 148.702 357.028C148.624 357.066 148.566 357.133 148.538 357.214C148.51 357.296 148.516 357.384 148.554 357.462C148.592 357.539 148.659 357.598 148.74 357.626C148.822 357.654 148.911 357.648 148.988 357.61C149.734 357.255 150.549 357.072 151.374 357.072C152.2 357.072 153.015 357.255 153.76 357.61C153.802 357.636 153.852 357.648 153.901 357.643C153.967 357.643 154.031 357.627 154.089 357.596C154.146 357.565 154.195 357.519 154.23 357.464Z" fill="white"/>
<path d="M154.23 359.126C154.262 359.048 154.265 358.961 154.239 358.881C154.212 358.801 154.157 358.733 154.085 358.69C153.247 358.278 152.326 358.064 151.393 358.064C150.46 358.064 149.539 358.278 148.702 358.69C148.663 358.708 148.628 358.734 148.599 358.766C148.571 358.799 148.55 358.836 148.536 358.877C148.522 358.918 148.517 358.961 148.52 359.004C148.524 359.047 148.536 359.088 148.556 359.126C148.574 359.165 148.599 359.2 148.631 359.228C148.663 359.257 148.701 359.278 148.741 359.291C148.782 359.304 148.825 359.309 148.867 359.305C148.91 359.301 148.951 359.288 148.988 359.267C149.734 358.913 150.549 358.729 151.374 358.729C152.2 358.729 153.015 358.913 153.76 359.267C153.793 359.305 153.868 359.305 153.901 359.305C153.967 359.305 154.031 359.289 154.089 359.258C154.146 359.227 154.195 359.182 154.23 359.126Z" fill="white"/>
<path d="M154.23 360.751C154.262 360.673 154.265 360.586 154.239 360.506C154.212 360.425 154.157 360.358 154.085 360.315C153.247 359.903 152.326 359.689 151.393 359.689C150.46 359.689 149.539 359.903 148.702 360.315C148.624 360.353 148.566 360.42 148.538 360.501C148.51 360.583 148.516 360.672 148.554 360.749C148.592 360.826 148.659 360.885 148.74 360.913C148.822 360.941 148.911 360.935 148.988 360.897C149.734 360.542 150.549 360.359 151.374 360.359C152.2 360.359 153.015 360.542 153.76 360.897C153.802 360.923 153.852 360.935 153.901 360.93C153.967 360.93 154.031 360.914 154.089 360.883C154.146 360.852 154.195 360.806 154.23 360.751Z" fill="white"/>
<path d="M183.858 343.875L196.099 343.842L196.409 350.887C196.448 351.795 196.693 352.682 197.126 353.481C197.559 354.281 198.168 354.971 198.908 355.5L207.883 361.911L185.385 361.357L183.858 343.875Z" fill="#FFBE9D"/>
<path opacity="0.15" d="M191.9 358.521L195.127 359.803L185.315 360.879L184.239 348.953H196.235L196.306 350.362L189.129 351.405C188.756 351.459 188.419 351.655 188.186 351.952C187.954 352.248 187.844 352.622 187.879 352.997V353.138C187.987 354.319 188.42 355.447 189.129 356.397C189.839 357.347 190.798 358.082 191.9 358.521Z" fill="black"/>
<path d="M185.141 356.407L189.928 357.896C190.27 358.002 190.634 358.02 190.986 357.948C191.337 357.875 191.665 357.716 191.938 357.483L195.695 354.256C196.107 353.9 196.63 353.699 197.174 353.686C197.718 353.674 198.25 353.85 198.678 354.185L207.208 360.808L213.934 363.03C214.901 363.354 215.742 363.972 216.339 364.799C216.936 365.625 217.26 366.618 217.264 367.638C217.263 367.923 217.149 368.195 216.947 368.397C216.746 368.598 216.473 368.712 216.188 368.713H186.391C186.053 368.715 185.72 368.649 185.408 368.521C185.096 368.392 184.813 368.203 184.574 367.965C184.336 367.726 184.147 367.443 184.019 367.132C183.891 366.82 183.825 366.486 183.826 366.149V357.375C183.828 357.216 183.867 357.061 183.939 356.921C184.012 356.78 184.116 356.658 184.243 356.564C184.371 356.47 184.518 356.407 184.674 356.38C184.829 356.353 184.99 356.362 185.141 356.407Z" fill="#263238"/>
<path opacity="0.6" d="M183.858 366.562H217.141C217.241 366.912 217.288 367.275 217.282 367.638C217.281 367.923 217.167 368.196 216.966 368.397C216.765 368.599 216.492 368.712 216.207 368.714H186.39C185.782 368.713 185.193 368.496 184.73 368.102C184.266 367.708 183.958 367.163 183.858 366.562Z" fill="black"/>
<path d="M198.735 357.62L200.534 355.68C200.584 355.63 200.612 355.561 200.612 355.49C200.612 355.418 200.584 355.35 200.534 355.3C200.483 355.249 200.415 355.221 200.343 355.221C200.272 355.221 200.204 355.249 200.153 355.3L198.349 357.239C198.3 357.29 198.272 357.359 198.272 357.43C198.272 357.501 198.3 357.569 198.349 357.62C198.397 357.664 198.459 357.688 198.523 357.69C198.598 357.684 198.671 357.66 198.735 357.62Z" fill="white"/>
<path d="M200.143 358.729L201.947 356.789C201.998 356.739 202.026 356.67 202.026 356.599C202.026 356.528 201.998 356.459 201.947 356.409C201.897 356.358 201.828 356.33 201.757 356.33C201.686 356.33 201.617 356.358 201.567 356.409L199.763 358.348C199.714 358.4 199.686 358.468 199.686 358.539C199.686 358.61 199.714 358.678 199.763 358.729C199.81 358.774 199.872 358.8 199.937 358.799C200.011 358.793 200.081 358.768 200.143 358.729Z" fill="white"/>
<path d="M201.577 359.846L203.38 357.901C203.43 357.851 203.458 357.782 203.458 357.712C203.458 357.64 203.43 357.572 203.38 357.521C203.329 357.471 203.26 357.443 203.188 357.443C203.116 357.443 203.047 357.471 202.995 357.521L201.196 359.461C201.146 359.512 201.118 359.582 201.118 359.654C201.118 359.726 201.146 359.794 201.196 359.846C201.245 359.888 201.306 359.912 201.37 359.912C201.445 359.916 201.518 359.892 201.577 359.846Z" fill="white"/>
<path d="M166.621 125.343C167.212 125.343 167.692 124.863 167.692 124.272C167.692 123.68 167.212 123.201 166.621 123.201C166.029 123.201 165.55 123.68 165.55 124.272C165.55 124.863 166.029 125.343 166.621 125.343Z" fill="black"/>
<path d="M167.053 124.076C167.159 124.067 167.238 123.974 167.23 123.868C167.221 123.762 167.128 123.683 167.022 123.692C166.916 123.701 166.837 123.794 166.845 123.899C166.854 124.005 166.947 124.084 167.053 124.076Z" fill="white"/>
<path opacity="0.2" d="M163.315 130.454L161.957 130.609C161.878 130.606 161.801 130.579 161.737 130.532C161.672 130.486 161.623 130.421 161.596 130.346C161.601 130.267 161.629 130.191 161.676 130.128C161.722 130.064 161.785 130.014 161.859 129.984L163.216 129.825C163.374 129.8 163.516 129.717 163.615 129.591C163.714 129.466 163.761 129.308 163.747 129.148C163.667 128.81 163.352 128.542 163.066 128.618C162.987 128.612 162.911 128.584 162.847 128.538C162.783 128.491 162.734 128.428 162.704 128.355C162.643 128.214 162.826 128.049 162.967 127.988C163.293 127.952 163.62 128.042 163.882 128.239C164.144 128.437 164.321 128.727 164.376 129.05C164.403 129.212 164.396 129.378 164.357 129.538C164.317 129.698 164.245 129.848 164.146 129.979C164.047 130.11 163.922 130.22 163.779 130.302C163.636 130.384 163.478 130.435 163.315 130.454Z" fill="black"/>
<path d="M145.005 116.707C145.146 113.616 146.56 111.207 149.181 110.408C150.291 110.093 151.46 110.048 152.591 110.277C152.693 110.302 152.798 110.305 152.902 110.288C153.005 110.27 153.104 110.231 153.192 110.174C153.28 110.117 153.356 110.042 153.413 109.955C153.472 109.868 153.512 109.769 153.53 109.666C153.7 108.637 154.208 107.694 154.974 106.986C155.739 106.277 156.719 105.844 157.758 105.754C158.486 105.686 159.22 105.796 159.897 106.073C160.574 106.351 161.174 106.787 161.647 107.346C161.714 107.429 161.798 107.498 161.893 107.546C161.989 107.594 162.094 107.622 162.201 107.627C162.308 107.632 162.415 107.614 162.514 107.574C162.614 107.535 162.704 107.475 162.779 107.397C162.779 107.397 165.681 104.673 169.96 106.862C171.404 107.65 172.503 108.946 173.047 110.498C173.59 112.05 173.538 113.749 172.901 115.265C171.515 118.651 167.325 119.962 164.502 117.707C163.311 116.702 162.55 115.278 162.375 113.729C162.16 112.663 162.17 111.564 162.403 110.502L161.045 110.615C159.439 110.648 156.893 110.559 154.54 111.085C154.596 111.127 154.643 111.122 154.695 111.169L150.59 112.921C150.59 112.921 150.186 124.194 149.5 124.142C146.508 123.762 144.841 119.502 145.005 116.707Z" fill="black"/>
<path d="M149.078 122.966C148.997 122.687 148.857 122.429 148.666 122.21C148.475 121.99 148.239 121.816 147.974 121.698C147.708 121.579 147.42 121.521 147.13 121.526C146.839 121.53 146.554 121.599 146.292 121.726C143.831 122.666 144.681 127.72 148.124 128.612C150.242 128.875 149.848 127.64 149.566 125.954L149.078 122.966Z" fill="#FFBE9D"/>
<path opacity="0.2" d="M146.128 123.161C146.296 123.029 146.492 122.939 146.701 122.897C146.91 122.854 147.125 122.861 147.331 122.916C147.522 122.977 147.7 123.076 147.853 123.205C148.006 123.335 148.132 123.494 148.223 123.673C148.475 124.126 148.585 124.645 148.538 125.161L148.576 125.598C148.583 125.637 148.581 125.677 148.569 125.714C148.558 125.752 148.538 125.787 148.512 125.815C148.484 125.843 148.451 125.866 148.414 125.879C148.377 125.892 148.337 125.896 148.298 125.891C148.26 125.886 148.222 125.872 148.19 125.85C148.158 125.827 148.131 125.798 148.112 125.763C148.094 125.729 148.083 125.69 148.082 125.651C148.081 125.612 148.089 125.573 148.106 125.537L148.068 125.1C148.068 124.673 147.985 124.248 147.824 123.851C147.692 123.615 147.488 123.427 147.242 123.316C146.974 123.278 146.701 123.334 146.471 123.475C146.414 123.502 146.348 123.51 146.286 123.497C146.223 123.484 146.166 123.452 146.124 123.405C145.992 123.414 146.03 123.264 146.128 123.161Z" fill="black"/>
<g opacity="0.4">
<path opacity="0.4" d="M136.856 170.088C136.805 170.087 136.757 170.068 136.719 170.035C136.681 170.001 136.657 169.955 136.649 169.904C136.369 167.641 135.639 165.456 134.502 163.479C133.364 161.502 131.843 159.773 130.027 158.392C130.004 158.377 129.984 158.357 129.969 158.335C129.954 158.312 129.943 158.286 129.937 158.26C129.932 158.233 129.932 158.205 129.937 158.178C129.943 158.152 129.953 158.126 129.968 158.103C129.983 158.08 130.003 158.061 130.025 158.046C130.048 158.03 130.074 158.02 130.1 158.014C130.127 158.008 130.155 158.008 130.182 158.014C130.208 158.019 130.234 158.03 130.257 158.045C132.123 159.458 133.687 161.231 134.856 163.26C136.025 165.288 136.775 167.53 137.063 169.853C137.066 169.88 137.064 169.907 137.057 169.934C137.049 169.96 137.036 169.985 137.02 170.006C137.002 170.028 136.981 170.045 136.957 170.059C136.933 170.072 136.907 170.08 136.88 170.083L136.856 170.088Z" fill="black"/>
</g>
<path opacity="0.3" d="M146.034 223.999L151.882 223.552L149.064 195.878C148.866 193.941 148.341 192.051 147.514 190.288L137.908 169.885L136.236 166.127L136.612 167.442C137.466 170.425 137.637 173.562 137.11 176.62L136.866 178.029L143.55 193.91L146.034 223.999Z" fill="black"/>
<path opacity="0.3" d="M186.992 164.662L215.865 150.247C223.009 146.696 220.28 139.998 220.28 139.998C219.664 140.307 219.01 140.534 218.335 140.674C219.176 146.358 209.247 150.242 209.247 150.242L185.292 159.223L186.992 164.662Z" fill="black"/>
<path d="M191.783 220.5L197.846 348.934H182.764L171.656 245.709C171.616 245.364 171.449 245.047 171.19 244.817C170.929 244.588 170.594 244.462 170.247 244.464C169.9 244.468 169.566 244.6 169.31 244.836C169.055 245.07 168.895 245.391 168.861 245.737L160.097 348.934H144.249L146.903 223.933L191.783 220.5Z" fill="#10B7F5"/>
<path opacity="0.2" d="M151.882 223.553L148.214 348.934H144.24L146.894 223.933L151.882 223.553Z" fill="black"/>
<g opacity="0.4">
<path opacity="0.4" d="M186.993 164.874C186.947 164.873 186.904 164.858 186.867 164.831C186.831 164.804 186.804 164.766 186.791 164.723C186.791 164.648 184.489 156.992 183.672 155.357C183.655 155.333 183.645 155.304 183.64 155.275C183.636 155.246 183.637 155.216 183.645 155.187C183.653 155.158 183.667 155.132 183.685 155.109C183.705 155.085 183.728 155.067 183.754 155.054C183.781 155.04 183.81 155.032 183.84 155.031C183.869 155.03 183.899 155.035 183.927 155.046C183.955 155.057 183.979 155.074 184.001 155.095C184.021 155.116 184.037 155.142 184.047 155.17C184.879 156.837 187.101 164.286 187.194 164.606C187.209 164.659 187.202 164.715 187.176 164.764C187.15 164.812 187.106 164.848 187.054 164.864L186.993 164.874Z" fill="black"/>
</g>
<g opacity="0.4">
<path opacity="0.4" d="M165.551 205.242C165.505 205.243 165.46 205.228 165.423 205.199C165.387 205.172 165.361 205.132 165.349 205.087C165.336 205.035 165.344 204.979 165.371 204.931C165.398 204.884 165.442 204.849 165.494 204.834C165.584 204.81 174.217 202.415 178.265 194.97C178.293 194.921 178.339 194.886 178.392 194.87C178.445 194.854 178.503 194.86 178.552 194.885C178.599 194.914 178.635 194.959 178.65 195.012C178.666 195.065 178.661 195.122 178.637 195.172C174.494 202.786 165.692 205.223 165.602 205.247L165.551 205.242Z" fill="black"/>
</g>
<g opacity="0.4">
<path opacity="0.4" d="M130.158 197.884C130.117 197.884 130.077 197.873 130.042 197.85C130.008 197.828 129.981 197.795 129.965 197.757C129.945 197.706 129.945 197.648 129.966 197.596C129.987 197.544 130.027 197.503 130.078 197.48C131.595 196.837 134.681 197.443 134.813 197.48C134.839 197.486 134.865 197.497 134.888 197.512C134.91 197.528 134.93 197.547 134.945 197.57C134.96 197.593 134.971 197.619 134.975 197.645C134.98 197.672 134.98 197.7 134.975 197.727C134.969 197.754 134.958 197.779 134.943 197.802C134.928 197.824 134.908 197.844 134.885 197.859C134.862 197.874 134.837 197.884 134.809 197.89C134.783 197.895 134.755 197.894 134.728 197.889C134.7 197.889 131.642 197.283 130.243 197.889C130.214 197.894 130.186 197.892 130.158 197.884Z" fill="black"/>
</g>
<path opacity="0.1" d="M161.703 118.49C161.703 118.49 160.351 122.046 168.749 120.895L168.561 119.411L165.456 117.654L161.703 118.49Z" fill="black"/>
<path opacity="0.2" d="M170.271 244.475C170.619 244.472 170.954 244.598 171.214 244.827C171.474 245.057 171.64 245.375 171.681 245.719L182.765 348.936H187.462L176.063 247.119C175.495 243.009 170.271 244.475 170.271 244.475Z" fill="black"/>
<path d="M183.583 238.038C179.331 236.551 174.735 236.359 170.374 237.485C166.014 238.611 162.085 241.004 159.084 244.363C156.085 247.722 154.147 251.895 153.519 256.354C152.89 260.813 153.598 265.359 155.552 269.416C157.507 273.473 160.621 276.86 164.501 279.147C168.38 281.435 172.85 282.521 177.347 282.268C181.843 282.015 186.164 280.434 189.762 277.725C193.36 275.017 196.074 271.302 197.561 267.051C198.548 264.228 198.97 261.239 198.802 258.253C198.634 255.267 197.879 252.344 196.581 249.649C195.283 246.955 193.467 244.543 191.237 242.551C189.007 240.558 186.405 239.025 183.583 238.038ZM169.722 277.676C166.133 276.421 162.998 274.131 160.711 271.094C158.424 268.057 157.089 264.411 156.875 260.615C156.661 256.82 157.577 253.046 159.508 249.772C161.438 246.497 164.296 243.868 167.721 242.218C171.145 240.568 174.983 239.97 178.747 240.501C182.511 241.031 186.033 242.666 188.869 245.199C191.704 247.731 193.724 251.047 194.674 254.728C195.625 258.409 195.462 262.289 194.207 265.877C192.525 270.689 189 274.635 184.408 276.847C179.816 279.06 174.533 279.358 169.722 277.676Z" fill="#263238"/>
<path d="M126.31 237.963L156.55 248.579L154.895 253.291L124.656 242.674C124.449 242.602 124.258 242.489 124.095 242.343C123.932 242.196 123.799 242.019 123.704 241.821C123.609 241.624 123.554 241.409 123.542 241.19C123.529 240.971 123.56 240.752 123.633 240.545L124.18 238.986C124.253 238.779 124.366 238.588 124.512 238.425C124.659 238.262 124.836 238.129 125.033 238.034C125.231 237.939 125.446 237.883 125.665 237.872C125.884 237.86 126.103 237.891 126.31 237.963Z" fill="#263238"/>
<path opacity="0.3" d="M176.062 279.799C187.256 279.799 196.33 270.725 196.33 259.531C196.33 248.338 187.256 239.264 176.062 239.264C164.869 239.264 155.795 248.338 155.795 259.531C155.795 270.725 164.869 279.799 176.062 279.799Z" fill="black"/>
<path opacity="0.3" d="M156.842 259.531L184.174 242.189C184.174 242.189 190.961 245.515 193.887 252.203L159.956 269.869C159.956 269.869 156.579 264.773 156.842 259.531Z" fill="white"/>
<path opacity="0.3" d="M162.539 273.096L195.291 256.68C195.291 256.68 195.531 261.41 194.493 264.744L167.551 276.853C167.447 276.947 164 274.754 162.539 273.096Z" fill="white"/>
<path d="M180.505 114.752L178.537 114.193L173.417 112.643L168.913 113.403C168.805 113.444 168.715 113.523 168.661 113.625C168.608 113.727 168.594 113.846 168.622 113.958C168.753 114.46 169.092 115.198 170.069 114.86L166.729 115.108C166.607 115.121 166.492 115.17 166.4 115.25C166.307 115.33 166.241 115.436 166.212 115.555L166.132 115.86C166.015 116.33 167.217 116.799 167.72 116.799H167.983L165.019 116.922C164.95 116.944 164.887 116.98 164.833 117.029C164.778 117.077 164.735 117.135 164.705 117.201C164.674 117.267 164.658 117.338 164.656 117.41C164.654 117.482 164.668 117.555 164.695 117.621C164.85 118.002 165.057 118.453 165.202 118.504C165.348 118.556 163.108 118.786 162.248 118.861C162.205 118.865 162.163 118.878 162.125 118.9C162.088 118.922 162.056 118.953 162.033 118.989C162.009 119.025 161.994 119.067 161.989 119.11C161.984 119.153 161.989 119.196 162.004 119.237C162.187 119.759 162.854 120.67 165.259 120.646C168.617 120.609 169.885 120.04 169.885 120.04L172.563 120.754L172.431 122.365L168.791 122.309L168.955 124.352C169.491 124.606 173.652 125.066 173.652 125.066C173.652 125.066 179.289 125.151 180.796 124.418C182.304 123.685 183.422 123.089 183.422 123.089L187.598 117.654L180.505 114.752Z" fill="#FFBE9D"/>
<path opacity="0.15" d="M172.995 120.186C172.995 120.186 175.912 118.491 177.161 116.4" stroke="black" stroke-width="0.67" stroke-miterlimit="10" stroke-linecap="round"/>
<path opacity="0.15" d="M169.017 122.46L174.136 122.554C174.136 122.554 176.381 120.088 178.758 120.647" stroke="black" stroke-width="0.67" stroke-miterlimit="10" stroke-linecap="round"/>
<path opacity="0.15" d="M165.489 118.772C165.489 118.772 168.998 118.701 170.365 117.762C170.365 117.762 171.107 118.701 172.995 118.635" stroke="black" stroke-width="0.67" stroke-miterlimit="10" stroke-linecap="round"/>
<path opacity="0.15" d="M167.969 116.818C169.168 116.714 170.357 116.505 171.52 116.193C172.328 116.877 173.333 117.284 174.39 117.354" stroke="black" stroke-width="0.67" stroke-miterlimit="10" stroke-linecap="round"/>
<path opacity="0.15" d="M169.665 115.02C170.743 115.063 171.818 114.888 172.826 114.508L175.081 115.551" stroke="black" stroke-width="0.67" stroke-miterlimit="10" stroke-linecap="round"/>
<path d="M138.984 235.299L142.065 240.559L143.991 245.087L141.083 244.364C141.083 244.364 139.839 250.31 139.35 250.47C138.862 250.63 137.471 250.141 137.608 249C137.403 249.2 137.156 249.352 136.884 249.442C136.612 249.533 136.323 249.56 136.039 249.521C135.165 249.338 134.954 248.774 135.052 247.689C135.052 247.689 134.639 248.511 133.427 247.999C132.69 247.689 132.873 246.59 132.873 246.59C132.873 246.59 131.548 246.703 131.365 246.017C131.175 244.893 131.151 243.747 131.295 242.617L132.084 238.812L132.384 236.356L138.984 235.299Z" fill="#FFBE9D"/>
<path opacity="0.15" d="M132.873 246.587C133.101 245.822 133.247 245.034 133.31 244.238" stroke="black" stroke-width="0.66" stroke-miterlimit="10" stroke-linecap="round"/>
<path opacity="0.15" d="M135.011 247.634C135.295 246.742 135.48 245.82 135.56 244.887" stroke="black" stroke-width="0.66" stroke-miterlimit="10" stroke-linecap="round"/>
<path opacity="0.15" d="M137.608 248.996C137.924 247.872 138.142 246.724 138.261 245.562" stroke="black" stroke-width="0.66" stroke-miterlimit="10" stroke-linecap="round"/>
<path opacity="0.2" d="M160.097 348.935L160.295 346.643H144.292L144.24 348.935H160.097Z" fill="black"/>
<path opacity="0.2" d="M182.529 346.643H197.738L197.846 348.935H182.778L182.529 346.643Z" fill="black"/>
<path opacity="0.15" d="M125.955 211.639L133.31 236.758L131.901 242.902V246.481C131.901 246.481 131.337 246.669 131.281 245.26L131.229 243.282L131.389 242.24L132.328 237.045L123.376 212.094L125.955 211.639Z" fill="black"/>
<path opacity="0.3" d="M121.797 162.57L119.003 196.13C118.917 197.147 118.994 198.172 119.233 199.164L122.389 212.259L125.954 211.631L122.197 197.877L124.935 159.015C124.935 159.015 125.067 153.989 128.345 151.072L127.655 151.288C121.797 154.214 121.797 162.57 121.797 162.57Z" fill="black"/>
<path d="M169.646 121.74H165.071H164.437H160.445H155.236C154.836 121.739 154.451 121.897 154.167 122.178C153.882 122.46 153.721 122.843 153.719 123.243V124.408C153.719 125.5 154.152 126.546 154.924 127.318C155.696 128.089 156.742 128.523 157.833 128.523C158.924 128.523 159.971 128.089 160.743 127.318C161.514 126.546 161.948 125.5 161.948 124.408V123.239C161.958 123.072 161.935 122.906 161.88 122.749C161.825 122.591 161.74 122.447 161.628 122.323H163.24C163.127 122.45 163.041 122.599 162.987 122.76C162.933 122.922 162.912 123.092 162.925 123.262V124.432C162.925 125.523 163.358 126.57 164.13 127.341C164.902 128.113 165.948 128.546 167.039 128.546C168.131 128.546 169.177 128.113 169.949 127.341C170.72 126.57 171.154 125.523 171.154 124.432V123.262C171.136 122.867 170.972 122.492 170.693 122.211C170.415 121.93 170.042 121.762 169.646 121.74ZM161.412 123.286V124.455C161.379 125.363 160.995 126.223 160.342 126.853C159.688 127.483 158.815 127.836 157.906 127.836C156.998 127.836 156.125 127.483 155.471 126.853C154.817 126.223 154.433 125.363 154.4 124.455V123.286C154.409 123.049 154.507 122.825 154.674 122.658C154.841 122.491 155.065 122.393 155.302 122.384H160.511C160.74 122.411 160.954 122.516 161.117 122.679C161.281 122.843 161.385 123.056 161.412 123.286ZM170.553 124.488C170.519 125.396 170.136 126.255 169.482 126.886C168.828 127.516 167.955 127.868 167.046 127.868C166.138 127.868 165.265 127.516 164.612 126.886C163.957 126.255 163.574 125.396 163.54 124.488V123.318C163.543 123.081 163.638 122.854 163.806 122.685C163.973 122.517 164.2 122.42 164.437 122.417H165.071H169.646C169.884 122.419 170.111 122.514 170.28 122.682C170.448 122.85 170.544 123.076 170.548 123.314L170.553 124.488Z" fill="black"/>
<path d="M80.2208 315.609C77.5482 277.277 74.5844 274.745 74.4717 274.656L74.6549 274.309C74.7864 274.37 77.877 276.263 80.6153 315.581L80.2208 315.609Z" fill="#3F4249"/>
<path d="M82.9814 315.604H82.5869C84.3435 287.601 82.4319 272.331 82.4131 272.181L82.8076 272.129C82.8076 272.279 84.7428 287.582 82.9814 315.628" fill="#3F4249"/>
<path d="M85.3922 316.44C83.2598 298.976 88.6801 285.674 88.7458 285.543L89.1122 285.693C89.0558 285.825 83.6684 299.037 85.7867 316.393L85.3922 316.44Z" fill="#3F4249"/>
<path d="M87.6173 318.573C86.7272 312.338 86.7747 306.006 87.7582 299.785L88.1481 299.86C87.1702 306.034 87.1227 312.32 88.0072 318.507L87.6173 318.573Z" fill="#3F4249"/>
<path d="M88.8246 285.859L90.5484 285.713C91.7701 285.615 92.9556 285.253 94.0242 284.652C94.5446 284.342 95.0862 284.069 95.6447 283.835C97.7724 282.98 100.149 283.135 102.441 283.017C106.19 282.826 109.863 281.887 113.244 280.255C113.44 280.163 113.604 280.015 113.714 279.828C114.066 279.185 113.409 278.607 112.845 278.259C109.942 276.47 106.988 274.661 103.695 273.774C100.403 272.886 96.6733 273.036 93.8645 274.967C90.5766 277.235 89.3648 281.895 88.8105 285.859" fill="#43D081"/>
<path opacity="0.3" d="M113.756 279.615C113.655 279.577 113.558 279.532 113.465 279.479L112.647 279.052C111.938 278.676 110.919 278.112 109.632 277.511C108.132 276.774 106.57 276.172 104.963 275.712C102.998 275.156 100.941 274.996 98.9135 275.242C96.8835 275.464 94.9647 276.28 93.3992 277.591C92.1785 278.725 91.202 280.097 90.5294 281.621C89.9235 282.913 89.5524 284.012 89.28 284.763C89.1531 285.125 89.0498 285.411 88.9747 285.632C88.9394 285.735 88.8986 285.835 88.8525 285.933C88.8657 285.826 88.8911 285.72 88.9277 285.618C88.9981 285.393 89.0827 285.101 89.1954 284.735C89.5275 283.652 89.9239 282.59 90.3838 281.555C91.0465 279.997 92.0254 278.593 93.2583 277.431C94.8515 276.074 96.8144 275.225 98.8947 274.993C100.953 274.749 103.04 274.925 105.029 275.51C106.649 275.98 108.222 276.601 109.726 277.365C111.008 278.004 112.018 278.577 112.713 278.972L113.507 279.441C113.605 279.49 113.696 279.55 113.779 279.62" fill="black"/>
<path opacity="0.3" d="M109.618 281.838C109.585 281.89 107.331 280.429 104.588 278.583C101.845 276.737 99.6511 275.192 99.684 275.14C99.7168 275.088 101.971 276.549 104.714 278.395C107.457 280.241 109.656 281.786 109.618 281.838Z" fill="black"/>
<path opacity="0.3" d="M107.218 275.018C106.14 275.321 105.015 275.413 103.902 275.29C104.449 275.196 105.001 275.141 105.556 275.126C106.106 275.049 106.662 275.013 107.218 275.018Z" fill="black"/>
<path opacity="0.3" d="M97.3546 273.734C97.1704 274.156 96.9215 274.546 96.6171 274.89C96.3541 275.285 96.038 275.642 95.6777 275.951C95.8595 275.529 96.1085 275.139 96.4152 274.796C96.6749 274.399 96.9915 274.041 97.3546 273.734Z" fill="black"/>
<path opacity="0.3" d="M99.3747 283.161C98.9934 283.004 98.6298 282.807 98.2897 282.574C97.6416 282.179 96.7585 281.602 95.8191 280.92C94.8797 280.239 94.0531 279.591 93.4706 279.117C93.1329 278.881 92.8187 278.613 92.5312 278.318C92.8976 278.506 93.2438 278.731 93.5646 278.99L95.9647 280.733C96.9041 281.414 97.759 282.01 98.3884 282.438C98.7402 282.65 99.0732 282.892 99.3842 283.161" fill="black"/>
<path d="M93.4899 340.573H76.4398L73.2646 317.178H96.6603L93.4899 340.573Z" fill="#61656D"/>
<path d="M98.6412 320.748H71.2813L70.8867 315.596H99.0405L98.6412 320.748Z" fill="#61656D"/>
<path opacity="0.2" d="M73.748 320.748H96.1762L93.4895 340.574L90.7934 340.391L92.2965 322.336L73.9218 322.026L73.748 320.748Z" fill="black"/>
<path opacity="0.2" d="M92.784 315.633L91.9902 320.748H98.6412L99.0404 315.596L92.784 315.633Z" fill="black"/>
<g opacity="0.2">
<g opacity="0.2">
<path opacity="0.2" d="M95.0773 326.639H74.791V327.033H95.0773V326.639Z" fill="white"/>
</g>
</g>
<g opacity="0.2">
<g opacity="0.2">
<path opacity="0.2" d="M95.0773 328.225H74.791V328.619H95.0773V328.225Z" fill="white"/>
</g>
</g>
<path d="M74.9359 274.474C73.2919 273.229 71.5587 272.985 69.5015 273.064C67.4395 273.201 65.4207 273.722 63.5504 274.6C60.333 276.009 57.3081 278.086 55.387 281.026C53.466 283.966 52.7943 287.855 54.2363 291.059C54.3462 291.396 54.5791 291.68 54.8891 291.852C55.2461 291.955 55.628 291.925 55.9648 291.768C59.6237 290.575 63.3108 289.368 66.6739 287.498C70.0369 285.629 73.0994 283.031 74.9077 279.631C75.3722 278.829 75.6667 277.94 75.7719 277.019C75.8217 276.559 75.7729 276.094 75.6287 275.654C75.4845 275.214 75.2482 274.81 74.9359 274.469" fill="#43D081"/>
<path opacity="0.3" d="M74.9686 274.086C74.8845 274.133 74.7944 274.17 74.7009 274.194L73.9353 274.457L73.381 274.645C73.1791 274.716 72.9677 274.805 72.7329 274.894C72.2632 275.082 71.7324 275.27 71.1641 275.547L70.2669 275.956C69.9569 276.097 69.6469 276.275 69.3275 276.425C68.6653 276.75 67.9936 277.168 67.2797 277.586C65.7555 278.547 64.306 279.622 62.9443 280.803C61.5935 282 60.337 283.3 59.1867 284.692C58.6748 285.345 58.1769 285.96 57.7777 286.571C57.571 286.876 57.3549 287.158 57.1764 287.449L56.6551 288.29C56.3122 288.816 56.0586 289.323 55.8096 289.76C55.6922 289.981 55.5748 290.183 55.4761 290.371C55.3775 290.559 55.3023 290.737 55.2225 290.897L54.8655 291.625C54.8275 291.712 54.7805 291.796 54.7246 291.874C54.7504 291.782 54.7833 291.692 54.8232 291.606C54.9031 291.414 55.0111 291.165 55.1426 290.859C55.2178 290.695 55.2929 290.516 55.3822 290.324C55.4714 290.131 55.5842 289.925 55.6969 289.699C55.9317 289.258 56.1666 288.76 56.5142 288.205L57.0261 287.355C57.2046 287.059 57.416 286.773 57.6227 286.463C58.0266 285.838 58.5245 285.218 59.0318 284.551C61.307 281.716 64.0561 279.298 67.1575 277.402C67.8809 276.984 68.5666 276.571 69.2289 276.252C69.5624 276.087 69.8771 275.913 70.1918 275.782L71.103 275.383C71.676 275.115 72.2209 274.941 72.6859 274.763C72.9254 274.678 73.1556 274.594 73.3482 274.528L73.9071 274.359L74.6915 274.138C74.7817 274.107 74.8747 274.084 74.9686 274.072" fill="black"/>
<path opacity="0.3" d="M62.1463 281.029C60.8401 281.532 59.5071 281.962 58.1539 282.316C56.8223 282.748 55.4672 283.103 54.0957 283.382C55.4029 282.884 56.7354 282.454 58.0881 282.095C59.4202 281.667 60.7753 281.311 62.1463 281.029Z" fill="black"/>
<path opacity="0.3" d="M61.9815 289.859C61.9111 289.448 61.881 289.03 61.8923 288.614C61.8923 287.844 61.8688 286.782 61.8923 285.608C61.9158 284.434 61.9862 283.372 62.052 282.606C62.0665 282.191 62.1182 281.777 62.207 281.371C62.2445 281.785 62.2445 282.202 62.207 282.616C62.1835 283.461 62.1506 284.495 62.1177 285.617C62.0849 286.74 62.0614 287.773 62.0426 288.614C62.0529 289.03 62.028 289.447 61.9674 289.859" fill="black"/>
<path opacity="0.3" d="M69.5298 285.994C69.4641 285.994 69.2621 283.838 69.0601 281.17C68.8582 278.502 68.7783 276.337 68.8394 276.332C68.9004 276.327 69.1024 278.488 69.3091 281.156C69.5157 283.824 69.5909 285.989 69.5298 285.994Z" fill="black"/>
<path opacity="0.3" d="M60.1357 276.121C60.5594 276.07 60.9873 276.057 61.4133 276.084C62.2024 276.084 63.2921 276.112 64.4945 276.154C65.697 276.196 66.7867 276.239 67.5711 276.286C67.9999 276.287 68.4278 276.33 68.8486 276.412C68.4245 276.46 67.9971 276.473 67.5711 276.45C66.782 276.45 65.6923 276.422 64.4851 276.38C63.278 276.337 62.193 276.29 61.4086 276.243C60.9817 276.242 60.5552 276.201 60.1357 276.121Z" fill="black"/>
<path d="M71.6384 266.137C70.9277 267.414 70.2213 268.692 69.52 269.97C69.4731 270.059 69.4073 270.157 69.304 270.167C69.2007 270.176 69.1114 270.073 69.0503 269.979L63.4609 261.393L64.7479 260.66L71.6384 266.137Z" fill="#43D081"/>
<path opacity="0.2" d="M71.6384 266.137C70.9277 267.414 70.2213 268.692 69.52 269.97C69.4731 270.059 69.4073 270.157 69.304 270.167C69.2007 270.176 69.1114 270.073 69.0503 269.979L63.4609 261.393L64.7479 260.66L71.6384 266.137Z" fill="black"/>
<path d="M82.982 273.04L63.9029 261.768C63.7056 261.65 63.4942 261.519 63.4332 261.298C63.3721 261.077 63.5694 260.744 63.7713 260.532C65.0832 259.171 66.6731 258.108 68.4331 257.417C70.1926 256.725 72.0808 256.422 73.9685 256.526C75.8567 256.664 77.6829 257.26 79.2892 258.261C80.8956 259.263 82.2338 260.64 83.1887 262.275C85.0299 265.563 85.091 269.917 82.9773 273.04" fill="#43D081"/>
<path opacity="0.3" d="M66.6502 258.189C66.7315 258.167 66.8151 258.155 66.8991 258.156C67.0682 258.156 67.3078 258.118 67.6225 258.123C68.5102 258.108 69.397 258.177 70.2716 258.33C73.1828 258.819 75.8925 260.132 78.0808 262.113C80.2691 264.094 81.8445 266.66 82.62 269.508C82.8581 270.362 83.015 271.237 83.0897 272.12C83.1225 272.435 83.0897 272.515 83.1178 272.679C83.1028 272.826 83.053 272.968 82.9722 273.092C83.0281 272.782 83.0375 272.466 83.0004 272.153C82.8891 271.28 82.7083 270.418 82.4603 269.574C81.5063 266.356 79.5547 263.524 76.8873 261.486C74.2194 259.448 70.9738 258.31 67.6178 258.236C66.9931 258.236 66.6455 258.236 66.6455 258.236" fill="black"/>
<path opacity="0.3" d="M80.3992 265.271C80.0967 265.455 79.7736 265.602 79.4363 265.708C78.8304 265.948 77.9803 266.253 77.0268 266.554C76.0733 266.854 75.2091 267.099 74.575 267.254C74.2363 267.359 73.8864 267.425 73.5322 267.451C73.8507 267.299 74.1846 267.18 74.528 267.099L76.961 266.338L79.3847 265.558C79.7116 265.426 80.0516 265.33 80.3992 265.271Z" fill="black"/>
<path opacity="0.3" d="M77.398 257.197C77.5671 257.893 77.6427 258.609 77.6234 259.325C77.6775 260.039 77.638 260.758 77.506 261.462C77.4116 260.757 77.3736 260.046 77.3933 259.334C77.335 258.623 77.335 257.908 77.3933 257.197" fill="black"/>
<path opacity="0.3" d="M63.7344 261.57C64.1806 261.369 64.6442 261.213 65.12 261.1C65.9889 260.832 67.1961 260.494 68.5441 260.16C69.8921 259.827 71.1181 259.587 72.0105 259.428C72.4896 259.323 72.9766 259.257 73.4665 259.23C73.0062 259.384 72.5351 259.503 72.0574 259.587C71.1744 259.785 69.9532 260.057 68.6098 260.381C67.2665 260.705 66.0547 261.015 65.1811 261.245C64.7114 261.387 64.2327 261.499 63.7485 261.579" fill="black"/>
<path d="M90.9529 294.365C89.309 293.929 87.355 295.53 87.0121 297.184C86.6693 298.837 87.2987 300.551 88.0314 302.087C89.5931 305.532 91.9148 308.578 94.8232 310.997C97.7555 313.408 101.417 314.755 105.213 314.821C104.518 311.599 105.396 308.245 105.011 304.957C104.672 302.067 103.362 299.378 101.296 297.33C99.229 295.282 96.5278 293.996 93.6349 293.684C92.5875 293.572 91.3709 293.407 90.9529 294.375" fill="#43D081"/>
<path opacity="0.3" d="M105.213 314.805C105.13 314.781 105.05 314.744 104.978 314.697C104.762 314.576 104.556 314.438 104.363 314.283C103.676 313.683 103.124 312.945 102.742 312.118C102.479 311.606 102.188 311.056 101.902 310.446L101.037 308.492C100.718 307.774 100.356 307.076 99.9523 306.402C99.5056 305.686 99.0049 305.006 98.454 304.368C97.3314 303.048 96.1055 301.907 95.0768 300.812C94.1304 299.859 93.269 298.825 92.5029 297.722C91.9881 296.975 91.5654 296.169 91.2441 295.321C91.1586 295.09 91.0849 294.856 91.0233 294.617C90.998 294.534 90.9806 294.449 90.9717 294.363C90.9952 294.363 91.0891 294.697 91.3286 295.303C91.6786 296.13 92.1163 296.917 92.6344 297.651C93.4179 298.729 94.2845 299.744 95.2271 300.685C96.2793 301.766 97.4958 302.907 98.6278 304.241C99.1872 304.886 99.693 305.576 100.14 306.303C100.548 306.985 100.911 307.693 101.23 308.421C101.531 309.112 101.822 309.765 102.094 310.385C102.367 311.005 102.653 311.55 102.907 312.062C103.266 312.882 103.786 313.621 104.438 314.236C104.908 314.65 105.246 314.805 105.232 314.823" fill="black"/>
<path opacity="0.3" d="M96.7158 312.128C96.7257 311.754 96.7759 311.383 96.8661 311.02C96.9976 310.343 97.209 309.413 97.4908 308.403C97.7727 307.393 98.0827 306.487 98.3269 305.843C98.434 305.487 98.5838 305.145 98.7731 304.824C98.7111 305.191 98.612 305.549 98.4772 305.895C98.2752 306.553 98.0075 307.459 97.7116 308.464C97.4157 309.47 97.1949 310.39 97.0258 311.057C96.9558 311.423 96.852 311.781 96.7158 312.128Z" fill="black"/>
<path opacity="0.3" d="M104.903 304.208C104.509 304.155 104.12 304.065 103.743 303.94C103.038 303.757 102.057 303.503 100.971 303.259C99.8865 303.015 98.8907 302.822 98.1533 302.686C97.7597 302.635 97.3717 302.55 96.9932 302.432C97.3915 302.42 97.7898 302.451 98.1815 302.526C98.9048 302.62 99.91 302.789 101 303.033C102.089 303.278 103.066 303.56 103.766 303.785C104.151 303.886 104.524 304.027 104.879 304.208" fill="black"/>
<path opacity="0.3" d="M90.6191 306.511C90.6379 306.079 90.6976 305.649 90.7976 305.229C90.9432 304.444 91.1734 303.35 91.4787 302.19C91.784 301.03 92.1128 299.959 92.3711 299.202C92.4895 298.788 92.6468 298.385 92.8408 298C92.7713 298.425 92.6661 298.843 92.5261 299.249C92.3101 300.015 92.0094 301.072 91.6994 302.246C91.3894 303.42 91.1405 304.487 90.9573 305.262C90.8808 305.687 90.7676 306.105 90.6191 306.511Z" fill="black"/>
<path opacity="0.3" d="M101.132 297.309C101.132 297.37 99.0745 297.206 96.5522 296.938C95.0242 296.816 93.5034 296.615 91.9961 296.337C91.9961 296.276 94.0534 296.44 96.5757 296.708C98.1036 296.83 99.6245 297.031 101.132 297.309Z" fill="black"/>
<path d="M82.8551 278.116C82.7142 276.623 81.2018 275.491 79.6988 275.477C78.9472 275.51 78.2126 275.714 77.5513 276.073C76.89 276.431 76.3183 276.936 75.8801 277.548C75.0135 278.781 74.3888 280.168 74.0389 281.634C73.029 285.157 72.4748 288.863 72.9069 292.503C73.339 296.143 74.8186 299.727 77.4301 302.301C77.8528 302.719 78.4071 303.137 78.9895 303.01C79.3037 302.917 79.5874 302.742 79.8115 302.503C82.3685 300.161 84.3958 297.299 85.7565 294.11C87.1177 290.921 87.7809 287.477 87.7024 284.011C87.6601 282.625 87.4817 281.193 86.7114 280.033C85.9411 278.872 84.1609 277.651 82.8551 278.116Z" fill="#43D081"/>
<path opacity="0.3" d="M78.2471 302.806C78.2316 302.721 78.2222 302.634 78.2189 302.547C78.2189 302.355 78.2189 302.115 78.186 301.815C78.1578 301.176 78.1531 300.25 78.186 299.109C78.2189 297.968 78.2847 296.615 78.4209 295.107C78.5571 293.6 78.7872 291.96 79.0925 290.241C79.3978 288.522 79.7877 286.906 80.1775 285.446C80.5674 283.985 80.9854 282.688 81.3706 281.613C81.7557 280.537 82.0798 279.668 82.3334 279.081L82.6247 278.4C82.6557 278.32 82.6932 278.244 82.7374 278.17C82.7242 278.256 82.7003 278.339 82.6669 278.419C82.6012 278.597 82.5166 278.827 82.418 279.109C82.1878 279.706 81.8825 280.579 81.5209 281.66C81.1592 282.74 80.7694 284.046 80.3842 285.502C79.9991 286.958 79.6327 288.574 79.318 290.283C79.0033 291.993 78.7919 293.632 78.6322 295.131C78.4725 296.629 78.388 297.977 78.3457 299.118C78.3034 300.26 78.2847 301.176 78.2847 301.815C78.2847 302.11 78.2847 302.355 78.2847 302.547C78.295 302.633 78.295 302.72 78.2847 302.806" fill="black"/>
<path opacity="0.3" d="M79.257 290.33C79.0325 290.633 78.7775 290.911 78.4961 291.161C77.9982 291.631 77.2984 292.317 76.4999 293.017C75.7014 293.717 74.9499 294.327 74.4003 294.755C74.1105 295.002 73.7958 295.217 73.4609 295.398C73.7122 295.116 73.9889 294.858 74.2876 294.628L76.3402 292.848L78.374 291.044C78.6408 290.777 78.9334 290.538 79.2476 290.33" fill="black"/>
<path opacity="0.3" d="M85.2919 295.172C84.9941 294.819 84.7241 294.443 84.4841 294.049L82.6053 291.302L80.6842 288.573C80.3958 288.21 80.137 287.825 79.9092 287.422C80.2408 287.746 80.5423 288.1 80.811 288.479C81.3418 289.15 82.051 290.094 82.7931 291.17C83.5353 292.246 84.2022 293.232 84.6297 293.988C84.8903 294.369 85.1153 294.773 85.3013 295.195" fill="black"/>
<path opacity="0.3" d="M82.1312 279.875C82.1641 279.927 80.1584 281.284 77.6503 282.891C75.1421 284.497 73.0801 285.77 73.0425 285.709C73.0049 285.648 75.0153 284.3 77.5281 282.693C80.041 281.087 82.0983 279.814 82.1312 279.875Z" fill="black"/>
<path opacity="0.3" d="M87.7867 285.98C85.7121 284.166 83.7393 282.239 81.8779 280.207C82.9409 281.09 83.9535 282.03 84.9122 283.025C85.9272 283.958 86.8868 284.95 87.7867 285.994" fill="black"/>
<path d="M97.7019 328.074V340.366H85.4099V328.074H84.2216V340.366H71.9295V328.074H70.7412V369.708H71.9295V343.936H84.2216V369.708H85.4099V343.936H97.7019V369.708H98.8949V343.936V340.366V328.074H97.7019Z" fill="#3F4249"/>
<path d="M484.728 168.208L479.355 170.181L473.977 172.14L473.752 177.522C473.517 183.267 475.992 188.325 480.919 191.923C483.578 193.868 486.387 195.291 488.331 194.577C490.276 193.863 491.487 190.96 492.253 187.757C493.662 181.811 492.281 176.362 488.378 172.14L484.719 168.189L484.728 168.208Z" fill="#F15A22"/>
<path opacity="0.2" d="M483.709 168.564L479.355 170.161L475.006 171.763L474.827 176.122C474.635 180.772 476.64 184.858 480.628 187.78C482.784 189.358 485.057 190.509 486.631 189.931C488.204 189.353 489.186 187 489.806 184.407C490.952 179.593 489.806 175.183 486.668 171.763L483.709 168.564Z" fill="white"/>
<path opacity="0.2" d="M482.687 168.939L479.357 170.161L476.031 171.387L475.895 174.717C475.75 178.277 477.304 181.405 480.334 183.641C481.978 184.848 483.72 185.726 484.923 185.285C486.125 184.843 486.877 183.044 487.351 181.058C488.229 177.375 487.351 174.012 484.951 171.387L482.687 168.939Z" fill="white"/>
<path d="M481.662 169.316L479.355 170.162L477.054 171.012L476.96 173.318C476.904 174.524 477.153 175.725 477.693 176.807C478.228 177.888 479.036 178.814 480.032 179.495C481.173 180.331 482.38 180.941 483.212 180.636C484.043 180.331 484.564 179.081 484.893 177.71C485.208 176.546 485.217 175.322 484.926 174.152C484.635 172.983 484.052 171.907 483.23 171.026L481.662 169.331V169.316Z" fill="white"/>
<path d="M483.404 148.527L495.753 155.897C495.851 155.954 495.926 156.043 495.969 156.151L498.533 163.13C498.543 163.155 498.547 163.182 498.543 163.209C498.543 163.235 498.533 163.261 498.515 163.283C498.5 163.305 498.482 163.323 498.458 163.335C498.43 163.347 498.406 163.352 498.378 163.351L488.984 163.234L483.404 148.527Z" fill="#10B7F5"/>
<path opacity="0.2" d="M485.001 149.481L490.112 163.375L489.008 163.234L483.404 148.527L485.001 149.481Z" fill="black"/>
<path d="M463.011 156.029L458.379 169.651C458.337 169.758 458.337 169.877 458.379 169.984L460.944 176.964C460.953 176.989 460.967 177.011 460.986 177.029C461.01 177.047 461.033 177.06 461.057 177.066C461.085 177.073 461.113 177.073 461.136 177.066C461.165 177.06 461.188 177.047 461.207 177.03L468.252 170.867L463.011 156.029Z" fill="#10B7F5"/>
<path opacity="0.2" d="M462.32 157.824L467.435 171.722L468.187 170.896L462.921 156.062L462.32 157.824Z" fill="black"/>
<path d="M459.365 115.908C457.693 116.537 456.251 122.014 456.124 130.332C456.044 135.228 456.74 140.105 458.196 144.78L469.938 175.884L478.134 172.788L482.883 170.994L491.079 167.894L480.417 139.675C479.379 136.914 478.078 134.259 476.533 131.746C474.992 129.223 473.25 126.828 471.328 124.583C465.903 118.341 461.028 115.274 459.356 115.908" fill="#B2B6BB"/>
<path d="M459.365 115.907C458.055 116.348 456.913 119.787 456.401 125.146L467.566 120.698C463.644 116.935 461.051 115.338 459.365 115.907Z" fill="#10B7F5"/>
<g opacity="0.3">
<path opacity="0.3" d="M489.337 163.643L468.309 171.379L468.426 171.701L489.454 163.964L489.337 163.643Z" fill="black"/>
</g>
<g opacity="0.3">
<path opacity="0.3" d="M489.576 164.289L468.553 172.025L468.67 172.347L489.694 164.611L489.576 164.289Z" fill="black"/>
</g>
<g opacity="0.3">
<path opacity="0.3" d="M489.811 164.934L468.787 172.67L468.905 172.992L489.933 165.255L489.811 164.934Z" fill="black"/>
</g>
<g opacity="0.3">
<path opacity="0.3" d="M490.051 165.578L469.022 173.315L469.14 173.636L490.168 165.9L490.051 165.578Z" fill="black"/>
</g>
<g opacity="0.3">
<path opacity="0.3" d="M490.286 166.219L469.258 173.955L469.375 174.277L490.404 166.54L490.286 166.219Z" fill="black"/>
</g>
<g opacity="0.3">
<path opacity="0.3" d="M490.521 166.861L469.492 174.597L469.614 174.919L490.638 167.183L490.521 166.861Z" fill="black"/>
</g>
<g opacity="0.3">
<path opacity="0.3" d="M490.76 167.506L469.731 175.242L469.854 175.564L490.877 167.828L490.76 167.506Z" fill="black"/>
</g>
<path opacity="0.3" d="M475.936 155.871L480.003 166.914" stroke="black" stroke-width="0.73" stroke-miterlimit="10"/>
<path opacity="0.3" d="M472.348 140.152L477.871 155.155" stroke="black" stroke-width="0.73" stroke-miterlimit="10"/>
<path d="M471.413 142.871C474.401 140.621 474.993 136.377 472.743 133.392C470.493 130.407 466.251 129.811 463.264 132.061C460.282 134.311 459.685 138.556 461.935 141.54C464.185 144.525 468.431 145.121 471.413 142.871Z" fill="white"/>
<path d="M469.877 144.338C468.219 144.951 466.396 144.939 464.748 144.307C463.094 143.673 461.732 142.462 460.91 140.898C460.088 139.334 459.863 137.525 460.276 135.806C460.69 134.088 461.714 132.579 463.156 131.56C464.597 130.542 466.364 130.083 468.12 130.269C469.882 130.456 471.507 131.276 472.705 132.575C473.902 133.875 474.588 135.566 474.63 137.332C474.673 139.099 474.071 140.821 472.939 142.177C472.127 143.152 471.07 143.897 469.877 144.338ZM465.18 131.656C464.278 131.985 463.461 132.518 462.799 133.214C462.132 133.909 461.638 134.748 461.352 135.666C461.065 136.583 460.995 137.555 461.141 138.505C461.291 139.455 461.657 140.357 462.211 141.143C462.766 141.928 463.494 142.575 464.339 143.033C465.185 143.492 466.124 143.749 467.087 143.785C468.045 143.822 469.003 143.636 469.882 143.244C470.76 142.851 471.535 142.261 472.146 141.519C472.939 140.571 473.433 139.408 473.569 138.178C473.7 136.948 473.465 135.706 472.892 134.61C472.319 133.513 471.432 132.612 470.347 132.019C469.262 131.426 468.022 131.169 466.791 131.28C466.241 131.329 465.701 131.449 465.18 131.637V131.656Z" fill="#10B7F5"/>
<path opacity="0.3" d="M472.704 147.119C472.991 147.119 473.221 146.888 473.221 146.603C473.221 146.317 472.991 146.086 472.704 146.086C472.418 146.086 472.188 146.317 472.188 146.603C472.188 146.888 472.418 147.119 472.704 147.119Z" stroke="black" stroke-width="0.73" stroke-miterlimit="10"/>
<path opacity="0.3" d="M474.485 151.951C474.772 151.951 475.002 151.72 475.002 151.435C475.002 151.15 474.772 150.918 474.485 150.918C474.199 150.918 473.969 151.15 473.969 151.435C473.969 151.72 474.199 151.951 474.485 151.951Z" stroke="black" stroke-width="0.73" stroke-miterlimit="10"/>
<path opacity="0.3" d="M479.14 158.649C479.426 158.649 479.656 158.417 479.656 158.132C479.656 157.847 479.426 157.615 479.14 157.615C478.853 157.615 478.623 157.847 478.623 158.132C478.623 158.417 478.853 158.649 479.14 158.649Z" stroke="black" stroke-width="0.73" stroke-miterlimit="10"/>
<path opacity="0.3" d="M480.92 163.479C481.206 163.479 481.437 163.248 481.437 162.962C481.437 162.677 481.206 162.445 480.92 162.445C480.633 162.445 480.403 162.677 480.403 162.962C480.403 163.248 480.633 163.479 480.92 163.479Z" stroke="black" stroke-width="0.73" stroke-miterlimit="10"/>
<path opacity="0.3" d="M464.5 160.078L484.894 152.572" stroke="black" stroke-width="0.73" stroke-miterlimit="10"/>
<path d="M410.371 66.1621L406.581 100.878L412.222 95.8612L417.032 101.042L415.768 66.9559L410.371 66.1621Z" fill="white"/>
<path d="M422.992 63.0566L442.457 92.0464L435.134 90.2193L433.279 97.044L418.577 66.2647L422.992 63.0566Z" fill="white"/>
<path d="M414.697 73.974C424.119 73.974 431.761 66.3339 431.761 56.9099C431.761 47.4854 424.119 39.8457 414.697 39.8457C405.275 39.8457 397.633 47.4854 397.633 56.9099C397.633 66.3339 405.275 73.974 414.697 73.974Z" fill="#F15A22"/>
<path opacity="0.2" d="M426.068 67.6504C425.776 68.2338 425.532 68.8383 425.33 69.4587C425.015 70.3981 424.715 71.2577 424.212 71.6099C423.71 71.9622 422.803 71.92 421.897 71.9059H421.258L422.549 74.6113C423.672 74.6865 424.795 74.4126 425.758 73.8269C426.974 72.9768 427.458 71.5865 427.876 70.3559L426.068 67.6504Z" fill="black"/>
<path opacity="0.2" d="M416.008 73.4L415.627 73.6349C414.852 74.1046 414.054 74.6072 413.49 74.5743C412.927 74.5414 412.17 73.9355 411.424 73.3014C410.898 72.8265 410.334 72.4019 409.728 72.0332L409.395 75.1144L409.681 75.3587C410.677 76.1994 411.804 77.1529 413.293 77.261C413.702 77.2896 414.115 77.2534 414.514 77.1529C415.078 77.0007 415.618 76.7748 416.121 76.4812L416.008 73.4Z" fill="black"/>
<path d="M414.514 76.0637C414.115 76.1642 413.702 76.2004 413.293 76.1717C411.804 76.0637 410.677 75.1102 409.681 74.2694C409.207 73.8157 408.671 73.4315 408.089 73.1281C407.45 72.9322 406.788 72.8279 406.121 72.8181C404.829 72.7241 403.368 72.6161 402.241 71.6626C401.114 70.7091 400.771 69.3141 400.461 68.0553C400.334 67.3907 400.118 66.7472 399.813 66.1437C399.423 65.6317 398.967 65.1779 398.45 64.7956C397.445 63.9502 396.309 62.9967 395.947 61.5077C395.585 60.0188 396.149 58.6614 396.647 57.4495C396.924 56.869 397.116 56.2523 397.225 55.6177C397.215 54.9428 397.112 54.2725 396.915 53.6262C396.609 52.3721 396.262 50.9536 396.816 49.6009C397.37 48.2481 398.62 47.4637 399.719 46.7827C400.306 46.4633 400.841 46.0631 401.316 45.5943C401.691 45.0556 401.987 44.4657 402.199 43.8424C402.668 42.6352 403.246 41.2684 404.514 40.4793C405.782 39.6902 407.177 39.8264 408.45 39.9157C409.136 40.0049 409.831 39.9955 410.512 39.8875C411.165 39.6616 411.785 39.3455 412.354 38.9481C413.439 38.2764 414.669 37.5155 416.111 37.6189C417.553 37.7222 418.727 38.6804 419.718 39.5258C420.16 40.0261 420.714 40.4173 421.329 40.6691C421.949 40.9208 422.616 41.0265 423.283 40.9772C424.57 41.0711 426.036 41.1792 427.163 42.128C428.29 43.0768 428.629 44.4765 428.939 45.7352C429.065 46.3999 429.286 47.0434 429.591 47.6469C429.977 48.1594 430.437 48.6131 430.954 48.995C431.954 49.8404 433.091 50.7986 433.457 52.2828C433.823 53.7671 433.255 55.1339 432.757 56.3457C432.475 56.9239 432.283 57.5392 432.175 58.1729C432.184 58.8502 432.292 59.5218 432.49 60.1691C432.795 61.4185 433.138 62.837 432.588 64.1897C432.039 65.5424 430.784 66.3268 429.685 67.0079C429.075 67.2723 428.53 67.6749 428.098 68.184C427.666 68.6937 427.36 69.2958 427.201 69.9435C426.731 71.1507 426.158 72.5175 424.89 73.3066C423.622 74.0957 422.222 73.9594 420.949 73.8702C420.268 73.7251 419.563 73.7359 418.887 73.9026C418.215 74.0693 417.586 74.3878 417.051 74.8331C416.271 75.3714 415.416 75.7861 414.514 76.0637ZM406.294 42.6399C406.168 42.6705 406.045 42.7198 405.933 42.7855C405.411 43.1096 405.064 43.9645 404.697 44.871C404.392 45.7592 403.946 46.5929 403.378 47.3416C402.729 48.0363 401.973 48.6244 401.142 49.0842C400.315 49.5962 399.535 50.08 399.31 50.6342C399.085 51.1884 399.31 52.1044 399.531 52.9827C399.808 53.8958 399.935 54.8474 399.911 55.8009C399.794 56.7206 399.535 57.6163 399.141 58.4547C398.765 59.3706 398.408 60.2301 398.563 60.8501C398.718 61.4701 399.427 62.0667 400.184 62.7008C400.926 63.2621 401.574 63.9356 402.105 64.697C402.565 65.5354 402.894 66.44 403.077 67.379C403.298 68.2714 403.547 69.1967 403.979 69.5772C404.411 69.9576 405.35 70.0469 406.327 70.1032C407.276 70.0718 408.22 70.2408 409.103 70.5997C409.982 70.9581 410.775 71.4982 411.433 72.184C412.18 72.8134 412.884 73.4146 413.5 73.4569C414.115 73.4991 414.862 72.9872 415.637 72.5175C416.435 71.9623 417.318 71.5391 418.248 71.2634C419.202 71.0774 420.179 71.0421 421.146 71.16C422.053 71.2258 422.992 71.2915 423.495 70.9909C423.997 70.6903 424.364 69.812 424.735 68.9102C425.04 68.0206 425.486 67.185 426.055 66.4349C426.703 65.7392 427.459 65.1512 428.29 64.6923C429.117 64.1803 429.892 63.6965 430.122 63.1423C430.352 62.588 430.122 61.6721 429.897 60.7938C429.624 59.8798 429.497 58.9291 429.516 57.9756C429.634 57.054 429.892 56.1569 430.291 55.3171C430.667 54.4059 431.019 53.5416 430.869 52.9216C430.719 52.3016 430 51.7051 429.249 51.071C428.506 50.5111 427.858 49.8376 427.328 49.0748C426.867 48.2373 426.538 47.3322 426.355 46.3928C426.13 45.5004 425.886 44.5751 425.453 44.1946C425.021 43.8142 424.082 43.7249 423.105 43.6733C422.156 43.6521 421.212 43.4807 420.315 43.166C419.46 42.7668 418.68 42.2341 417.995 41.5878C417.248 40.9584 416.548 40.3619 415.933 40.3149C415.317 40.268 414.57 40.7846 413.795 41.2543C412.992 41.8053 412.109 42.2285 411.179 42.5084C410.226 42.6935 409.249 42.7268 408.286 42.6071C407.624 42.5249 406.952 42.5361 406.294 42.6399Z" fill="#F15A22"/>
<path d="M414.698 71.6157C422.819 71.6157 429.404 65.0319 429.404 56.9094C429.404 48.7874 422.819 42.2031 414.698 42.2031C406.576 42.2031 399.991 48.7874 399.991 56.9094C399.991 65.0319 406.576 71.6157 414.698 71.6157Z" stroke="white" stroke-width="1.91" stroke-miterlimit="10"/>
<path d="M412.846 49.3828L416.51 53.7322L422.175 53.1827L419.164 58.0112L421.437 63.2248L415.918 61.858L411.663 65.6344L411.254 59.9604L406.351 57.0765L411.621 54.9347L412.846 49.3828Z" fill="#F4F4F4"/>
<path d="M89.9658 203.973L58.7121 214.043C58.6562 214.061 58.5979 214.068 58.5397 214.064C58.4814 214.059 58.4246 214.044 58.3725 214.017C58.3208 213.99 58.2743 213.953 58.2367 213.909C58.1991 213.864 58.1705 213.812 58.1531 213.757L45.1425 173.377C45.1115 173.263 45.1246 173.143 45.1782 173.038C45.2322 172.934 45.3233 172.854 45.4337 172.813L68.8435 165.27L79.6465 170.46L90.2335 203.409C90.2725 203.519 90.2664 203.641 90.2162 203.746C90.1659 203.852 90.0757 203.934 89.9658 203.973Z" fill="white"/>
<path d="M75.577 171.482L51.4814 179.345L51.8455 180.461L75.941 172.598L75.577 171.482Z" fill="white"/>
<path d="M76.7656 175.383L52.6475 183.233L53.0105 184.35L77.1291 176.5L76.7656 175.383Z" fill="white"/>
<path d="M77.9232 178.957L53.8047 186.808L54.1682 187.924L78.2868 180.074L77.9232 178.957Z" fill="white"/>
<path d="M79.0878 182.525L54.9697 190.376L55.3333 191.492L79.4514 183.642L79.0878 182.525Z" fill="white"/>
<path d="M80.2499 186.1L56.1318 193.95L56.4949 195.067L80.6135 187.216L80.2499 186.1Z" fill="white"/>
<path d="M81.4169 189.674L57.2988 197.524L57.6624 198.641L81.7805 190.79L81.4169 189.674Z" fill="white"/>
<path d="M82.5771 193.246L58.459 201.097L58.8221 202.213L82.9406 194.363L82.5771 193.246Z" fill="white"/>
<path d="M83.7225 196.467L59.627 204.33L59.991 205.445L84.0865 197.582L83.7225 196.467Z" fill="white"/>
<path d="M68.8438 165.287L79.6468 170.477L71.8075 173.004C71.6944 173.035 71.5736 173.022 71.4689 172.968C71.3646 172.915 71.2843 172.823 71.2439 172.713L68.8438 165.287Z" fill="#DADDDF"/>
<path opacity="0.2" d="M68.8438 165.287L79.6468 170.477L71.8075 173.004C71.6944 173.035 71.5736 173.022 71.4689 172.968C71.3646 172.915 71.2843 172.823 71.2439 172.713L68.8438 165.287Z" fill="black"/>
</svg>
