<svg width="18" height="18" viewBox="0 0 18 18" fill="none" xmlns="http://www.w3.org/2000/svg">
<g clip-path="url(#clip0)">
<path d="M17.8396 13.0258C17.7912 12.9448 17.4919 12.2945 16.0518 10.9579C14.5442 9.55825 14.7467 9.78552 16.5626 7.36547C17.6685 5.89161 18.1107 4.99154 17.9723 4.60676C17.8407 4.23998 17.0272 4.33674 17.0272 4.33674L14.3225 4.35249C14.3225 4.35249 14.1223 4.32549 13.9726 4.41437C13.8275 4.50213 13.7341 4.70464 13.7341 4.70464C13.7341 4.70464 13.3055 5.84548 12.7339 6.8153C11.529 8.86183 11.0463 8.96983 10.8494 8.8427C10.3915 8.5468 10.5063 7.65236 10.5063 7.01781C10.5063 5.03429 10.8067 4.20736 9.9201 3.99359C9.62533 3.92271 9.40932 3.87546 8.65663 3.86758C7.69131 3.85745 6.87338 3.87096 6.41097 4.0971C6.1027 4.24786 5.86531 4.58426 6.01044 4.60338C6.18933 4.62701 6.59436 4.71252 6.80925 5.00504C7.08714 5.38194 7.07702 6.23026 7.07702 6.23026C7.07702 6.23026 7.23678 8.56481 6.70462 8.85508C6.33897 9.05422 5.8383 8.64806 4.76385 6.79055C4.21368 5.83985 3.7974 4.7879 3.7974 4.7879C3.7974 4.7879 3.71752 4.59213 3.57464 4.4875C3.40138 4.36037 3.15836 4.31986 3.15836 4.31986L0.586419 4.33561C0.586419 4.33561 0.200516 4.34687 0.0587555 4.5145C-0.0672538 4.66414 0.0486297 4.97241 0.0486297 4.97241C0.0486297 4.97241 2.06253 9.68314 4.34194 12.0582C6.43347 14.2352 8.8074 14.0923 8.8074 14.0923H9.88297C9.88297 14.0923 10.2081 14.0563 10.3735 13.8775C10.5265 13.7132 10.5209 13.4049 10.5209 13.4049C10.5209 13.4049 10.4995 11.9614 11.1701 11.7488C11.8305 11.5395 12.6788 13.1439 13.5777 13.7616C14.2573 14.2285 14.7737 14.1261 14.7737 14.1261L17.178 14.0923C17.178 14.0923 18.4359 14.0147 17.8396 13.0258Z" fill="#4A76A8"/>
</g>
<defs>
<clipPath id="clip0">
<rect width="18" height="18" fill="white"/>
</clipPath>
</defs>
</svg>
