<svg width="18" height="18" viewBox="0 0 18 18" fill="none" xmlns="http://www.w3.org/2000/svg">
<g clip-path="url(#clip0)">
<path d="M8.11395 12.6785C6.71853 12.5329 5.46035 12.1893 4.38315 11.3468C4.24949 11.242 4.1115 11.1409 3.98953 11.0238C3.51804 10.571 3.47053 10.0524 3.84361 9.51795C4.16277 9.0606 4.69855 8.93826 5.25543 9.20086C5.36327 9.25176 5.46601 9.31529 5.56442 9.38354C7.57196 10.7629 10.3298 10.801 12.3449 9.44556C12.5445 9.29248 12.7579 9.16768 13.0053 9.10396C13.4862 8.98048 13.9347 9.15713 14.1928 9.5779C14.4876 10.0584 14.4838 10.5275 14.1206 10.9006C13.5633 11.4725 12.8931 11.8863 12.1485 12.1751C11.4443 12.4481 10.6731 12.5855 9.90978 12.6768C10.025 12.8021 10.0793 12.8638 10.1513 12.9362C11.1878 13.9776 12.2288 15.0146 13.2618 16.0592C13.6138 16.4151 13.6873 16.8564 13.4935 17.2704C13.2816 17.7229 12.8073 18.0205 12.3422 17.9887C12.0476 17.9683 11.8178 17.8217 11.6136 17.616C10.8315 16.8289 10.0346 16.0564 9.26825 15.2544C9.04524 15.0212 8.93797 15.0653 8.74115 15.2678C7.95427 16.0779 7.15458 16.8755 6.35016 17.6686C5.98896 18.0247 5.55914 18.0888 5.14025 17.8854C4.69496 17.6695 4.41162 17.215 4.43349 16.7582C4.44857 16.4492 4.60052 16.2132 4.8126 16.0015C5.83833 14.9773 6.86124 13.9504 7.88452 12.9245C7.9522 12.8562 8.01535 12.7839 8.11395 12.6785Z" fill="#EE8208"/>
<path d="M8.96448 9.11096C6.47509 9.10248 4.4338 7.03876 4.44832 4.5454C4.46265 2.02453 6.50525 -0.0069573 9.01915 1.79086e-05C11.5381 0.0068046 13.56 2.06751 13.5474 4.61459C13.5346 7.10285 11.4791 9.11963 8.96448 9.11096ZM11.2269 4.55144C11.2226 3.31343 10.2366 2.32785 9.00106 2.32672C7.75513 2.3254 6.76032 3.32889 6.76993 4.57821C6.77917 5.8115 7.77361 6.7901 9.01256 6.78558C10.2477 6.78124 11.231 5.78925 11.2269 4.55144Z" fill="#EE8208"/>
</g>
<defs>
<clipPath id="clip0">
<rect width="18" height="18" fill="white"/>
</clipPath>
</defs>
</svg>
