<svg width="91" height="90" viewBox="0 0 91 90" fill="none" xmlns="http://www.w3.org/2000/svg">
<path d="M60.854 14.5234C53.6577 14.5234 47.4695 18.926 44.8435 25.1797C42.2158 18.926 36.0249 14.5234 28.825 14.5234C19.253 14.5234 11.4648 22.3089 11.4648 31.8791C11.4648 35.5723 12.6576 39.1328 14.9446 42.2153L43.7933 78.2432C44.0489 78.5616 44.4346 78.7473 44.8435 78.7473H44.8444C45.2534 78.7473 45.6399 78.5607 45.8946 78.2414L75.3676 41.3059C75.3954 41.27 75.4232 41.2323 75.4483 41.1938C77.2626 38.3669 78.2223 35.1454 78.2223 31.8791C78.2232 22.3089 70.4305 14.5234 60.854 14.5234ZM73.2215 39.6835L44.8418 75.2487L17.0746 40.5731C15.1643 37.9965 14.1545 34.9903 14.1545 31.8791C14.1545 23.7923 20.7355 17.214 28.8241 17.214C36.9155 17.214 43.4983 23.7923 43.4983 31.8791C43.4983 32.6226 44.1001 33.2244 44.8435 33.2244C45.587 33.2244 46.1888 32.6226 46.1888 31.8791C46.1888 23.7923 52.7672 17.214 60.854 17.214C68.9471 17.214 75.5326 23.7923 75.5326 31.8791C75.5326 34.6082 74.7335 37.305 73.2215 39.6835Z" fill="#10B7F5"/>
</svg>
