<svg width="90" height="90" viewBox="0 0 90 90" fill="none" xmlns="http://www.w3.org/2000/svg">
<path d="M64.0642 10.5248C63.8581 10.0658 63.4153 9.75893 62.9131 9.72923C62.4001 9.69143 61.933 9.95063 61.6747 10.3817L56.2486 19.415C55.8643 20.054 56.0722 20.8838 56.7112 21.2672C57.3493 21.6515 58.18 21.4454 58.5643 20.8055L61.2778 16.2875C60.2959 25.2821 55.6456 34.2461 48.172 41.3354C39.3178 49.7342 27.877 54.3593 15.9574 54.3593C15.2113 54.3593 14.6074 54.9641 14.6074 55.7093C14.6074 56.4545 15.2113 57.0593 15.9574 57.0593C28.5718 57.0593 40.6723 52.1705 50.0305 43.2947C57.8929 35.8373 62.8231 26.3855 63.9382 16.85L65.9524 21.3518C66.1765 21.8531 66.6697 22.151 67.1854 22.151C67.3699 22.151 67.5571 22.1132 67.7353 22.0331C68.4166 21.7289 68.7217 20.9297 68.4166 20.2493L64.0642 10.5248Z" fill="#10B7F5"/>
<path d="M16.2914 64.2891C15.5453 64.2891 14.9414 64.8939 14.9414 65.6391V78.9249C14.9414 79.6701 15.5453 80.2749 16.2914 80.2749C17.0375 80.2749 17.6414 79.6701 17.6414 78.9249V65.6391C17.6414 64.8939 17.0375 64.2891 16.2914 64.2891Z" fill="#10B7F5"/>
<path d="M36.6332 58.6582C35.8871 58.6582 35.2832 59.263 35.2832 60.0082V78.9253C35.2832 79.6705 35.8871 80.2753 36.6332 80.2753C37.3793 80.2753 37.9832 79.6705 37.9832 78.9253V60.0082C37.9832 59.263 37.3793 58.6582 36.6332 58.6582Z" fill="#10B7F5"/>
<path d="M56.5141 45.2285C55.7689 45.2285 55.1641 45.8333 55.1641 46.5785V78.9236C55.1641 79.6688 55.7689 80.2736 56.5141 80.2736C57.2593 80.2736 57.8641 79.6688 57.8641 78.9236V46.5785C57.8641 45.8333 57.2593 45.2285 56.5141 45.2285Z" fill="#10B7F5"/>
<path d="M74.0434 12.8848C73.2982 12.8848 72.6934 13.4887 72.6934 14.2348V78.9241C72.6934 79.6693 73.2982 80.2741 74.0434 80.2741C74.7886 80.2741 75.3934 79.6693 75.3934 78.9241V14.2348C75.3934 13.4887 74.7895 12.8848 74.0434 12.8848Z" fill="#10B7F5"/>
</svg>
