<svg width="90" height="90" viewBox="0 0 90 90" fill="none" xmlns="http://www.w3.org/2000/svg">
<path d="M58.3917 35.9828C58.4043 35.9083 58.4106 35.8321 58.4106 35.7541C58.4106 30.4403 55.251 25.8611 50.7175 23.7661V14.8677C50.7175 14.1242 50.1148 13.5225 49.3723 13.5225H40.9519C40.2084 13.5225 39.6066 14.1242 39.6066 14.8677V23.8352C35.326 25.9104 32.3154 30.313 31.9943 35.6734C30.7818 56.0997 24.3712 62.5631 24.3066 62.6268L25.2349 63.6008V64.946H65.1664C65.7225 64.946 66.2184 64.6008 66.4184 64.0815C66.6184 63.5631 66.4749 62.9721 66.0633 62.5981C65.9906 62.5327 58.7514 55.7481 58.3917 35.9828ZM42.298 16.213H48.0279V22.8558C47.1176 22.6567 46.175 22.5446 45.2056 22.5446C44.2029 22.5446 43.2334 22.6693 42.298 22.8845V16.213ZM27.8958 62.2564C30.2195 58.6781 33.7898 50.8487 34.6812 35.8339C35.0426 29.7919 39.5672 25.2351 45.2047 25.2351C50.9005 25.2351 55.5541 29.7892 55.7156 35.4483C55.7012 35.5308 55.6949 35.6151 55.6958 35.7003C55.9093 50.629 59.8536 58.6673 62.3226 62.2555H27.8958V62.2564Z" fill="#10B7F5"/>
<path d="M52.91 66.0215C52.1674 66.0215 51.5647 66.6242 51.5647 67.3667C51.5647 70.7317 48.8276 73.4688 45.4635 73.4688C42.0995 73.4688 39.3624 70.7317 39.3624 67.3667C39.3624 66.6242 38.7606 66.0215 38.0171 66.0215C37.2737 66.0215 36.6719 66.6242 36.6719 67.3667C36.6719 72.215 40.6153 76.1593 45.4635 76.1593C50.3118 76.1593 54.2552 72.2159 54.2552 67.3667C54.2552 66.6242 53.6525 66.0215 52.91 66.0215Z" fill="#10B7F5"/>
<path d="M18.5226 54.4642C15.564 52.2795 13.8663 48.9209 13.8663 45.2519C13.8663 41.7444 15.4411 38.4817 18.1872 36.3006C18.7684 35.8387 18.8661 34.9921 18.4034 34.411C17.9406 33.8289 17.094 33.7321 16.5137 34.1948C13.1219 36.8898 11.1758 40.9202 11.1758 45.2528C11.1758 49.7181 13.3246 53.9727 16.9245 56.6309C17.1648 56.8076 17.4455 56.8937 17.7227 56.8937C18.1343 56.8937 18.5424 56.7045 18.806 56.3475C19.2464 55.7476 19.1199 54.9054 18.5226 54.4642Z" fill="#10B7F5"/>
<path d="M5.18074 45.2511C5.18074 39.419 7.71071 33.8783 12.1222 30.0489C12.6828 29.5619 12.7428 28.7117 12.2559 28.1511C11.768 27.5897 10.9187 27.5296 10.3582 28.0175C5.35831 32.3582 2.49023 38.6396 2.49023 45.252C2.49023 52.0715 5.51615 58.4884 10.7904 62.8559C11.0415 63.0631 11.3456 63.1653 11.6478 63.1653C12.0352 63.1653 12.4191 62.9985 12.6846 62.6784C13.1581 62.1053 13.0783 61.2578 12.5061 60.7843C7.85061 56.9279 5.18074 51.2671 5.18074 45.2511Z" fill="#10B7F5"/>
<path d="M73.1743 34.6456C72.5932 34.1819 71.7475 34.2796 71.2838 34.8599C70.8211 35.441 70.9179 36.2877 71.4982 36.7495C74.2443 38.936 75.82 42.1996 75.82 45.7026C75.82 49.3698 74.1205 52.7275 71.1583 54.914C70.5601 55.3552 70.4327 56.1983 70.8749 56.7956C71.1385 57.1525 71.5457 57.3417 71.9582 57.3417C72.2363 57.3417 72.5161 57.2556 72.7564 57.079C76.3608 54.419 78.5114 50.1662 78.5114 45.7017C78.5105 41.3754 76.5653 37.345 73.1743 34.6456Z" fill="#10B7F5"/>
<path d="M79.3225 28.4677C78.7602 27.9798 77.9118 28.0399 77.4248 28.6013C76.9378 29.1628 76.9979 30.0121 77.5585 30.499C81.9709 34.3294 84.5017 39.8701 84.5017 45.7013C84.5017 51.7199 81.8301 57.3808 77.1737 61.2327C76.6006 61.7062 76.5208 62.5546 76.9943 63.1268C77.2607 63.4478 77.6454 63.6146 78.032 63.6146C78.3342 63.6146 78.6382 63.5142 78.8885 63.3061C84.1654 58.9403 87.1922 52.5244 87.1922 45.7004C87.1931 39.0916 84.3242 32.8093 79.3225 28.4677Z" fill="#10B7F5"/>
</svg>
