<svg width="90" height="90" viewBox="0 0 90 90" fill="none" xmlns="http://www.w3.org/2000/svg">
<path d="M72.5201 18.5757C72.4987 18.5543 72.4746 18.5328 72.4513 18.5123L67.272 14.0127V10.1251C67.272 9.38456 66.6717 8.78516 65.932 8.78516C65.1924 8.78516 64.5921 9.38456 64.5921 10.1251V19.3761C64.5921 20.1167 65.1924 20.7161 65.932 20.7161C66.6717 20.7161 67.272 20.1167 67.272 19.3761V17.5618L70.6576 20.5035C74.3567 24.2294 75.0491 29.9644 72.3415 34.4613L65.3889 45.9089L65.0718 45.3997C64.827 45.0067 64.3964 44.7682 63.9346 44.7682C63.931 44.7682 63.9275 44.7682 63.9239 44.7682C63.4585 44.7718 63.027 45.0174 62.7867 45.4176C61.8202 47.0229 59.5583 48.4316 57.945 48.4316C56.2495 48.4316 53.6867 46.9389 52.7719 45.4185C52.5316 45.0183 52.1002 44.7727 51.6339 44.7691C51.1783 44.7503 50.7325 45.0049 50.486 45.4015L50.26 45.766L43.545 34.4702C40.8294 29.9564 41.5369 24.1999 45.2146 20.5195L48.4028 17.6387V19.6673C48.4028 20.4079 49.0031 21.0073 49.7427 21.0073C50.4824 21.0073 51.0827 20.4079 51.0827 19.6673V10.4136C51.0827 9.6731 50.4824 9.07369 49.7427 9.07369C49.0031 9.07369 48.4028 9.6731 48.4028 10.4136V14.0244L43.3681 18.5757C38.7685 23.1753 37.8967 30.2789 41.2448 35.8441L48.6663 48.328L47.9946 49.4089C47.7292 49.8368 47.7257 50.3763 47.9847 50.8078C49.6865 53.6324 53.2793 55.9166 56.606 56.424V62.711C56.606 62.7709 56.6104 62.8298 56.6185 62.8879C56.5077 73.1385 48.7887 81.4399 39.317 81.4399C29.7766 81.4399 22.0156 73.017 22.0156 62.6637C22.0156 62.6047 22.012 62.5458 22.004 62.4886V36.2005C24.8688 35.4984 27.0038 32.915 27.0038 29.8358C27.0038 26.2188 24.063 23.2763 20.4478 23.2763C16.8291 23.2763 13.8848 26.2188 13.8848 29.8358C13.8848 33.0686 16.2395 35.7566 19.3241 36.2917V62.904C19.3241 62.9736 19.3294 63.0424 19.3402 63.1085C19.5617 74.7348 28.4384 84.119 39.317 84.119C50.335 84.119 59.2993 74.4937 59.2993 62.6628C59.2993 62.5994 59.2948 62.5377 59.2859 62.477V56.4222C62.4928 55.9219 65.823 53.7146 67.5775 50.8069C67.8383 50.3754 67.8339 49.8341 67.5677 49.4062L66.9763 48.4566L74.6346 35.8459C77.9889 30.2762 77.1188 23.1735 72.5201 18.5757ZM16.5638 29.8358C16.5638 27.6963 18.3057 25.9562 20.447 25.9562C22.5846 25.9562 24.323 27.6963 24.323 29.8358C24.323 31.9752 22.5846 33.7154 20.447 33.7154C18.3057 33.7154 16.5638 31.9752 16.5638 29.8358ZM57.9477 53.8513C57.9468 53.8513 57.9468 53.8513 57.9459 53.8513C57.945 53.8513 57.9441 53.8513 57.9432 53.8513C55.4849 53.8504 52.3681 52.1817 50.7325 50.0806L51.7866 48.3861C53.4678 49.9654 55.9324 51.1106 57.9459 51.1106C60.0595 51.1106 62.2695 49.8993 63.789 48.4075L64.8342 50.0869C63.2039 52.2433 60.3248 53.8495 57.9477 53.8513Z" fill="#10B7F5"/>
</svg>
