<svg width="90" height="90" viewBox="0 0 90 90" fill="none" xmlns="http://www.w3.org/2000/svg">
<path d="M8.22611 24.4648H17.1281C17.7792 28.7131 21.4481 31.9794 25.8749 31.9794C30.3017 31.9794 33.9697 28.7122 34.6217 24.4648H82.8293C83.5718 24.4648 84.1745 23.8631 84.1745 23.1196C84.1745 22.3761 83.5718 21.7743 82.8293 21.7743H34.6208C33.9697 17.5269 30.3008 14.2598 25.874 14.2598C21.4472 14.2598 17.7792 17.5269 17.1272 21.7743H8.22611C7.48264 21.7743 6.88086 22.3761 6.88086 23.1196C6.88086 23.8631 7.48264 24.4648 8.22611 24.4648ZM25.874 16.9503C29.2739 16.9503 32.0397 19.7152 32.0433 23.1133C32.0433 23.1151 32.0424 23.1169 32.0424 23.1187C32.0424 23.1205 32.0433 23.1223 32.0433 23.1241C32.0397 26.5231 29.2739 29.288 25.874 29.288C22.4723 29.288 19.7047 26.5204 19.7047 23.1187C19.7047 19.7179 22.4723 16.9503 25.874 16.9503Z" fill="#10B7F5"/>
<path d="M50.526 46.1934C51.1771 50.4408 54.8461 53.7079 59.2729 53.7079C63.6996 53.7079 67.3677 50.4408 68.0197 46.1934H81.7717C82.5143 46.1934 83.117 45.5907 83.117 44.8481C83.117 44.1046 82.5143 43.5029 81.7717 43.5029H68.0188C67.3677 39.2554 63.6987 35.9883 59.272 35.9883C54.8452 35.9883 51.1771 39.2554 50.5251 43.5029H7.16947C6.42599 43.5029 5.82422 44.1046 5.82422 44.8481C5.82422 45.5907 6.42599 46.1934 7.16947 46.1934H50.526ZM59.2729 38.6788C62.6745 38.6788 65.4422 41.4464 65.4422 44.8481C65.4422 48.2498 62.6745 51.0174 59.2729 51.0174C55.873 51.0174 53.1071 48.2525 53.1035 44.8544C53.1035 44.8526 53.1044 44.8508 53.1044 44.849C53.1044 44.8472 53.1035 44.8445 53.1035 44.8418C53.1071 41.4428 55.873 38.6788 59.2729 38.6788Z" fill="#10B7F5"/>
<path d="M82.8275 65.5351H34.6208C33.9697 61.2877 30.3008 58.0205 25.874 58.0205C21.4472 58.0205 17.7792 61.2877 17.1272 65.5351H8.22611C7.48264 65.5351 6.88086 66.1378 6.88086 66.8803C6.88086 67.6229 7.48264 68.2256 8.22611 68.2256H17.1281C17.7792 72.473 21.4481 75.7402 25.8749 75.7402C30.3017 75.7402 33.9697 72.473 34.6217 68.2256H82.8293C83.5718 68.2256 84.1745 67.6229 84.1745 66.8803C84.1745 66.1378 83.5709 65.5351 82.8275 65.5351ZM25.874 73.0497C22.4723 73.0497 19.7047 70.282 19.7047 66.8803C19.7047 63.4786 22.4723 60.711 25.874 60.711C29.2757 60.711 32.0433 63.4786 32.0433 66.8803C32.0433 70.282 29.2757 73.0497 25.874 73.0497Z" fill="#10B7F5"/>
</svg>
