<svg width="90" height="90" viewBox="0 0 90 90" fill="none" xmlns="http://www.w3.org/2000/svg">
<path d="M82.5222 16.166H49.7896C47.2273 16.166 45.1431 18.2503 45.1431 20.8125V24.7173H8.48316C5.19268 24.7173 2.51562 27.3944 2.51562 30.6858V58.2392C2.51562 61.5288 5.19268 64.2049 8.48316 64.2049H14.2148V75.7598C14.2148 76.2925 14.5287 76.7741 15.0157 76.9902C15.1906 77.0673 15.3753 77.105 15.5592 77.105C15.8874 77.105 16.2121 76.9848 16.4641 76.7552L30.278 64.2049H54.3168C57.6064 64.2049 60.2834 61.5288 60.2834 58.2392V45.1365H66.8061L76.561 53.9981C76.8139 54.2277 77.1376 54.3478 77.4659 54.3478C77.6497 54.3478 77.8354 54.3102 78.0102 54.233C78.4972 54.0178 78.8111 53.5353 78.8111 53.0026V45.1365H82.5213C85.0818 45.1365 87.1651 43.0513 87.1651 40.4891V20.8125C87.166 18.2503 85.0836 16.166 82.5222 16.166ZM57.5938 58.2383C57.5938 60.0445 56.1239 61.5135 54.3177 61.5135H29.7588C29.4242 61.5135 29.1023 61.6382 28.8539 61.8633L16.9044 72.7195V62.8588C16.9044 62.1153 16.3027 61.5135 15.5592 61.5135H8.48226C6.67514 61.5135 5.20523 60.0445 5.20523 58.2383V30.6849C5.20523 28.8777 6.67514 27.4069 8.48226 27.4069H46.4749C46.4793 27.4069 46.4838 27.4078 46.4883 27.4078C46.4928 27.4078 46.4973 27.4069 46.5018 27.4069H54.3177C56.1248 27.4069 57.5938 28.8777 57.5938 30.6849V58.2383ZM84.4755 40.4891C84.4755 41.568 83.5993 42.446 82.5222 42.446H77.4668C76.7242 42.446 76.1215 43.0477 76.1215 43.7912V49.9632L68.2312 42.7957C67.9836 42.5715 67.6608 42.446 67.3262 42.446H60.2834V30.6858C60.2834 27.3953 57.6064 24.7173 54.3168 24.7173H47.8336V20.8125C47.8336 19.7336 48.7116 18.8565 49.7896 18.8565H82.5222C83.5993 18.8565 84.4755 19.7336 84.4755 20.8125V40.4891Z" fill="#10B7F5"/>
</svg>
