<svg width="90" height="90" viewBox="0 0 90 90" fill="none" xmlns="http://www.w3.org/2000/svg">
<path d="M44.6652 54.3115C29.4719 54.3115 17.1113 66.6721 17.1113 81.8654C17.1113 82.6059 17.7107 83.2053 18.4513 83.2053H70.8791C71.6196 83.2053 72.219 82.6059 72.219 81.8654C72.219 66.6721 59.8584 54.3115 44.6652 54.3115ZM19.827 80.5254C20.5255 67.4305 31.3997 56.9914 44.6652 56.9914C57.9307 56.9914 68.8048 67.4305 69.5034 80.5254H19.827Z" fill="#10B7F5"/>
<path d="M44.2094 51.8618C52.9977 51.8618 60.1486 44.7092 60.1486 35.9164C60.1486 32.8104 59.2526 29.8143 57.5669 27.2282V7.463C57.5669 6.72245 56.9675 6.12305 56.227 6.12305H32.1936C31.4531 6.12305 30.8537 6.72245 30.8537 7.463V27.2192C29.1636 29.8107 28.2676 32.8131 28.2676 35.9164C28.2667 44.7092 35.4184 51.8618 44.2094 51.8618ZM33.5327 8.80384H54.8861V26.6225H33.5327V8.80384ZM32.7198 29.3015H55.7035C56.8603 31.307 57.4687 33.5751 57.4687 35.9164C57.4678 43.2316 51.5202 49.1819 44.2094 49.1819C36.8969 49.1819 30.9475 43.2307 30.9475 35.9164C30.9475 33.5786 31.5603 31.3096 32.7198 29.3015Z" fill="#10B7F5"/>
<path d="M48.8806 16.5213H45.5512V13.1866C45.5512 12.4461 44.9518 11.8467 44.2113 11.8467C43.4707 11.8467 42.8713 12.4461 42.8713 13.1866V16.5213H39.5411C38.8006 16.5213 38.2012 17.1207 38.2012 17.8613C38.2012 18.6018 38.8006 19.2012 39.5411 19.2012H42.8713V22.5314C42.8713 23.272 43.4707 23.8714 44.2113 23.8714C44.9518 23.8714 45.5512 23.272 45.5512 22.5314V19.2012H48.8806C49.6211 19.2012 50.2205 18.6018 50.2205 17.8613C50.2205 17.1207 49.6202 16.5213 48.8806 16.5213Z" fill="#10B7F5"/>
</svg>
