<svg width="90" height="90" viewBox="0 0 90 90" fill="none" xmlns="http://www.w3.org/2000/svg">
<path d="M37.3905 36.9893C30.7567 36.9893 25.3594 42.3875 25.3594 49.0239C25.3594 49.7636 25.9588 50.3639 26.6993 50.3639H48.0789C48.8186 50.3639 49.4189 49.7636 49.4189 49.0239C49.4189 42.3884 44.0233 36.9893 37.3905 36.9893ZM28.1349 47.684C28.7861 43.1585 32.689 39.6692 37.3905 39.6692C42.0911 39.6692 45.9912 43.1585 46.6434 47.684H28.1349Z" fill="#10B7F5"/>
<path d="M37.2006 35.9647C41.2259 35.9647 44.5007 32.6907 44.5007 28.6672C44.5007 24.6474 41.2259 21.377 37.2006 21.377C33.1816 21.377 29.9121 24.6474 29.9121 28.6672C29.9121 32.6907 33.1816 35.9647 37.2006 35.9647ZM37.2006 24.0569C39.7483 24.0569 41.8208 26.1249 41.8208 28.6672C41.8208 31.2132 39.7483 33.2848 37.2006 33.2848C34.6592 33.2848 32.592 31.2132 32.592 28.6672C32.592 26.1249 34.6592 24.0569 37.2006 24.0569Z" fill="#10B7F5"/>
<path d="M81.0424 73.2581L67.0666 59.2912C66.8156 59.0401 66.4743 58.899 66.1188 58.899C66.1188 58.899 66.1188 58.899 66.1179 58.899C65.7633 58.899 65.422 59.0401 65.1701 59.2912L62.877 61.5861L58.7517 57.4617C63.7846 52.1688 66.8826 45.0214 66.8826 37.1585C66.8826 20.8958 53.6518 7.66504 37.3891 7.66504C21.1273 7.66415 7.89648 20.895 7.89648 37.1576C7.89648 53.4212 21.1273 66.6511 37.39 66.6511C44.8277 66.6511 51.6266 63.8774 56.8203 59.3189L60.9841 63.4817L59.0634 65.4032C58.5409 65.9267 58.5409 66.7753 59.0643 67.2979L73.0393 81.2648C73.2903 81.5158 73.6315 81.6569 73.9871 81.6569C74.3426 81.6569 74.683 81.5158 74.9349 81.2648L81.0433 75.1528C81.2943 74.9017 81.4355 74.5605 81.4355 74.205C81.4346 73.8494 81.2934 73.5091 81.0424 73.2581ZM10.5764 37.1576C10.5764 22.3725 22.6048 10.3441 37.39 10.3441C52.1751 10.3441 64.2035 22.3725 64.2035 37.1576C64.2035 51.9428 52.1751 63.9712 37.39 63.9712C22.6048 63.9712 10.5764 51.9428 10.5764 37.1576ZM73.9853 78.4223L61.9069 66.3492L66.1206 62.1328L78.1999 74.2059L73.9853 78.4223Z" fill="#10B7F5"/>
</svg>
