<svg width="182" height="52" viewBox="0 0 182 52" fill="none" xmlns="http://www.w3.org/2000/svg">
<g clip-path="url(#clip0)">
<path d="M0.78125 0.390625H8.64625C10.3363 0.390625 11.6362 0.845625 12.4812 1.75563C13.3262 2.66563 13.7812 3.96562 13.7812 5.65562C13.7812 7.41062 13.3262 8.77563 12.4162 9.75063C11.5062 10.7256 10.0763 11.2456 8.19125 11.2456H5.59125V17.6156H0.78125V0.390625ZM5.52625 7.73562H6.69625C7.60625 7.73562 8.25625 7.54063 8.64625 7.21563C8.97125 6.82563 9.10125 6.37063 9.10125 5.85063C9.10125 5.33063 8.97125 4.87563 8.64625 4.48563C8.32125 4.09563 7.73625 3.90063 6.82625 3.90063H5.52625V7.73562Z" fill="#1E3685"/>
<path d="M18.7216 9.165L14.6916 8.71C14.8216 7.93 15.0816 7.28 15.3416 6.825C15.6016 6.37 16.0566 5.98 16.5766 5.655C16.9666 5.395 17.4866 5.2 18.2016 5.07C18.9166 4.94 19.6316 4.875 20.4116 4.875C21.7116 4.875 22.6866 4.94 23.4666 5.135C24.2466 5.265 24.8966 5.655 25.4166 6.11C25.8066 6.435 26.0666 6.955 26.2616 7.605C26.4566 8.255 26.5866 8.84 26.5866 9.425V14.95C26.5866 15.535 26.6516 15.99 26.7166 16.315C26.7816 16.64 26.9116 17.095 27.1716 17.615H23.2066C23.0766 17.29 22.9466 17.03 22.8816 16.9C22.8166 16.705 22.8166 16.445 22.7516 16.12C22.1666 16.705 21.6466 17.16 21.0616 17.42C20.2816 17.745 19.4366 17.94 18.4616 17.94C17.1616 17.94 16.1216 17.615 15.4716 16.9C14.7566 16.185 14.4316 15.34 14.4316 14.365C14.4316 13.39 14.6916 12.61 15.1466 12.025C15.6666 11.44 16.5766 10.985 17.8766 10.66C19.4366 10.27 20.4766 10.075 20.9966 9.88C21.4516 9.75 21.9716 9.555 22.4916 9.295C22.4916 8.71 22.3616 8.32 22.1666 8.06C21.9716 7.8 21.5816 7.735 21.0616 7.735C20.3466 7.735 19.8266 7.865 19.5016 8.125C19.1116 8.255 18.9166 8.645 18.7216 9.165ZM22.4266 11.7C21.8416 11.96 21.2566 12.155 20.6066 12.35C19.7616 12.61 19.1766 12.87 18.9816 13.13C18.7216 13.39 18.6566 13.65 18.6566 14.04C18.6566 14.43 18.7866 14.69 18.9816 14.95C19.2416 15.21 19.5666 15.34 20.0216 15.34C20.4766 15.34 20.9316 15.21 21.3216 14.95C21.7116 14.69 22.0366 14.365 22.1666 13.975C22.3616 13.585 22.4266 13.13 22.4266 12.545V11.7Z" fill="#1E3685"/>
<path d="M31.7216 5.46055C32.2416 5.00555 32.9566 4.81055 33.8016 4.81055C35.8816 4.81055 37.4416 5.39555 38.5466 6.63055C39.6516 7.86555 40.1716 9.42555 40.1716 11.2455C40.1716 13.0655 39.6516 14.6255 38.5466 15.9255C37.4416 17.2255 35.8816 17.8755 33.8016 17.8755C31.7216 17.8755 30.1616 17.2255 29.0566 15.9255C28.0166 14.6255 27.4316 12.5455 27.4316 9.62055C27.4316 6.95555 27.8866 4.74555 28.7966 3.12055C29.7066 1.43055 31.0066 0.585547 32.7616 0.520547L34.0616 0.455547C35.2316 0.390547 35.8166 0.260547 35.9466 -0.0644531H39.3266C39.3266 2.21055 38.2216 3.38055 35.9466 3.51055C34.3866 3.57555 33.3466 3.77055 32.8266 4.03055C32.3066 4.35555 31.9816 4.81055 31.7216 5.46055ZM33.8666 14.6255C34.5166 14.6255 35.1016 14.3655 35.4266 13.7805C35.8166 13.1955 35.9466 12.4155 35.9466 11.3755C35.9466 10.3355 35.7516 9.55555 35.3616 8.97055C34.9716 8.38555 34.4516 8.12555 33.8666 8.12555C33.1516 8.12555 32.6316 8.45055 32.2416 9.03555C31.8516 9.62055 31.7216 10.4005 31.7216 11.3755C31.7216 12.4155 31.9166 13.1955 32.2416 13.7155C32.6966 14.3005 33.2166 14.6255 33.8666 14.6255Z" fill="#1E3685"/>
<path d="M40.6914 11.375C40.6914 9.49 41.2764 7.93 42.3814 6.695C43.5514 5.46 45.0464 4.875 46.9964 4.875C49.2064 4.875 50.8964 5.59 52.0014 7.02C52.9114 8.19 53.3664 9.62 53.3664 11.31C53.3664 13.195 52.7814 14.82 51.6764 15.99C50.5714 17.225 49.0114 17.81 46.9964 17.81C45.2414 17.81 43.7464 17.29 42.7064 16.315C41.4064 15.08 40.6914 13.455 40.6914 11.375ZM44.9814 11.375C44.9814 12.48 45.1764 13.325 45.5664 13.845C45.9564 14.365 46.4764 14.625 47.0614 14.625C47.6464 14.625 48.1664 14.365 48.5564 13.845C48.9464 13.325 49.1414 12.48 49.1414 11.31C49.1414 10.205 48.9464 9.425 48.5564 8.905C48.1664 8.385 47.6464 8.125 47.0614 8.125C46.4114 8.125 45.9564 8.385 45.5014 8.905C45.1764 9.49 44.9814 10.27 44.9814 11.375Z" fill="#1E3685"/>
<path d="M63.7658 8.58172H60.7108V17.5517H56.4858V8.58172H53.3008V5.13672H63.7008V8.58172H63.7658Z" fill="#1E3685"/>
<path d="M68.0556 9.165L64.0256 8.71C64.1556 7.93 64.4156 7.28 64.6756 6.825C64.9356 6.37 65.3906 5.98 65.9106 5.655C66.3006 5.395 66.8206 5.2 67.5356 5.07C68.2506 4.94 68.9656 4.875 69.7456 4.875C71.0456 4.875 72.0206 4.94 72.8006 5.135C73.5806 5.265 74.2306 5.655 74.7506 6.11C75.1406 6.435 75.4006 6.955 75.5956 7.605C75.7906 8.255 75.9206 8.84 75.9206 9.425V14.95C75.9206 15.535 75.9856 15.99 76.0506 16.315C76.1156 16.64 76.2456 17.095 76.5056 17.615H72.5406C72.4106 17.29 72.2806 17.03 72.2156 16.9C72.1506 16.705 72.1506 16.445 72.0856 16.12C71.5006 16.705 70.9806 17.16 70.3956 17.42C69.6156 17.745 68.7706 17.94 67.7956 17.94C66.4956 17.94 65.4556 17.615 64.8056 16.9C64.0906 16.185 63.7656 15.34 63.7656 14.365C63.7656 13.39 64.0256 12.61 64.4806 12.025C65.0006 11.44 65.9106 10.985 67.2106 10.66C68.7706 10.27 69.8106 10.075 70.3306 9.88C70.7856 9.75 71.3056 9.555 71.8256 9.295C71.8256 8.71 71.6956 8.32 71.5006 8.06C71.3056 7.8 70.9156 7.735 70.3956 7.735C69.6806 7.735 69.1606 7.865 68.8356 8.125C68.4456 8.255 68.2506 8.645 68.0556 9.165ZM71.7606 11.7C71.1756 11.96 70.5906 12.155 69.9406 12.35C69.0956 12.61 68.5106 12.87 68.3156 13.13C68.0556 13.39 67.9906 13.65 67.9906 14.04C67.9906 14.43 68.1206 14.69 68.3156 14.95C68.5756 15.21 68.9006 15.34 69.3556 15.34C69.8106 15.34 70.2656 15.21 70.6556 14.95C71.0456 14.69 71.3706 14.365 71.5006 13.975C71.6956 13.585 71.7606 13.13 71.7606 12.545V11.7Z" fill="#1E3685"/>
<path d="M91.7815 10.9867C92.6265 11.0517 93.2765 11.3767 93.7965 11.8967C94.3165 12.4167 94.5115 13.1317 94.5115 14.0417C94.5115 15.2117 94.1865 16.1217 93.4715 16.7067C92.7565 17.2917 91.5215 17.6167 89.7015 17.6167H83.3965V5.13672H90.2215C91.4565 5.13672 92.4315 5.39672 93.0815 5.91672C93.7315 6.43672 94.0565 7.21672 94.0565 8.12672C94.0565 8.77672 93.8615 9.36172 93.4065 9.88172C93.0165 10.4017 92.4315 10.7267 91.7815 10.9867ZM87.6865 9.88172H88.7915C89.5065 9.88172 89.8315 9.49172 89.8315 8.77672C89.8315 8.19172 89.4415 7.86672 88.7265 7.86672H87.6865V9.88172ZM87.6865 14.6267H89.1165C89.4415 14.6267 89.7665 14.5617 89.9615 14.3667C90.1565 14.1717 90.2865 13.9117 90.2865 13.5867C90.2865 12.8067 89.8965 12.4817 89.1165 12.4817H87.6865V14.6267Z" fill="#1E3685"/>
<path d="M101.791 0.390625H109.656C111.346 0.390625 112.646 0.845625 113.491 1.75563C114.336 2.66563 114.791 3.96562 114.791 5.65562C114.791 7.41062 114.336 8.77563 113.426 9.75063C112.516 10.7256 111.086 11.2456 109.201 11.2456H106.601V17.6156H101.856V0.390625H101.791ZM106.601 7.73562H107.771C108.681 7.73562 109.331 7.54063 109.721 7.21563C110.111 6.89063 110.306 6.43563 110.306 5.85063C110.306 5.33063 110.176 4.87563 109.851 4.48563C109.396 4.09563 108.811 3.90063 107.901 3.90063H106.601V7.73562Z" fill="#1E3685"/>
<path d="M115.375 11.375C115.375 9.49 115.96 7.93 117.065 6.695C118.235 5.46 119.73 4.875 121.68 4.875C123.89 4.875 125.58 5.59 126.685 7.02C127.595 8.19 128.05 9.62 128.05 11.31C128.05 13.195 127.465 14.82 126.36 15.99C125.255 17.225 123.695 17.81 121.68 17.81C119.925 17.81 118.43 17.29 117.39 16.315C116.09 15.08 115.375 13.455 115.375 11.375ZM119.665 11.375C119.665 12.48 119.86 13.325 120.25 13.845C120.64 14.365 121.16 14.625 121.745 14.625C122.33 14.625 122.85 14.365 123.24 13.845C123.63 13.325 123.825 12.48 123.825 11.31C123.825 10.205 123.63 9.425 123.24 8.905C122.85 8.385 122.33 8.125 121.745 8.125C121.095 8.125 120.64 8.385 120.185 8.905C119.86 9.49 119.665 10.27 119.665 11.375Z" fill="#1E3685"/>
<path d="M137.347 12.675L141.377 13.195C141.182 14.17 140.792 14.95 140.272 15.665C139.752 16.38 139.102 16.9 138.322 17.29C137.542 17.68 136.502 17.875 135.332 17.875C134.162 17.875 133.187 17.745 132.407 17.485C131.627 17.225 130.977 16.835 130.392 16.315C129.807 15.795 129.417 15.145 129.092 14.365C128.767 13.65 128.637 12.61 128.637 11.44C128.637 10.14 128.832 9.1 129.222 8.255C129.482 7.605 129.872 7.085 130.392 6.565C130.912 6.045 131.367 5.72 131.887 5.46C132.732 5.07 133.772 4.875 135.072 4.875C136.892 4.875 138.257 5.265 139.232 5.98C140.207 6.695 140.857 7.8 141.247 9.165L137.282 9.75C137.152 9.23 136.957 8.84 136.567 8.58C136.242 8.32 135.787 8.19 135.267 8.19C134.552 8.19 133.967 8.45 133.577 9.035C133.122 9.62 132.927 10.465 132.927 11.635C132.927 12.675 133.122 13.455 133.577 13.975C134.032 14.495 134.552 14.755 135.202 14.755C135.787 14.755 136.242 14.625 136.632 14.3C136.892 13.845 137.152 13.39 137.347 12.675Z" fill="#1E3685"/>
<path d="M150.54 12.675L154.57 13.195C154.375 14.17 153.985 14.95 153.465 15.665C152.945 16.38 152.295 16.9 151.515 17.29C150.735 17.68 149.695 17.875 148.525 17.875C147.355 17.875 146.38 17.745 145.6 17.485C144.82 17.225 144.17 16.835 143.585 16.315C143 15.795 142.61 15.145 142.285 14.365C141.96 13.65 141.83 12.61 141.83 11.44C141.83 10.14 142.025 9.1 142.415 8.255C142.675 7.605 143.065 7.085 143.585 6.565C144.105 6.045 144.56 5.72 145.08 5.46C145.925 5.07 146.965 4.875 148.265 4.875C150.085 4.875 151.45 5.265 152.425 5.98C153.4 6.695 154.05 7.8 154.44 9.165L150.475 9.75C150.345 9.23 150.15 8.84 149.76 8.58C149.435 8.32 148.98 8.19 148.46 8.19C147.745 8.19 147.16 8.45 146.77 9.035C146.315 9.62 146.12 10.465 146.12 11.635C146.12 12.675 146.315 13.455 146.77 13.975C147.225 14.495 147.745 14.755 148.395 14.755C148.98 14.755 149.435 14.625 149.825 14.3C150.085 13.845 150.345 13.39 150.54 12.675Z" fill="#1E3685"/>
<path d="M167.831 17.6167H163.801V11.5067L159.641 17.6167H155.611V5.13672H159.641V11.3767L163.866 5.13672H167.896V17.6167H167.831Z" fill="#1E3685"/>
<path d="M181.87 17.6167H177.84V11.5067L173.68 17.6167H169.65V5.13672H173.68V11.3767L177.905 5.13672H181.935V17.6167H181.87Z" fill="#1E3685"/>
<path d="M0 24.0504C0 22.8154 0.325 21.9054 0.975 21.1904C1.625 20.4754 2.47 20.1504 3.51 20.1504C4.16 20.1504 4.81 20.2804 5.33 20.6054C5.85 20.9304 6.24 21.4504 6.5 21.9704C6.76 22.5554 6.955 23.2054 6.955 23.9204C6.955 24.6354 6.825 25.3504 6.5 25.9354C6.175 26.5204 5.785 26.9754 5.265 27.2354C4.745 27.5604 4.16 27.6904 3.51 27.6904C2.795 27.6904 2.21 27.4954 1.69 27.1704C1.17 26.8454 0.715 26.3904 0.455 25.8054C0.13 25.2854 0 24.7004 0 24.0504ZM0.975 24.0504C0.975 24.9604 1.235 25.6104 1.69 26.1304C2.145 26.6504 2.73 26.9104 3.445 26.9104C4.16 26.9104 4.745 26.6504 5.265 26.1304C5.72 25.6104 5.98 24.8954 5.98 23.9854C5.98 23.4004 5.85 22.8804 5.655 22.4254C5.46 21.9704 5.135 21.6454 4.745 21.3854C4.355 21.1254 3.9 20.9954 3.445 20.9954C2.795 20.9954 2.21 21.2554 1.69 21.7104C1.235 22.1654 0.975 22.9454 0.975 24.0504Z" fill="#FF4452"/>
<path d="M13.1296 20.1504H13.9096C13.8446 20.4754 13.7796 20.7354 13.6496 20.8654C13.5196 20.9954 13.3896 21.1254 13.1946 21.1254C12.9996 21.1904 12.6096 21.1904 12.0896 21.1904C11.3746 21.1904 10.8546 21.2554 10.5946 21.3854C10.3346 21.5154 10.1396 21.7754 10.0096 22.1004C9.87961 22.4254 9.81461 22.8154 9.81461 23.3354C10.0096 23.0104 10.2696 22.7504 10.5946 22.5554C10.9196 22.3604 11.2446 22.2954 11.6346 22.2954C12.3496 22.2954 12.8696 22.5554 13.3246 23.0104C13.7796 23.4654 13.9746 24.1154 13.9746 24.9604C13.9746 25.5454 13.8446 26.0654 13.6496 26.4554C13.3896 26.8454 13.1296 27.1704 12.8696 27.3654C12.5446 27.5604 12.1546 27.6904 11.5696 27.6904C10.9196 27.6904 10.4646 27.5604 10.1396 27.2354C9.81461 26.9754 9.55461 26.5854 9.35961 26.1304C9.16461 25.6754 9.09961 24.8954 9.09961 23.7904C9.09961 22.4254 9.35961 21.4504 9.81461 20.9954C10.2696 20.5404 10.9846 20.2804 11.9596 20.2804C12.5446 20.2804 12.9346 20.2804 12.9996 20.2804C12.9996 20.2154 13.0646 20.2154 13.1296 20.1504ZM13.0646 24.9604C13.0646 24.4404 12.9346 23.9854 12.6746 23.5954C12.4146 23.2054 12.0246 23.0754 11.5696 23.0754C11.0496 23.0754 10.7246 23.2704 10.3996 23.6604C10.1396 24.0504 10.0096 24.5054 10.0096 25.1554C10.0096 25.7404 10.1396 26.2604 10.4646 26.5854C10.7896 26.9104 11.1146 27.1054 11.5696 27.1054C12.0246 27.1054 12.3496 26.9104 12.6746 26.5204C12.9346 26.0654 13.0646 25.5454 13.0646 24.9604Z" fill="#FF4452"/>
<path d="M16.25 22.2949H17.16V26.8449H19.175V22.2949H20.085V26.8449H22.1V22.2949H23.01V26.8449H23.595V29.0549H22.88V27.5599H16.25V22.2949Z" fill="#FF4452"/>
<path d="M29.251 25.871L30.161 26.001C30.031 26.521 29.771 26.976 29.381 27.236C28.991 27.561 28.471 27.691 27.886 27.691C27.106 27.691 26.521 27.431 26.066 26.976C25.611 26.521 25.416 25.806 25.416 24.961C25.416 24.051 25.676 23.401 26.131 22.881C26.586 22.361 27.171 22.166 27.886 22.166C28.601 22.166 29.186 22.426 29.641 22.881C30.096 23.336 30.291 24.051 30.291 24.896C30.291 24.961 30.291 25.026 30.291 25.156H26.391C26.456 25.741 26.586 26.196 26.911 26.521C27.236 26.846 27.561 26.976 28.016 26.976C28.341 26.976 28.601 26.911 28.861 26.716C28.926 26.521 29.121 26.261 29.251 25.871ZM26.326 24.441H29.251C29.186 23.986 29.121 23.661 28.926 23.466C28.666 23.141 28.276 22.946 27.821 22.946C27.431 22.946 27.041 23.076 26.781 23.336C26.521 23.596 26.326 23.986 26.326 24.441Z" fill="#FF4452"/>
<path d="M32.4355 29.6405V22.2955H33.2805V23.0105C33.4755 22.7505 33.6705 22.5555 33.9305 22.4255C34.1905 22.2955 34.4505 22.2305 34.8405 22.2305C35.2955 22.2305 35.6855 22.3605 36.0105 22.5555C36.3355 22.8155 36.5955 23.1405 36.7905 23.5305C36.9855 23.9855 37.0505 24.4405 37.0505 24.8955C37.0505 25.4155 36.9855 25.9355 36.7905 26.3255C36.5955 26.7155 36.3355 27.1055 35.9455 27.3005C35.5555 27.5605 35.1655 27.6255 34.7755 27.6255C34.4505 27.6255 34.1905 27.5605 33.9955 27.4305C33.7355 27.3005 33.5405 27.1705 33.4105 26.9755V29.5755H32.4355V29.6405ZM33.2805 24.9605C33.2805 25.6105 33.4105 26.1305 33.6705 26.4555C33.9305 26.7805 34.2555 26.9755 34.6455 26.9755C35.0355 26.9755 35.3605 26.7805 35.6855 26.4555C36.0105 26.1305 36.1405 25.6105 36.1405 24.8955C36.1405 24.2455 36.0105 23.7255 35.7505 23.4005C35.4905 23.0755 35.1655 22.8805 34.7755 22.8805C34.3855 22.8805 34.0605 23.0755 33.7355 23.4005C33.4105 23.7905 33.2805 24.3105 33.2805 24.9605Z" fill="#FF4452"/>
<path d="M38.9355 24.9605C38.9355 23.9855 39.1955 23.2705 39.7805 22.8155C40.2355 22.4255 40.7555 22.2305 41.4055 22.2305C42.1205 22.2305 42.7055 22.4905 43.1605 22.9455C43.6155 23.4005 43.8755 24.0505 43.8755 24.8955C43.8755 25.5455 43.7455 26.1305 43.5505 26.5205C43.3555 26.9105 43.0305 27.2355 42.6405 27.4305C42.2505 27.6255 41.8605 27.7555 41.3405 27.7555C40.6255 27.7555 39.9755 27.4955 39.5855 27.0405C39.1955 26.5205 38.9355 25.8705 38.9355 24.9605ZM39.8455 24.9605C39.8455 25.6105 39.9755 26.1305 40.3005 26.4555C40.6255 26.7805 40.9505 26.9755 41.4055 26.9755C41.8605 26.9755 42.1855 26.7805 42.5105 26.4555C42.8355 26.1305 42.9655 25.6105 42.9655 24.8955C42.9655 24.2455 42.8355 23.7255 42.5105 23.4005C42.1855 23.0755 41.8605 22.8805 41.4055 22.8805C40.9505 22.8805 40.5605 23.0755 40.3005 23.4005C39.9755 23.7905 39.8455 24.2455 39.8455 24.9605Z" fill="#FF4452"/>
<path d="M49.5306 25.6755L50.4406 25.8055C50.3756 26.3905 50.1156 26.9105 49.7256 27.2355C49.3356 27.5605 48.8156 27.7555 48.2956 27.7555C47.5806 27.7555 46.9956 27.4955 46.5406 27.0405C46.0856 26.5855 45.8906 25.8705 45.8906 25.0255C45.8906 24.4405 45.9556 23.9855 46.1506 23.5305C46.3456 23.0755 46.6056 22.7505 46.9956 22.5555C47.3856 22.3605 47.7756 22.2305 48.2306 22.2305C48.8156 22.2305 49.2706 22.3605 49.6606 22.6855C50.0506 22.9455 50.2456 23.4005 50.3756 23.9205L49.5306 24.0505C49.4656 23.7255 49.2706 23.4005 49.0756 23.2705C48.8806 23.0755 48.6206 23.0105 48.2956 23.0105C47.8406 23.0105 47.4506 23.1405 47.1906 23.4655C46.9306 23.7905 46.8006 24.3105 46.8006 25.0255C46.8006 25.7405 46.9306 26.2605 47.1906 26.5855C47.4506 26.9105 47.8406 27.0405 48.2306 27.0405C48.5556 27.0405 48.8806 26.9105 49.1406 26.7155C49.3356 26.4555 49.4656 26.1305 49.5306 25.6755Z" fill="#FF4452"/>
<path d="M55.7709 25.6755L56.6809 25.8055C56.6159 26.3905 56.3559 26.9105 55.9659 27.2355C55.5759 27.5605 55.0559 27.7555 54.5359 27.7555C53.8209 27.7555 53.2359 27.4955 52.7809 27.0405C52.3259 26.5855 52.1309 25.8705 52.1309 25.0255C52.1309 24.4405 52.1959 23.9855 52.3909 23.5305C52.5859 23.0755 52.8459 22.7505 53.2359 22.5555C53.6259 22.3605 54.0159 22.2305 54.4709 22.2305C55.0559 22.2305 55.5109 22.3605 55.9009 22.6855C56.2909 22.9455 56.4859 23.4005 56.6159 23.9205L55.7709 24.0505C55.7059 23.7255 55.5109 23.4005 55.3159 23.2705C55.1209 23.0755 54.8609 23.0105 54.5359 23.0105C54.0809 23.0105 53.6909 23.1405 53.4309 23.4655C53.1709 23.7905 53.0409 24.3105 53.0409 25.0255C53.0409 25.7405 53.1709 26.2605 53.4309 26.5855C53.6909 26.9105 54.0809 27.0405 54.4709 27.0405C54.7959 27.0405 55.1209 26.9105 55.3809 26.7155C55.5759 26.4555 55.7059 26.1305 55.7709 25.6755Z" fill="#FF4452"/>
<path d="M58.5645 22.2949H59.4745V26.3249L61.9445 22.2949H62.9195V27.5599H62.0095V23.5299L59.5395 27.5599H58.5645V22.2949Z" fill="#FF4452"/>
<path d="M65.3906 22.2962H66.3006V26.3262L68.7706 22.2962H69.7456V27.5613H68.8356V23.5313L66.3656 27.5613H65.3906V22.2962ZM68.5106 20.2812H69.0956C69.0306 20.6713 68.9006 20.9963 68.6406 21.2563C68.3806 21.4513 68.0556 21.5813 67.6006 21.5813C67.1456 21.5813 66.8206 21.4513 66.5606 21.2563C66.3006 21.0613 66.1706 20.7363 66.1056 20.2812H66.6906C66.7556 20.4763 66.8206 20.6712 66.9506 20.8012C67.0806 20.9312 67.2756 20.9962 67.5356 20.9962C67.7956 20.9962 67.9906 20.9312 68.1206 20.8662C68.3806 20.7362 68.4456 20.5413 68.5106 20.2812Z" fill="#FF4452"/>
<path d="M75.724 25.6755L76.634 25.8055C76.569 26.3905 76.309 26.9105 75.919 27.2355C75.529 27.5605 75.009 27.7555 74.489 27.7555C73.774 27.7555 73.189 27.4955 72.734 27.0405C72.279 26.5855 72.084 25.8705 72.084 25.0255C72.084 24.4405 72.149 23.9855 72.344 23.5305C72.539 23.0755 72.799 22.7505 73.189 22.5555C73.579 22.3605 73.969 22.2305 74.424 22.2305C75.009 22.2305 75.464 22.3605 75.854 22.6855C76.244 22.9455 76.439 23.4005 76.569 23.9205L75.724 24.0505C75.659 23.7255 75.464 23.4005 75.269 23.2705C75.074 23.0755 74.814 23.0105 74.489 23.0105C74.034 23.0105 73.644 23.1405 73.384 23.4655C73.124 23.7905 72.994 24.3105 72.994 25.0255C72.994 25.7405 73.124 26.2605 73.384 26.5855C73.644 26.9105 74.034 27.0405 74.424 27.0405C74.749 27.0405 75.074 26.9105 75.334 26.7155C75.464 26.4555 75.659 26.1305 75.724 25.6755Z" fill="#FF4452"/>
<path d="M78.5195 22.2955H79.4295V24.5705C79.6895 24.5705 79.8845 24.5055 80.0145 24.3755C80.1445 24.2455 80.2745 23.9205 80.5345 23.4005C80.7295 23.0105 80.8595 22.6855 80.9895 22.5555C81.1195 22.4255 81.2495 22.3605 81.3795 22.2955C81.5095 22.2305 81.7695 22.2305 82.0945 22.2305H82.2895V22.9455H82.0295C81.7695 22.9455 81.6395 23.0105 81.5745 23.0755C81.5095 23.1405 81.3795 23.3355 81.2495 23.7255C81.1195 24.0505 80.9895 24.3105 80.8595 24.4405C80.7295 24.5705 80.5995 24.7005 80.3395 24.8305C80.7295 24.9605 81.1195 25.2855 81.4445 25.9355L82.4195 27.5605H81.4445L80.4695 25.9355C80.2745 25.6105 80.0795 25.4155 79.9495 25.2855C79.8195 25.1555 79.6245 25.1555 79.4295 25.1555V27.6255H78.5195V22.2955Z" fill="#FF4452"/>
<path d="M87.7505 26.9107C87.4255 27.1707 87.1005 27.3657 86.7755 27.4957C86.4505 27.6257 86.1255 27.6907 85.8005 27.6907C85.2155 27.6907 84.7605 27.5607 84.4355 27.2357C84.1105 26.9757 83.9805 26.5857 83.9805 26.1307C83.9805 25.8707 84.0455 25.6107 84.1755 25.4157C84.3055 25.2207 84.4355 25.0257 84.6305 24.8957C84.8255 24.7657 85.0205 24.7007 85.2805 24.5707C85.4755 24.5057 85.7355 24.5057 86.0605 24.4407C86.7755 24.3757 87.2955 24.2457 87.6205 24.1157C87.6205 23.9857 87.6205 23.9207 87.6205 23.8557C87.6205 23.4657 87.5555 23.2057 87.3605 23.0757C87.1005 22.8807 86.7755 22.7507 86.3205 22.7507C85.9305 22.7507 85.6055 22.8157 85.4105 22.9457C85.2155 23.0757 85.0855 23.3357 84.9555 23.7257L84.1105 23.5957C84.1755 23.2057 84.3055 22.9457 84.5005 22.6857C84.6955 22.4257 84.9555 22.2957 85.2805 22.1657C85.6055 22.0357 85.9955 21.9707 86.4505 21.9707C86.9055 21.9707 87.2955 22.0357 87.5555 22.1007C87.8155 22.2307 88.0105 22.3607 88.2055 22.4907C88.3355 22.6207 88.4005 22.8807 88.4655 23.0757C88.4655 23.2057 88.5305 23.5307 88.5305 23.9207V25.3507C88.5305 26.1957 88.5305 26.7157 88.5955 26.9107C88.6605 27.1057 88.7255 27.3657 88.7905 27.5607H87.8805C87.8805 27.4307 87.8155 27.1707 87.7505 26.9107ZM87.6855 24.9607C87.3605 25.0907 86.9055 25.2207 86.2555 25.2857C85.8655 25.3507 85.6055 25.4157 85.4755 25.4807C85.3455 25.5457 85.2155 25.6757 85.1505 25.7407C85.0855 25.8707 85.0205 26.0007 85.0205 26.1957C85.0205 26.4557 85.0855 26.6507 85.2805 26.7807C85.4755 26.9107 85.7355 27.0407 86.0605 27.0407C86.3855 27.0407 86.7105 26.9757 86.9705 26.8457C87.2305 26.7157 87.4255 26.5207 87.5555 26.1957C87.6205 26.0007 87.6855 25.6757 87.6855 25.2857V24.9607Z" fill="#FF4452"/>
<path d="M95.2894 22.2955V27.5605H94.3794V25.4805H93.8594C93.5344 25.4805 93.3394 25.5455 93.1444 25.6105C93.0144 25.6755 92.7544 25.9355 92.4944 26.3905L91.7144 27.5605H90.6094L91.5844 26.1305C91.9094 25.6755 92.1694 25.4805 92.4944 25.4155C91.9744 25.3505 91.5844 25.1555 91.3894 24.8305C91.1294 24.5055 90.9994 24.1805 90.9994 23.7905C90.9994 23.3355 91.1294 22.9455 91.4544 22.6855C91.7794 22.4255 92.2344 22.2305 92.8844 22.2305H95.2894V22.2955ZM94.4444 23.0755H93.1444C92.6244 23.0755 92.2994 23.1405 92.1044 23.3355C91.9094 23.5305 91.8444 23.7255 91.8444 23.9205C91.8444 24.2455 91.9744 24.4405 92.1694 24.6355C92.3644 24.7655 92.8194 24.8305 93.3394 24.8305H94.3144V23.0755H94.4444Z" fill="#FF4452"/>
<path d="M105.69 20.1504H106.47C106.405 20.4754 106.34 20.7354 106.21 20.8654C106.08 20.9954 105.95 21.1254 105.755 21.1254C105.56 21.1904 105.17 21.1904 104.65 21.1904C103.935 21.1904 103.415 21.2554 103.155 21.3854C102.895 21.5154 102.7 21.7754 102.57 22.1004C102.44 22.4254 102.375 22.8154 102.375 23.3354C102.57 23.0104 102.83 22.7504 103.155 22.5554C103.48 22.3604 103.805 22.2954 104.195 22.2954C104.91 22.2954 105.43 22.5554 105.885 23.0104C106.34 23.4654 106.535 24.1154 106.535 24.9604C106.535 25.5454 106.405 26.0654 106.21 26.4554C105.95 26.8454 105.69 27.1704 105.43 27.3654C105.105 27.5604 104.715 27.6904 104.13 27.6904C103.48 27.6904 103.025 27.5604 102.7 27.2354C102.375 26.9754 102.115 26.5854 101.92 26.1304C101.725 25.6754 101.66 24.8954 101.66 23.7904C101.66 22.4254 101.92 21.4504 102.375 20.9954C102.83 20.5404 103.545 20.2804 104.52 20.2804C105.105 20.2804 105.495 20.2804 105.56 20.2804C105.625 20.2154 105.625 20.2154 105.69 20.1504ZM105.625 24.9604C105.625 24.4404 105.495 23.9854 105.235 23.5954C104.975 23.2704 104.585 23.0754 104.13 23.0754C103.61 23.0754 103.285 23.2704 102.96 23.6604C102.7 24.0504 102.57 24.5054 102.57 25.1554C102.57 25.7404 102.7 26.2604 103.025 26.5854C103.35 26.9104 103.675 27.1054 104.13 27.1054C104.585 27.1054 104.91 26.9104 105.235 26.5204C105.495 26.0654 105.625 25.5454 105.625 24.9604Z" fill="#FF4452"/>
<path d="M111.995 26.9107C111.67 27.1707 111.345 27.3657 111.02 27.4957C110.695 27.6257 110.37 27.6907 110.045 27.6907C109.46 27.6907 109.005 27.5607 108.68 27.2357C108.355 26.9757 108.225 26.5857 108.225 26.1307C108.225 25.8707 108.29 25.6107 108.42 25.4157C108.55 25.2207 108.68 25.0257 108.875 24.8957C109.07 24.7657 109.265 24.7007 109.525 24.5707C109.72 24.5057 109.98 24.5057 110.305 24.4407C111.02 24.3757 111.54 24.2457 111.865 24.1157C111.865 23.9857 111.865 23.9207 111.865 23.8557C111.865 23.4657 111.8 23.2057 111.605 23.0757C111.345 22.8807 111.02 22.7507 110.565 22.7507C110.175 22.7507 109.85 22.8157 109.655 22.9457C109.46 23.0757 109.33 23.3357 109.2 23.7257L108.355 23.5957C108.42 23.2057 108.55 22.9457 108.745 22.6857C108.94 22.4257 109.2 22.2957 109.525 22.1657C109.85 22.0357 110.24 21.9707 110.695 21.9707C111.15 21.9707 111.54 22.0357 111.8 22.1007C112.06 22.2307 112.255 22.3607 112.45 22.4907C112.58 22.6207 112.645 22.8807 112.71 23.0757C112.71 23.2057 112.775 23.5307 112.775 23.9207V25.3507C112.775 26.1957 112.775 26.7157 112.84 26.9107C112.905 27.1057 112.97 27.3657 113.035 27.5607H112.125C112.06 27.4307 111.995 27.1707 111.995 26.9107ZM111.93 24.9607C111.605 25.0907 111.15 25.2207 110.5 25.2857C110.11 25.3507 109.85 25.4157 109.72 25.4807C109.59 25.5457 109.46 25.6757 109.395 25.7407C109.33 25.8707 109.265 26.0007 109.265 26.1957C109.265 26.4557 109.33 26.6507 109.525 26.7807C109.72 26.9107 109.98 27.0407 110.305 27.0407C110.63 27.0407 110.955 26.9757 111.215 26.8457C111.475 26.7157 111.67 26.5207 111.8 26.1957C111.865 26.0007 111.93 25.6757 111.93 25.2857V24.9607Z" fill="#FF4452"/>
<path d="M116.415 25.221V24.506C116.805 24.506 117.065 24.506 117.195 24.441C117.325 24.441 117.455 24.311 117.585 24.181C117.715 24.051 117.78 23.856 117.78 23.661C117.78 23.401 117.715 23.206 117.52 23.076C117.39 22.946 117.13 22.881 116.87 22.881C116.35 22.881 116.025 23.206 115.83 23.791L114.985 23.661C115.245 22.686 115.895 22.166 116.87 22.166C117.455 22.166 117.845 22.296 118.17 22.621C118.495 22.946 118.625 23.271 118.625 23.726C118.625 24.181 118.43 24.506 117.975 24.766C118.235 24.896 118.43 25.091 118.56 25.286C118.69 25.481 118.755 25.741 118.755 26.066C118.755 26.521 118.56 26.911 118.235 27.236C117.91 27.561 117.39 27.691 116.805 27.691C115.635 27.691 114.92 27.171 114.725 26.066L115.57 25.871C115.635 26.196 115.83 26.456 116.025 26.651C116.285 26.846 116.545 26.911 116.805 26.911C117.13 26.911 117.325 26.846 117.585 26.651C117.78 26.456 117.91 26.261 117.91 26.001C117.91 25.806 117.845 25.611 117.715 25.481C117.585 25.351 117.455 25.221 117.325 25.221C117.195 25.156 116.935 25.156 116.545 25.156C116.61 25.221 116.545 25.221 116.415 25.221Z" fill="#FF4452"/>
<path d="M124.54 26.9107C124.215 27.1707 123.89 27.3657 123.565 27.4957C123.24 27.6257 122.915 27.6907 122.59 27.6907C122.005 27.6907 121.55 27.5607 121.225 27.2357C120.9 26.9757 120.77 26.5857 120.77 26.1307C120.77 25.8707 120.835 25.6107 120.965 25.4157C121.095 25.2207 121.225 25.0257 121.42 24.8957C121.615 24.7657 121.81 24.7007 122.07 24.5707C122.265 24.5057 122.525 24.5057 122.85 24.4407C123.565 24.3757 124.085 24.2457 124.41 24.1157C124.41 23.9857 124.41 23.9207 124.41 23.8557C124.41 23.4657 124.345 23.2057 124.15 23.0757C123.89 22.8807 123.565 22.7507 123.11 22.7507C122.72 22.7507 122.395 22.8157 122.2 22.9457C122.005 23.0757 121.875 23.3357 121.745 23.7257L120.9 23.5957C120.965 23.2057 121.095 22.9457 121.29 22.6857C121.485 22.4257 121.745 22.2957 122.07 22.1657C122.395 22.0357 122.785 21.9707 123.24 21.9707C123.695 21.9707 124.085 22.0357 124.345 22.1007C124.605 22.2307 124.8 22.3607 124.995 22.4907C125.125 22.6207 125.19 22.8807 125.255 23.0757C125.255 23.2057 125.32 23.5307 125.32 23.9207V25.3507C125.32 26.1957 125.32 26.7157 125.385 26.9107C125.45 27.1057 125.515 27.3657 125.58 27.5607H124.67C124.605 27.4307 124.54 27.1707 124.54 26.9107ZM124.475 24.9607C124.15 25.0907 123.695 25.2207 123.045 25.2857C122.655 25.3507 122.395 25.4157 122.265 25.4807C122.135 25.5457 122.005 25.6757 121.94 25.7407C121.875 25.8707 121.81 26.0007 121.81 26.1957C121.81 26.4557 121.875 26.6507 122.07 26.7807C122.265 26.9107 122.525 27.0407 122.85 27.0407C123.175 27.0407 123.5 26.9757 123.76 26.8457C124.02 26.7157 124.215 26.5207 124.345 26.1957C124.41 26.0007 124.475 25.6757 124.475 25.2857V24.9607Z" fill="#FF4452"/>
<path d="M131.885 22.2949H133.965C134.485 22.2949 134.875 22.3599 135.07 22.4249C135.33 22.4899 135.525 22.6849 135.72 22.8799C135.915 23.0749 135.98 23.3999 135.98 23.6599C135.98 23.9199 135.915 24.1149 135.85 24.3099C135.72 24.5049 135.59 24.6349 135.395 24.7649C135.655 24.8299 135.85 25.0249 136.045 25.2199C136.24 25.4149 136.305 25.7399 136.305 25.9999C136.24 26.5199 136.11 26.8449 135.785 27.1049C135.46 27.3649 135.005 27.4949 134.355 27.4949H131.95V22.2949H131.885ZM132.795 24.5049H133.77C134.16 24.5049 134.42 24.5049 134.55 24.4399C134.68 24.3749 134.81 24.3099 134.94 24.1799C135.07 24.0499 135.135 23.9199 135.135 23.7249C135.135 23.4649 135.005 23.2699 134.81 23.1399C134.615 23.0099 134.29 22.9449 133.77 22.9449H132.795V24.5049ZM132.795 26.8449H133.965C134.485 26.8449 134.81 26.7799 135.005 26.6499C135.2 26.5199 135.265 26.3249 135.33 26.0649C135.33 25.8699 135.265 25.7399 135.135 25.6099C135.005 25.4799 134.875 25.3499 134.68 25.3499C134.485 25.2849 134.225 25.2849 133.835 25.2849H132.73V26.8449H132.795Z" fill="#FF4452"/>
<path d="M141.764 26.9107C141.439 27.1707 141.114 27.3657 140.789 27.4957C140.464 27.6257 140.139 27.6907 139.814 27.6907C139.229 27.6907 138.774 27.5607 138.449 27.2357C138.124 26.9757 137.994 26.5857 137.994 26.1307C137.994 25.8707 138.059 25.6107 138.189 25.4157C138.319 25.2207 138.449 25.0257 138.644 24.8957C138.839 24.7657 139.034 24.7007 139.294 24.5707C139.489 24.5057 139.749 24.5057 140.074 24.4407C140.789 24.3757 141.309 24.2457 141.634 24.1157C141.634 23.9857 141.634 23.9207 141.634 23.8557C141.634 23.4657 141.569 23.2057 141.374 23.0757C141.114 22.8807 140.789 22.7507 140.334 22.7507C139.944 22.7507 139.619 22.8157 139.424 22.9457C139.229 23.0757 139.099 23.3357 138.969 23.7257L138.124 23.5957C138.189 23.2057 138.319 22.9457 138.514 22.6857C138.709 22.4257 138.969 22.2957 139.294 22.1657C139.619 22.0357 140.009 21.9707 140.464 21.9707C140.919 21.9707 141.309 22.0357 141.569 22.1007C141.829 22.2307 142.024 22.3607 142.219 22.4907C142.349 22.6207 142.414 22.8807 142.479 23.0757C142.479 23.2057 142.544 23.5307 142.544 23.9207V25.3507C142.544 26.1957 142.544 26.7157 142.609 26.9107C142.674 27.1057 142.739 27.3657 142.804 27.5607H141.894C141.894 27.4307 141.829 27.1707 141.764 26.9107ZM141.699 24.9607C141.374 25.0907 140.919 25.2207 140.269 25.2857C139.879 25.3507 139.619 25.4157 139.489 25.4807C139.359 25.5457 139.229 25.6757 139.164 25.7407C139.099 25.8707 139.034 26.0007 139.034 26.1957C139.034 26.4557 139.099 26.6507 139.294 26.7807C139.489 26.9107 139.749 27.0407 140.074 27.0407C140.399 27.0407 140.724 26.9757 140.984 26.8457C141.244 26.7157 141.439 26.5207 141.569 26.1957C141.634 26.0007 141.699 25.6757 141.699 25.2857V24.9607Z" fill="#FF4452"/>
<path d="M145.145 22.2955H146.055V24.5705C146.315 24.5705 146.51 24.5055 146.64 24.3755C146.77 24.2455 146.9 23.9205 147.16 23.4005C147.355 23.0105 147.485 22.6855 147.615 22.5555C147.745 22.4255 147.875 22.3605 148.005 22.2955C148.135 22.2305 148.395 22.2305 148.72 22.2305H148.915V22.9455H148.655C148.395 22.9455 148.265 23.0105 148.2 23.0755C148.135 23.1405 148.005 23.3355 147.875 23.7255C147.745 24.0505 147.615 24.3105 147.485 24.4405C147.355 24.5705 147.225 24.7005 146.965 24.8305C147.355 24.9605 147.745 25.2855 148.07 25.9355L149.045 27.5605H148.07L147.095 25.9355C146.9 25.6105 146.705 25.4155 146.575 25.2855C146.445 25.1555 146.25 25.1555 146.055 25.1555V27.6255H145.145V22.2955Z" fill="#FF4452"/>
<path d="M154.44 26.9107C154.115 27.1707 153.79 27.3657 153.465 27.4957C153.14 27.6257 152.815 27.6907 152.49 27.6907C151.905 27.6907 151.45 27.5607 151.125 27.2357C150.8 26.9757 150.67 26.5857 150.67 26.1307C150.67 25.8707 150.735 25.6107 150.865 25.4157C150.995 25.2207 151.125 25.0257 151.32 24.8957C151.515 24.7657 151.71 24.7007 151.97 24.5707C152.165 24.5057 152.425 24.5057 152.75 24.4407C153.465 24.3757 153.985 24.2457 154.31 24.1157C154.31 23.9857 154.31 23.9207 154.31 23.8557C154.31 23.4657 154.245 23.2057 154.05 23.0757C153.79 22.8807 153.465 22.7507 153.01 22.7507C152.62 22.7507 152.295 22.8157 152.1 22.9457C151.905 23.0757 151.775 23.3357 151.645 23.7257L150.8 23.5957C150.865 23.2057 150.995 22.9457 151.19 22.6857C151.385 22.4257 151.645 22.2957 151.97 22.1657C152.295 22.0357 152.685 21.9707 153.14 21.9707C153.595 21.9707 153.985 22.0357 154.245 22.1007C154.505 22.2307 154.7 22.3607 154.895 22.4907C155.025 22.6207 155.09 22.8807 155.155 23.0757C155.155 23.2057 155.22 23.5307 155.22 23.9207V25.3507C155.22 26.1957 155.22 26.7157 155.285 26.9107C155.35 27.1057 155.415 27.3657 155.48 27.5607H154.57C154.505 27.4307 154.44 27.1707 154.44 26.9107ZM154.375 24.9607C154.05 25.0907 153.595 25.2207 152.945 25.2857C152.555 25.3507 152.295 25.4157 152.165 25.4807C152.035 25.5457 151.905 25.6757 151.84 25.7407C151.775 25.8707 151.71 26.0007 151.71 26.1957C151.71 26.4557 151.775 26.6507 151.97 26.7807C152.165 26.9107 152.425 27.0407 152.75 27.0407C153.075 27.0407 153.4 26.9757 153.66 26.8457C153.92 26.7157 154.115 26.5207 154.245 26.1957C154.31 26.0007 154.375 25.6757 154.375 25.2857V24.9607Z" fill="#FF4452"/>
<path d="M157.82 22.2949H158.73V24.5049H161.2V22.2949H162.11V27.5599H161.2V25.2199H158.73V27.5599H157.82V22.2949Z" fill="#FF4452"/>
<path d="M168.025 25.6755L168.935 25.8055C168.87 26.3905 168.61 26.9105 168.22 27.2355C167.83 27.5605 167.31 27.7555 166.79 27.7555C166.075 27.7555 165.49 27.4955 165.035 27.0405C164.58 26.5855 164.385 25.8705 164.385 25.0255C164.385 24.4405 164.45 23.9855 164.645 23.5305C164.84 23.0755 165.1 22.7505 165.49 22.5555C165.88 22.3605 166.27 22.2305 166.725 22.2305C167.31 22.2305 167.765 22.3605 168.155 22.6855C168.545 22.9455 168.74 23.4005 168.87 23.9205L168.025 24.0505C167.96 23.7255 167.765 23.4005 167.57 23.2705C167.375 23.0755 167.115 23.0105 166.79 23.0105C166.335 23.0105 165.945 23.1405 165.685 23.4655C165.425 23.7905 165.295 24.3105 165.295 25.0255C165.295 25.7405 165.425 26.2605 165.685 26.5855C165.945 26.9105 166.335 27.0405 166.725 27.0405C167.05 27.0405 167.375 26.9105 167.635 26.7155C167.83 26.4555 167.96 26.1305 168.025 25.6755Z" fill="#FF4452"/>
<path d="M170.82 22.2949H171.73V26.3249L174.2 22.2949H175.175V27.5599H174.265V23.5299L171.795 27.5599H170.82V22.2949Z" fill="#FF4452"/>
<path d="M177.645 22.2962H178.555V26.3262L181.025 22.2962H182V27.5613H181.09V23.5313L178.62 27.5613H177.645V22.2962ZM180.765 20.2812H181.35C181.285 20.6713 181.155 20.9963 180.895 21.2563C180.635 21.4513 180.31 21.5813 179.855 21.5813C179.4 21.5813 179.075 21.4513 178.815 21.2563C178.555 21.0613 178.425 20.7363 178.36 20.2812H178.945C179.01 20.4763 179.075 20.6712 179.205 20.8012C179.335 20.9312 179.53 20.9962 179.79 20.9962C180.05 20.9962 180.245 20.9312 180.375 20.8662C180.635 20.7362 180.7 20.5413 180.765 20.2812Z" fill="#FF4452"/>
<path d="M181.349 52.0014H1.49375C1.16875 52.0014 0.84375 51.7414 0.84375 51.3514V34.8414C0.84375 34.5164 1.16875 34.1914 1.49375 34.1914H181.349C181.674 34.1914 181.999 34.5164 181.999 34.8414V51.3514C181.999 51.7414 181.674 52.0014 181.349 52.0014Z" fill="#1E3685"/>
<path d="M15.2109 39.8459C15.2109 39.9759 15.2109 40.0409 15.2109 40.1709C15.2109 40.2359 15.2109 40.3009 15.1459 40.3659C15.1459 40.4309 15.0809 40.4309 15.0809 40.4959L15.0159 40.5609H13.2609V46.9309C13.2609 46.9959 13.2609 46.9959 13.1959 47.0609C13.1959 47.1259 13.1309 47.1259 13.0659 47.1259C13.0009 47.1259 12.9359 47.1909 12.8709 47.1909C12.8059 47.1909 12.6759 47.1909 12.5459 47.1909C12.4159 47.1909 12.2859 47.1909 12.2209 47.1909C12.1559 47.1909 12.0259 47.1909 12.0259 47.1259C11.9609 47.1259 11.9609 47.0609 11.8959 47.0609C11.8959 47.0609 11.8309 46.9959 11.8309 46.9309V40.5609H10.0759C10.0109 40.5609 10.0109 40.5609 10.0109 40.4959C10.0109 40.4959 9.94586 40.4309 9.94586 40.3659C9.94586 40.3009 9.94586 40.2359 9.88086 40.1709C9.88086 40.1059 9.88086 39.9759 9.88086 39.8459C9.88086 39.7159 9.88086 39.6509 9.88086 39.5209C9.88086 39.4559 9.88086 39.3909 9.94586 39.3259C9.94586 39.2609 10.0109 39.2609 10.0109 39.1959L10.0759 39.1309H15.0159C15.0809 39.1309 15.0809 39.1309 15.0809 39.1959C15.0809 39.1959 15.1459 39.2609 15.1459 39.3259C15.1459 39.3909 15.1459 39.4559 15.2109 39.5209C15.2109 39.5859 15.2109 39.7159 15.2109 39.8459Z" fill="white"/>
<path d="M30.746 46.8659C30.746 46.9309 30.746 46.9309 30.746 46.9959C30.746 46.9959 30.681 47.0609 30.616 47.0609C30.551 47.0609 30.486 47.1259 30.356 47.1259C30.226 47.1259 30.096 47.1259 29.901 47.1259C29.771 47.1259 29.641 47.1259 29.511 47.1259C29.446 47.1259 29.381 47.1259 29.316 47.0609C29.251 47.0609 29.251 46.9959 29.186 46.9959C29.186 46.9309 29.121 46.9309 29.121 46.8659L28.471 45.1109C28.406 44.9159 28.341 44.7209 28.276 44.5909C28.211 44.4609 28.146 44.3309 28.016 44.2009C27.951 44.0709 27.821 44.0059 27.691 43.9409C27.561 43.8759 27.431 43.8759 27.301 43.8759H26.846V46.8659C26.846 46.9309 26.846 46.9309 26.781 46.9959C26.781 47.0609 26.716 47.0609 26.651 47.0609C26.586 47.0609 26.521 47.1259 26.456 47.1259C26.391 47.1259 26.261 47.1259 26.131 47.1259C26.001 47.1259 25.871 47.1259 25.806 47.1259C25.741 47.1259 25.611 47.1259 25.611 47.0609C25.546 47.0609 25.546 46.9959 25.481 46.9959C25.481 46.9959 25.416 46.9309 25.416 46.8659V39.6509C25.416 39.4559 25.481 39.3259 25.546 39.2609C25.611 39.1959 25.741 39.1309 25.871 39.1309H27.691C27.886 39.1309 28.016 39.1309 28.146 39.1309C28.276 39.1309 28.406 39.1309 28.471 39.1309C28.731 39.1959 28.991 39.2609 29.251 39.3909C29.446 39.5209 29.641 39.6509 29.836 39.8459C29.966 40.0409 30.096 40.2359 30.226 40.4959C30.291 40.7559 30.356 41.0159 30.356 41.3409C30.356 41.6009 30.356 41.8609 30.291 42.0559C30.226 42.2509 30.161 42.4459 30.031 42.6409C29.901 42.8359 29.771 42.9659 29.576 43.0959C29.381 43.2259 29.186 43.3559 28.991 43.4209C29.121 43.4859 29.186 43.5509 29.316 43.6159C29.381 43.6809 29.511 43.8109 29.576 43.9409C29.641 44.0709 29.706 44.2009 29.836 44.3309C29.901 44.4609 29.966 44.6559 30.031 44.8509L30.616 46.4109C30.681 46.5409 30.681 46.6709 30.746 46.7359C30.746 46.7359 30.746 46.8009 30.746 46.8659ZM28.926 41.4709C28.926 41.2109 28.861 41.0159 28.796 40.8209C28.666 40.6259 28.536 40.4959 28.276 40.4309C28.211 40.4309 28.146 40.3659 28.016 40.3659C27.951 40.3659 27.821 40.3659 27.626 40.3659H26.976V42.5759H27.691C27.886 42.5759 28.081 42.5759 28.211 42.5109C28.341 42.4459 28.471 42.3809 28.601 42.2509C28.731 42.1209 28.796 42.0559 28.861 41.9259C28.861 41.7959 28.926 41.6659 28.926 41.4709Z" fill="white"/>
<path d="M46.9959 44.1364C46.9959 44.5914 46.9309 45.0464 46.8009 45.4364C46.6709 45.8264 46.4759 46.1514 46.2159 46.4114C45.9559 46.6714 45.6959 46.8664 45.3059 46.9964C44.9159 47.1264 44.5259 47.1914 44.0709 47.1914C43.6159 47.1914 43.2259 47.1264 42.9009 46.9964C42.5759 46.8664 42.2509 46.6714 41.9909 46.4114C41.7309 46.1514 41.5359 45.8264 41.4059 45.4364C41.2759 45.0464 41.2109 44.5914 41.2109 44.1364V39.3264C41.2109 39.2614 41.2109 39.2614 41.2759 39.1964C41.2759 39.1964 41.3409 39.1314 41.4059 39.1314C41.4709 39.1314 41.5359 39.0664 41.6009 39.0664C41.6659 39.0664 41.7959 39.0664 41.9259 39.0664C42.0559 39.0664 42.1859 39.0664 42.2509 39.0664C42.3159 39.0664 42.4459 39.0664 42.4459 39.1314C42.5109 39.1314 42.5109 39.1964 42.5759 39.1964C42.5759 39.2614 42.6409 39.2614 42.6409 39.3264V44.0064C42.6409 44.3314 42.7059 44.5914 42.7709 44.8514C42.8359 45.1114 42.9659 45.2414 43.0959 45.4364C43.2259 45.5664 43.3559 45.6964 43.5509 45.7614C43.7459 45.8264 43.9409 45.8914 44.1359 45.8914C44.3309 45.8914 44.5909 45.8264 44.7209 45.7614C44.9159 45.6964 45.0459 45.5664 45.1759 45.4364C45.3059 45.3064 45.3709 45.1114 45.4359 44.9164C45.5009 44.7214 45.5659 44.4614 45.5659 44.2014V39.4564C45.5659 39.3914 45.5659 39.3914 45.5659 39.3264C45.5659 39.3264 45.6309 39.2614 45.6959 39.2614C45.7609 39.2614 45.8259 39.1964 45.8909 39.1964C45.9559 39.1964 46.0859 39.1964 46.2159 39.1964C46.3459 39.1964 46.4759 39.1964 46.5409 39.1964C46.6059 39.1964 46.6709 39.1964 46.7359 39.2614C46.8009 39.2614 46.8009 39.3264 46.8659 39.3264C46.8659 39.3914 46.9309 39.3914 46.9309 39.4564V44.1364H46.9959Z" fill="white"/>
<path d="M63.831 42.9659C63.831 43.6809 63.766 44.3309 63.571 44.8509C63.376 45.3709 63.181 45.7609 62.856 46.0859C62.531 46.4109 62.141 46.6709 61.686 46.8009C61.231 46.9309 60.711 47.0609 60.061 47.0609H58.371C58.241 47.0609 58.176 46.9959 58.046 46.9309C57.981 46.8659 57.916 46.7359 57.916 46.5409V39.6509C57.916 39.4559 57.981 39.3259 58.046 39.2609C58.111 39.1959 58.241 39.1309 58.371 39.1309H60.191C60.841 39.1309 61.361 39.1959 61.816 39.3909C62.271 39.5859 62.596 39.7809 62.921 40.1059C63.246 40.4309 63.441 40.8209 63.571 41.2759C63.701 41.7959 63.831 42.3809 63.831 42.9659ZM62.336 43.0309C62.336 42.6409 62.271 42.3159 62.206 41.9909C62.141 41.6659 62.011 41.4059 61.816 41.1459C61.621 40.8859 61.426 40.7559 61.166 40.5609C60.906 40.4309 60.516 40.3659 60.126 40.3659H59.411V45.7609H60.126C60.516 45.7609 60.841 45.6959 61.101 45.5659C61.361 45.4359 61.621 45.3059 61.751 45.0459C61.946 44.7859 62.076 44.5259 62.141 44.2009C62.271 43.8759 62.336 43.4859 62.336 43.0309Z" fill="white"/>
<path d="M77.8065 46.8023C77.8065 46.8673 77.7415 46.9323 77.7415 46.9973C77.7415 47.0623 77.6765 47.0623 77.6115 47.1273C77.5465 47.1273 77.4815 47.1923 77.3515 47.1923C77.2215 47.1923 77.0915 47.1923 76.8965 47.1923C76.7665 47.1923 76.6365 47.1923 76.5065 47.1923C76.3765 47.1923 76.3115 47.1923 76.2465 47.1923C76.1815 47.1923 76.1165 47.1923 76.0515 47.1273C75.9865 47.1273 75.9865 47.0623 75.9215 47.0623L75.8565 46.9973C75.8565 46.9323 75.8565 46.9323 75.7915 46.8673L73.7115 39.8473C73.6465 39.7173 73.6465 39.5873 73.6465 39.5223C73.6465 39.4573 73.6465 39.3923 73.7115 39.3273C73.7765 39.2623 73.8415 39.2623 73.9715 39.2623C74.1015 39.2623 74.2315 39.2623 74.4265 39.2623C74.6215 39.2623 74.7515 39.2623 74.8165 39.2623C74.8815 39.2623 75.0115 39.2623 75.0115 39.3273C75.0765 39.3273 75.0765 39.3923 75.1415 39.3923C75.1415 39.4573 75.2065 39.4573 75.2065 39.5223L76.8965 45.6323L78.5865 39.5873C78.5865 39.5223 78.6515 39.4573 78.6515 39.3923C78.6515 39.3273 78.7165 39.3273 78.7815 39.2623C78.8465 39.2623 78.9115 39.1973 78.9765 39.1973C79.1065 39.1973 79.2365 39.1973 79.3665 39.1973C79.5615 39.1973 79.6915 39.1973 79.7565 39.1973C79.8215 39.1973 79.8865 39.2623 79.9515 39.2623C80.0165 39.3273 80.0165 39.3923 80.0165 39.4573C80.0165 39.5223 79.9515 39.6523 79.9515 39.7823L77.8065 46.8023Z" fill="white"/>
<path d="M94.3806 44.7214C94.3806 45.1114 94.3156 45.5014 94.1856 45.8264C94.0556 46.1514 93.8606 46.4114 93.6006 46.6064C93.3406 46.8014 93.0806 46.9964 92.7556 47.0614C92.4306 47.1264 92.1056 47.1914 91.7156 47.1914C91.4556 47.1914 91.2606 47.1914 91.0656 47.1264C90.8706 47.0614 90.6756 46.9964 90.5456 46.9964C90.4156 46.9314 90.2856 46.8664 90.1556 46.8014C90.0256 46.7364 89.9606 46.6714 89.8956 46.6064C89.8306 46.5414 89.8306 46.4764 89.7656 46.3464C89.7656 46.2164 89.7656 46.0864 89.7656 45.8914C89.7656 45.7614 89.7656 45.6314 89.7656 45.5664C89.7656 45.5014 89.7656 45.4364 89.8306 45.3714C89.8306 45.3064 89.8956 45.3064 89.8956 45.2414L89.9606 45.1764C90.0256 45.1764 90.0906 45.2414 90.1556 45.3064C90.2206 45.3714 90.3506 45.4364 90.4806 45.5014C90.6106 45.5664 90.8056 45.6314 91.0006 45.6964C91.1956 45.7614 91.4556 45.8264 91.7156 45.8264C91.9106 45.8264 92.0406 45.8264 92.1706 45.7614C92.3006 45.6964 92.4306 45.6314 92.4956 45.5664C92.5606 45.5014 92.6906 45.3714 92.6906 45.2414C92.7556 45.1114 92.7556 44.9814 92.7556 44.8514C92.7556 44.6564 92.6906 44.5264 92.6256 44.3964C92.5606 44.2664 92.4306 44.1364 92.3006 44.0714C92.1706 43.9414 91.9756 43.8764 91.8456 43.8114C91.6506 43.7464 91.4556 43.6164 91.3256 43.5514C91.1306 43.4214 90.9356 43.3564 90.8056 43.2264C90.6106 43.0964 90.4806 42.9664 90.3506 42.7714C90.2206 42.5764 90.0906 42.3814 90.0256 42.1864C89.9606 41.9264 89.8956 41.6664 89.8956 41.3414C89.8956 40.9514 89.9606 40.6264 90.0906 40.3664C90.2206 40.1064 90.4156 39.8464 90.6106 39.6514C90.8056 39.4564 91.0656 39.3264 91.3906 39.1964C91.6506 39.1314 91.9756 39.0664 92.3006 39.0664C92.4956 39.0664 92.6256 39.0664 92.8206 39.1314C93.0156 39.1314 93.1456 39.1964 93.2756 39.2614C93.4056 39.3264 93.5356 39.3914 93.6656 39.4564C93.7956 39.5214 93.8606 39.5864 93.8606 39.5864C93.9256 39.6514 93.9256 39.6514 93.9256 39.7164C93.9256 39.7164 93.9256 39.7814 93.9906 39.8464C93.9906 39.9114 93.9906 39.9764 93.9906 40.0414C93.9906 40.1064 93.9906 40.1714 93.9906 40.3014C93.9906 40.4314 93.9906 40.4964 93.9906 40.6264C93.9906 40.6914 93.9906 40.7564 93.9906 40.8214C93.9906 40.8864 93.9906 40.8864 93.9256 40.9514L93.8606 41.0164C93.8606 41.0164 93.7306 41.0164 93.6656 40.9514C93.6006 40.8864 93.4706 40.8214 93.3406 40.7564C93.2106 40.6914 93.0806 40.6264 92.8856 40.5614C92.6906 40.4964 92.5606 40.4964 92.3656 40.4964C92.2356 40.4964 92.1056 40.4964 91.9756 40.5614C91.8456 40.6264 91.7806 40.6914 91.7156 40.7564C91.6506 40.8214 91.5856 40.9514 91.5206 41.0164C91.4556 41.1464 91.4556 41.2114 91.4556 41.3414C91.4556 41.5364 91.5206 41.6664 91.5856 41.7964C91.6506 41.9264 91.7806 42.0564 91.9106 42.1214C92.0406 42.2514 92.2356 42.3164 92.3656 42.3814C92.5606 42.4464 92.7556 42.5764 92.9506 42.6414C93.1456 42.7714 93.3406 42.8364 93.5356 42.9664C93.7306 43.0964 93.8606 43.2264 93.9906 43.4214C94.1206 43.6164 94.2506 43.8114 94.3156 44.0064C94.3156 44.0714 94.3806 44.3964 94.3806 44.7214Z" fill="white"/>
<path d="M109.135 46.4109C109.135 46.5409 109.135 46.6059 109.135 46.7359C109.135 46.8009 109.135 46.8659 109.07 46.9309C109.07 46.9959 109.005 46.9959 109.005 47.0609L108.94 47.1259H105.43C105.3 47.1259 105.235 47.0609 105.105 46.9959C105.04 46.9309 104.975 46.8009 104.975 46.6059V39.6509C104.975 39.4559 105.04 39.3259 105.105 39.2609C105.17 39.1959 105.3 39.1309 105.43 39.1309H108.94C109.005 39.1309 109.005 39.1309 109.005 39.1309C109.005 39.1309 109.07 39.1959 109.07 39.2609C109.07 39.3259 109.07 39.3909 109.135 39.4559C109.135 39.5209 109.135 39.6509 109.135 39.7809C109.135 39.9109 109.135 39.9759 109.135 40.0409C109.135 40.1059 109.135 40.1709 109.07 40.2359C109.07 40.3009 109.005 40.3009 109.005 40.3659L108.94 40.4309H106.405V42.3809H108.55C108.615 42.3809 108.615 42.3809 108.615 42.4459C108.615 42.4459 108.68 42.5109 108.68 42.5759C108.68 42.6409 108.68 42.7059 108.745 42.7709C108.745 42.8359 108.745 42.9659 108.745 43.0309C108.745 43.1609 108.745 43.2259 108.745 43.3559C108.745 43.4209 108.745 43.4859 108.68 43.5509C108.68 43.6159 108.615 43.6159 108.615 43.6809H108.55H106.405V45.8909H108.94C108.94 45.8909 109.005 45.8909 109.005 45.9559C109.005 45.9559 109.07 46.0209 109.07 46.0859C109.07 46.1509 109.07 46.2159 109.135 46.2809C109.07 46.2159 109.135 46.3459 109.135 46.4109Z" fill="white"/>
<path d="M127.986 46.8659C127.986 46.9309 127.986 46.9309 127.986 46.9959C127.986 47.0609 127.921 47.0609 127.856 47.0609C127.791 47.0609 127.726 47.1259 127.661 47.1259C127.596 47.1259 127.466 47.1259 127.336 47.1259C127.206 47.1259 127.076 47.1259 127.011 47.1259C126.946 47.1259 126.881 47.1259 126.816 47.0609C126.751 47.0609 126.751 46.9959 126.686 46.9959C126.686 46.9959 126.621 46.9309 126.621 46.8659V40.4309L124.606 46.8659C124.606 46.9309 124.541 46.9309 124.541 46.9959C124.476 47.0609 124.476 47.0609 124.411 47.0609C124.346 47.0609 124.281 47.1259 124.216 47.1259C124.151 47.1259 124.021 47.1259 123.891 47.1259C123.761 47.1259 123.631 47.1259 123.566 47.1259C123.501 47.1259 123.436 47.1259 123.371 47.0609C123.306 47.0609 123.241 46.9959 123.241 46.9959C123.176 46.9959 123.176 46.9309 123.176 46.8659L121.226 40.4309V46.8659C121.226 46.9309 121.226 46.9309 121.226 46.9959C121.226 47.0609 121.161 47.0609 121.096 47.0609C121.031 47.0609 120.966 47.1259 120.901 47.1259C120.836 47.1259 120.706 47.1259 120.576 47.1259C120.446 47.1259 120.316 47.1259 120.251 47.1259C120.186 47.1259 120.121 47.1259 120.056 47.0609C119.991 47.0609 119.991 46.9959 119.926 46.9959C119.926 46.9959 119.926 46.9309 119.926 46.8659V39.7809C119.926 39.5859 119.991 39.3909 120.056 39.3259C120.121 39.1959 120.316 39.1309 120.446 39.1309H121.356C121.551 39.1309 121.681 39.1309 121.811 39.1959C121.941 39.1959 122.006 39.2609 122.136 39.3259C122.201 39.3909 122.266 39.5209 122.331 39.5859C122.396 39.7159 122.461 39.8459 122.461 40.0409L123.956 44.7209L125.516 40.0409C125.581 39.8459 125.646 39.7159 125.646 39.5859C125.711 39.4559 125.776 39.3909 125.841 39.3259C125.906 39.2609 125.971 39.1959 126.101 39.1959C126.231 39.1959 126.296 39.1309 126.426 39.1309H127.401C127.466 39.1309 127.596 39.1309 127.661 39.1959C127.726 39.1959 127.791 39.2609 127.856 39.3259C127.921 39.3909 127.921 39.4559 127.986 39.5209C127.986 39.5859 128.051 39.7159 128.051 39.7809V46.8659H127.986Z" fill="white"/>
<path d="M140.53 46.2166C140.53 46.6066 140.465 46.8666 140.335 46.9966C140.205 47.1266 140.01 47.1916 139.685 47.1916C139.36 47.1916 139.165 47.1266 139.035 46.9966C138.905 46.8666 138.84 46.6066 138.84 46.2816C138.84 45.8916 138.905 45.6316 139.035 45.5016C139.165 45.3716 139.36 45.3066 139.685 45.3066C140.01 45.3066 140.205 45.3716 140.335 45.5016C140.465 45.5666 140.53 45.8266 140.53 46.2166Z" fill="white"/>
<path d="M156.65 46.8659C156.65 46.9309 156.65 46.9309 156.65 46.9959C156.65 46.9959 156.585 47.0609 156.52 47.0609C156.455 47.0609 156.39 47.1259 156.26 47.1259C156.13 47.1259 156 47.1259 155.805 47.1259C155.675 47.1259 155.545 47.1259 155.415 47.1259C155.35 47.1259 155.285 47.1259 155.22 47.0609C155.155 47.0609 155.155 46.9959 155.09 46.9959C155.09 46.9309 155.025 46.9309 155.025 46.8659L154.375 45.1109C154.31 44.9159 154.245 44.7209 154.18 44.5909C154.115 44.4609 154.05 44.3309 153.92 44.2009C153.855 44.0709 153.725 44.0059 153.595 43.9409C153.465 43.8759 153.335 43.8759 153.205 43.8759H152.75V46.8659C152.75 46.9309 152.75 46.9309 152.685 46.9959C152.685 47.0609 152.62 47.0609 152.555 47.0609C152.49 47.0609 152.425 47.1259 152.36 47.1259C152.295 47.1259 152.165 47.1259 152.035 47.1259C151.905 47.1259 151.775 47.1259 151.71 47.1259C151.645 47.1259 151.515 47.1259 151.515 47.0609C151.45 47.0609 151.45 46.9959 151.385 46.9959C151.385 46.9959 151.32 46.9309 151.32 46.8659V39.6509C151.32 39.4559 151.385 39.3259 151.45 39.2609C151.515 39.1959 151.645 39.1309 151.775 39.1309H153.595C153.79 39.1309 153.92 39.1309 154.05 39.1309C154.18 39.1309 154.31 39.1309 154.375 39.1309C154.635 39.1959 154.895 39.2609 155.155 39.3909C155.35 39.5209 155.545 39.6509 155.74 39.8459C155.87 40.0409 156 40.2359 156.13 40.4959C156.195 40.7559 156.26 41.0159 156.26 41.3409C156.26 41.6009 156.26 41.8609 156.195 42.0559C156.13 42.2509 156.065 42.4459 155.935 42.6409C155.805 42.8359 155.675 42.9659 155.48 43.0959C155.285 43.2259 155.09 43.3559 154.895 43.4209C155.025 43.4859 155.09 43.5509 155.22 43.6159C155.285 43.6809 155.415 43.8109 155.48 43.9409C155.545 44.0709 155.61 44.2009 155.74 44.3309C155.805 44.4609 155.87 44.6559 155.935 44.8509L156.52 46.4109C156.585 46.5409 156.585 46.6709 156.65 46.7359C156.65 46.7359 156.65 46.8009 156.65 46.8659ZM154.83 41.4709C154.83 41.2109 154.765 41.0159 154.7 40.8209C154.57 40.6259 154.44 40.4959 154.18 40.4309C154.115 40.4309 154.05 40.3659 153.92 40.3659C153.855 40.3659 153.725 40.3659 153.53 40.3659H152.88V42.5759H153.595C153.79 42.5759 153.985 42.5759 154.115 42.5109C154.245 42.4459 154.375 42.3809 154.505 42.2509C154.635 42.1209 154.7 42.0559 154.765 41.9259C154.765 41.7959 154.83 41.6659 154.83 41.4709Z" fill="white"/>
<path d="M172.9 44.1364C172.9 44.5914 172.835 45.0464 172.705 45.4364C172.575 45.8264 172.38 46.1514 172.12 46.4114C171.86 46.6714 171.6 46.8664 171.21 46.9964C170.82 47.1264 170.43 47.1914 169.975 47.1914C169.52 47.1914 169.13 47.1264 168.805 46.9964C168.48 46.8664 168.155 46.6714 167.895 46.4114C167.635 46.1514 167.44 45.8264 167.31 45.4364C167.18 45.0464 167.115 44.5914 167.115 44.1364V39.3264C167.115 39.2614 167.115 39.2614 167.18 39.1964C167.18 39.1964 167.245 39.1314 167.31 39.1314C167.375 39.1314 167.44 39.0664 167.505 39.0664C167.57 39.0664 167.7 39.0664 167.83 39.0664C167.96 39.0664 168.09 39.0664 168.155 39.0664C168.22 39.0664 168.35 39.0664 168.35 39.1314C168.415 39.1314 168.415 39.1964 168.48 39.1964C168.48 39.2614 168.545 39.2614 168.545 39.3264V44.0064C168.545 44.3314 168.61 44.5914 168.675 44.8514C168.74 45.1114 168.87 45.2414 169 45.4364C169.13 45.5664 169.26 45.6964 169.455 45.7614C169.65 45.8264 169.845 45.8914 170.04 45.8914C170.235 45.8914 170.495 45.8264 170.625 45.7614C170.82 45.6964 170.95 45.5664 171.08 45.4364C171.21 45.3064 171.275 45.1114 171.34 44.9164C171.405 44.7214 171.47 44.4614 171.47 44.2014V39.4564C171.47 39.3914 171.47 39.3914 171.47 39.3264C171.47 39.3264 171.535 39.2614 171.6 39.2614C171.665 39.2614 171.73 39.1964 171.795 39.1964C171.86 39.1964 171.99 39.1964 172.12 39.1964C172.25 39.1964 172.38 39.1964 172.445 39.1964C172.51 39.1964 172.575 39.1964 172.64 39.2614C172.705 39.2614 172.705 39.3264 172.77 39.3264C172.77 39.3914 172.835 39.3914 172.835 39.4564V44.1364H172.9Z" fill="white"/>
</g>
<defs>
<clipPath id="clip0">
<rect width="182" height="52" fill="white"/>
</clipPath>
</defs>
</svg>
