<svg width="20" height="20" viewBox="0 0 20 20" fill="none" xmlns="http://www.w3.org/2000/svg">
<path d="M18.5874 4.31956H16.3595V2.16343C16.3595 1.60702 15.9069 1.15442 15.3505 1.15442H4.64951C4.0931 1.15442 3.6405 1.60702 3.6405 2.16343V4.31956H1.41261C0.633738 4.31956 0 4.95329 0 5.73217V17.4319C0 18.2108 0.633738 18.8445 1.41261 18.8445H18.5874C19.3663 18.8445 20 18.2108 20 17.4319V5.73217C20 4.95321 19.3663 4.31956 18.5874 4.31956ZM4.85131 2.36523H15.1488V4.31956H4.85131V2.36523ZM1.41261 5.53037H18.5874C18.6968 5.53037 18.7892 5.62279 18.7892 5.73217V9.3629H12.6689V8.82046C12.6689 8.26405 12.2163 7.81145 11.6599 7.81145H8.34014C7.78373 7.81145 7.33113 8.26405 7.33113 8.82046V9.3629H1.21081V5.73217C1.21081 5.62271 1.30324 5.53037 1.41261 5.53037ZM11.4581 9.02234V10.9767H8.54194V9.02234H11.4581ZM18.5874 17.6337H1.41261C1.30324 17.6337 1.21081 17.5414 1.21081 17.4319V10.5737H7.33113V11.1784C7.33113 11.7348 7.78373 12.1874 8.34014 12.1874H11.6599C12.2163 12.1874 12.6689 11.7348 12.6689 11.1784V10.5737H18.7892V17.4319C18.7892 17.5414 18.6968 17.6337 18.5874 17.6337Z" fill="#10B7F5"/>
</svg>
