<svg width="20" height="20" viewBox="0 0 20 20" fill="none" xmlns="http://www.w3.org/2000/svg">
<g clip-path="url(#clip0)">
<path d="M18.2478 3.15427C16.8583 3.10075 15.7562 1.96904 15.7388 0.577831L15.7316 0H4.26918L4.26196 0.577831C4.24452 1.96904 3.1425 3.10075 1.75305 3.15427L1.19043 3.17596V7.88869C1.19043 12.1459 3.39779 16.0958 6.95111 18.1969L10.0004 20L13.0497 18.1969C16.603 16.0959 18.8104 12.146 18.8104 7.88869V3.17596L18.2478 3.15427ZM17.6401 7.88869C17.6401 11.7342 15.6529 15.298 12.454 17.1896L10.0004 18.6404L7.54676 17.1896C4.3479 15.298 2.36072 11.7342 2.36072 7.88869V4.26012C3.91293 3.96617 5.12211 2.72847 5.38099 1.17033H14.6198C14.8787 2.72843 16.0879 3.96617 17.6401 4.26012V7.88869Z" fill="#10B7F5"/>
<path d="M10.5856 6.70312H9.41524V8.59098H7.52734V9.76131H9.41524V11.6492H10.5856V9.76131H12.4734V8.59098H10.5856V6.70312Z" fill="#10B7F5"/>
<path d="M10.0005 4.05859C7.17806 4.05859 4.88184 6.35482 4.88184 9.17727C4.88184 11.9997 7.17806 14.2959 10.0005 14.2959C12.823 14.2959 15.1192 11.9997 15.1192 9.17727C15.1192 6.35482 12.823 4.05859 10.0005 4.05859ZM10.0005 13.1256C7.82338 13.1256 6.05217 11.3544 6.05217 9.1773C6.05217 7.00018 7.82338 5.22892 10.0005 5.22892C12.1776 5.22892 13.9488 7.00014 13.9488 9.17727C13.9488 11.3544 12.1776 13.1256 10.0005 13.1256Z" fill="#10B7F5"/>
</g>
<defs>
<clipPath id="clip0">
<rect width="20" height="20" fill="white"/>
</clipPath>
</defs>
</svg>
