<svg width="20" height="20" viewBox="0 0 20 20" fill="none" xmlns="http://www.w3.org/2000/svg">
<path d="M18.5874 4.32139H16.3595V2.16526C16.3595 1.60885 15.9069 1.15625 15.3505 1.15625H4.64951C4.0931 1.15625 3.6405 1.60885 3.6405 2.16526V4.32139H1.41261C0.633738 4.32139 0 4.95513 0 5.734V17.4337C0 18.2126 0.633738 18.8463 1.41261 18.8463H18.5874C19.3663 18.8463 20 18.2126 20 17.4337V5.734C20 4.95504 19.3663 4.32139 18.5874 4.32139ZM4.85131 2.36706H15.1488V4.32139H4.85131V2.36706ZM1.41261 5.5322H18.5874C18.6968 5.5322 18.7892 5.62462 18.7892 5.734V9.36473H12.6689V8.82229C12.6689 8.26588 12.2163 7.81328 11.6599 7.81328H8.34014C7.78373 7.81328 7.33113 8.26588 7.33113 8.82229V9.36473H1.21081V5.734C1.21081 5.62454 1.30324 5.5322 1.41261 5.5322ZM11.4581 9.02417V10.9785H8.54194V9.02417H11.4581ZM18.5874 17.6355H1.41261C1.30324 17.6355 1.21081 17.5432 1.21081 17.4337V10.5755H7.33113V11.1802C7.33113 11.7366 7.78373 12.1892 8.34014 12.1892H11.6599C12.2163 12.1892 12.6689 11.7366 12.6689 11.1802V10.5755H18.7892V17.4337C18.7892 17.5432 18.6968 17.6355 18.5874 17.6355Z" fill="#43D081"/>
</svg>
