<svg width="20" height="20" viewBox="0 0 20 20" fill="none" xmlns="http://www.w3.org/2000/svg">
<g clip-path="url(#clip0)">
<path d="M18.1708 4.99574H17.922V2.57908C17.922 1.57048 17.1014 0.749878 16.0928 0.749878H2.82552C1.36147 0.749878 0.15436 1.86971 0.015014 3.29775C-0.00626676 3.39866 0.00131106 2.49953 0.00131106 16.426C0.00131106 17.9832 1.26822 19.2501 2.82548 19.2501H18.1708C19.1794 19.2501 20 18.4296 20 17.4209V6.82494C20 5.81634 19.1795 4.99574 18.1708 4.99574ZM2.82552 2.00634H16.0928C16.4086 2.00634 16.6655 2.26328 16.6655 2.57912V4.99578H2.82552C1.98556 4.99578 1.29794 4.33172 1.25962 3.50106C1.2979 2.67037 1.98552 2.00634 2.82552 2.00634ZM18.1708 17.9937H2.82552C1.96106 17.9937 1.25778 17.2904 1.25778 16.426V5.77606C1.7066 6.0767 2.24592 6.25216 2.82552 6.25216H18.1708C18.4866 6.25216 18.7436 6.5091 18.7436 6.82494V9.37179H14.016C12.4059 9.37179 11.096 10.6817 11.096 12.2917C11.096 13.9018 12.4059 15.2117 14.016 15.2117H18.7436V17.4209C18.7436 17.7368 18.4866 17.9937 18.1708 17.9937ZM18.7436 13.9553H14.016C13.0987 13.9553 12.3524 13.209 12.3524 12.2918C12.3524 11.3745 13.0987 10.6283 14.016 10.6283H18.7436V13.9553Z" fill="#B02CDF"/>
<path d="M14.2478 13.2022C14.7507 13.2022 15.1583 12.7946 15.1583 12.2918C15.1583 11.789 14.7507 11.3813 14.2478 11.3813C13.745 11.3813 13.3374 11.789 13.3374 12.2918C13.3374 12.7946 13.745 13.2022 14.2478 13.2022Z" fill="#B02CDF"/>
</g>
<defs>
<clipPath id="clip0">
<rect width="20" height="20" fill="white"/>
</clipPath>
</defs>
</svg>
