<svg width="20" height="20" viewBox="0 0 20 20" fill="none" xmlns="http://www.w3.org/2000/svg">
<path d="M11.3454 20H8.65461C8.2391 20 7.86559 19.7691 7.67984 19.3974C7.4941 19.0257 7.53371 18.5884 7.7832 18.2561L8.2373 17.6512V17.0906C7.52965 16.9159 6.85863 16.6377 6.2332 16.2596L5.83617 16.6566L5.72957 17.4054C5.67102 17.8168 5.38977 18.1541 4.99559 18.2855C4.60145 18.4171 4.17402 18.3162 3.8802 18.0224L1.97758 16.1198C1.68375 15.826 1.58289 15.3986 1.71441 15.0044C1.8459 14.6102 2.18316 14.329 2.59453 14.2704L3.34332 14.1638L3.74031 13.7668C3.3623 13.1414 3.08406 12.4704 2.90938 11.7627H2.34879L1.74395 12.2168C1.41164 12.4663 0.974258 12.5059 0.602617 12.3202C0.230898 12.1344 0 11.7609 0 11.3454V8.65461C0 8.2391 0.230898 7.86559 0.602617 7.67984C0.974414 7.49414 1.41168 7.53375 1.74395 7.7832L2.34879 8.2373H2.90941C3.08414 7.52961 3.36234 6.85859 3.74035 6.2332L3.34336 5.83621L2.59457 5.72961C2.18316 5.67105 1.84594 5.3898 1.71445 4.99563C1.58297 4.60145 1.68379 4.17406 1.97762 3.88023L3.88023 1.97762C4.17402 1.68383 4.60141 1.58293 4.99559 1.71445C5.38977 1.84594 5.67102 2.1832 5.72957 2.59457L5.83617 3.34336L6.23316 3.74035C6.85855 3.36234 7.52957 3.0841 8.23727 2.90941V2.34879L7.7832 1.74395C7.53371 1.41164 7.49414 0.974297 7.67984 0.602617C7.86555 0.230937 8.2391 0 8.65465 0H11.3454C11.7609 0 12.1344 0.230898 12.3202 0.602617C12.5059 0.974336 12.4663 1.41164 12.2168 1.74395L11.7627 2.34879V2.90941C12.4704 3.08414 13.1414 3.36234 13.7668 3.74035L14.1638 3.34336L14.2704 2.59457C14.3289 2.18316 14.6102 1.84594 15.0044 1.71445C15.3986 1.58297 15.8259 1.68379 16.1198 1.97762L18.0224 3.88023C18.3162 4.17402 18.4171 4.60141 18.2855 4.99559C18.1541 5.38977 17.8168 5.67102 17.4054 5.72957L16.6566 5.83617L16.2596 6.23316C16.6377 6.85855 16.9159 7.52957 17.0906 8.23727H17.6512L18.2561 7.78316C18.5884 7.53367 19.0257 7.4941 19.3974 7.6798C19.7691 7.86555 20 8.23906 20 8.65457V11.3453C20 11.7608 19.7691 12.1343 19.3974 12.3201C19.0257 12.5058 18.5884 12.4662 18.2561 12.2167L17.6512 11.7626H17.0906C16.9159 12.4703 16.6377 13.1413 16.2596 13.7667L16.6566 14.1637L17.4054 14.2703C17.8168 14.3289 18.1541 14.6101 18.2855 15.0043C18.417 15.3985 18.3162 15.8259 18.0224 16.1197L16.1198 18.0223C15.826 18.3161 15.3986 18.417 15.0044 18.2855C14.6102 18.154 14.329 17.8167 14.2704 17.4054L14.1638 16.6566L13.7668 16.2596C13.1414 16.6376 12.4704 16.9158 11.7627 17.0905V17.6511L12.2168 18.256C12.4663 18.5883 12.5059 19.0256 12.3202 19.3973C12.1345 19.769 11.7609 20 11.3454 20ZM8.8191 18.8281H11.1809L10.8091 18.3329C10.6683 18.1454 10.5908 17.9131 10.5908 17.6786V16.6159C10.5908 16.3316 10.7949 16.0883 11.0748 16.0389C11.9549 15.8834 12.7741 15.5438 13.5097 15.0295C13.7426 14.8666 14.0588 14.8943 14.2598 15.0953L15.0118 15.8473C15.1776 16.0131 15.2871 16.2322 15.3201 16.4643L15.4074 17.0774L17.0774 15.4074L16.4643 15.3201C16.2322 15.2871 16.0131 15.1776 15.8474 15.0118L15.0953 14.2598C14.8943 14.0588 14.8666 13.7426 15.0295 13.5096C15.5438 12.7741 15.8834 11.955 16.0389 11.0748C16.0883 10.7948 16.3316 10.5908 16.6159 10.5908H17.6786C17.913 10.5908 18.1454 10.6683 18.3329 10.809L18.8281 11.1809V8.8191L18.3329 9.19094C18.1454 9.33168 17.9131 9.40918 17.6786 9.40918H16.6159C16.3316 9.40918 16.0883 9.20512 16.0389 8.92516C15.8834 8.04504 15.5438 7.22586 15.0295 6.49027C14.8666 6.25738 14.8944 5.94113 15.0954 5.7402L15.8474 4.98816C16.0131 4.82238 16.2323 4.71293 16.4643 4.67988L17.0774 4.59262L15.4074 2.92258L15.3201 3.53566C15.2871 3.76777 15.1776 3.98688 15.0118 4.15262L14.2598 4.90469C14.0587 5.10562 13.7426 5.1334 13.5096 4.97055C12.7741 4.45621 11.955 4.1166 11.0748 3.96113C10.7948 3.91164 10.5908 3.6684 10.5908 3.38414V2.32137C10.5908 2.08691 10.6684 1.85453 10.8091 1.66707L11.1809 1.17188H8.8191L9.19094 1.66715C9.33168 1.85457 9.40918 2.08691 9.40918 2.32141V3.38414C9.40918 3.6684 9.20512 3.91168 8.9252 3.96113C8.04504 4.1166 7.22586 4.45625 6.49035 4.97055C6.25746 5.13344 5.94121 5.10566 5.74023 4.90469L4.98816 4.15266C4.82238 3.98688 4.71293 3.76777 4.67988 3.53566L4.59262 2.92258L2.92258 4.59262L3.53566 4.67988C3.76777 4.71293 3.98688 4.82238 4.15262 4.98816L4.90465 5.7402C5.10563 5.94117 5.1334 6.25738 4.97055 6.49027C4.45621 7.22582 4.1166 8.04504 3.96113 8.92516C3.91168 9.20512 3.6684 9.40918 3.38414 9.40918H2.32137C2.08691 9.40918 1.85453 9.33164 1.66707 9.1909L1.17188 8.8191V11.1809L1.66715 10.8091C1.85457 10.6683 2.08691 10.5908 2.32141 10.5908H3.38414C3.66844 10.5908 3.91168 10.7949 3.96113 11.0748C4.1166 11.955 4.45621 12.7741 4.97055 13.5097C5.13344 13.7426 5.10566 14.0588 4.90469 14.2598L4.15266 15.0119C3.98688 15.1777 3.76777 15.2871 3.53566 15.3202L2.92258 15.4074L4.59262 17.0775L4.67988 16.4644C4.71293 16.2323 4.82238 16.0132 4.98816 15.8474L5.74023 15.0954C5.94117 14.8944 6.25738 14.8666 6.49031 15.0295C7.2259 15.5438 8.04508 15.8834 8.92516 16.0389C9.20512 16.0884 9.40918 16.3316 9.40918 16.6159V17.6786C9.40918 17.9131 9.33164 18.1455 9.1909 18.3329L8.8191 18.8281Z" fill="#F15A22"/>
<path d="M8.03762 10.3858C6.74121 10.3858 5.68652 9.3311 5.68652 8.03469C5.68652 6.73828 6.74121 5.68359 8.03762 5.68359C9.33403 5.68359 10.3887 6.73828 10.3887 8.03469C10.3887 9.3311 9.33399 10.3858 8.03762 10.3858ZM8.03762 6.85547C7.38739 6.85547 6.8584 7.38446 6.8584 8.03469C6.8584 8.68493 7.38739 9.21392 8.03762 9.21392C8.68786 9.21392 9.21681 8.68493 9.21681 8.03469C9.21681 7.38446 8.68786 6.85547 8.03762 6.85547Z" fill="#F15A22"/>
<path d="M12.3535 14.1152C11.3816 14.1152 10.5908 13.3245 10.5908 12.3525C10.5908 11.3806 11.3816 10.5898 12.3535 10.5898C13.3255 10.5898 14.1162 11.3806 14.1162 12.3525C14.1162 13.3245 13.3255 14.1152 12.3535 14.1152ZM12.3535 11.7617C12.0277 11.7617 11.7627 12.0268 11.7627 12.3525C11.7627 12.6783 12.0277 12.9434 12.3535 12.9434C12.6793 12.9434 12.9443 12.6783 12.9443 12.3525C12.9443 12.0268 12.6793 11.7617 12.3535 11.7617Z" fill="#F15A22"/>
<path d="M7.77393 13.7891C8.08042 13.7891 8.37405 13.5196 8.35987 13.2031C8.34565 12.8857 8.10241 12.6172 7.77393 12.6172C7.46745 12.6172 7.17381 12.8867 7.18799 13.2031C7.20221 13.5206 7.44545 13.7891 7.77393 13.7891Z" fill="#F15A22"/>
<path d="M13.7114 9.84375C14.0179 9.84375 14.3116 9.57426 14.2974 9.25781C14.2832 8.94035 14.0399 8.67188 13.7114 8.67188C13.4049 8.67188 13.1113 8.94137 13.1255 9.25781C13.1397 9.57527 13.383 9.84375 13.7114 9.84375Z" fill="#F15A22"/>
<path d="M11.8364 7.07031C12.1429 7.07031 12.4366 6.80082 12.4224 6.48438C12.4082 6.16691 12.1649 5.89844 11.8364 5.89844C11.5299 5.89844 11.2363 6.16793 11.2505 6.48438C11.2647 6.80184 11.508 7.07031 11.8364 7.07031Z" fill="#F15A22"/>
</svg>
