<svg width="56" height="96" viewBox="0 0 56 96" fill="none" xmlns="http://www.w3.org/2000/svg">
<path d="M54.9999 8.80661L55.9999 8.80661L54.9999 8.80661ZM10.3483 86.5468L10.8522 87.4106L10.3483 86.5468ZM0.0329245 91.7455C-0.107628 92.2796 0.211406 92.8265 0.745506 92.9671L9.44918 95.2575C9.98328 95.3981 10.5302 95.079 10.6707 94.5449C10.8113 94.0108 10.4923 93.4639 9.95816 93.3234L2.22157 91.2874L4.25752 83.5508C4.39807 83.0167 4.07904 82.4698 3.54493 82.3293C3.01083 82.1887 2.46392 82.5077 2.32337 83.0418L0.0329245 91.7455ZM53.9999 1.05268e-06L53.9999 8.80661L55.9999 8.80661L55.9999 -1.05269e-06L53.9999 1.05268e-06ZM9.84446 85.683L0.496128 91.1362L1.50387 92.8638L10.8522 87.4106L9.84446 85.683ZM53.9999 8.80661C54 40.461 37.1869 69.7333 9.84446 85.683L10.8522 87.4106C38.809 71.1024 56 41.1723 55.9999 8.80661L53.9999 8.80661Z" fill="#E4E7EC"/>
</svg>
