<svg width="32" height="28" viewBox="0 0 32 28" fill="none" xmlns="http://www.w3.org/2000/svg">
<path d="M19.3106 5.15822C20.7902 6.08591 21.8277 7.65576 22.0166 9.478C22.62 9.75994 23.2898 9.92208 23.9998 9.92208C26.592 9.92208 28.693 7.82109 28.693 5.22931C28.693 2.63712 26.592 0.536133 23.9998 0.536133C21.4324 0.536932 19.3498 2.60038 19.3106 5.15822ZM16.236 14.7674C18.8282 14.7674 20.9292 12.666 20.9292 10.0742C20.9292 7.48244 18.8278 5.38146 16.236 5.38146C13.6442 5.38146 11.542 7.48284 11.542 10.0746C11.542 12.6664 13.6442 14.7674 16.236 14.7674ZM18.2268 15.0873H14.2445C10.931 15.0873 8.23542 17.7833 8.23542 21.0967V25.9668L8.2478 26.0431L8.58325 26.1481C11.7453 27.1361 14.4924 27.4656 16.7536 27.4656C21.17 27.4656 23.7298 26.2064 23.8876 26.1261L24.2011 25.9676H24.2346V21.0967C24.2358 17.7833 21.5402 15.0873 18.2268 15.0873ZM25.9914 10.2424H22.0398C21.9971 11.8234 21.3222 13.2471 20.2547 14.271C23.1999 15.1468 25.3548 17.878 25.3548 21.1039V22.6047C29.2565 22.4617 31.5048 21.3559 31.653 21.2816L31.9665 21.1227H32V16.251C32 12.938 29.3044 10.2424 25.9914 10.2424ZM8.001 9.92288C8.91911 9.92288 9.77332 9.65491 10.4969 9.19846C10.727 7.69809 11.5313 6.38702 12.6802 5.49408C12.685 5.40622 12.6934 5.31916 12.6934 5.2305C12.6934 2.63832 10.592 0.537331 8.001 0.537331C5.40841 0.537331 3.30782 2.63832 3.30782 5.2305C3.30782 7.82149 5.40841 9.92288 8.001 9.92288ZM12.2157 14.271C11.1535 13.2523 10.481 11.8362 10.4318 10.2647C10.2853 10.2539 10.1403 10.2424 9.99096 10.2424H6.00904C2.69562 10.2424 0 12.938 0 16.251V21.1219L0.0123799 21.197L0.347835 21.3028C2.88451 22.0947 5.14843 22.4597 7.11484 22.5747V21.1039C7.11564 17.878 9.26974 15.1476 12.2157 14.271Z" fill="white"/>
</svg>
