<svg width="40" height="40" viewBox="0 0 40 40" fill="none" xmlns="http://www.w3.org/2000/svg">
<rect width="40" height="40" rx="5" fill="#EFF2F6"/>
<path d="M15.7812 15.0781C17.4063 15.0781 18.8763 15.912 19.7188 17.061L21.7155 15.0499C20.5213 13.497 18.2228 12.2656 15.7812 12.2656C11.5063 12.2656 8 15.725 8 20C8 24.275 11.5063 27.7344 15.7812 27.7344C19.3251 27.7344 22.3062 25.3578 23.2203 22.1094C23.4171 21.4343 23.5156 20.7311 23.5156 20V19.2969H16.4844V22.1088H20.2109C19.4375 23.7683 17.7359 24.9219 15.7812 24.9219C13.0673 24.9219 10.8125 22.714 10.8125 20C10.8125 17.286 13.0673 15.0781 15.7812 15.0781Z" fill="#A8B1BC"/>
<path d="M29.8438 16.4844H27.0312V18.5938H24.9219V21.4062H27.0312V23.5156H29.8438V21.4062H32V18.5938H29.8438V16.4844Z" fill="#A8B1BC"/>
</svg>
