<svg width="22" height="18" viewBox="0 0 22 18" fill="none" xmlns="http://www.w3.org/2000/svg">
<g clip-path="url(#clip0)">
<path fill-rule="evenodd" clip-rule="evenodd" d="M21.9978 2.1175C21.1869 2.47535 20.3169 2.71828 19.4043 2.82662C20.3366 2.26852 21.0523 1.38212 21.3872 0.328295C20.5139 0.847001 19.5487 1.22126 18.5212 1.4248C17.6971 0.548253 16.5251 0 15.2251 0C12.7333 0 10.711 2.0223 10.711 4.51406C10.711 4.86862 10.7504 5.21333 10.8292 5.54162C7.0768 5.35449 3.75117 3.55544 1.52533 0.824021C1.13794 1.49046 0.914697 2.26524 0.914697 3.09254C0.914697 4.65851 1.71245 6.04063 2.92386 6.84824C2.1852 6.82525 1.48921 6.62171 0.878584 6.28357C0.878584 6.30327 0.878584 6.31968 0.878584 6.33938C0.878584 8.52582 2.4347 10.3511 4.49968 10.7648C4.12214 10.8666 3.72162 10.9224 3.31125 10.9224C3.01907 10.9224 2.73673 10.8928 2.46097 10.8403C3.03548 12.6328 4.70322 13.9394 6.67628 13.9755C5.13001 15.1869 3.1865 15.9092 1.069 15.9092C0.704588 15.9092 0.346746 15.8862 -0.0078125 15.8468C1.98822 17.1272 4.36179 17.8757 6.91265 17.8757C15.2152 17.8757 19.7556 10.9979 19.7556 5.03276C19.7556 4.83579 19.7523 4.64209 19.7424 4.4484C20.6255 3.81151 21.3905 3.01703 21.9945 2.11094L21.9978 2.1175Z" fill="#1DA1F2"/>
</g>
<defs>
<clipPath id="clip0">
<rect width="22" height="17.879" fill="white"/>
</clipPath>
</defs>
</svg>
