<svg width="24" height="24" viewBox="0 0 24 24" fill="none" xmlns="http://www.w3.org/2000/svg">
<path d="M16.9287 1H7.07107C3.72349 1 1 3.72362 1 7.0712V16.9288C1 20.2765 3.72349 23 7.07107 23H16.9287C20.2765 23 23 20.2764 23 16.9288V7.0712C23.0001 3.72362 20.2765 1 16.9287 1ZM21.0482 16.9288C21.0482 19.2002 19.2002 21.0481 16.9288 21.0481H7.07107C4.79979 21.0482 2.95195 19.2002 2.95195 16.9288V7.0712C2.95195 4.79992 4.79979 2.95195 7.07107 2.95195H16.9287C19.2001 2.95195 21.0481 4.79992 21.0481 7.0712L21.0482 16.9288Z" fill="#DA2E79"/>
<path d="M12.0009 6.33203C8.87503 6.33203 6.33203 8.87503 6.33203 12.0009C6.33203 15.1266 8.87503 17.6695 12.0009 17.6695C15.1267 17.6695 17.6697 15.1266 17.6697 12.0009C17.6697 8.87503 15.1267 6.33203 12.0009 6.33203ZM12.0009 15.7174C9.95146 15.7174 8.28398 14.0502 8.28398 12.0007C8.28398 9.9512 9.95133 8.28385 12.0009 8.28385C14.0504 8.28385 15.7178 9.9512 15.7178 12.0007C15.7178 14.0502 14.0503 15.7174 12.0009 15.7174Z" fill="#DA2E79"/>
<path d="M17.908 4.67383C17.5319 4.67383 17.1625 4.82608 16.8969 5.09285C16.63 5.35831 16.4766 5.72788 16.4766 6.10526C16.4766 6.48146 16.6301 6.8509 16.8969 7.11766C17.1623 7.38313 17.5319 7.53668 17.908 7.53668C18.2854 7.53668 18.6536 7.38313 18.9204 7.11766C19.1872 6.8509 19.3394 6.48133 19.3394 6.10526C19.3394 5.72788 19.1872 5.35831 18.9204 5.09285C18.6549 4.82608 18.2854 4.67383 17.908 4.67383Z" fill="#DA2E79"/>
</svg>
