<svg width="24" height="24" viewBox="0 0 24 24" fill="none" xmlns="http://www.w3.org/2000/svg">
<path d="M5.20256 12.8066C4.64065 13.9111 5.27864 14.4391 6.73427 15.3411C7.97173 16.1056 9.68127 16.3852 10.7794 16.497C10.3293 16.9296 12.3918 14.946 6.45194 20.6594C5.19247 21.8667 7.22009 23.8035 8.47864 22.622L11.8858 19.3358C13.1902 20.5907 14.4405 21.7933 15.293 22.6266C16.5524 23.8127 18.5791 21.8923 17.3334 20.664C17.2399 20.5751 12.7163 16.2357 12.9922 16.5016C14.1041 16.3897 15.7879 16.0937 17.0107 15.3457L17.0098 15.3448C18.4655 14.4382 19.1034 13.9111 18.5498 12.8066C18.2152 12.1796 17.3132 11.6553 16.1124 12.5618C16.1124 12.5618 14.4909 13.8039 11.8757 13.8039C9.25961 13.8039 7.63899 12.5618 7.63899 12.5618C6.43911 11.6507 5.53346 12.1796 5.20256 12.8066Z" fill="#EE8208"/>
<path d="M11.8738 12.1299C15.0619 12.1299 17.6651 9.63844 17.6651 6.57135C17.6651 3.49143 15.0619 1 11.8738 1C8.68481 1 6.08154 3.49143 6.08154 6.57135C6.08154 9.63844 8.68481 12.1299 11.8738 12.1299ZM11.8738 3.82234C13.4403 3.82234 14.7181 5.05156 14.7181 6.57135C14.7181 8.07831 13.4403 9.30753 11.8738 9.30753C10.3073 9.30753 9.02946 8.07831 9.02946 6.57135C9.02855 5.05064 10.3063 3.82234 11.8738 3.82234Z" fill="#EE8208"/>
</svg>
