<svg width="24" height="24" viewBox="0 0 24 24" fill="none" xmlns="http://www.w3.org/2000/svg">
<path d="M16.9996 2.00416L14.406 2C11.4923 2 9.60926 3.9319 9.60926 6.92203V9.19141H7.00156C6.77622 9.19141 6.59375 9.37409 6.59375 9.59943V12.8875C6.59375 13.1128 6.77643 13.2953 7.00156 13.2953H9.60926V21.5922C9.60926 21.8175 9.79174 22 10.0171 22H13.4194C13.6447 22 13.8272 21.8173 13.8272 21.5922V13.2953H16.8762C17.1015 13.2953 17.284 13.1128 17.284 12.8875L17.2853 9.59943C17.2853 9.49123 17.2422 9.38762 17.1658 9.31105C17.0895 9.23448 16.9854 9.19141 16.8772 9.19141H13.8272V7.26763C13.8272 6.34298 14.0475 5.87358 15.252 5.87358L16.9992 5.87295C17.2243 5.87295 17.4068 5.69027 17.4068 5.46514V2.41197C17.4068 2.18705 17.2245 2.00458 16.9996 2.00416Z" fill="#2D88FF"/>
</svg>
