<svg width="40" height="40" viewBox="0 0 40 40" fill="none" xmlns="http://www.w3.org/2000/svg">
<rect width="40" height="40" rx="5" fill="#2787F5"/>
<g clip-path="url(#clip0)">
<path d="M31.7861 25.3669C31.7216 25.2589 31.3225 24.3918 29.4024 22.6097C27.3923 20.7435 27.6623 21.0465 30.0835 17.8198C31.5581 15.8547 32.1476 14.6546 31.9631 14.1415C31.7876 13.6525 30.703 13.7815 30.703 13.7815L27.0967 13.8025C27.0967 13.8025 26.8297 13.7665 26.6302 13.885C26.4367 14.002 26.3122 14.272 26.3122 14.272C26.3122 14.272 25.7406 15.7932 24.9786 17.0863C23.372 19.815 22.7284 19.959 22.4659 19.7895C21.8553 19.3949 22.0084 18.2023 22.0084 17.3563C22.0084 14.7116 22.4089 13.609 21.2268 13.324C20.8338 13.2295 20.5458 13.1665 19.5422 13.156C18.2551 13.1425 17.1645 13.1605 16.548 13.462C16.1369 13.663 15.8204 14.1115 16.0139 14.137C16.2524 14.1685 16.7925 14.2825 17.079 14.6726C17.4495 15.1751 17.436 16.3062 17.436 16.3062C17.436 16.3062 17.649 19.4189 16.9395 19.806C16.452 20.0715 15.7844 19.5299 14.3518 17.0532C13.6182 15.7857 13.0632 14.3831 13.0632 14.3831C13.0632 14.3831 12.9567 14.122 12.7662 13.9825C12.5352 13.813 12.2111 13.759 12.2111 13.759L8.78189 13.78C8.78189 13.78 8.26735 13.795 8.07834 14.0185C7.91033 14.218 8.06484 14.6291 8.06484 14.6291C8.06484 14.6291 10.75 20.91 13.7893 24.0768C16.578 26.9795 19.7432 26.789 19.7432 26.789H21.1773C21.1773 26.789 21.6108 26.741 21.8313 26.5024C22.0354 26.2834 22.0279 25.8724 22.0279 25.8724C22.0279 25.8724 21.9994 23.9478 22.8934 23.6642C23.774 23.3852 24.9051 25.5244 26.1037 26.3479C27.0097 26.9705 27.6983 26.834 27.6983 26.834L30.904 26.789C30.904 26.789 32.5811 26.6855 31.7861 25.3669Z" fill="white"/>
</g>
<defs>
<clipPath id="clip0">
<rect width="24" height="24" fill="white" transform="translate(8 8)"/>
</clipPath>
</defs>
</svg>
