<svg width="40" height="40" viewBox="0 0 40 40" fill="none" xmlns="http://www.w3.org/2000/svg">
<rect width="40" height="40" rx="5" fill="#EFF2F6"/>
<path d="M24.9287 9H15.0711C11.7235 9 9 11.7236 9 15.0712V24.9288C9 28.2765 11.7235 31 15.0711 31H24.9287C28.2765 31 31 28.2764 31 24.9288V15.0712C31.0001 11.7236 28.2765 9 24.9287 9ZM29.0482 24.9288C29.0482 27.2002 27.2002 29.0481 24.9288 29.0481H15.0711C12.7998 29.0482 10.9519 27.2002 10.9519 24.9288V15.0712C10.9519 12.7999 12.7998 10.9519 15.0711 10.9519H24.9287C27.2001 10.9519 29.0481 12.7999 29.0481 15.0712L29.0482 24.9288Z" fill="#A8B1BC"/>
<path d="M19.9989 14.3325C16.8731 14.3325 14.3301 16.8755 14.3301 20.0014C14.3301 23.1271 16.8731 25.6699 19.9989 25.6699C23.1248 25.6699 25.6678 23.1271 25.6678 20.0014C25.6678 16.8755 23.1248 14.3325 19.9989 14.3325ZM19.9989 23.7179C17.9495 23.7179 16.282 22.0506 16.282 20.0012C16.282 17.9517 17.9494 16.2843 19.9989 16.2843C22.0485 16.2843 23.7158 17.9517 23.7158 20.0012C23.7158 22.0506 22.0483 23.7179 19.9989 23.7179Z" fill="#A8B1BC"/>
<path d="M25.9065 12.6738C25.5304 12.6738 25.161 12.8261 24.8954 13.0928C24.6285 13.3583 24.4751 13.7279 24.4751 14.1053C24.4751 14.4815 24.6287 14.8509 24.8954 15.1177C25.1609 15.3831 25.5304 15.5367 25.9065 15.5367C26.2839 15.5367 26.6522 15.3831 26.9189 15.1177C27.1857 14.8509 27.3379 14.4813 27.3379 14.1053C27.3379 13.7279 27.1857 13.3583 26.9189 13.0928C26.6535 12.8261 26.2839 12.6738 25.9065 12.6738Z" fill="#A8B1BC"/>
</svg>
