<svg width="40" height="40" viewBox="0 0 40 40" fill="none" xmlns="http://www.w3.org/2000/svg">
<rect width="40" height="40" rx="5" fill="#EFF2F6"/>
<path d="M24.9991 10.0042L22.4055 10C19.4918 10 17.6088 11.9319 17.6088 14.922V17.1914H15.0011C14.7757 17.1914 14.5933 17.3741 14.5933 17.5994V20.8875C14.5933 21.1128 14.7759 21.2953 15.0011 21.2953H17.6088V29.5922C17.6088 29.8175 17.7912 30 18.0166 30H21.4189C21.6442 30 21.8267 29.8173 21.8267 29.5922V21.2953H24.8757C25.101 21.2953 25.2835 21.1128 25.2835 20.8875L25.2848 17.5994C25.2848 17.4912 25.2417 17.3876 25.1653 17.311C25.089 17.2345 24.9849 17.1914 24.8768 17.1914H21.8267V15.2676C21.8267 14.343 22.047 13.8736 23.2515 13.8736L24.9987 13.873C25.2238 13.873 25.4063 13.6903 25.4063 13.4651V10.412C25.4063 10.1871 25.224 10.0046 24.9991 10.0042Z" fill="#A8B1BC"/>
</svg>
