<svg width="40" height="40" viewBox="0 0 40 40" fill="none" xmlns="http://www.w3.org/2000/svg">
<rect width="40" height="40" rx="5" fill="#EFF2F6"/>
<path d="M13.2026 20.8066C12.6407 21.9111 13.2786 22.4391 14.7343 23.3411C15.9717 24.1056 17.6813 24.3852 18.7794 24.497C18.3293 24.9296 20.3918 22.946 14.4519 28.6594C13.1925 29.8667 15.2201 31.8035 16.4786 30.622L19.8858 27.3358C21.1902 28.5907 22.4405 29.7933 23.293 30.6266C24.5524 31.8127 26.5791 29.8923 25.3334 28.664C25.2399 28.5751 20.7163 24.2357 20.9922 24.5016C22.1041 24.3897 23.7879 24.0937 25.0107 23.3457L25.0098 23.3448C26.4655 22.4382 27.1034 21.9111 26.5498 20.8066C26.2152 20.1796 25.3132 19.6553 24.1124 20.5618C24.1124 20.5618 22.4909 21.8039 19.8757 21.8039C17.2596 21.8039 15.639 20.5618 15.639 20.5618C14.4391 19.6507 13.5335 20.1796 13.2026 20.8066Z" fill="#A8B1BC"/>
<path d="M19.8738 20.1299C23.0619 20.1299 25.6651 17.6384 25.6651 14.5714C25.6651 11.4914 23.0619 9 19.8738 9C16.6848 9 14.0815 11.4914 14.0815 14.5714C14.0815 17.6384 16.6848 20.1299 19.8738 20.1299ZM19.8738 11.8223C21.4403 11.8223 22.7181 13.0516 22.7181 14.5714C22.7181 16.0783 21.4403 17.3075 19.8738 17.3075C18.3073 17.3075 17.0295 16.0783 17.0295 14.5714C17.0285 13.0506 18.3063 11.8223 19.8738 11.8223Z" fill="#A8B1BC"/>
</svg>
