<svg width="40" height="40" viewBox="0 0 40 40" fill="none" xmlns="http://www.w3.org/2000/svg">
<rect width="40" height="40" rx="5" fill="#EFF2F6"/>
<g clip-path="url(#clip0)">
<path fill-rule="evenodd" clip-rule="evenodd" d="M30.9983 13.1175C30.1874 13.4753 29.3174 13.7183 28.4048 13.8266C29.3371 13.2685 30.0528 12.3821 30.3877 11.3283C29.5144 11.847 28.5492 12.2213 27.5217 12.4248C26.6976 11.5483 25.5256 11 24.2256 11C21.7338 11 19.7115 13.0223 19.7115 15.5141C19.7115 15.8686 19.7509 16.2133 19.8297 16.5416C16.0773 16.3545 12.7517 14.5554 10.5258 11.824C10.1384 12.4905 9.91518 13.2652 9.91518 14.0925C9.91518 15.6585 10.7129 17.0406 11.9244 17.8482C11.1857 17.8253 10.4897 17.6217 9.87907 17.2836C9.87907 17.3033 9.87907 17.3197 9.87907 17.3394C9.87907 19.5258 11.4352 21.3511 13.5002 21.7648C13.1226 21.8666 12.7221 21.9224 12.3117 21.9224C12.0196 21.9224 11.7372 21.8928 11.4615 21.8403C12.036 23.6328 13.7037 24.9394 15.6768 24.9755C14.1305 26.1869 12.187 26.9092 10.0695 26.9092C9.70508 26.9092 9.34723 26.8862 8.99268 26.8468C10.9887 28.1272 13.3623 28.8757 15.9131 28.8757C24.2157 28.8757 28.756 21.9979 28.756 16.0328C28.756 15.8358 28.7528 15.6421 28.7429 15.4484C29.626 14.8115 30.3909 14.017 30.995 13.1109L30.9983 13.1175Z" fill="#A8B1BC"/>
</g>
<defs>
<clipPath id="clip0">
<rect width="22" height="17.879" fill="white" transform="translate(9 11)"/>
</clipPath>
</defs>
</svg>
