<svg width="20" height="20" viewBox="0 0 20 20" fill="none" xmlns="http://www.w3.org/2000/svg">
<path d="M5.90914 10.0009C5.90914 9.49883 5.50211 9.0918 5.00005 9.0918H1.36368C0.861621 9.0918 0.45459 9.49883 0.45459 10.0009C0.45459 10.5029 0.861621 10.91 1.36368 10.91H5.00005C5.50211 10.91 5.90914 10.5029 5.90914 10.0009Z" fill="#A8B1BC"/>
<path d="M18.6365 9.0918H16.8183C16.3162 9.0918 15.9092 9.49883 15.9092 10.0009C15.9092 10.5029 16.3162 10.91 16.8183 10.91H18.6365C19.1385 10.91 19.5455 10.5029 19.5455 10.0009C19.5455 9.49883 19.1385 9.0918 18.6365 9.0918Z" fill="#A8B1BC"/>
<path d="M10.4545 5.45455C10.9566 5.45455 11.3636 5.04752 11.3636 4.54545V0.909091C11.3636 0.40703 10.9566 0 10.4545 0C9.95244 0 9.54541 0.40703 9.54541 0.909091V4.54545C9.54541 5.04752 9.95244 5.45455 10.4545 5.45455Z" fill="#A8B1BC"/>
<path d="M10.4555 14.5449C9.95342 14.5449 9.54639 14.952 9.54639 15.454V19.0904C9.54639 19.5924 9.95342 19.9995 10.4555 19.9995C10.9575 19.9995 11.3646 19.5924 11.3646 19.0904V15.454C11.3646 14.952 10.9575 14.5449 10.4555 14.5449Z" fill="#A8B1BC"/>
<path d="M4.6691 2.92836C4.31419 2.57333 3.73855 2.57339 3.38346 2.92836C3.02843 3.28339 3.02843 3.85896 3.38346 4.21399L5.9548 6.78539C6.13231 6.9629 6.36498 7.05169 6.59758 7.05169C6.83019 7.05169 7.06292 6.9629 7.24037 6.78545C7.5954 6.43042 7.5954 5.85484 7.24037 5.49981L4.6691 2.92836Z" fill="#A8B1BC"/>
<path d="M14.9537 13.2135C14.5988 12.8585 14.0231 12.8585 13.6681 13.2135C13.3131 13.5685 13.3131 14.1441 13.6681 14.4991L16.2395 17.0704C16.417 17.2479 16.6497 17.3367 16.8824 17.3367C17.115 17.3367 17.3477 17.2479 17.5252 17.0704C17.8802 16.7154 17.8802 16.1398 17.5252 15.7848L14.9537 13.2135Z" fill="#A8B1BC"/>
<path d="M5.95571 13.2135L3.38444 15.7848C3.02941 16.1398 3.02941 16.7154 3.38444 17.0705C3.56195 17.248 3.79462 17.3367 4.02729 17.3367C4.25995 17.3367 4.49262 17.248 4.67007 17.0705L7.24135 14.4992C7.59638 14.1441 7.59638 13.5686 7.24135 13.2135C6.88632 12.8585 6.31068 12.8585 5.95571 13.2135Z" fill="#A8B1BC"/>
</svg>
