<?xml version="1.0" encoding="utf-8"?><svg xmlns="http://www.w3.org/2000/svg" xmlns:xlink="http://www.w3.org/1999/xlink"><symbol viewBox="0 0 24 24" id="avatar-stab" xmlns="http://www.w3.org/2000/svg"><path d="M15.618 11.128a6.15 6.15 0 002.535-4.974A6.16 6.16 0 0012 0a6.16 6.16 0 00-6.154 6.154c0 2.042 1 3.854 2.535 4.974-3.817 1.461-6.535 5.163-6.535 9.487A3.388 3.388 0 005.23 24h13.54a3.388 3.388 0 003.384-3.385c0-4.324-2.718-8.026-6.535-9.487zM7.692 6.154a4.313 4.313 0 014.307-4.308 4.313 4.313 0 014.308 4.308A4.313 4.313 0 0112 10.462a4.313 4.313 0 01-4.308-4.308zm11.077 16H5.23a1.54 1.54 0 01-1.538-1.539c0-4.58 3.727-8.307 8.308-8.307 4.58 0 8.307 3.726 8.307 8.307a1.54 1.54 0 01-1.538 1.539z"/></symbol><symbol viewBox="0 0 24 24" id="bell" xmlns="http://www.w3.org/2000/svg"><path d="M12 21.5c1.1 0 2-.9 2-2h-4c0 1.1.9 2 2 2zm6-6v-5c0-3.07-1.63-5.64-4.5-6.32V3.5c0-.83-.67-1.5-1.5-1.5s-1.5.67-1.5 1.5v.68C7.64 4.86 6 7.42 6 10.5v5l-2 2v1h16v-1l-2-2zm-2 1H8v-6C8 8.02 9.51 6 12 6s4 2.02 4 4.5v6z"/></symbol><symbol viewBox="0 0 10 7" id="chevron-down" xmlns="http://www.w3.org/2000/svg"><path d="M1.175 0L5 3.817 8.825 0 10 1.175l-5 5-5-5L1.175 0z"/></symbol><symbol viewBox="0 0 7 10" id="chevron-left" xmlns="http://www.w3.org/2000/svg"><path d="M6.176 1.175L2.359 5l3.817 3.825L5 10 0 5l5-5 1.175 1.175z"/></symbol><symbol viewBox="0 0 7 10" id="chevron-right" xmlns="http://www.w3.org/2000/svg"><path d="M0 8.825L3.817 5 0 1.175 1.175 0l5 5-5 5L0 8.825z"/></symbol><symbol viewBox="0 0 10 7" id="chevron-top" xmlns="http://www.w3.org/2000/svg"><path d="M1.175 6.176L5 2.359l3.825 3.817L10 5 5 0 0 5l1.175 1.175z"/></symbol><symbol viewBox="0 0 8 8" id="cross" xmlns="http://www.w3.org/2000/svg"><path d="M4 4.733l3.115 3.115a.518.518 0 10.733-.733L4.733 4 7.848.885a.518.518 0 10-.733-.733L4 3.267.885.152a.518.518 0 10-.733.733L3.267 4 .152 7.115a.517.517 0 000 .733c.202.203.53.203.733 0L4 4.733z"/></symbol><symbol viewBox="0 0 24 24" id="cross-big" xmlns="http://www.w3.org/2000/svg"><path d="M0 1.414L1.414 0 12 10.586 22.586 0 24 1.414 13.414 12 24 22.586 22.586 24 12 13.414 1.414 24 0 22.586 10.586 12 0 1.414z"/></symbol><symbol viewBox="0 0 12 12" id="edit" xmlns="http://www.w3.org/2000/svg"><path d="M2 6.623v1.875h1.875l5-5L7 1.623l-5 5zm8.352-5.309L9.185.146a.501.501 0 00-.708 0l-.977.978 1.875 1.875.977-.978a.5.5 0 000-.707zM12 10H0v2h12v-2z"/></symbol><symbol viewBox="0 0 16 16" id="eye" xmlns="http://www.w3.org/2000/svg"><g clip-path="url(#ajclip0)"><path d="M8 3C4.364 3 1.258 5.262 0 8.455c1.258 3.192 4.364 5.454 8 5.454s6.742-2.262 8-5.454C14.742 5.262 11.636 3 8 3zm0 9.09a3.638 3.638 0 01-3.636-3.635A3.638 3.638 0 018 4.818a3.638 3.638 0 013.636 3.637A3.638 3.638 0 018 12.09zm0-5.817a2.179 2.179 0 00-2.182 2.182c0 1.207.975 2.181 2.182 2.181a2.179 2.179 0 002.182-2.181A2.179 2.179 0 008 6.273z"/></g><defs><clipPath id="ajclip0"><path d="M0 0h16v16H0z"/></clipPath></defs></symbol><symbol viewBox="0 0 24 24" id="heart" xmlns="http://www.w3.org/2000/svg"><path d="M12 21.35l-1.45-1.32C5.4 15.36 2 12.28 2 8.5 2 5.42 4.42 3 7.5 3c1.74 0 3.41.81 4.5 2.09C13.09 3.81 14.76 3 16.5 3 19.58 3 22 5.42 22 8.5c0 3.78-3.4 6.86-8.55 11.54L12 21.35z"/></symbol><symbol viewBox="0 0 24 24" id="like" xmlns="http://www.w3.org/2000/svg"><path d="M16.5 3c-1.74 0-3.41.81-4.5 2.09C10.91 3.81 9.24 3 7.5 3 4.42 3 2 5.42 2 8.5c0 3.78 3.4 6.86 8.55 11.54L12 21.35l1.45-1.32C18.6 15.36 22 12.28 22 8.5 22 5.42 19.58 3 16.5 3zm-4.4 15.55l-.1.1-.1-.1C7.14 14.24 4 11.39 4 8.5 4 6.5 5.5 5 7.5 5c1.54 0 3.04.99 3.57 2.36h1.87C13.46 5.99 14.96 5 16.5 5c2 0 3.5 1.5 3.5 3.5 0 2.89-3.14 5.74-7.9 10.05z"/></symbol><symbol viewBox="0 0 20 20" id="like-fill" xmlns="http://www.w3.org/2000/svg"><path d="M10 17.792l-1.209-1.1C4.5 12.8 1.666 10.233 1.666 7.083 1.667 4.517 3.683 2.5 6.25 2.5A4.99 4.99 0 0110 4.242 4.99 4.99 0 0113.75 2.5c2.567 0 4.583 2.017 4.583 4.583 0 3.15-2.833 5.717-7.125 9.617L10 17.792z"/></symbol><symbol viewBox="0 0 24 24" id="location" xmlns="http://www.w3.org/2000/svg"><path d="M12 12c-1.1 0-2-.9-2-2s.9-2 2-2 2 .9 2 2-.9 2-2 2zm6-1.8C18 6.57 15.35 4 12 4s-6 2.57-6 6.2c0 2.34 1.95 5.44 6 9.14 4.05-3.7 6-6.8 6-9.14zM12 2c4.2 0 8 3.22 8 8.2 0 3.32-2.67 7.25-8 11.8-5.33-4.55-8-8.48-8-11.8C4 5.22 7.8 2 12 2z"/></symbol><symbol viewBox="0 0 16 16" id="messages" xmlns="http://www.w3.org/2000/svg"><path d="M15.2 3.2h-1.6v7.2H3.2V12c0 .44.36.8.8.8h8.8L16 16V4c0-.44-.36-.8-.8-.8zM12 8V.8c0-.44-.36-.8-.8-.8H.8C.36 0 0 .36 0 .8V12l3.2-3.2h8c.44 0 .8-.36.8-.8z"/></symbol><symbol viewBox="0 0 20 20" id="pass-eye" xmlns="http://www.w3.org/2000/svg"><g clip-path="url(#apclip0)"><path d="M10 4.04c-3.821 0-7.286 2.09-9.844 5.485a.792.792 0 000 .945c2.558 3.4 6.023 5.49 9.844 5.49 3.821 0 7.287-2.09 9.843-5.485a.792.792 0 000-.945C17.287 6.13 13.821 4.04 10 4.04zm.274 10.158a4.21 4.21 0 01-4.472-4.472 4.216 4.216 0 013.924-3.924 4.209 4.209 0 014.472 4.472 4.23 4.23 0 01-3.924 3.924zm-.127-1.94a2.261 2.261 0 01-2.405-2.405 2.275 2.275 0 012.115-2.115 2.261 2.261 0 012.405 2.405 2.275 2.275 0 01-2.115 2.115z"/></g><defs><clipPath id="apclip0"><path d="M0 0h20v20H0z"/></clipPath></defs></symbol><symbol viewBox="0 0 24 24" id="pencil" xmlns="http://www.w3.org/2000/svg"><path d="M14.06 9.02l.92.92L5.92 19H5v-.92l9.06-9.06zM17.66 3c-.25 0-.51.1-.7.29l-1.83 1.83 3.75 3.75 1.83-1.83a.996.996 0 000-1.41l-2.34-2.34c-.2-.2-.45-.29-.71-.29zm-3.6 3.19L3 17.25V21h3.75L17.81 9.94l-3.75-3.75z"/></symbol><symbol viewBox="0 0 24 24" id="pencil2" xmlns="http://www.w3.org/2000/svg"><path d="M14.06 9.02l.92.92L5.92 19H5v-.92l9.06-9.06zM17.66 3c-.25 0-.51.1-.7.29l-1.83 1.83 3.75 3.75 1.83-1.83a.996.996 0 000-1.41l-2.34-2.34c-.2-.2-.45-.29-.71-.29zm-3.6 3.19L3 17.25V21h3.75L17.81 9.94l-3.75-3.75z"/></symbol><symbol viewBox="0 0 16 16" id="plus" xmlns="http://www.w3.org/2000/svg"><g clip-path="url(#asclip0)"><path d="M8.733 7.267v-6.23a.732.732 0 10-1.466 0v6.23h-6.23a.732.732 0 100 1.466h6.23v6.23a.732.732 0 101.466 0v-6.23h6.23A.73.73 0 0015.696 8a.732.732 0 00-.733-.733h-6.23z"/></g><defs><clipPath id="asclip0"><path d="M0 0h16v16H0z"/></clipPath></defs></symbol><symbol viewBox="0 0 12 12" id="plus-bold" xmlns="http://www.w3.org/2000/svg"><path d="M11.343 5.063H6.938V.665A.663.663 0 006.282 0H5.72a.664.664 0 00-.657.665v4.398H.656A.656.656 0 000 5.717v.567c0 .362.294.653.656.653h4.407v4.414a.65.65 0 00.656.649h.564a.65.65 0 00.655-.649V6.937h4.405A.655.655 0 0012 6.284v-.567a.656.656 0 00-.657-.654z"/></symbol><symbol viewBox="0 0 7 10" id="q-sign" xmlns="http://www.w3.org/2000/svg"><path d="M2.016 7.026h1.587v-.124c.01-1.01.339-1.473 1.116-1.95.877-.524 1.425-1.239 1.425-2.33C6.144 1.01 4.89 0 3.07 0 1.4 0 .048.925 0 2.736h1.697C1.74 1.84 2.388 1.41 3.06 1.41c.73 0 1.316.486 1.316 1.234 0 .668-.444 1.125-1.02 1.488-.844.524-1.33 1.053-1.34 2.769v.124zM2.85 10c.563 0 1.044-.467 1.049-1.049A1.06 1.06 0 002.85 7.912a1.04 1.04 0 00-1.048 1.04A1.043 1.043 0 002.85 10z"/></symbol><symbol viewBox="0 0 24 24" id="side-mnu-1" xmlns="http://www.w3.org/2000/svg"><path d="M19 3H5c-1.1 0-2 .9-2 2v14c0 1.1.9 2 2 2h14c1.1 0 2-.9 2-2V5c0-1.1-.9-2-2-2zM5 19V5h6v14H5zm14 0h-6v-7h6v7zm0-9h-6V5h6v5z"/></symbol><symbol viewBox="0 0 24 24" id="side-mnu-2" xmlns="http://www.w3.org/2000/svg"><path d="M7 15h7v2H7v-2zm0-4h10v2H7v-2zm0-4h10v2H7V7zm12-4h-4.18C14.4 1.84 13.3 1 12 1c-1.3 0-2.4.84-2.82 2H5c-.14 0-.27.01-.4.04a2.008 2.008 0 00-1.44 1.19c-.1.23-.16.49-.16.77v14c0 .27.06.54.16.78s.25.45.43.64c.27.27.62.47 1.01.55.13.02.26.03.4.03h14c1.1 0 2-.9 2-2V5c0-1.1-.9-2-2-2zm-7-.25c.41 0 .75.34.75.75s-.34.75-.75.75-.75-.34-.75-.75.34-.75.75-.75zM19 19H5V5h14v14z"/></symbol><symbol viewBox="0 0 24 24" id="side-mnu-3" xmlns="http://www.w3.org/2000/svg"><path d="M12 2C6.48 2 2 6.48 2 12s4.48 10 10 10 10-4.48 10-10S17.52 2 12 2zM7.07 18.28c.43-.9 3.05-1.78 4.93-1.78s4.51.88 4.93 1.78A7.893 7.893 0 0112 20c-1.86 0-3.57-.64-4.93-1.72zm11.29-1.45c-1.43-1.74-4.9-2.33-6.36-2.33s-4.93.59-6.36 2.33A7.95 7.95 0 014 12c0-4.41 3.59-8 8-8s8 3.59 8 8c0 1.82-.62 3.49-1.64 4.83zM12 6c-1.94 0-3.5 1.56-3.5 3.5S10.06 13 12 13s3.5-1.56 3.5-3.5S13.94 6 12 6zm0 5c-.83 0-1.5-.67-1.5-1.5S11.17 8 12 8s1.5.67 1.5 1.5S12.83 11 12 11z"/></symbol><symbol viewBox="0 0 24 24" id="side-mnu-4" xmlns="http://www.w3.org/2000/svg"><path d="M3 9H1v11c0 1.11.89 2 2 2h17v-2H3V9z"/><path d="M18 5V3c0-1.1-.9-2-2-2h-4c-1.1 0-2 .9-2 2v2H5v11c0 1.1.9 2 2 2h14c1.1 0 2-.9 2-2V5h-5zm-6-2h4v2h-4V3zm9 13H7V7h14v9z"/></symbol><symbol viewBox="0 0 24 24" id="side-mnu-5" xmlns="http://www.w3.org/2000/svg"><path d="M7 9H2V7h5v2zm0 3H2v2h5v-2zm13.59 7l-3.83-3.83c-.8.52-1.74.83-2.76.83-2.76 0-5-2.24-5-5s2.24-5 5-5 5 2.24 5 5c0 1.02-.31 1.96-.83 2.75L22 17.59 20.59 19zM17 11c0-1.65-1.35-3-3-3s-3 1.35-3 3 1.35 3 3 3 3-1.35 3-3zM2 19h10v-2H2v2z"/></symbol><symbol viewBox="0 0 24 24" id="side-mnu-6" xmlns="http://www.w3.org/2000/svg"><path d="M3 5H1v16c0 1.1.9 2 2 2h16v-2H3V5zm18-4H7c-1.1 0-2 .9-2 2v14c0 1.1.9 2 2 2h14c1.1 0 2-.9 2-2V3c0-1.1-.9-2-2-2zm0 16H7V3h14v14z"/></symbol><symbol viewBox="0 0 24 24" id="soc-fb" xmlns="http://www.w3.org/2000/svg"><path d="M17 2.004L14.404 2C11.492 2 9.61 3.932 9.61 6.922v2.27H7a.408.408 0 00-.408.407v3.288c0 .226.183.408.408.408h2.61v8.297c0 .226.182.408.408.408h3.402a.408.408 0 00.408-.408v-8.297h3.049a.408.408 0 00.407-.408l.002-3.288a.408.408 0 00-.408-.408h-3.05V7.268c0-.925.22-1.394 1.425-1.394L17 5.873a.408.408 0 00.407-.408V2.412A.408.408 0 0017 2.004z"/></symbol><symbol viewBox="0 0 24 24" id="soc-gpl" xmlns="http://www.w3.org/2000/svg"><path d="M7.781 7.078c1.625 0 3.095.834 3.938 1.983l1.997-2.011C12.52 5.497 10.223 4.266 7.78 4.266 3.506 4.266 0 7.725 0 12s3.506 7.734 7.781 7.734a7.723 7.723 0 007.44-5.625A7.5 7.5 0 0015.515 12v-.703H8.484v2.812h3.727a4.893 4.893 0 01-4.43 2.813c-2.714 0-4.968-2.208-4.968-4.922 0-2.714 2.254-4.922 4.968-4.922zm14.063 1.406H19.03v2.11h-2.11v2.812h2.11v2.11h2.813v-2.11H24v-2.812h-2.156v-2.11z"/></symbol><symbol viewBox="0 0 24 24" id="soc-inst" xmlns="http://www.w3.org/2000/svg"><path d="M16.929 1H7.07A6.078 6.078 0 001 7.071v9.858A6.078 6.078 0 007.071 23h9.858A6.078 6.078 0 0023 16.929V7.07A6.078 6.078 0 0016.929 1zm4.12 15.929a4.124 4.124 0 01-4.12 4.12H7.07a4.124 4.124 0 01-4.119-4.12V7.07a4.124 4.124 0 014.12-4.119h9.857a4.124 4.124 0 014.12 4.12v9.857z"/><path d="M11.999 6.333A5.675 5.675 0 006.33 12 5.675 5.675 0 0012 17.67 5.675 5.675 0 0017.668 12a5.675 5.675 0 00-5.67-5.668zm0 9.385A3.721 3.721 0 018.282 12a3.721 3.721 0 013.717-3.717A3.721 3.721 0 0115.716 12a3.721 3.721 0 01-3.717 3.717zm5.908-11.044a1.437 1.437 0 00-1.432 1.431c0 .376.154.746.42 1.013.266.265.635.419 1.012.419s.745-.154 1.012-.42.419-.636.419-1.012c0-.377-.152-.747-.42-1.012a1.437 1.437 0 00-1.011-.42z"/></symbol><symbol viewBox="0 0 24 24" id="soc-ok" xmlns="http://www.w3.org/2000/svg"><path d="M5.203 12.807c-.562 1.104.076 1.632 1.531 2.534 1.238.765 2.947 1.044 4.045 1.156l-4.327 4.162c-1.26 1.208.768 3.145 2.027 1.963l3.407-3.286c1.304 1.255 2.555 2.457 3.407 3.29 1.26 1.187 3.286-.734 2.04-1.962l-4.34-4.162c1.111-.112 2.795-.408 4.018-1.156l-.001-.001c1.455-.907 2.093-1.434 1.54-2.538-.335-.627-1.237-1.152-2.438-.245 0 0-1.621 1.242-4.236 1.242-2.616 0-4.237-1.242-4.237-1.242-1.2-.911-2.106-.382-2.436.245z"/><path d="M11.874 12.13c3.188 0 5.791-2.492 5.791-5.559 0-3.08-2.603-5.571-5.791-5.571-3.19 0-5.792 2.491-5.792 5.571 0 3.067 2.603 5.559 5.792 5.559zm0-8.308c1.566 0 2.844 1.23 2.844 2.75 0 1.506-1.278 2.736-2.844 2.736-1.567 0-2.845-1.23-2.845-2.737 0-1.52 1.277-2.749 2.845-2.749z"/></symbol><symbol viewBox="0 0 24 24" id="soc-tg" xmlns="http://www.w3.org/2000/svg"><g clip-path="url(#bfclip0)"><path d="M9.417 15.18l-.397 5.584c.568 0 .814-.244 1.11-.537l2.662-2.546 5.518 4.041c1.012.564 1.725.267 1.998-.93L23.93 3.819h.001c.321-1.497-.54-2.082-1.527-1.715l-21.29 8.151c-1.453.564-1.43 1.374-.247 1.741L6.31 13.69l12.643-7.912c.595-.394 1.136-.176.691.218L9.417 15.18z"/></g><defs><clipPath id="bfclip0"><path d="M0 0h24v24H0z"/></clipPath></defs></symbol><symbol viewBox="0 0 22 18" id="soc-tw" xmlns="http://www.w3.org/2000/svg"><g clip-path="url(#bgclip0)"><path fill-rule="evenodd" clip-rule="evenodd" d="M21.998 2.118c-.81.357-1.68.6-2.593.709A4.515 4.515 0 0021.388.328a9.047 9.047 0 01-2.866 1.097 4.516 4.516 0 00-7.692 4.117A12.808 12.808 0 011.526.824a4.5 4.5 0 00-.61 2.269c0 1.566.797 2.948 2.008 3.755A4.504 4.504 0 01.88 6.284v.055a4.516 4.516 0 003.62 4.426 4.528 4.528 0 01-2.039.075 4.52 4.52 0 004.216 3.136 9.054 9.054 0 01-5.608 1.933c-.364 0-.722-.023-1.076-.062a12.775 12.775 0 006.92 2.029c8.303 0 12.843-6.878 12.843-12.843 0-.197-.003-.39-.013-.585a9.131 9.131 0 002.252-2.337l.003.006z"/></g><defs><clipPath id="bgclip0"><path d="M0 0h22v17.879H0z"/></clipPath></defs></symbol><symbol viewBox="0 0 24 24" id="soc-vk" xmlns="http://www.w3.org/2000/svg"><g clip-path="url(#bhclip0)"><path d="M23.786 17.367c-.064-.108-.463-.975-2.384-2.757-2.01-1.867-1.74-1.563.681-4.79 1.475-1.965 2.065-3.165 1.88-3.678-.175-.49-1.26-.36-1.26-.36l-3.606.02s-.267-.035-.467.083c-.193.117-.318.387-.318.387s-.571 1.521-1.333 2.814c-1.607 2.729-2.25 2.873-2.513 2.704-.61-.395-.458-1.588-.458-2.434 0-2.644.4-3.747-.781-4.032-.393-.095-.681-.158-1.685-.168-1.287-.014-2.377.004-2.994.306-.411.201-.728.65-.534.675.238.032.778.146 1.065.536.37.502.357 1.633.357 1.633s.213 3.113-.497 3.5c-.487.266-1.155-.276-2.587-2.753a23.088 23.088 0 01-1.289-2.67s-.106-.261-.297-.4a1.485 1.485 0 00-.555-.224l-3.43.021s-.514.015-.703.239c-.168.199-.013.61-.013.61s2.685 6.281 5.724 9.448c2.789 2.902 5.954 2.712 5.954 2.712h1.434s.434-.048.654-.287c.204-.219.197-.63.197-.63s-.029-1.924.865-2.208c.881-.279 2.012 1.86 3.21 2.684.907.623 1.595.486 1.595.486l3.206-.045s1.677-.104.882-1.422z"/></g><defs><clipPath id="bhclip0"><path d="M0 0h24v24H0z"/></clipPath></defs></symbol><symbol viewBox="0 0 24 24" id="top-link-1" xmlns="http://www.w3.org/2000/svg"><path d="M12 12c2.21 0 4-1.79 4-4s-1.79-4-4-4-4 1.79-4 4 1.79 4 4 4zm0 2c-2.67 0-8 1.34-8 4v2h16v-2c0-2.66-5.33-4-8-4z"/></symbol><symbol viewBox="0 0 24 24" id="top-link-2" xmlns="http://www.w3.org/2000/svg"><path d="M12 7V3H2v18h20V7H12zm-2 12H4v-2h6v2zm0-4H4v-2h6v2zm0-4H4V9h6v2zm0-4H4V5h6v2zm10 12h-8V9h8v10zm-2-8h-4v2h4v-2zm0 4h-4v2h4v-2z"/></symbol><symbol viewBox="0 0 24 24" id="top-link-3" xmlns="http://www.w3.org/2000/svg"><path d="M3 13h2v-2H3v2zm0 4h2v-2H3v2zm0-8h2V7H3v2zm4 4h14v-2H7v2zm0 4h14v-2H7v2zM7 7v2h14V7H7z"/></symbol><symbol viewBox="0 0 24 24" id="top-link-4" xmlns="http://www.w3.org/2000/svg"><path d="M20 6h-8l-2-2H4c-1.1 0-1.99.9-1.99 2L2 18c0 1.1.9 2 2 2h16c1.1 0 2-.9 2-2V8c0-1.1-.9-2-2-2zm-5 3c1.1 0 2 .9 2 2s-.9 2-2 2-2-.9-2-2 .9-2 2-2zm4 8h-8v-1c0-1.33 2.67-2 4-2s4 .67 4 2v1z"/></symbol><symbol viewBox="0 0 24 24" id="top-link-5" xmlns="http://www.w3.org/2000/svg"><path d="M12 21.35l-1.45-1.32C5.4 15.36 2 12.28 2 8.5 2 5.42 4.42 3 7.5 3c1.74 0 3.41.81 4.5 2.09C13.09 3.81 14.76 3 16.5 3 19.58 3 22 5.42 22 8.5c0 3.78-3.4 6.86-8.55 11.54L12 21.35z"/></symbol><symbol viewBox="0 0 24 24" id="top-link-6" xmlns="http://www.w3.org/2000/svg"><path d="M12 22c1.1 0 2-.9 2-2h-4a2 2 0 002 2zm6-6v-5c0-3.07-1.64-5.64-4.5-6.32V4c0-.83-.67-1.5-1.5-1.5s-1.5.67-1.5 1.5v.68C7.63 5.36 6 7.92 6 11v5l-2 2v1h16v-1l-2-2z"/></symbol><symbol viewBox="0 0 24 24" id="top-link-7" xmlns="http://www.w3.org/2000/svg"><path d="M19.14 12.94c.04-.3.06-.61.06-.94 0-.32-.02-.64-.07-.94l2.03-1.58a.49.49 0 00.12-.61l-1.92-3.32a.488.488 0 00-.59-.22l-2.39.96c-.5-.38-1.03-.7-1.62-.94l-.36-2.54a.484.484 0 00-.48-.41h-3.84c-.24 0-.43.17-.47.41l-.36 2.54c-.59.24-1.13.57-1.62.94l-2.39-.96c-.22-.08-.47 0-.59.22L2.74 8.87c-.12.21-.08.47.12.61l2.03 1.58c-.05.3-.09.63-.09.94 0 .31.02.64.07.94l-2.03 1.58a.49.49 0 00-.12.61l1.92 3.32c.12.22.37.29.59.22l2.39-.96c.5.38 1.03.7 1.62.94l.36 2.54c.05.24.24.41.48.41h3.84c.24 0 .44-.17.47-.41l.36-2.54c.59-.24 1.13-.56 1.62-.94l2.39.96c.22.08.47 0 .59-.22l1.92-3.32c.12-.22.07-.47-.12-.61l-2.01-1.58zM12 15.6A3.61 3.61 0 018.4 12c0-1.98 1.62-3.6 3.6-3.6s3.6 1.62 3.6 3.6-1.62 3.6-3.6 3.6z"/></symbol><symbol viewBox="0 0 16 16" id="user" xmlns="http://www.w3.org/2000/svg"><path d="M8 8c2.21 0 4-1.79 4-4s-1.79-4-4-4-4 1.79-4 4 1.79 4 4 4zm0 2c-2.67 0-8 1.34-8 4v2h16v-2c0-2.66-5.33-4-8-4z"/></symbol><symbol viewBox="0 0 20 20" id="zoom" xmlns="http://www.w3.org/2000/svg"><path d="M19.361 18.217l-4.76-4.95a8.05 8.05 0 001.895-5.192C16.496 3.623 12.873 0 8.42 0 3.968 0 .346 3.623.346 8.075c0 4.453 3.622 8.075 8.075 8.075a7.99 7.99 0 004.626-1.461l4.796 4.988c.2.208.47.323.76.323a1.054 1.054 0 00.76-1.783zM8.421 2.107a5.975 5.975 0 015.968 5.968 5.975 5.975 0 01-5.968 5.969 5.975 5.975 0 01-5.969-5.969 5.975 5.975 0 015.969-5.968z"/></symbol><symbol viewBox="0 0 18 18" id="zoom-2" xmlns="http://www.w3.org/2000/svg"><path d="M17.425 16.395l-4.284-4.455a7.244 7.244 0 001.705-4.673C14.846 3.26 11.586 0 7.579 0 3.57 0 .31 3.26.31 7.267c0 4.008 3.26 7.268 7.268 7.268a7.19 7.19 0 004.163-1.315l4.317 4.49a.94.94 0 00.683.29.949.949 0 00.683-1.605zm-9.846-14.5a5.378 5.378 0 015.371 5.372 5.378 5.378 0 01-5.37 5.373 5.378 5.378 0 01-5.372-5.372A5.378 5.378 0 017.58 1.897z"/></symbol></svg>