<svg width="90" height="90" viewBox="0 0 90 90" fill="none" xmlns="http://www.w3.org/2000/svg">
<rect width="90" height="90" fill="#EFF2F6"/>
<path d="M51.2074 28.4198C53.9817 30.1593 55.927 33.1027 56.2812 36.5194C57.4126 37.0481 58.6683 37.3521 59.9996 37.3521C64.86 37.3521 68.7993 33.4127 68.7993 28.5531C68.7993 23.6928 64.86 19.7534 59.9996 19.7534C55.1857 19.7549 51.2808 23.6239 51.2074 28.4198ZM45.4425 46.4371C50.3029 46.4371 54.2422 42.497 54.2422 37.6374C54.2422 32.7778 50.3021 28.8384 45.4425 28.8384C40.5829 28.8384 36.6413 32.7785 36.6413 37.6381C36.6413 42.4977 40.5829 46.4371 45.4425 46.4371ZM49.1752 47.0368H41.7083C35.4957 47.0368 30.4414 52.0919 30.4414 58.3045V67.4359L30.4646 67.579L31.0936 67.7759C37.0225 69.6284 42.1733 70.2461 46.413 70.2461C54.6937 70.2461 59.4935 67.8852 59.7892 67.7347L60.377 67.4374H60.4399V58.3045C60.4422 52.0919 55.3879 47.0368 49.1752 47.0368ZM63.7338 37.9526H56.3246C56.2445 40.917 54.979 43.5864 52.9775 45.5063C58.4998 47.1484 62.5402 52.2693 62.5402 58.318V61.1319C69.8559 60.8639 74.0715 58.7905 74.3493 58.6512L74.9371 58.3532H75V49.2188C75 43.0069 69.9457 37.9526 63.7338 37.9526ZM30.0019 37.3536C31.7233 37.3536 33.325 36.8511 34.6818 35.9953C35.1131 33.1821 36.6211 30.7238 38.7754 29.0496C38.7844 28.8848 38.8001 28.7216 38.8001 28.5554C38.8001 23.695 34.86 19.7557 30.0019 19.7557C25.1408 19.7557 21.2022 23.695 21.2022 28.5554C21.2022 33.4135 25.1408 37.3536 30.0019 37.3536ZM37.9045 45.5063C35.9128 43.5962 34.6518 40.941 34.5597 37.9945C34.2849 37.9743 34.0131 37.9526 33.7331 37.9526H26.2669C20.0543 37.9526 15 43.0069 15 49.2188V58.3517L15.0232 58.4925L15.6522 58.6909C20.4085 60.1757 24.6533 60.8601 28.3403 61.0758V58.318C28.3418 52.2693 32.3808 47.1499 37.9045 45.5063Z" fill="white"/>
</svg>
