<svg width="70" height="70" viewBox="0 0 70 70" fill="none" xmlns="http://www.w3.org/2000/svg">
<path d="M43.9292 47.484C43.3516 47.484 42.8829 47.9528 42.8829 48.5303V58.0942H8.72933V13.034H42.8822V20.9859C42.8822 21.5642 43.3509 22.0323 43.9285 22.0323C44.506 22.0323 44.9748 21.5642 44.9748 20.9859V11.9877C44.9748 11.4095 44.506 10.9414 43.9285 10.9414H7.68303C7.10477 10.9414 6.63672 11.4095 6.63672 11.9877V59.1399C6.63672 59.7174 7.10477 60.1862 7.68303 60.1862H43.9285C44.506 60.1862 44.9748 59.7174 44.9748 59.1399V48.5303C44.9755 47.9521 44.5067 47.484 43.9292 47.484Z" fill="#10B7F5"/>
<path d="M63.0076 13.7291C62.9518 13.457 62.7899 13.2185 62.5583 13.0657L57.3052 9.60175C57.0736 9.44968 56.7925 9.39597 56.5177 9.45038C56.2456 9.50618 56.0078 9.66801 55.855 9.90029L52.0095 15.7436C51.9697 15.8043 51.9369 15.8677 51.9111 15.9326L31.5681 46.8007C31.5256 46.8656 31.4921 46.9354 31.4649 47.0072C31.347 47.146 31.2605 47.3148 31.2284 47.5073L29.908 55.3986C29.8382 55.8143 30.0252 56.23 30.3809 56.456C30.5518 56.5635 30.7457 56.6172 30.9397 56.6172C31.1496 56.6172 31.3596 56.5537 31.5388 56.4281L38.0908 51.8502C38.1536 51.8063 38.2094 51.756 38.2596 51.7016C38.3754 51.6256 38.4814 51.5321 38.5624 51.4094L58.9165 20.5259C58.957 20.4638 58.9897 20.3982 59.0163 20.3306L62.8548 14.5166C63.0083 14.2843 63.0634 14.0018 63.0076 13.7291ZM33.0909 49.0573L35.8413 50.8695L32.3829 53.2857L33.0909 49.0573ZM37.3912 49.3844L33.8909 47.0784L53.0935 17.9415L56.5937 20.2483L37.3912 49.3844ZM57.7251 18.4877L54.2263 16.1816L57.0276 11.9252L60.532 14.2362L57.7251 18.4877Z" fill="#10B7F5"/>
<path d="M32.6036 24.161C33.1819 24.161 33.6499 23.6929 33.6499 23.1147C33.6499 22.5364 33.1819 22.0684 32.6036 22.0684H13.1381C12.5598 22.0684 12.0918 22.5364 12.0918 23.1147C12.0918 23.6929 12.5598 24.161 13.1381 24.161H32.6036Z" fill="#10B7F5"/>
<path d="M13.3813 32.7801H32.8419C33.4201 32.7801 33.8882 32.3121 33.8882 31.7338C33.8882 31.1555 33.4201 30.6875 32.8419 30.6875H13.3813C12.803 30.6875 12.335 31.1555 12.335 31.7338C12.335 32.3121 12.803 32.7801 13.3813 32.7801Z" fill="#10B7F5"/>
</svg>
