<svg width="70" height="70" viewBox="0 0 70 70" fill="none" xmlns="http://www.w3.org/2000/svg">
<path d="M37.2322 3.82812C24.1757 3.82812 13.5536 14.4509 13.5536 27.5088C13.5536 28.3912 13.6018 29.275 13.6973 30.1434C11.9779 32.0338 6.97863 38.0061 9.58673 40.8757C10.1113 41.454 12.3748 42.9558 14.014 43.5738L14.0028 46.4972C14.0028 52.6851 18.2585 59.2621 26.1107 59.2614L30.4745 59.4058V64.8773C30.4745 65.4549 30.9425 65.9236 31.5208 65.9236C32.0991 65.9236 32.5671 65.4549 32.5671 64.8773V58.3937C32.5671 57.8287 32.1193 57.3662 31.5557 57.3481L26.1456 57.1695C19.5476 57.1695 16.0955 51.8006 16.0955 46.5014L16.1094 42.8386C16.1094 42.7689 16.1031 42.6991 16.0892 42.6287C15.9992 42.1787 15.6302 41.8495 15.1914 41.7958C14.5588 41.5768 11.9577 40.3749 11.136 39.4688C10.4454 38.7092 11.597 35.4182 15.5556 31.2155C15.7711 30.9868 15.8722 30.6736 15.8318 30.3618C15.709 29.4271 15.6469 28.4672 15.6469 27.5081C15.6469 15.6047 25.3302 5.92004 37.2329 5.92004C49.1378 5.92004 58.8238 15.6047 58.8238 27.5081C58.8238 33.689 56.1648 39.5832 51.529 43.6785C51.3044 43.8766 51.1753 44.1618 51.1753 44.4618L51.1607 64.7552C51.16 65.3328 51.6287 65.8016 52.2063 65.8023H52.207C52.7845 65.8023 53.2526 65.3342 53.2533 64.7566L53.2679 44.9284C58.1347 40.4516 60.9164 34.1306 60.9164 27.5081C60.9157 14.4509 50.2915 3.82812 37.2322 3.82812Z" fill="#10B7F5"/>
<path d="M37.299 14.1172C29.6184 14.1172 23.3691 20.3608 23.3691 28.0352C23.3691 28.6134 23.8372 29.0815 24.4154 29.0815C24.9937 29.0815 25.4618 28.6134 25.4618 28.0352C25.4618 21.5146 30.7721 16.2098 37.299 16.2098C43.8237 16.2098 49.1313 21.5146 49.1313 28.0352C49.1313 31.6107 47.6176 34.9596 45.0821 36.9936C43.5817 38.1983 41.0559 39.4678 37.5494 38.6893C32.1581 37.4889 31.7396 32.0613 31.7396 30.4256C31.7396 27.0272 34.4154 24.2573 37.7224 24.2099C37.7768 24.2189 37.8326 24.2231 37.8884 24.2231C39.7494 24.2231 41.2631 25.7368 41.2631 27.5971C41.2631 29.4609 39.7494 30.9767 37.8884 30.9767C37.3108 30.9767 36.8421 31.4447 36.8421 32.023C36.8421 32.6012 37.3108 33.0693 37.8884 33.0693C40.9031 33.0693 43.3557 30.614 43.3557 27.5971C43.3557 24.6151 40.9548 22.1828 37.984 22.1312C37.9261 22.1214 37.8675 22.1165 37.8089 22.1165C33.3084 22.1165 29.647 25.8442 29.647 30.4256C29.647 34.6067 31.6036 39.509 37.0953 40.731C37.9484 40.9208 38.7959 41.0142 39.6308 41.0142C42.0925 41.0142 44.4306 40.1988 46.3914 38.6259C49.4173 36.1984 51.2239 32.2392 51.2239 28.0345C51.2239 20.3608 44.9768 14.1172 37.299 14.1172Z" fill="#10B7F5"/>
</svg>
