<svg width="70" height="70" viewBox="0 0 70 70" fill="none" xmlns="http://www.w3.org/2000/svg">
<path d="M62.6552 7.25586H25.6095C22.1666 7.25586 19.3652 10.0559 19.3652 13.4974V20.2724C19.3652 20.8498 19.8326 21.3172 20.41 21.3172C20.9874 21.3172 21.4548 20.8498 21.4548 20.2724V13.4974C21.4548 11.2079 23.3187 9.34541 25.6095 9.34541H62.6552C64.9481 9.34541 66.8134 11.2079 66.8134 13.4974V38.9962C66.8134 41.2856 64.9481 43.1481 62.6552 43.1481H48.7743C48.7569 43.1481 48.7402 43.1523 48.7227 43.153C48.7053 43.1523 48.6893 43.1481 48.6712 43.1481H39.5886C39.0119 43.1481 38.5438 43.6162 38.5438 44.1929V54.9854H28.5711C27.9937 54.9854 27.5263 55.4535 27.5263 56.0302C27.5263 56.6069 27.9937 57.075 28.5711 57.075H39.5893H48.6719H59.6992C60.2759 57.075 60.7439 56.6069 60.7439 56.0302C60.7439 55.4535 60.2759 54.9854 59.6992 54.9854H49.7167V45.2376H62.6552C66.1002 45.2376 68.9029 42.4376 68.9029 38.9962V13.4974C68.9029 10.0559 66.1002 7.25586 62.6552 7.25586ZM40.6341 54.9854V45.2376H47.6271V54.9854H40.6341Z" fill="#10B7F5"/>
<path d="M22.4848 52.3053C26.3756 52.3053 30.2503 50.7061 33.0287 47.5739C38.1823 41.7614 37.6487 32.8411 31.8384 27.6883C26.0266 22.5369 17.107 23.0711 11.9542 28.8787C7.03609 34.4264 7.31121 42.7979 12.3972 48.0301L10.6844 49.9629L10.2888 49.6126C9.85768 49.2309 9.20086 49.2699 8.81848 49.6976L1.08086 58.3378C0.895591 58.5447 0.800168 58.8164 0.816188 59.0929C0.831512 59.3694 0.956188 59.6299 1.16305 59.8138L3.59599 61.9876C3.79519 62.1659 4.04385 62.2537 4.29181 62.2537C4.57877 62.2537 4.86435 62.136 5.07052 61.9054L12.8158 53.2512C13.0011 53.0443 13.0965 52.772 13.0805 52.4941C13.0644 52.2169 12.9377 51.9571 12.7301 51.7725L12.2502 51.3476L13.9588 49.4196C16.4837 51.3476 19.487 52.3053 22.4848 52.3053ZM4.20962 59.7344L3.3348 58.9529L9.60833 51.9487C9.66335 52.1228 9.76086 52.2865 9.90783 52.4161C10.0889 52.5763 10.3111 52.6529 10.5354 52.6668L4.20962 59.7344ZM13.5179 30.2654C15.8846 27.5978 19.1833 26.2368 22.4981 26.2368C25.3294 26.2368 28.1719 27.2307 30.4523 29.2513C35.4004 33.6393 35.8552 41.237 31.4657 46.1871C27.0777 51.1345 19.4794 51.5893 14.5306 47.1998C9.58395 42.8125 9.12982 35.2156 13.5179 30.2654Z" fill="#10B7F5"/>
<path d="M44.2116 17.0053C44.9002 17.0053 45.4584 16.4471 45.4584 15.7585C45.4584 15.0699 44.9002 14.5117 44.2116 14.5117C43.523 14.5117 42.9648 15.0699 42.9648 15.7585C42.9648 16.4471 43.523 17.0053 44.2116 17.0053Z" fill="#10B7F5"/>
</svg>
