<svg width="70" height="70" viewBox="0 0 70 70" fill="none" xmlns="http://www.w3.org/2000/svg">
<path d="M63.4721 29.7501C63.4714 29.7368 63.4693 29.7243 63.4679 29.7104C63.4589 29.585 63.431 29.4652 63.3823 29.3558C63.3781 29.3468 63.3732 29.3398 63.369 29.3308C63.3126 29.2144 63.2367 29.11 63.1434 29.0222C63.1399 29.0187 63.1385 29.0145 63.135 29.0111L53.8086 20.4885V11.9826C53.8086 11.4052 53.3406 10.9378 52.7639 10.9378H43.3456L35.3858 3.6641C34.9874 3.29982 34.3765 3.29912 33.9767 3.6641L26.0113 10.9378H17.1732C16.5958 10.9378 16.1284 11.4052 16.1284 11.9826V19.9626L6.22606 29.0111C6.22258 29.0145 6.22118 29.0187 6.2177 29.0222C6.12437 29.11 6.04845 29.2144 5.99203 29.3308C5.98785 29.3398 5.98228 29.3475 5.9781 29.3565C5.92934 29.4659 5.90148 29.585 5.89243 29.7104C5.89173 29.7243 5.88894 29.7375 5.88825 29.7515C5.88825 29.7626 5.88477 29.7724 5.88477 29.7835V65.2188C5.88477 65.3331 5.90775 65.4417 5.94188 65.5448C5.94676 65.5587 5.94954 65.572 5.95442 65.5859C5.99969 65.7057 6.06656 65.8137 6.14944 65.9077C6.15432 65.9133 6.15571 65.9202 6.16059 65.9258C6.16477 65.9307 6.17034 65.9334 6.17521 65.9383C6.20934 65.9739 6.24695 66.0052 6.28596 66.0358C6.30337 66.0491 6.3187 66.0651 6.33681 66.0776C6.38278 66.1097 6.43223 66.1354 6.48307 66.1591C6.49561 66.1647 6.50676 66.1737 6.51929 66.1786C6.64536 66.2323 6.78397 66.2629 6.92954 66.2629H62.4294C63.0062 66.2629 63.4742 65.7948 63.4742 65.2181V29.7828C63.4756 29.7717 63.4728 29.7612 63.4721 29.7501ZM7.97571 32.2513L16.4266 39.9701C16.4377 39.9812 16.4502 39.9917 16.4621 40.0021L24.6503 47.482L7.97571 62.8353V32.2513ZM26.1987 48.8966L34.2637 56.263C34.4636 56.4455 34.7157 56.5367 34.9685 56.5367C35.2207 56.5367 35.4735 56.4455 35.6727 56.2637L43.7119 48.9308L59.8043 64.1727H9.60835L26.1987 48.8966ZM45.2596 47.5196L61.3861 32.8106V62.7935L45.2596 47.5196ZM61.2426 30.1123L53.8079 36.8929V23.3191L61.2426 30.1123ZM34.6802 5.85046L40.2481 10.9378H29.1101L34.6802 5.85046ZM51.7191 13.0274V20.9621C51.7191 20.9781 51.7184 20.9928 51.7191 21.0081V38.7992L42.9834 46.7674C42.9771 46.7737 42.9687 46.7757 42.9625 46.782C42.9597 46.7848 42.959 46.789 42.9562 46.7925L34.9692 54.0773L18.218 38.7769V13.0274H51.7191ZM16.1284 36.8685L8.42566 29.8323L16.1284 22.7933V36.8685Z" fill="#10B7F5"/>
<path d="M34.9683 42.5615C37.3719 42.5615 39.6809 41.8239 41.6444 40.4287C42.1152 40.0951 42.226 39.4425 41.8909 38.9723C41.5573 38.5008 40.9026 38.3907 40.4345 38.7258C38.8256 39.868 36.9359 40.4719 34.9676 40.4719C29.7799 40.4719 25.5597 36.2496 25.5597 31.0592C25.5597 25.8667 29.7799 21.6423 34.9676 21.6423C38.7671 21.6423 41.8269 23.5375 43.401 26.8446V32.5114C43.401 33.451 42.6341 34.2151 41.6924 34.2151C40.7967 34.2151 39.9574 33.3772 39.8857 32.4585C40.0083 32.012 40.0793 31.544 40.0793 31.0585C40.0793 28.1331 37.6965 25.7524 34.7684 25.7524C31.8395 25.7524 29.4574 28.1324 29.4574 31.0585C29.4574 33.9846 31.8395 36.3646 34.7684 36.3646C36.2805 36.3646 37.6436 35.7266 38.6117 34.7096C39.3403 35.6639 40.4707 36.3047 41.6917 36.3047C43.7862 36.3047 45.4898 34.6031 45.4898 32.5114V26.6008C45.4898 26.5959 45.4885 26.591 45.4885 26.5862C45.4878 26.5555 45.4822 26.5249 45.4794 26.4942C45.4752 26.4552 45.4731 26.4155 45.4648 26.3779C45.4613 26.3605 45.4536 26.3438 45.4488 26.3271C45.4348 26.2762 45.4202 26.2261 45.3993 26.1787C45.3979 26.1766 45.3979 26.1738 45.3965 26.171C43.5243 22.0268 39.6259 19.5527 34.9662 19.5527C28.6265 19.5527 23.4688 24.7146 23.4688 31.0592C23.4708 37.4017 28.6286 42.5615 34.9683 42.5615ZM34.7697 34.2757C32.9936 34.2757 31.5484 32.8325 31.5484 31.0592C31.5484 29.2859 32.9936 27.8427 34.7697 27.8427C36.5459 27.8427 37.9911 29.2852 37.9911 31.0592C37.9911 32.8332 36.5459 34.2757 34.7697 34.2757Z" fill="#10B7F5"/>
</svg>
