<svg width="447" height="310" viewBox="0 0 447 310" fill="none" xmlns="http://www.w3.org/2000/svg">
<path d="M390.793 262.649H393.664V165.715C393.664 165.305 393.028 164.98 392.241 164.98H363.605C362.818 164.98 362.182 165.309 362.182 165.715V261.68H365.029V168.05H390.793V262.649Z" fill="#B2B6BB"/>
<g opacity="0.1">
<path opacity="0.1" d="M390.793 262.645H393.664V165.711C393.664 165.301 393.028 164.977 392.241 164.977H363.605C362.818 164.977 362.182 165.305 362.182 165.711V261.676H365.029V168.047H390.793V262.645Z" fill="black"/>
</g>
<path d="M354.379 309.999H405.562V303.938H354.379V309.999Z" fill="#B2B6BB"/>
<path opacity="0.1" d="M354.379 309.999H405.562V303.938H354.379V309.999Z" fill="black"/>
<path d="M388.743 262.649H391.615V165.715C391.615 165.305 390.979 164.98 390.191 164.98H361.555C360.768 164.98 360.132 165.309 360.132 165.715V261.68H362.979V168.05H388.743V262.649Z" fill="#B2B6BB"/>
<path d="M366.699 225.824H337.111V260.587H366.699V225.824Z" fill="#DADDDF"/>
<path d="M343.026 236.515H360.778V231.418H343.026V236.515Z" fill="#F4F4F4"/>
<path d="M412.937 225.824H383.35V260.587H412.937V225.824Z" fill="#DADDDF"/>
<path d="M389.956 255.579H407.708V232.805H389.956V255.579Z" fill="#F4F4F4"/>
<path d="M376.916 309.998H382.294V261.035H376.916V309.998Z" fill="#B2B6BB"/>
<g opacity="0.1">
<path opacity="0.1" d="M376.916 309.998H382.294V261.035H376.916V309.998Z" fill="black"/>
</g>
<path d="M373.634 309.998H379.012V261.035H373.634V309.998Z" fill="#B2B6BB"/>
<path d="M351.591 309.999H402.774V303.938H351.591V309.999Z" fill="#B2B6BB"/>
<path d="M412.937 178.113H383.35V212.872H412.937V178.113Z" fill="#DADDDF"/>
<path d="M389.686 189.418H407.437V184.32H389.686V189.418Z" fill="#F4F4F4"/>
<path d="M333.953 218.394H430.05V212.332H333.953V218.394Z" fill="#B2B6BB"/>
<path opacity="0.1" d="M333.953 218.394H430.05V212.332H333.953V218.394Z" fill="black"/>
<path d="M333.953 266.406H430.05V260.344H333.953V266.406Z" fill="#B2B6BB"/>
<path opacity="0.1" d="M333.953 266.406H430.05V260.344H333.953V266.406Z" fill="black"/>
<path d="M369.282 178.113H339.694V212.876H369.282V178.113Z" fill="#DADDDF"/>
<path d="M345.607 188.789H363.359V183.691H345.607V188.789Z" fill="#F4F4F4"/>
<path d="M345.607 198.047H363.359V192.949H345.607V198.047Z" fill="#F4F4F4"/>
<path d="M330.67 266.461H426.39L426.538 260.398H330.67V266.461Z" fill="#B2B6BB"/>
<path d="M330.67 218.394H426.767V212.332H330.67V218.394Z" fill="#B2B6BB"/>
<path d="M53.0898 309.648H201.666V0H53.0898V309.648Z" fill="#B2B6BB"/>
<path d="M53.0908 309.648H198.742V0H53.0908V309.648Z" fill="#DADDDF"/>
<path d="M191.071 309.645V7.02344H60.7627V309.645H191.071Z" fill="#B2B6BB"/>
<path opacity="0.1" d="M153.668 44.3398H100.746V64.0401H153.668V44.3398Z" fill="black"/>
<path d="M92.4865 145.592C85.7256 143.725 78.9482 149.738 72.2037 147.87C70.772 147.493 69.5986 145.555 69.5986 144.127C69.5986 142.691 70.772 142.284 72.2037 142.662C78.9647 144.525 85.742 138.517 92.4865 140.384C93.9183 140.762 95.0916 142.699 95.0916 144.127C95.0916 145.56 93.9142 145.97 92.4865 145.592Z" fill="white"/>
<path opacity="0.1" d="M61.9348 309.645V7.02344H60.1133V309.645H61.9348Z" fill="black"/>
<path d="M151.149 44.3398H98.2266V64.0401H151.149V44.3398Z" fill="#F4F4F4"/>
<path d="M23.457 222.872C23.0874 222.874 22.7227 222.959 22.3904 223.121C22.0581 223.283 21.7664 223.518 21.5371 223.808C18.4192 227.818 17.7874 236.276 19.0756 238.472C20.5935 241.058 19.0263 241.985 19.3915 244.321C19.6868 246.221 22.3576 247.662 23.3463 248.134C23.4603 248.191 23.5858 248.221 23.7134 248.221C23.841 248.221 23.9666 248.191 24.0806 248.134C25.1062 247.637 27.937 246.11 28.1831 244.189C28.4785 241.842 26.8867 240.963 28.3226 238.333C29.5534 236.1 28.659 227.662 25.4221 223.75C25.1838 223.466 24.8843 223.24 24.5463 223.088C24.2082 222.936 23.8398 222.862 23.4693 222.872" fill="#10B7F5"/>
<g opacity="0.4">
<g opacity="0.4">
<path opacity="0.4" d="M23.458 222.864C23.0884 222.866 22.7237 222.951 22.3914 223.113C22.0591 223.275 21.7674 223.51 21.538 223.8C18.4201 227.81 17.7883 236.269 19.0765 238.464C20.5945 241.05 19.0273 241.978 19.3924 244.313C19.6878 246.213 22.3585 247.654 23.3472 248.126C23.4613 248.183 23.5868 248.213 23.7144 248.213C23.842 248.213 23.9675 248.183 24.0816 248.126C25.1072 247.629 27.9379 246.102 28.1841 244.182C28.4795 241.834 26.8877 240.956 28.3236 238.325C29.5543 236.092 28.66 227.654 25.4231 223.742C25.1848 223.458 24.8853 223.232 24.5472 223.08C24.2092 222.928 23.8408 222.854 23.4703 222.864" fill="white"/>
</g>
</g>
<path d="M45.4858 245.925C45.2089 245.681 44.8807 245.503 44.5254 245.404C44.1705 245.304 43.7976 245.286 43.4346 245.35C38.4418 246.282 32.3578 252.2 31.8737 254.695C31.2952 257.634 29.5106 257.293 28.2347 259.283C27.1968 260.905 28.2347 263.749 28.6696 264.763C28.7197 264.88 28.7956 264.984 28.8916 265.068C28.9871 265.152 29.1008 265.214 29.2234 265.247C30.3188 265.559 33.449 266.289 34.9013 265.013C36.6736 263.45 36.0664 261.729 38.8849 260.716C41.2766 259.854 46.2037 252.951 46.3719 247.874C46.3814 247.504 46.3075 247.137 46.1553 246.799C46.0035 246.461 45.7775 246.162 45.494 245.925" fill="#10B7F5"/>
<path d="M0.746844 251.374C0.509719 251.57 0.319364 251.816 0.190135 252.095C0.0609057 252.374 -0.00391926 252.679 0.000183254 252.987C0.102746 257.214 4.14373 262.993 6.12524 263.732C8.45957 264.598 7.94266 266.022 9.40725 267.335C10.597 268.402 13.0708 267.926 13.9569 267.709C14.0599 267.684 14.1563 267.635 14.2384 267.569C14.3208 267.503 14.3873 267.417 14.4328 267.323C14.8431 266.465 15.8482 263.99 14.9949 262.628C13.9528 260.961 12.4636 261.228 12.0041 258.778C11.6185 256.701 6.60934 251.731 2.4658 250.91C2.16303 250.853 1.85124 250.865 1.5534 250.946C1.25597 251.026 0.980277 251.172 0.746844 251.374Z" fill="#10B7F5"/>
<path d="M38.3133 260.809C38.0946 260.654 37.8443 260.55 37.5801 260.503C37.3164 260.457 37.0456 260.471 36.7871 260.542C33.2549 261.573 29.3001 266.288 29.1237 268.102C28.9144 270.261 27.6016 270.154 26.8263 271.669C26.1945 272.9 27.1463 274.886 27.5278 275.584C27.5725 275.666 27.6345 275.736 27.7099 275.789C27.785 275.843 27.8716 275.879 27.9627 275.896C28.7832 276.04 31.0806 276.343 32.0364 275.321C33.2057 274.09 32.6436 272.859 34.6005 271.944C36.262 271.151 39.3225 265.824 39.0845 262.151C39.0636 261.884 38.9832 261.626 38.8499 261.393C38.7165 261.161 38.5331 260.961 38.3133 260.809Z" fill="#10B7F5"/>
<path d="M11.896 235.509C11.6018 235.599 11.3319 235.755 11.1063 235.964C10.8802 236.173 10.7042 236.429 10.5914 236.716C9.07345 240.664 10.5914 247.551 12.1585 248.987C13.9883 250.678 12.979 251.795 13.8201 253.568C14.5134 255.008 16.9831 255.513 17.8857 255.648C17.9903 255.664 18.0973 255.657 18.1987 255.626C18.3 255.596 18.3935 255.543 18.4723 255.472C19.1697 254.832 21.0528 252.931 20.782 251.347C20.4497 249.406 18.9728 249.086 19.4815 246.648C19.9164 244.596 17.18 238.074 13.656 235.739C13.3983 235.571 13.1066 235.463 12.8018 235.424C12.4974 235.384 12.1877 235.413 11.896 235.509Z" fill="#10B7F5"/>
<path d="M36.4331 236.439C36.1607 236.297 35.86 236.217 35.5527 236.205C35.2454 236.193 34.9394 236.249 34.6567 236.37C30.7962 238.089 27.0137 244.045 27.0958 246.158C27.1942 248.649 25.6804 248.715 25.0445 250.57C24.5153 252.081 25.9101 254.186 26.4476 254.921C26.5103 255.007 26.5916 255.077 26.6855 255.126C26.7791 255.176 26.8829 255.204 26.9891 255.208C27.9368 255.249 30.6075 255.237 31.5388 253.923C32.6752 252.319 31.8547 251.05 33.9388 249.684C35.7069 248.526 38.3695 241.992 37.5326 237.847C37.4686 237.546 37.3373 237.263 37.1494 237.019C36.9611 236.776 36.7203 236.577 36.4454 236.439" fill="#10B7F5"/>
<g opacity="0.2">
<g opacity="0.2">
<path opacity="0.2" d="M11.896 235.525C11.6018 235.615 11.3319 235.77 11.1063 235.979C10.8802 236.188 10.7042 236.445 10.5914 236.731C9.07345 240.679 10.5914 247.566 12.1585 249.003C13.9883 250.694 12.979 251.81 13.8201 253.583C14.5134 255.024 16.9831 255.529 17.8857 255.664C17.9903 255.68 18.0973 255.672 18.1987 255.642C18.3 255.612 18.3935 255.559 18.4723 255.488C19.1697 254.847 21.0528 252.947 20.782 251.363C20.4497 249.421 18.9728 249.101 19.4815 246.663C19.9164 244.611 17.18 238.09 13.656 235.754C13.3983 235.587 13.1066 235.479 12.8018 235.439C12.4974 235.399 12.1877 235.428 11.896 235.525Z" fill="white"/>
</g>
</g>
<g opacity="0.2">
<g opacity="0.2">
<path opacity="0.2" d="M36.4321 236.443C36.1597 236.301 35.859 236.221 35.5517 236.209C35.2444 236.197 34.9384 236.253 34.6557 236.374C30.7953 238.093 27.0128 244.048 27.0948 246.162C27.1933 248.653 25.6794 248.719 25.0436 250.574C24.5143 252.085 25.9092 254.19 26.4466 254.925C26.5094 255.01 26.5906 255.081 26.6846 255.13C26.7781 255.18 26.8819 255.208 26.9881 255.212C27.9358 255.253 30.6065 255.241 31.5378 253.927C32.6742 252.323 31.8537 251.054 33.9378 249.688C35.706 248.53 38.3685 241.996 37.5316 237.851C37.4676 237.55 37.3363 237.267 37.1484 237.023C36.9601 236.78 36.7193 236.581 36.4444 236.443" fill="white"/>
</g>
</g>
<path d="M22.7684 237.373C22.459 237.36 22.1505 237.418 21.8662 237.541C21.5819 237.665 21.3292 237.852 21.1274 238.087C18.4115 241.321 17.6201 248.347 18.617 250.198C19.7945 252.394 18.4652 253.116 18.695 255.07C18.8837 256.658 21.0539 257.943 21.8621 258.353C21.9573 258.399 22.0619 258.423 22.1678 258.423C22.2732 258.423 22.3778 258.399 22.473 258.353C23.3427 257.976 25.7554 256.794 26.0015 255.206C26.3215 253.264 25.0252 252.48 26.301 250.342C27.3841 248.524 26.9164 241.485 24.3482 238.128C24.1587 237.886 23.9175 237.689 23.6418 237.553C23.3661 237.416 23.0637 237.344 22.756 237.34" fill="#10B7F5"/>
<path d="M11.4556 268.921C11.2562 269.06 11.0909 269.245 10.9719 269.459C10.8525 269.672 10.7823 269.91 10.7663 270.152C10.5735 273.46 13.3591 278.242 14.8689 278.947C16.637 279.768 16.1406 280.852 17.1991 281.976C18.0606 282.888 20.0298 282.674 20.7355 282.563C20.8204 282.551 20.9016 282.522 20.973 282.473C21.0444 282.428 21.1035 282.362 21.1457 282.288C21.5149 281.644 22.4708 279.777 21.8924 278.656C21.1826 277.285 20.0011 277.4 19.8001 275.455C19.6319 273.813 16.0422 269.594 12.8545 268.687C12.6211 268.625 12.377 268.617 12.1391 268.658C11.9015 268.703 11.6767 268.798 11.4802 268.937" fill="#10B7F5"/>
<g opacity="0.2">
<g opacity="0.2">
<path opacity="0.2" d="M38.3133 260.829C38.0946 260.674 37.8443 260.569 37.5801 260.523C37.3164 260.477 37.0456 260.49 36.7871 260.562C33.2549 261.592 29.3001 266.307 29.1237 268.121C28.9144 270.28 27.6016 270.174 26.8263 271.688C26.1945 272.919 27.1463 274.906 27.5278 275.603C27.5725 275.686 27.6345 275.755 27.7099 275.809C27.785 275.862 27.8716 275.899 27.9627 275.915C28.7832 276.059 31.0806 276.363 32.0364 275.341C33.2057 274.11 32.6436 272.878 34.6005 271.963C36.262 271.171 39.3225 265.844 39.0845 262.171C39.0636 261.904 38.9832 261.645 38.8499 261.413C38.7165 261.18 38.5331 260.981 38.3133 260.829Z" fill="black"/>
</g>
</g>
<g opacity="0.2">
<g opacity="0.2">
<path opacity="0.2" d="M22.7693 237.377C22.46 237.364 22.1515 237.422 21.8672 237.545C21.5829 237.669 21.3302 237.856 21.1283 238.091C18.4125 241.325 17.6211 248.351 18.618 250.202C19.7954 252.398 18.4662 253.12 18.696 255.074C18.8847 256.662 21.0549 257.947 21.8631 258.357C21.9583 258.403 22.0629 258.427 22.1687 258.427C22.2742 258.427 22.3788 258.403 22.474 258.357C23.3437 257.98 25.7564 256.798 26.0025 255.209C26.3225 253.268 25.0261 252.484 26.302 250.346C27.3851 248.528 26.9174 241.489 24.3492 238.132C24.1597 237.89 23.9185 237.693 23.6428 237.557C23.3671 237.42 23.0647 237.347 22.757 237.344" fill="black"/>
</g>
</g>
<g opacity="0.2">
<g opacity="0.2">
<path opacity="0.2" d="M11.4575 268.921C11.2581 269.06 11.0928 269.245 10.9738 269.459C10.8545 269.672 10.7843 269.91 10.7683 270.152C10.5755 273.46 13.3611 278.242 14.8708 278.947C16.639 279.768 16.1426 280.852 17.201 281.976C18.0626 282.888 20.0318 282.674 20.7374 282.563C20.8223 282.551 20.9036 282.522 20.9749 282.473C21.0463 282.428 21.1054 282.362 21.1477 282.288C21.5169 281.644 22.4728 279.777 21.8943 278.656C21.1846 277.285 20.0031 277.4 19.802 275.455C19.6338 273.813 16.0441 269.594 12.8565 268.687C12.623 268.625 12.379 268.617 12.141 268.658C11.9035 268.703 11.6786 268.798 11.4821 268.937" fill="black"/>
</g>
</g>
<path d="M23.3301 287.14L23.084 287.066C23.1414 286.865 29.1762 266.935 38.3453 261.32L38.4807 261.542C29.3977 267.108 23.3917 286.943 23.3301 287.14Z" fill="#10B7F5"/>
<path d="M22.9458 287.134C22.1253 282.029 11.8321 269.827 11.7295 269.703L11.9264 269.535C12.3367 270.04 22.3591 281.914 23.2001 287.093L22.9458 287.134Z" fill="#10B7F5"/>
<path d="M23.2672 287.12L23.0088 287.087L24.2395 276.605C24.9017 270.691 27.4342 265.139 31.4682 260.763L44.8341 246.324L45.027 246.501L31.661 260.939C27.6573 265.273 25.1421 270.773 24.4816 276.638L23.2672 287.12Z" fill="#10B7F5"/>
<path d="M22.9075 287.146C22.8419 286.908 15.9866 262.874 1.20117 251.928L1.35706 251.719C16.2122 262.718 23.1004 286.834 23.1578 287.076L22.9075 287.146Z" fill="#10B7F5"/>
<path d="M22.6962 238.566L22.4375 238.57L23.0136 287.09L23.2723 287.086L22.6962 238.566Z" fill="#10B7F5"/>
<path d="M22.8817 271.381C22.6232 255.999 35.8784 237.116 36.0097 236.906L36.2185 237.058C36.0872 237.247 22.8772 256.061 23.1356 271.357L22.8817 271.381Z" fill="#10B7F5"/>
<path d="M22.8793 272.12C22.5594 266.222 11.8026 236.495 11.7041 236.196L11.9503 236.105C12.0569 236.405 22.8137 266.173 23.1378 272.104L22.8793 272.12Z" fill="#10B7F5"/>
<path d="M23.3892 223.512L23.1309 223.522L23.6511 237.372L23.9094 237.362L23.3892 223.512Z" fill="#10B7F5"/>
<path d="M12.0302 273.078L11.9297 273.316L15.8299 274.962L15.9304 274.724L12.0302 273.078Z" fill="#10B7F5"/>
<path d="M1.79783 256.012L1.7002 256.251L8.50419 259.026L8.60183 258.787L1.79783 256.012Z" fill="#10B7F5"/>
<path d="M10.9047 240.227L10.7012 240.386L15.2504 246.194L15.4539 246.035L10.9047 240.227Z" fill="#10B7F5"/>
<path d="M25.0741 243.926L22.7324 252.25L22.981 252.32L25.3232 243.996L25.0741 243.926Z" fill="#10B7F5"/>
<path d="M31.3539 239.344L30.4033 246.322L30.6593 246.357L31.6099 239.379L31.3539 239.344Z" fill="#10B7F5"/>
<path d="M36.9358 255.107L36.6855 255.041C37.3337 252.521 38.3019 248.7 38.3265 248.516H38.5891C38.5891 248.647 37.4322 253.162 36.9481 255.082" fill="#10B7F5"/>
<path d="M36.8164 266.172L31.0195 269.611L31.1512 269.833L36.9481 266.393L36.8164 266.172Z" fill="#10B7F5"/>
<g opacity="0.3">
<g opacity="0.3">
<path opacity="0.3" d="M23.3331 287.152L23.0869 287.078C23.1443 286.877 29.1791 266.947 38.3483 261.332L38.4836 261.554C29.4007 267.119 23.3946 286.955 23.3331 287.152Z" fill="black"/>
<path opacity="0.3" d="M22.9477 287.149C22.1272 282.044 11.834 269.842 11.7314 269.719L11.9284 269.551C12.3386 270.056 22.3611 281.929 23.2021 287.108L22.9477 287.149Z" fill="black"/>
<path opacity="0.3" d="M23.2672 287.132L23.0088 287.099L24.2395 276.617C24.9017 270.702 27.4342 265.151 31.4682 260.775L44.8341 246.336L45.027 246.512L31.661 260.951C27.6573 265.285 25.1421 270.784 24.4816 276.649L23.2672 287.132Z" fill="black"/>
<path opacity="0.3" d="M22.9066 287.154C22.8409 286.916 15.9856 262.882 1.2002 251.936L1.35609 251.727C16.2113 262.726 23.0994 286.842 23.1568 287.084L22.9066 287.154Z" fill="black"/>
<path opacity="0.3" d="M22.6962 238.578L22.4375 238.581L23.0136 287.102L23.2723 287.098L22.6962 238.578Z" fill="black"/>
<path opacity="0.3" d="M22.8807 271.389C22.6222 256.007 35.8775 237.123 36.0087 236.914L36.2176 237.066C36.0863 237.255 22.8762 256.068 23.1346 271.365L22.8807 271.389Z" fill="black"/>
<path opacity="0.3" d="M22.8793 272.132C22.5594 266.234 11.8026 236.507 11.7041 236.207L11.9503 236.117C12.0569 236.417 22.8137 266.185 23.1378 272.115L22.8793 272.132Z" fill="black"/>
<path opacity="0.3" d="M23.3901 223.523L23.1318 223.533L23.6521 237.383L23.9104 237.374L23.3901 223.523Z" fill="black"/>
<path opacity="0.3" d="M12.0312 273.098L11.9307 273.336L15.8309 274.981L15.9314 274.743L12.0312 273.098Z" fill="black"/>
<path opacity="0.3" d="M1.80174 256.02L1.7041 256.259L8.50814 259.034L8.60578 258.794L1.80174 256.02Z" fill="black"/>
<path opacity="0.3" d="M10.9056 240.242L10.7021 240.401L15.2514 246.21L15.4549 246.051L10.9056 240.242Z" fill="black"/>
<path opacity="0.3" d="M25.0741 243.934L22.7324 252.258L22.981 252.328L25.3232 244.004L25.0741 243.934Z" fill="black"/>
<path opacity="0.3" d="M31.3568 239.359L30.4062 246.338L30.6622 246.373L31.6128 239.395L31.3568 239.359Z" fill="black"/>
<path opacity="0.3" d="M36.9368 255.115L36.6865 255.049C37.3347 252.529 38.3029 248.708 38.3275 248.523H38.5901C38.5901 248.655 37.4332 253.169 36.9491 255.09" fill="black"/>
<path opacity="0.3" d="M36.8174 266.172L31.0205 269.611L31.1522 269.833L36.949 266.393L36.8174 266.172Z" fill="black"/>
</g>
</g>
<path d="M27.9289 309.531H18.4932C17.8335 309.531 17.1808 309.4 16.5715 309.15C15.9623 308.895 15.4085 308.526 14.9424 308.062C14.476 307.594 14.1063 307.04 13.8536 306.433C13.6013 305.821 13.4717 305.169 13.4717 304.508V287.422H32.9709V304.508C32.9709 305.169 32.8409 305.821 32.5882 306.433C32.3354 307.04 31.9654 307.594 31.4985 308.062C31.0321 308.53 30.4778 308.899 29.8682 309.15C29.2586 309.404 28.605 309.531 27.9453 309.531" fill="#868A91"/>
<path d="M23.331 309.528H27.9258C28.5855 309.528 29.239 309.4 29.8487 309.146C30.4583 308.896 31.0125 308.526 31.479 308.058C31.9459 307.591 32.3159 307.036 32.5686 306.429C32.8213 305.818 32.9514 305.165 32.9514 304.504V289.516L13.5014 289.762L13.4521 290.583H27.7494V304.841C27.7494 304.841 28.7914 309.52 23.331 309.52" fill="#606266"/>
<path d="M33.4188 289.773H12.7216C12.5698 289.773 12.425 289.712 12.3179 289.605C12.2113 289.498 12.1514 289.35 12.1514 289.199V288.004C12.1514 287.852 12.2113 287.709 12.3179 287.598C12.425 287.491 12.5698 287.43 12.7216 287.43H33.4188C33.5702 287.43 33.7154 287.491 33.8221 287.598C33.9292 287.709 33.9891 287.852 33.9891 288.004V289.199C33.9891 289.35 33.9292 289.498 33.8221 289.605C33.7154 289.712 33.5702 289.773 33.4188 289.773Z" fill="#868A91"/>
<path d="M33.9894 289.191V287.997C33.9869 287.919 33.9689 287.841 33.9365 287.771C33.904 287.702 33.8581 287.636 33.8007 287.583C33.7436 287.529 33.6768 287.488 33.6033 287.46C33.5303 287.431 33.4524 287.419 33.374 287.423H29.2715V289.77H33.374C33.4524 289.774 33.5303 289.762 33.6033 289.733C33.6768 289.705 33.7436 289.663 33.8007 289.61C33.8581 289.557 33.904 289.491 33.9365 289.421C33.9689 289.352 33.9869 289.274 33.9894 289.196" fill="#606266"/>
<g opacity="0.1">
<g opacity="0.1">
<g opacity="0.1">
<g opacity="0.1">
<path opacity="0.1" d="M325.703 33.3672H303.381V54.27H325.703V33.3672Z" fill="black"/>
</g>
</g>
</g>
</g>
<path d="M444.41 1.66797H271.017V116.701H444.41V1.66797Z" fill="#B2B6BB"/>
<path d="M447 1.66797H444.411V116.701H447V1.66797Z" fill="#DADDDF"/>
<path opacity="0.3" d="M447 1.66797H444.411V116.701H447V1.66797Z" fill="black"/>
<path d="M440.077 6.22656H275.973V112.608H440.077V6.22656Z" fill="#DADDDF"/>
<path opacity="0.3" d="M279.144 6.22656H275.973V112.608H279.144V6.22656Z" fill="black"/>
<path d="M286.151 68.8079H367.065V12.7031H286.151V68.8079Z" fill="white"/>
<path d="M336.637 45.353H362.113V16.9805H336.637V45.353Z" fill="#10B7F5"/>
<path opacity="0.6" d="M336.637 45.353H362.113V16.9805H336.637V45.353Z" fill="white"/>
<path d="M290.445 19.3324H334.002V16.9766H290.445V19.3324Z" fill="#10B7F5"/>
<path d="M290.445 24.2581H334.002V21.9023H290.445V24.2581Z" fill="#10B7F5"/>
<path d="M297.747 29.176H334.001V26.8203H297.747V29.176Z" fill="#10B7F5"/>
<path d="M290.445 34.0902H334.002V31.7344H290.445V34.0902Z" fill="#10B7F5"/>
<path d="M290.445 43.9222H334.002V41.5664H290.445V43.9222Z" fill="#10B7F5"/>
<path d="M333.637 51.8499H362.112V49.6172H333.637V51.8499Z" fill="#10B7F5"/>
<path d="M333.637 56.6194H362.112V54.3867H333.637V56.6194Z" fill="#10B7F5"/>
<path d="M333.637 61.4436H362.112V59.2109H333.637V61.4436Z" fill="#10B7F5"/>
<path d="M290.445 39.0082H312.566V36.6523H290.445V39.0082Z" fill="#10B7F5"/>
<path d="M315.4 39.0082H334.001V36.6523H315.4V39.0082Z" fill="#10B7F5"/>
<path d="M327.669 49.6211H290.451V65.6113H327.669V49.6211Z" fill="#10B7F5"/>
<path opacity="0.6" d="M327.669 49.6211H290.451V65.6113H327.669V49.6211Z" fill="white"/>
<path opacity="0.6" d="M290.445 19.3324H334.002V16.9766H290.445V19.3324Z" fill="white"/>
<path opacity="0.6" d="M290.445 24.2581H334.002V21.9023H290.445V24.2581Z" fill="white"/>
<path opacity="0.6" d="M297.747 29.176H334.001V26.8203H297.747V29.176Z" fill="white"/>
<path opacity="0.6" d="M290.445 34.0902H334.002V31.7344H290.445V34.0902Z" fill="white"/>
<path opacity="0.6" d="M290.445 43.9222H334.002V41.5664H290.445V43.9222Z" fill="white"/>
<path opacity="0.6" d="M333.637 51.8499H362.112V49.6172H333.637V51.8499Z" fill="white"/>
<path opacity="0.6" d="M333.637 56.6194H362.112V54.3867H333.637V56.6194Z" fill="white"/>
<path opacity="0.6" d="M333.637 61.4436H362.112V59.2109H333.637V61.4436Z" fill="white"/>
<path opacity="0.6" d="M290.445 39.0082H312.566V36.6523H290.445V39.0082Z" fill="white"/>
<path opacity="0.6" d="M315.4 39.0082H334.001V36.6523H315.4V39.0082Z" fill="white"/>
<path d="M343.885 28.9253C344.41 28.6668 344.907 28.4 345.424 28.1784C345.953 27.9399 346.527 27.8077 347.11 27.7885C347.635 27.7585 348.156 27.8907 348.599 28.1669C349.046 28.4427 349.399 28.8494 349.608 29.3316C350.055 30.2571 350.285 31.2742 350.273 32.3031C350.297 33.8832 350.228 35.4633 350.203 37.0394C350.203 38.4389 350.162 39.8384 350.638 41.1846C350.728 41.5347 350.913 41.8549 351.163 42.1134C351.417 42.3724 351.733 42.5616 352.082 42.6622C352.291 42.7159 352.509 42.7438 352.726 42.7442C355.257 42.7442 357.793 42.7442 360.328 42.7442C360.443 42.7586 360.558 42.7459 360.668 42.7073C360.775 42.6687 360.874 42.6055 360.952 42.5218C361.034 42.4385 361.091 42.3375 361.128 42.2271C361.161 42.1167 361.169 42.0001 361.148 41.8865C361.136 40.2361 360.898 38.5953 360.439 37.0106C360.127 35.8619 359.466 34.8395 358.543 34.0884C358.133 33.7843 357.682 33.5438 357.202 33.3743C356.205 33.0993 355.233 32.755 354.285 32.3441C353.735 32.0983 353.259 31.717 352.898 31.236C352.763 31.0279 352.677 30.7936 352.64 30.5481C352.603 30.3031 352.623 30.0536 352.693 29.8159C352.718 29.7511 352.755 29.6932 352.808 29.6477C353.965 28.409 354.621 26.7862 354.65 25.092C354.691 24.4062 354.658 23.7175 354.543 23.0399C354.424 22.5067 354.186 22.0068 353.85 21.5763C353.518 21.1454 353.091 20.7944 352.603 20.5486C351.741 20.0356 350.781 19.7105 349.789 19.5948C348.792 19.4786 347.787 19.5743 346.831 19.8755C346.379 19.9826 345.961 20.1993 345.616 20.5067C345.268 20.8137 345.001 21.2016 344.841 21.6362C344.743 21.9674 344.697 22.3126 344.71 22.6582C344.763 23.5689 344.455 24.4644 343.86 25.1535C343.508 25.564 343.196 25.9744 342.872 26.3848C342.769 26.5071 342.687 26.6458 342.63 26.7952C342.576 26.9434 342.56 27.1018 342.576 27.2578C342.593 27.4142 342.65 27.564 342.736 27.6961C342.823 27.8279 342.937 27.9383 343.073 28.0183C343.208 28.0983 343.36 28.1459 343.516 28.1578C343.77 28.1907 343.869 28.2645 343.848 28.5149C343.848 28.6524 343.861 28.7899 343.885 28.9253Z" fill="white"/>
<path d="M349.809 42.7547C349.263 41.8895 348.935 40.9028 348.861 39.8817C348.783 38.9919 348.751 38.0988 348.763 37.2058C348.763 36.0155 348.882 34.8294 348.861 33.6392C348.829 32.7145 348.742 31.7923 348.607 30.877C348.55 30.5524 348.439 30.2393 348.283 29.9495C348.176 29.7082 347.992 29.5095 347.762 29.3852C347.528 29.2608 347.261 29.2181 347.003 29.2641C346.383 29.354 345.784 29.56 345.243 29.8715C344.943 30.0234 344.656 30.204 344.345 30.3804C344.529 30.6759 344.771 30.9304 345.058 31.1286C345.346 31.3269 345.67 31.4648 346.01 31.5337C346.035 31.8108 345.973 32.0886 345.83 32.3275C345.686 32.5663 345.473 32.7539 345.218 32.8635C344.66 33.0839 344.066 33.189 343.467 33.1713C342.802 33.1709 342.15 33.3182 341.551 33.6023C340.952 33.8863 340.427 34.3 340.008 34.813C339.442 35.5292 339.024 36.3492 338.777 37.2263C338.379 38.6028 338.137 40.0192 338.055 41.4495C338.055 41.5932 338.031 41.7409 338.023 41.8887C338.002 42.0007 338.006 42.116 338.035 42.2256C338.068 42.3352 338.121 42.4362 338.199 42.5203C338.277 42.6049 338.371 42.6701 338.478 42.7116C338.581 42.753 338.695 42.769 338.81 42.7588C339.565 42.7588 340.32 42.7588 341.075 42.7588H349.817L349.809 42.7547Z" fill="white"/>
<path d="M303.49 63.8073C303.884 63.7465 304.286 63.7732 304.668 63.8852C306.19 64.2587 307.757 63.9919 309.246 63.6061C311.027 62.9987 312.742 64.0166 314.543 63.9181C316.008 63.9632 317.366 62.9536 317.292 61.4104C317.28 60.5678 317.095 59.7371 316.751 58.9684C315.52 55.9354 316.545 53.4646 317.062 50.4727H310.116C310.262 52.3306 310.303 54.1956 310.239 56.0585C310.178 57.458 307.195 58.3158 306.157 59.1367C305.547 59.6238 304.815 59.9337 304.04 60.0314C303.458 60.118 302.9 60.3215 302.399 60.6306C302.32 60.6675 302.23 60.6766 302.145 60.6552C301.935 60.6146 301.719 60.6162 301.509 60.6606C301.3 60.7053 301.102 60.7911 300.926 60.9134C300.75 61.0361 300.601 61.1925 300.487 61.3735C300.373 61.5549 300.296 61.7572 300.262 61.9686C299.999 63.7662 302.091 64.2833 303.49 63.8073ZM312.614 58.7755C313.386 59.5553 313.939 58.1516 314.563 58.7755C315.232 60.0067 312.602 60.4705 311.917 59.5963C311.854 59.5536 311.801 59.4978 311.761 59.4334C311.721 59.3685 311.695 59.2963 311.685 59.2208C311.675 59.1457 311.681 59.0689 311.702 58.9959C311.723 58.9228 311.76 58.8555 311.809 58.7972C311.858 58.7394 311.919 58.6926 311.988 58.6597C312.056 58.6269 312.131 58.6089 312.207 58.6068C312.283 58.6048 312.358 58.6187 312.429 58.6478C312.499 58.6766 312.562 58.7201 312.614 58.7755Z" fill="white"/>
<path d="M380.197 99.1699H433.378V33.9453H380.197V99.1699Z" fill="white"/>
<path d="M390.993 66.5617H423.464V38.2344H390.993V66.5617Z" fill="#10B7F5"/>
<path opacity="0.6" d="M390.993 66.5617H423.464V38.2344H390.993V66.5617Z" fill="white"/>
<path d="M397.61 54.3538L397.269 54.5303C397.077 54.6218 396.904 54.7605 396.777 54.9337C396.65 55.1069 396.564 55.3093 396.535 55.5227C396.502 55.7361 396.523 55.9541 396.597 56.1568C396.67 56.36 396.794 56.5414 396.954 56.685C397.04 56.7544 397.105 56.8443 397.142 56.9469C397.183 57.0491 397.192 57.1599 397.175 57.2678C397.159 57.7197 397.175 58.1728 397.224 58.6222C397.237 58.6555 397.257 58.6846 397.286 58.7076C397.31 58.7306 397.343 58.7466 397.376 58.7536C398.016 58.7207 398.66 58.6756 399.288 58.6345C399.358 58.0887 399.53 57.8588 399.891 57.7891C400.059 57.7648 400.231 57.7973 400.379 57.881C400.531 57.9647 400.646 58.0956 400.711 58.2528L400.986 58.1584L401.286 58.0476C401.261 57.9619 401.249 57.8712 401.257 57.7813C401.265 57.6914 401.29 57.604 401.331 57.5239C401.372 57.4439 401.429 57.3725 401.499 57.3146C401.569 57.2567 401.647 57.2128 401.733 57.1857C401.881 57.1377 402.041 57.139 402.188 57.1894C402.336 57.2395 402.467 57.3364 402.554 57.4648C402.787 57.4197 402.849 57.276 402.832 57.0544C402.816 56.8328 402.832 56.525 402.832 56.2746C402.422 56.2336 402.041 56.213 401.659 56.1556C401.565 56.1482 401.475 56.1207 401.392 56.0751C401.306 56.03 401.237 55.9672 401.179 55.8921C401.122 55.8166 401.081 55.73 401.06 55.6376C401.036 55.5453 401.036 55.4496 401.052 55.3565C401.072 55.2637 401.109 55.1755 401.163 55.0979C401.216 55.0203 401.286 54.9551 401.368 54.9067C401.45 54.8582 401.54 54.8275 401.635 54.816C401.729 54.8049 401.823 54.8139 401.913 54.8422C402.463 54.9169 403.017 54.8919 403.554 54.7684C404.297 54.6452 405.04 54.4811 405.786 54.4318C406.373 54.3563 406.968 54.4708 407.485 54.7589C408.002 55.047 408.416 55.4936 408.658 56.0325C409.216 57.157 410.274 57.6742 411.608 57.4115C413.2 57.1701 414.697 56.5131 415.952 55.5071C417.852 53.9188 418.672 51.9159 418.34 49.4944C418.192 48.2426 417.794 47.0331 417.175 45.936C416.42 44.628 415.288 43.5782 413.926 42.9235C412.375 42.1848 410.689 41.7657 408.97 41.6923C407.062 41.5408 405.142 41.6791 403.276 42.1027C401.47 42.4602 399.805 43.329 398.48 44.6063C397.45 45.6364 396.847 47.0167 396.789 48.4725C396.744 49.3557 396.859 50.2397 397.126 51.0827C397.15 51.1324 397.163 51.1866 397.167 51.2416C397.171 51.2966 397.163 51.3516 397.142 51.4033C397.122 51.455 397.093 51.5026 397.056 51.5424C397.019 51.5826 396.97 51.6147 396.921 51.6368C396.789 51.7218 396.65 51.8039 396.51 51.8831C396.412 51.9233 396.326 51.9869 396.26 52.0686C396.195 52.1498 396.149 52.2463 396.125 52.3497C396.104 52.4532 396.108 52.5599 396.141 52.6608C396.17 52.7622 396.223 52.8545 396.297 52.9297C396.646 53.3606 397.031 53.7505 397.409 54.1814C397.47 54.2438 397.54 54.3013 397.61 54.3538ZM399.431 50.3358C399.612 50.2352 399.817 50.1876 400.022 50.1983C400.231 50.2094 400.428 50.2783 400.597 50.3973C400.88 50.5664 401.134 50.7766 401.351 51.0212C401.614 51.2785 401.819 51.5876 401.955 51.929C402.09 52.2705 402.156 52.6366 402.139 53.0035C402.131 53.1784 402.078 53.3479 401.983 53.496C401.893 53.6446 401.762 53.7665 401.61 53.8515C401.458 53.936 401.286 53.9799 401.109 53.9795C400.933 53.9791 400.761 53.9344 400.609 53.849C400.158 53.6401 399.764 53.3216 399.468 52.9223C399.169 52.5229 398.976 52.0559 398.906 51.5629C398.894 50.9022 399.062 50.5328 399.431 50.3358Z" fill="white"/>
<path d="M399.724 59.9252L397.488 60.1345C397.513 60.4587 397.538 60.7953 397.562 61.1318C397.587 61.4548 397.681 61.7684 397.841 62.0495C398.001 62.3307 398.223 62.5724 398.489 62.7575C398.756 62.9422 399.06 63.0653 399.38 63.1178C399.7 63.1704 400.024 63.1507 400.335 63.0608C401.517 62.7571 402.682 62.3918 403.855 62.0635C404.426 61.9034 405.008 61.7762 405.578 61.612C406.046 61.4995 406.461 61.2389 406.768 60.8687C407.072 60.4985 407.252 60.0393 407.273 59.5599C407.343 58.8129 407.47 58.0701 407.544 57.3231C407.556 57.1261 407.515 56.9291 407.429 56.7526C407.306 56.4128 407.059 56.1292 406.744 55.9531C406.428 55.777 406.058 55.72 405.706 55.7922C405.295 55.8292 404.861 55.9153 404.438 55.9687C404.274 55.9687 404.241 56.0672 404.245 56.2109C404.245 56.6705 404.245 57.1343 404.245 57.594C404.257 57.7438 404.225 57.894 404.151 58.0253C404.077 58.1567 403.97 58.2638 403.835 58.3327C403.601 58.46 403.375 58.5954 403.146 58.7226C403.215 59.2234 403.146 59.4614 402.805 59.6174C402.666 59.6957 402.502 59.7208 402.346 59.6884C402.19 59.6559 402.05 59.5681 401.952 59.4409C401.94 59.4142 401.919 59.3912 401.894 59.3723C401.87 59.3539 401.841 59.3403 401.812 59.3325C401.784 59.3247 401.755 59.3231 401.726 59.3276C401.693 59.3321 401.665 59.3428 401.64 59.3588C401.48 59.4245 401.312 59.4737 401.115 59.5435C401.168 59.6748 401.181 59.818 401.152 59.9564C401.123 60.0947 401.058 60.2223 400.959 60.3233C400.852 60.4148 400.725 60.4796 400.59 60.5121C400.188 60.5859 399.954 60.4136 399.724 59.9252Z" fill="white"/>
<path d="M385.282 73.7921H428.293V71.3906H385.282V73.7921Z" fill="#10B7F5"/>
<path d="M385.282 78.7565H428.293V76.3555H385.282V78.7565Z" fill="#10B7F5"/>
<path d="M385.282 83.7252H428.293V81.3242H385.282V83.7252Z" fill="#10B7F5"/>
<path d="M385.282 88.6939H428.293V86.293H385.282V88.6939Z" fill="#10B7F5"/>
<path d="M385.282 93.6588H428.293V91.2578H385.282V93.6588Z" fill="#10B7F5"/>
<path opacity="0.6" d="M385.282 73.7921H428.293V71.3906H385.282V73.7921Z" fill="white"/>
<path opacity="0.6" d="M385.282 78.7565H428.293V76.3555H385.282V78.7565Z" fill="white"/>
<path opacity="0.6" d="M385.282 83.7252H428.293V81.3242H385.282V83.7252Z" fill="white"/>
<path opacity="0.6" d="M385.282 88.6939H428.293V86.293H385.282V88.6939Z" fill="white"/>
<path opacity="0.6" d="M385.282 93.6588H428.293V91.2578H385.282V93.6588Z" fill="white"/>
<path d="M332.651 75.3398H300.393V107.611H332.651V75.3398Z" fill="#F4F4F4"/>
<path d="M318.854 81.4414H314.193V101.523H318.854V81.4414Z" fill="#10B7F5"/>
<path d="M326.559 93.8109V89.1484H306.485V93.8109H326.559Z" fill="#10B7F5"/>
<g opacity="0.2">
<path opacity="0.2" d="M318.854 81.4453H314.193V101.527H318.854V81.4453Z" fill="white"/>
<path opacity="0.2" d="M326.559 93.8187V89.1562H306.485V93.8187H326.559Z" fill="white"/>
</g>
<path d="M173.771 304.184L196.191 304.755L187.227 298.385C186.501 297.872 185.905 297.199 185.488 296.415C185.072 295.631 184.845 294.757 184.827 293.87L184.417 286.758L172.245 286.799L173.771 304.184Z" fill="#FC9D9D"/>
<path opacity="0.15" d="M176.231 295.985V295.854C176.188 295.484 176.293 295.111 176.524 294.815C176.754 294.524 177.092 294.331 177.462 294.286L184.748 293.235L184.662 291.84H172.567L173.659 303.709L183.431 302.622L180.202 301.353C179.117 300.902 178.174 300.163 177.474 299.219C176.775 298.271 176.345 297.155 176.231 295.985Z" fill="black"/>
<path d="M133.397 303.382H143.473L145.348 286.32L133.451 286.361L133.397 303.382Z" fill="#FC9D9D"/>
<path opacity="0.15" d="M135.929 300.499L136.188 295.262C136.214 294.933 136.349 294.621 136.572 294.375C136.794 294.129 137.092 293.969 137.418 293.911L144.659 292.82L144.836 291.379L133.492 291.424L133.451 303.511L135.929 300.499Z" fill="black"/>
<path d="M204.242 307.895V307.415C204.242 306.652 203.939 305.921 203.4 305.384C202.862 304.846 202.131 304.542 201.37 304.542H197.358C196.51 304.55 195.694 304.222 195.089 303.627L184.849 293.871L181.666 298.062C181.416 298.39 181.096 298.653 180.73 298.841C180.363 299.026 179.96 299.129 179.549 299.137C179.138 299.145 178.731 299.059 178.357 298.886C177.983 298.718 177.653 298.464 177.391 298.148C177.133 297.84 176.813 297.594 176.453 297.421C176.092 297.245 175.699 297.15 175.299 297.142H173.161V307.706L204.242 307.895Z" fill="#3F4249"/>
<path d="M204.24 307.903V309.475H173.061V307.73L204.24 307.903Z" fill="black"/>
<path d="M182.796 296.509L189.729 302.14C190.1 302.439 190.567 302.587 191.042 302.566C191.517 302.542 191.967 302.341 192.306 302.008L192.827 301.483L184.847 293.874C184.639 293.816 184.418 293.824 184.215 293.898C184.012 293.972 183.837 294.108 183.715 294.284L182.894 295.462C182.788 295.597 182.719 295.753 182.696 295.926C182.673 296.094 182.696 296.266 182.763 296.422L182.796 296.509Z" fill="black"/>
<path d="M142.181 295.657H143.001C143.379 295.652 143.744 295.788 144.027 296.038C144.309 296.289 144.488 296.633 144.527 297.011L144.704 300.151C144.753 301.123 145.007 302.076 145.446 302.946L145.75 303.512C146.302 304.608 146.583 305.819 146.57 307.046V307.616H130.604C130.608 306.057 131.08 304.538 131.957 303.249C132.616 302.289 133.028 301.181 133.155 300.023L133.504 296.884C133.578 296.535 133.77 296.219 134.048 295.997C134.326 295.771 134.673 295.648 135.03 295.652H135.6" fill="#3F4249"/>
<path d="M130.694 307.574H146.616V309.101H130.694V307.574Z" fill="black"/>
<path d="M140.072 294.223H137.717C137.435 294.223 137.157 294.28 136.9 294.395C136.644 294.51 136.415 294.678 136.229 294.892C136.043 295.101 135.904 295.352 135.821 295.618C135.739 295.889 135.716 296.172 135.752 296.451L136.277 300.728C136.363 301.364 136.674 301.947 137.155 302.37C137.636 302.796 138.253 303.034 138.894 303.039C139.546 303.043 140.176 302.805 140.66 302.37C141.144 301.935 141.448 301.331 141.512 300.683L141.992 296.406C142.031 296.131 142.011 295.852 141.933 295.59C141.854 295.323 141.719 295.077 141.536 294.871C141.354 294.662 141.128 294.498 140.875 294.387C140.622 294.272 140.348 294.219 140.072 294.223Z" fill="black"/>
<path d="M143.127 297.059H134.663" stroke="white" stroke-width="1.4" stroke-linecap="round" stroke-linejoin="round"/>
<path d="M142.861 299.066H134.923" stroke="white" stroke-width="1.4" stroke-linecap="round" stroke-linejoin="round"/>
<path d="M142.644 301.031H135.141" stroke="white" stroke-width="1.4" stroke-linecap="round" stroke-linejoin="round"/>
<path d="M190.719 298.52L187.621 301.442" stroke="white" stroke-width="1.4" stroke-linecap="round" stroke-linejoin="round"/>
<path d="M189.061 296.988L185.878 300.001" stroke="white" stroke-width="1.4" stroke-linecap="round" stroke-linejoin="round"/>
<path d="M187.356 295.555L184.218 298.522" stroke="white" stroke-width="1.4" stroke-linecap="round" stroke-linejoin="round"/>
<path d="M180.744 153.022L185.257 291.618H172.149L160.043 177.976C160.006 177.624 159.842 177.298 159.581 177.061C159.32 176.823 158.98 176.69 158.627 176.687C158.265 176.674 157.912 176.8 157.64 177.04C157.369 177.279 157.199 177.614 157.167 177.976L145.791 291.618H132.695V152.246L180.744 153.022Z" fill="#10B7F5"/>
<path d="M132.397 288.789H146.563L146.309 291.621H132.36L132.397 288.789Z" fill="#10B7F5"/>
<path opacity="0.2" d="M132.397 288.789H138.321L138.194 291.621H132.356L132.397 288.789Z" fill="black"/>
<path opacity="0.2" d="M172.065 291.006L160.044 178.004C160.008 177.652 159.844 177.327 159.582 177.089C159.321 176.851 158.982 176.718 158.629 176.715H160.27C161.942 176.729 163.551 177.351 164.799 178.465C166.047 179.579 166.847 181.108 167.051 182.769L179.769 290.103L172.065 291.006Z" fill="black"/>
<path d="M171.505 288.789H185.503L185.675 291.621H171.808L171.505 288.789Z" fill="#10B7F5"/>
<path opacity="0.2" d="M171.505 288.789H179.579L179.964 291.621H171.808L171.505 288.789Z" fill="black"/>
<path opacity="0.2" d="M143.514 153.275L138.32 288.715L132.695 288.674V153.234L143.514 153.275Z" fill="black"/>
<path d="M167.727 98.9883L134.845 108.137L131.752 133.948L131.604 186.101H157.897L159.132 175.984L160.183 186.101H182.882L181.901 128.773L167.727 98.9883Z" fill="white"/>
<path d="M181.812 123.344L181.902 128.774L183.571 132.275L181.812 123.344Z" fill="white"/>
<path d="M185.333 120.765L142.359 112.606L142.06 104.184L142.7 121.45H146.093V133.09L133.514 134.678C132.476 134.812 131.422 134.736 130.414 134.456C129.406 134.175 128.464 133.696 127.644 133.046C126.823 132.396 126.142 131.588 125.639 130.67C125.135 129.752 124.821 128.742 124.714 127.701L121.621 96.2626C121.395 94.0139 121.957 91.7565 123.21 89.876C124.464 87.9954 126.331 86.609 128.493 85.9527C144.419 81.1015 145.494 81.1877 145.494 81.1877L162.724 81.1016L179.544 84.1058C181.196 84.3574 182.742 85.0732 184.003 86.1694C185.263 87.2657 186.187 88.6981 186.666 90.2991L196.746 124.775C198.506 130.619 193.181 136.242 187.257 134.74L185.551 134.214L185.333 120.765Z" fill="white"/>
<path d="M149.704 106.043C149.075 103.262 148.586 100.452 148.239 97.6213L148.879 97.5352C149.223 100.346 149.708 103.137 150.332 105.9L149.704 106.043Z" fill="#3F4249"/>
<path d="M147.473 106.049C147.514 106.533 147.697 106.994 147.999 107.374C148.301 107.754 148.709 108.037 149.171 108.185C149.633 108.334 150.129 108.343 150.596 108.211C151.063 108.078 151.481 107.811 151.796 107.442C152.112 107.072 152.311 106.619 152.369 106.136C152.427 105.654 152.342 105.165 152.123 104.732C151.904 104.298 151.562 103.939 151.14 103.699C150.718 103.46 150.234 103.35 149.75 103.385C149.425 103.408 149.107 103.496 148.816 103.643C148.525 103.79 148.266 103.993 148.055 104.241C147.843 104.488 147.682 104.776 147.583 105.086C147.482 105.397 147.445 105.724 147.473 106.049Z" fill="#10B7F5"/>
<path d="M148.458 105.98C148.48 106.275 148.589 106.557 148.772 106.79C148.954 107.023 149.201 107.196 149.482 107.288C149.763 107.381 150.065 107.387 150.349 107.308C150.634 107.228 150.889 107.065 151.081 106.841C151.274 106.616 151.395 106.339 151.43 106.046C151.465 105.752 151.412 105.454 151.278 105.191C151.144 104.927 150.934 104.709 150.676 104.565C150.418 104.421 150.123 104.356 149.828 104.38C149.435 104.412 149.071 104.598 148.814 104.898C148.557 105.198 148.429 105.587 148.458 105.98Z" fill="white"/>
<path opacity="0.1" d="M157.311 105.965C157.311 105.965 160.773 137.875 159.132 176.718" stroke="black" stroke-width="0.89" stroke-miterlimit="10"/>
<path d="M145.644 81.1642L143.449 81.6485L157.312 105.231L164.208 81.3899L159.863 80.4336" fill="#21252B"/>
<path d="M140.598 111.366C141.111 111.452 142.83 111.452 143.429 111.924L144.377 112.609L146.35 112.999L145.833 121.544L139.437 122.275L138.752 111.238L140.598 111.366Z" fill="#FC9D9D"/>
<path opacity="0.1" d="M173.911 118.532L173.697 100.474C173.698 100.395 173.727 100.319 173.78 100.26C173.832 100.2 173.904 100.162 173.982 100.151C174.06 100.141 174.14 100.159 174.206 100.203C174.272 100.246 174.32 100.312 174.341 100.388L179.835 119.719L173.911 118.532Z" fill="black"/>
<path d="M162.32 61.0294C162.32 61.0294 147.251 51.5897 146.73 63.1349L146.517 66.1433L145.491 81.2797C145.5 81.5538 145.577 81.821 145.715 82.0578C145.853 82.2942 146.049 82.4925 146.283 82.6341L154.55 88.2569C154.678 88.3299 154.827 88.3607 154.974 88.3455C155.121 88.3299 155.259 88.2688 155.37 88.1707L161.807 82.63C162.029 82.4531 162.201 82.2216 162.307 81.9585C162.412 81.695 162.448 81.409 162.41 81.1278L161.421 72.1518C161.618 71.2637 161.718 70.3571 161.721 69.4472C161.873 65.0269 162.32 61.0294 162.32 61.0294Z" fill="#FC9D9D"/>
<path d="M168.718 56.5596C168.719 55.5475 168.419 54.5584 167.858 53.7166C167.297 52.8752 166.498 52.219 165.564 51.8315C164.63 51.4441 163.601 51.3423 162.609 51.5393C161.618 51.7367 160.706 52.2239 159.991 52.9392C159.276 53.6546 158.789 54.5662 158.592 55.5586C158.395 56.551 158.497 57.5795 158.884 58.514C159.271 59.449 159.927 60.2472 160.769 60.8091C161.61 61.3706 162.598 61.6702 163.61 61.6694C164.281 61.6714 164.946 61.5405 165.567 61.2848C166.188 61.0287 166.752 60.6523 167.226 60.1775C167.701 59.7026 168.077 59.1383 168.333 58.5173C168.589 57.8963 168.72 57.231 168.718 56.5596Z" fill="#21252B"/>
<path d="M163.996 52.8271C163.996 52.8271 169.329 75.2444 157.842 76.7506C147.882 78.0804 146.766 62.5747 146.766 62.5747L147.176 52.5234L163.996 52.8271Z" fill="#FC9D9D"/>
<path d="M163.307 54.179L153.129 54.9095C152.825 54.9284 152.528 55.0084 152.256 55.1451C151.984 55.2822 151.742 55.4726 151.546 55.7057C151.35 55.9384 151.203 56.2089 151.114 56.5003C151.025 56.7913 150.996 57.0979 151.029 57.4008C151.057 57.7033 151.024 58.0078 150.933 58.2976C150.842 58.5873 150.694 58.8561 150.499 59.088C150.302 59.3199 150.063 59.5104 149.792 59.6487C149.522 59.7866 149.227 59.8695 148.924 59.892C148.837 59.8933 148.753 59.9126 148.674 59.9487C148.595 59.9848 148.526 60.0373 148.469 60.1022C148.412 60.167 148.369 60.2434 148.344 60.3263C148.319 60.4088 148.31 60.4958 148.321 60.5816L148.452 62.8143C148.461 62.9357 148.423 63.056 148.347 63.1508C148.271 63.246 148.162 63.3088 148.042 63.3273C147.829 63.3273 147.529 63.159 147.529 62.9415L147.119 60.836L146.688 60.1506L144.231 61.661C144.231 61.661 140.325 55.6934 142.212 50.2799C143.287 47.1895 146.315 46.0731 147.837 45.8556C148.068 45.8351 148.291 45.7575 148.486 45.6298C148.681 45.5026 148.841 45.329 148.953 45.125C149.556 44.14 150.971 42.3793 154.192 42.5065C155.092 42.5131 155.976 42.7446 156.764 43.1796C157.552 43.6147 158.219 44.2398 158.704 44.9978C158.898 45.3175 159.202 45.5552 159.558 45.6664C159.915 45.7776 160.3 45.7542 160.641 45.6011C161.319 45.295 162.062 45.162 162.804 45.2141C163.545 45.2666 164.263 45.5022 164.891 45.9007C168.157 47.92 166.827 53.629 163.307 54.179Z" fill="#21252B"/>
<path opacity="0.15" d="M146.435 66.8233C146.435 66.8233 147.424 66.8684 147.937 66.4375L146.296 68.9288L146.435 66.8233Z" fill="black"/>
<path d="M146.992 60.8063C146.899 60.5218 146.743 60.262 146.535 60.0457C146.329 59.8295 146.076 59.6616 145.797 59.5549C145.517 59.4478 145.217 59.4047 144.919 59.4281C144.621 59.4515 144.331 59.5405 144.071 59.6899C141.581 60.8063 142.057 66.5193 146.307 66.8189C148.539 66.9913 148.108 65.7026 147.723 63.9829L146.992 60.8063Z" fill="#FC9D9D"/>
<path opacity="0.15" d="M143.899 61.2399C144.248 60.9891 144.679 60.8804 145.105 60.9362C145.309 60.9867 145.502 61.0774 145.671 61.203C145.84 61.3281 145.982 61.4857 146.089 61.6667C146.347 62.1596 146.494 62.703 146.52 63.2592L146.606 63.7722C146.606 63.9446 146.52 64.0718 146.389 64.0718C146.258 64.0718 146.089 63.9856 146.089 63.8584L146.003 63.3413C145.987 62.8869 145.855 62.4445 145.618 62.0566C145.404 61.7529 145.232 61.5395 145.019 61.5395C144.875 61.5067 144.725 61.5087 144.583 61.5457C144.44 61.583 144.308 61.654 144.198 61.7529C144.026 61.7981 143.895 61.7981 143.813 61.6667C143.772 61.4123 143.821 61.2809 143.899 61.2399Z" fill="black"/>
<path opacity="0.15" d="M162.188 78.546L161.802 74.9384C160.818 75.9275 158.069 77.3435 154.976 76.6581C153.424 76.2226 152.027 75.3591 150.943 74.1668C150.924 74.1463 150.9 74.1299 150.874 74.1188C150.848 74.1073 150.82 74.1016 150.791 74.1016C150.763 74.1016 150.735 74.1073 150.709 74.1188C150.682 74.1299 150.659 74.1463 150.639 74.1668C150.6 74.207 150.578 74.2608 150.578 74.3166C150.578 74.3728 150.6 74.4266 150.639 74.4664C152.024 76.0162 153.914 77.0213 155.973 77.3024C157.798 78.5238 160.033 78.9708 162.188 78.546Z" fill="black"/>
<g opacity="0.15">
<path opacity="0.15" d="M158.67 72.2421C158.196 72.2524 157.723 72.2951 157.255 72.3695C157.175 72.3695 157.099 72.3378 157.043 72.282C156.987 72.2257 156.955 72.1493 156.955 72.0696C156.955 71.9903 156.987 71.9139 157.043 71.8576C157.099 71.8013 157.175 71.7697 157.255 71.7697C157.7 71.7545 158.144 71.7105 158.584 71.6382C158.624 71.6341 158.665 71.6386 158.704 71.6521C158.743 71.6653 158.777 71.6875 158.807 71.7158C158.836 71.7446 158.858 71.7795 158.872 71.8181C158.886 71.8563 158.891 71.8974 158.887 71.9381C158.973 71.9751 158.801 72.1476 158.67 72.2421Z" fill="black"/>
</g>
<g opacity="0.15">
<path opacity="0.15" d="M159.139 70.8641C156.607 71.2499 155.492 69.9201 155.106 69.2224C155.086 69.1916 155.073 69.1567 155.067 69.1206C155.06 69.0845 155.061 69.0475 155.069 69.0118C155.085 68.9392 155.13 68.8764 155.192 68.8366C155.255 68.7968 155.331 68.7836 155.403 68.7996C155.475 68.816 155.538 68.8604 155.578 68.9228C155.963 69.6082 157.219 71.0283 160.214 70.0391C160.247 70.0215 160.284 70.0108 160.322 70.0079C160.36 70.0047 160.397 70.0092 160.434 70.0211C160.47 70.033 160.503 70.0518 160.531 70.0769C160.559 70.1019 160.583 70.1323 160.599 70.1664C160.617 70.2004 160.628 70.2374 160.631 70.2755C160.634 70.3133 160.63 70.3519 160.618 70.388C160.606 70.4245 160.587 70.4578 160.562 70.4869C160.537 70.5156 160.507 70.5395 160.472 70.5563C160.036 70.6934 159.591 70.7964 159.139 70.8641Z" fill="black"/>
</g>
<path d="M157.297 63.2976C157.297 63.1186 157.244 62.9438 157.145 62.7952C157.046 62.6466 156.905 62.5309 156.739 62.4627C156.574 62.3946 156.393 62.377 156.217 62.4123C156.042 62.4472 155.881 62.5338 155.755 62.6606C155.629 62.787 155.543 62.9483 155.509 63.1239C155.475 63.2992 155.493 63.481 155.562 63.646C155.631 63.8106 155.747 63.9514 155.896 64.0503C156.045 64.1488 156.22 64.2013 156.399 64.2005C156.518 64.2025 156.636 64.1808 156.746 64.136C156.857 64.0913 156.957 64.0248 157.041 63.9407C157.124 63.8561 157.191 63.756 157.235 63.6452C157.279 63.5348 157.3 63.4166 157.297 63.2976Z" fill="black"/>
<path d="M156.996 62.9989C157.005 62.9673 157.006 62.9336 157 62.9012C156.994 62.8687 156.981 62.8383 156.961 62.8116C156.941 62.7853 156.915 62.7639 156.885 62.7492C156.856 62.7344 156.823 62.7266 156.79 62.7266C156.757 62.7266 156.724 62.7344 156.695 62.7492C156.665 62.7639 156.639 62.7853 156.619 62.8116C156.599 62.8383 156.586 62.8687 156.58 62.9012C156.574 62.9336 156.575 62.9673 156.584 62.9989C156.575 63.031 156.574 63.0643 156.58 63.0967C156.586 63.1292 156.599 63.16 156.619 63.1863C156.639 63.2126 156.665 63.2343 156.695 63.2487C156.724 63.2635 156.757 63.2713 156.79 63.2713C156.823 63.2713 156.856 63.2635 156.885 63.2487C156.915 63.2343 156.941 63.2126 156.961 63.1863C156.981 63.16 156.994 63.1292 157 63.0967C157.006 63.0643 157.005 63.031 156.996 62.9989Z" fill="white"/>
<path d="M164.379 63.2976C164.379 63.1191 164.326 62.9442 164.226 62.7956C164.127 62.6475 163.986 62.5317 163.821 62.4632C163.656 62.395 163.475 62.377 163.3 62.4119C163.125 62.4468 162.964 62.5325 162.838 62.659C162.712 62.7854 162.625 62.9463 162.591 63.1215C162.556 63.2964 162.574 63.4782 162.642 63.6432C162.71 63.8082 162.826 63.949 162.975 64.0483C163.123 64.1476 163.298 64.2006 163.476 64.2006C163.595 64.2034 163.714 64.1817 163.825 64.1374C163.935 64.093 164.036 64.0265 164.121 63.9424C164.205 63.8579 164.271 63.7573 164.315 63.6465C164.36 63.5357 164.381 63.417 164.379 63.2976Z" fill="black"/>
<path d="M164.081 63.0013C164.067 62.9589 164.039 62.9218 164.002 62.8958C163.965 62.8695 163.921 62.8555 163.876 62.8555C163.83 62.8555 163.786 62.8695 163.75 62.8958C163.713 62.9218 163.685 62.9589 163.67 63.0013C163.685 63.0441 163.713 63.0808 163.75 63.1071C163.786 63.1331 163.83 63.1471 163.876 63.1471C163.921 63.1471 163.965 63.1331 164.002 63.1071C164.039 63.0808 164.067 63.0441 164.081 63.0013Z" fill="white"/>
<g opacity="0.15">
<path opacity="0.15" d="M159.872 68.5748L158.67 68.6609C158.497 68.6609 158.37 68.5748 158.37 68.4475C158.37 68.3203 158.456 68.1479 158.583 68.1479L159.786 68.0617C159.859 68.0564 159.93 68.0367 159.996 68.0035C160.062 67.9706 160.12 67.9247 160.168 67.8693C160.216 67.8134 160.252 67.749 160.276 67.6792C160.299 67.6095 160.308 67.5356 160.302 67.4625C160.297 67.3891 160.277 67.3177 160.244 67.252C160.211 67.1863 160.165 67.1277 160.11 67.0796C160.054 67.0316 159.99 66.9951 159.92 66.9721C159.85 66.9491 159.777 66.9401 159.703 66.9454C159.531 66.9454 159.4 66.8592 159.4 66.7279C159.4 66.5966 159.486 66.4283 159.617 66.4283C159.906 66.409 160.191 66.501 160.414 66.6844C160.638 66.8683 160.782 67.1305 160.819 67.4174C160.841 67.5569 160.832 67.6994 160.796 67.8352C160.758 67.9715 160.693 68.0983 160.604 68.2074C160.514 68.3166 160.403 68.4057 160.277 68.4689C160.151 68.5321 160.012 68.5682 159.872 68.5748Z" fill="black"/>
</g>
<path d="M165.627 60.9408H153.004C152.652 60.9421 152.314 61.0824 152.065 61.3315C151.816 61.5807 151.676 61.9184 151.675 62.2706V63.3007C151.675 64.2574 152.055 65.1751 152.731 65.8519C153.407 66.5283 154.324 66.9083 155.281 66.9083C156.237 66.9083 157.155 66.5283 157.831 65.8519C158.507 65.1751 158.887 64.2574 158.887 63.3007V62.2706C158.894 62.1204 158.87 61.9706 158.818 61.8294C158.766 61.6886 158.686 61.5593 158.583 61.4497H160.003C159.815 61.6829 159.71 61.9714 159.703 62.2706V63.3007C159.703 64.2574 160.083 65.1751 160.759 65.8519C161.436 66.5283 162.353 66.9083 163.31 66.9083C164.266 66.9083 165.183 66.5283 165.859 65.8519C166.536 65.1751 166.916 64.2574 166.916 63.3007V62.2706C166.934 62.0949 166.914 61.9176 166.856 61.7506C166.798 61.5835 166.705 61.4313 166.582 61.3045C166.459 61.1776 166.31 61.0795 166.145 61.0168C165.98 60.9535 165.803 60.9277 165.627 60.9408ZM158.415 62.2254V63.2597C158.386 64.0604 158.048 64.8185 157.471 65.3746C156.894 65.9307 156.125 66.2418 155.324 66.2418C154.523 66.2418 153.753 65.9307 153.177 65.3746C152.6 64.8185 152.262 64.0604 152.233 63.2597V62.2254C152.238 62.0095 152.326 61.8035 152.478 61.6508C152.632 61.4982 152.837 61.4099 153.053 61.4046H157.566C157.776 61.435 157.971 61.5306 158.123 61.6779C158.275 61.8253 158.377 62.0169 158.415 62.2254ZM166.526 63.3007C166.541 63.7165 166.472 64.1306 166.324 64.5193C166.175 64.9075 165.95 65.2621 165.661 65.5613C165.373 65.8609 165.027 66.099 164.644 66.2615C164.262 66.424 163.85 66.5081 163.435 66.5081C163.019 66.5081 162.607 66.424 162.225 66.2615C161.842 66.099 161.496 65.8609 161.208 65.5613C160.919 65.2621 160.694 64.9075 160.545 64.5193C160.397 64.1306 160.328 63.7165 160.343 63.3007V62.2706C160.35 62.0547 160.438 61.8499 160.59 61.6972C160.743 61.5445 160.948 61.4559 161.164 61.4497H165.718C165.933 61.4551 166.139 61.5433 166.292 61.696C166.445 61.8487 166.533 62.0547 166.538 62.2706L166.526 63.3007Z" fill="black"/>
<path d="M169.061 116.129L175.888 110.544C176.604 109.964 177.498 109.647 178.419 109.645H184.515C184.626 109.634 184.737 109.645 184.843 109.678C184.949 109.711 185.047 109.765 185.131 109.838C185.216 109.909 185.285 109.998 185.334 110.098C185.383 110.197 185.412 110.306 185.418 110.416V110.503C185.415 110.715 185.335 110.918 185.193 111.076C185.051 111.234 184.857 111.335 184.647 111.36L178.55 111.705L185.89 112.694C186.026 112.719 186.155 112.775 186.265 112.86C186.376 112.945 186.464 113.055 186.523 113.181C186.582 113.307 186.609 113.445 186.603 113.584C186.597 113.723 186.558 113.859 186.489 113.979C186.415 114.106 186.309 114.211 186.181 114.283C186.054 114.356 185.909 114.392 185.762 114.389H185.717L183.957 114.262C184.059 114.267 184.16 114.292 184.252 114.336C184.345 114.38 184.427 114.442 184.495 114.519C184.563 114.595 184.615 114.684 184.649 114.782C184.681 114.878 184.695 114.981 184.688 115.083C184.664 115.284 184.568 115.469 184.416 115.603C184.265 115.737 184.069 115.811 183.867 115.809L179.104 115.941L182.021 116.844C182.159 116.904 182.273 117.007 182.347 117.138C182.421 117.27 182.451 117.421 182.431 117.57C182.41 117.715 182.338 117.847 182.227 117.942C182.116 118.037 181.974 118.089 181.828 118.087L178.181 117.742C178.181 117.742 177.278 122.725 171.182 122.639L169.668 123.431L167.396 116.515L169.061 116.129Z" fill="#FC9D9D"/>
<path d="M138.837 113.469L139.395 122.317L168.371 116.219L171.12 124.164L135.018 139.925C134.009 140.368 132.91 140.566 131.81 140.503C130.71 140.44 129.64 140.117 128.69 139.56C127.739 139.003 126.933 138.229 126.339 137.301C125.744 136.373 125.378 135.317 125.27 134.22L123.72 118.213L138.837 113.469Z" fill="white"/>
<path opacity="0.1" d="M136.39 123.081H136.476L142.744 121.533L138.707 101.948C138.696 101.89 138.664 101.837 138.617 101.801C138.569 101.766 138.51 101.749 138.451 101.755C138.392 101.76 138.337 101.788 138.297 101.832C138.257 101.876 138.235 101.934 138.236 101.993L139.31 119.99L136.262 122.453C135.918 122.72 136.131 123.081 136.39 123.081Z" fill="black"/>
<path opacity="0.1" d="M184.171 119.917V120.602L146.309 112.956L146.391 112.484L184.171 119.917Z" fill="black"/>
<path opacity="0.1" d="M183.527 133.474L183.572 133.95L163.47 127.765L164.2 127.293L183.527 133.474Z" fill="black"/>
<path opacity="0.15" d="M178.849 113.426L184.026 113.985V114.395L178.787 113.837L178.849 113.426Z" fill="black"/>
<path d="M146.308 112.949L185.282 120.809L186.316 134.554L144.975 121.154L145.795 121.539L146.308 112.949Z" fill="white"/>
<path opacity="0.1" d="M141.112 82.2692L140.907 90.6459L144.189 90.2806L142.003 93.1987L157.678 105.963L142.183 81.9531L141.112 82.2692Z" fill="black"/>
<path opacity="0.1" d="M142.656 121.535L158.283 129.825L164.207 127.289L145.791 121.543L145.832 120.898L142.656 121.535Z" fill="black"/>
<path opacity="0.1" d="M121.619 96.3255L123.769 118.209L125.312 134.187C125.411 135.196 125.729 136.171 126.243 137.045C126.757 137.918 127.455 138.669 128.288 139.246C129.122 139.822 130.071 140.209 131.07 140.381C132.068 140.553 133.092 140.505 134.071 140.241C132.699 139.874 131.472 139.098 130.552 138.017C129.632 136.936 129.062 135.6 128.918 134.187L126.456 114.729L124.311 92.8698C124.145 91.1021 124.455 89.3221 125.209 87.7148C123.933 88.7302 122.934 90.0522 122.307 91.5581C121.679 93.0639 121.443 94.704 121.619 96.3255Z" fill="black"/>
<path opacity="0.1" d="M131.604 186.054H140.597L140.708 144.166C140.754 143.249 141.024 142.358 141.495 141.57C141.967 140.783 142.625 140.124 143.412 139.651L164.207 127.285L139.719 137.808L134.054 140.213C133.283 140.365 132.5 140.452 131.715 140.472L131.604 186.054Z" fill="black"/>
<path d="M166.086 99.3125C165.914 108.342 166.759 110.32 167.702 111.124C168.399 111.676 169.213 112.061 170.082 112.249L170.201 111.625L170.139 111.937L170.201 111.625C169.44 111.459 168.726 111.124 168.113 110.644C167.432 110.061 166.545 108.256 166.718 99.3248L166.086 99.3125Z" fill="#B2B6BB"/>
<path d="M169.245 111.433L169.129 111.857C169.063 112.1 169.206 112.35 169.449 112.417L170.683 112.754C170.926 112.821 171.177 112.678 171.243 112.435L171.358 112.011C171.425 111.769 171.282 111.518 171.039 111.452L169.805 111.114C169.562 111.047 169.312 111.191 169.245 111.433Z" fill="#10B7F5"/>
<path d="M171.67 98.1707C174.903 104.151 176.158 107.553 175.621 108.866C175.294 109.574 174.815 110.201 174.218 110.701L174.607 111.198C175.294 110.633 175.841 109.918 176.207 109.108C176.847 107.541 175.694 104.286 172.224 97.8711L171.67 98.1707Z" fill="#B2B6BB"/>
<path d="M173.348 111.596L173.645 111.919C173.815 112.104 174.103 112.116 174.288 111.946L175.23 111.079C175.416 110.908 175.428 110.62 175.257 110.435L174.96 110.112C174.79 109.927 174.502 109.915 174.317 110.085L173.375 110.952C173.19 111.122 173.177 111.41 173.348 111.596Z" fill="#10B7F5"/>
<path d="M172.371 97.5519C171.747 96.2065 171.042 94.9002 170.259 93.6406C169.844 93.1 169.292 92.6818 168.659 92.4298C168.536 92.4298 168.326 91.3586 168.175 90.4639C168.043 89.6718 167.904 88.7525 167.658 88.5472C167.522 88.459 167.358 88.4262 167.199 88.4561C167.04 88.4857 166.899 88.576 166.804 88.7073C166.648 88.9905 166.858 89.8975 167.018 90.6814C167.202 91.568 167.403 92.6597 167.28 92.6884C166.822 93.1735 166.487 93.7621 166.304 94.404C166.04 95.8954 165.889 97.4046 165.853 98.9186C165.853 99.8749 166.201 99.9159 166.48 99.9406C166.89 99.9775 167.055 99.6697 167.1 98.5944C167.169 96.8911 167.1 94.0797 168.207 93.8089C169.336 93.6529 170.468 96.3863 171.206 97.8843C171.67 98.8201 171.9 98.8652 172.261 98.7052C172.515 98.5697 172.761 98.3892 172.371 97.5519Z" fill="#10B7F5"/>
<path d="M166.546 85.4336L165.959 85.6166L166.87 88.5438L167.458 88.3608L166.546 85.4336Z" fill="#3F4249"/>
<path d="M141.768 82.0896L141.637 89.9123H144.915L142.728 92.8304L157.312 105.229L143.458 81.5273L141.768 82.0896Z" fill="white"/>
<path opacity="0.1" d="M166.41 81.4981L168.453 88.8159L165.524 89.2181L168.071 91.3031L157.311 105.967L165.413 81.457L166.41 81.4981Z" fill="black"/>
<path d="M165.803 81.4786L167.658 88.3285L164.81 89.0509L167.358 91.1358L157.463 105.238L164.212 81.3555L165.803 81.4786Z" fill="white"/>
<path opacity="0.1" d="M179.548 160.936L172.439 163.217L165.333 160.936V145.348H179.548V160.936Z" fill="black"/>
<path d="M178.816 160.299L172.437 162.487L166.058 160.299V145.348H178.816V160.299Z" fill="white"/>
<path d="M269.429 300.19L249.183 305.025L256.071 297.473C257.232 296.205 258.413 294.575 258.122 292.88L257.736 286.588L268.842 284.27L269.429 300.19Z" fill="#FC9D9D"/>
<path opacity="0.15" d="M266.942 293.241L266.917 293.123C266.903 292.95 266.854 292.778 266.774 292.622C266.693 292.47 266.583 292.33 266.449 292.22C266.315 292.105 266.16 292.023 265.994 291.969C265.827 291.916 265.651 291.899 265.477 291.916L258.13 292.499L257.933 291.193L268.796 288.883L269.416 299.739L260.333 300.646L263.012 298.852C264.845 297.608 267.241 295.421 266.942 293.241Z" fill="black"/>
<path d="M270.073 296.296L271.759 304.229C271.827 304.533 271.834 304.845 271.779 305.153C271.724 305.456 271.608 305.748 271.439 306.01C271.27 306.269 271.05 306.495 270.793 306.667C270.536 306.843 270.246 306.963 269.942 307.024L258.648 309.429H242.238C242.11 309.458 241.977 309.462 241.848 309.437C241.719 309.413 241.596 309.368 241.485 309.294C241.375 309.224 241.281 309.13 241.207 309.023C241.133 308.912 241.082 308.789 241.056 308.662C240.86 307.738 240.959 306.774 241.339 305.908C241.719 305.046 242.36 304.319 243.173 303.839L251.001 302.522L256.018 296.242C256.343 295.856 256.791 295.598 257.285 295.508C257.78 295.417 258.291 295.503 258.73 295.75L262.796 297.978C263.093 298.13 263.422 298.208 263.755 298.208C264.089 298.208 264.418 298.13 264.715 297.978L268.761 295.688C268.883 295.614 269.021 295.573 269.163 295.565C269.305 295.561 269.447 295.586 269.577 295.647C269.706 295.705 269.819 295.795 269.905 295.91C269.992 296.025 270.049 296.156 270.073 296.296Z" fill="#3F4249"/>
<path opacity="0.5" d="M269.941 307.008L258.552 309.429H242.237C242.109 309.458 241.976 309.462 241.847 309.438C241.718 309.413 241.595 309.368 241.484 309.294C241.374 309.224 241.28 309.13 241.206 309.023C241.132 308.912 241.081 308.789 241.055 308.662C240.982 308.334 240.952 307.997 240.965 307.661L257.474 307.62L271.795 304.574C271.839 305.136 271.674 305.695 271.332 306.146C270.99 306.593 270.495 306.901 269.941 307.008Z" fill="black"/>
<path d="M256.845 299.393C256.876 299.385 256.904 299.373 256.928 299.352C256.953 299.332 256.972 299.307 256.985 299.278C257.012 299.221 257.019 299.155 257.006 299.094C256.993 299.028 256.959 298.97 256.911 298.929L254.896 297.518C254.843 297.497 254.783 297.493 254.728 297.513C254.673 297.53 254.625 297.563 254.593 297.612C254.561 297.661 254.545 297.719 254.55 297.776C254.554 297.834 254.578 297.887 254.617 297.928L256.632 299.34C256.694 299.381 256.77 299.401 256.845 299.393Z" fill="white"/>
<path d="M255.771 300.682C255.801 300.673 255.829 300.661 255.853 300.641C255.877 300.624 255.897 300.599 255.91 300.571C255.938 300.513 255.946 300.448 255.932 300.382C255.919 300.32 255.885 300.259 255.836 300.218L253.822 298.81C253.763 298.781 253.697 298.773 253.633 298.79C253.57 298.802 253.512 298.835 253.469 298.884C253.442 298.941 253.434 299.007 253.448 299.073C253.463 299.134 253.497 299.192 253.547 299.233L255.562 300.645C255.624 300.682 255.699 300.698 255.771 300.682Z" fill="white"/>
<path d="M254.656 301.955C254.686 301.947 254.715 301.935 254.739 301.918C254.763 301.898 254.783 301.873 254.795 301.844C254.823 301.787 254.831 301.717 254.817 301.656C254.804 301.59 254.771 301.532 254.721 301.491L252.707 300.084C252.649 300.055 252.582 300.047 252.518 300.063C252.455 300.075 252.397 300.108 252.354 300.157C252.326 300.215 252.319 300.285 252.333 300.346C252.347 300.412 252.382 300.469 252.432 300.51L254.447 301.918C254.509 301.955 254.584 301.972 254.656 301.955Z" fill="white"/>
<path d="M254.094 166.017L247.104 226.69L256.547 290.958H270.529L265.618 226.69L276.576 185.865L275.066 164.695L254.094 166.017Z" fill="#10B7F5"/>
<path d="M295.305 302.533L274.493 303.054L282.801 297.099C284.2 296.097 284.7 294.542 284.778 292.822L284.368 286.309L295.711 286.35L295.305 302.533Z" fill="#FC9D9D"/>
<path opacity="0.15" d="M292.985 294.941V294.822C293.007 294.649 292.995 294.473 292.949 294.305C292.902 294.136 292.822 293.976 292.714 293.841C292.606 293.701 292.472 293.586 292.319 293.504C292.166 293.418 291.998 293.365 291.824 293.344L284.538 292.384L284.616 291.066H295.722L295.402 302.094L286.335 301.093L289.33 299.895C290.336 299.484 291.21 298.807 291.855 297.933C292.499 297.059 292.891 296.024 292.985 294.941Z" fill="black"/>
<path opacity="0.2" d="M271.279 301.965C271.279 301.965 264.099 303.943 264.678 308.121L272.23 306.184L271.279 301.965Z" fill="black"/>
<path d="M296.74 298.857V306.971C296.743 307.283 296.684 307.587 296.566 307.874C296.449 308.161 296.275 308.424 296.056 308.642C295.837 308.863 295.576 309.036 295.29 309.155C295.002 309.27 294.695 309.331 294.385 309.327H266.779C266.648 309.327 266.518 309.302 266.396 309.253C266.275 309.204 266.165 309.13 266.072 309.036C265.979 308.945 265.906 308.835 265.856 308.711C265.806 308.592 265.781 308.461 265.782 308.33C265.783 307.386 266.081 306.462 266.632 305.695C267.184 304.927 267.964 304.353 268.859 304.053L275.091 302.001L283 295.89C283.397 295.582 283.889 295.422 284.391 295.434C284.893 295.451 285.375 295.635 285.753 295.968L289.269 298.964C289.527 299.177 289.832 299.325 290.159 299.399C290.486 299.469 290.825 299.46 291.148 299.374L295.583 297.975C295.719 297.93 295.865 297.913 296.007 297.938C296.149 297.962 296.283 298.02 296.398 298.106C296.512 298.192 296.603 298.307 296.663 298.439C296.723 298.57 296.749 298.714 296.74 298.857Z" fill="#3F4249"/>
<path opacity="0.5" d="M294.385 309.319H266.779C266.648 309.319 266.518 309.294 266.396 309.245C266.275 309.196 266.165 309.122 266.072 309.028C265.979 308.937 265.906 308.827 265.856 308.703C265.806 308.584 265.781 308.453 265.782 308.322C265.781 307.985 265.821 307.649 265.901 307.32H296.699C296.626 307.878 296.35 308.391 295.923 308.761C295.497 309.13 294.949 309.327 294.385 309.319Z" fill="black"/>
<path d="M283.16 299.13C283.191 299.13 283.221 299.122 283.249 299.11C283.277 299.093 283.301 299.077 283.32 299.052C283.358 298.999 283.379 298.937 283.379 298.872C283.379 298.806 283.358 298.744 283.32 298.691L281.642 296.893C281.59 296.856 281.527 296.836 281.462 296.836C281.397 296.836 281.334 296.856 281.281 296.893C281.241 296.947 281.22 297.008 281.22 297.074C281.22 297.14 281.241 297.201 281.281 297.255L282.959 299.052C283.014 299.101 283.086 299.13 283.16 299.13Z" fill="white"/>
<path d="M281.84 300.177C281.871 300.177 281.902 300.169 281.929 300.153C281.957 300.14 281.981 300.12 282 300.095C282.04 300.042 282.061 299.98 282.061 299.915C282.061 299.849 282.04 299.787 282 299.734L280.322 297.936C280.27 297.899 280.208 297.879 280.143 297.879C280.079 297.879 280.017 297.899 279.965 297.936C279.925 297.99 279.903 298.051 279.903 298.117C279.903 298.183 279.925 298.244 279.965 298.298L281.643 300.095C281.696 300.144 281.766 300.177 281.84 300.177Z" fill="white"/>
<path d="M280.487 301.189C280.517 301.189 280.547 301.181 280.574 301.168C280.601 301.152 280.624 301.131 280.642 301.107C280.682 301.054 280.704 300.992 280.704 300.926C280.704 300.861 280.682 300.799 280.642 300.746L278.968 298.948C278.916 298.911 278.853 298.891 278.788 298.891C278.723 298.891 278.66 298.911 278.607 298.948C278.567 299.001 278.546 299.063 278.546 299.129C278.546 299.194 278.567 299.256 278.607 299.309L280.285 301.107C280.34 301.16 280.411 301.189 280.487 301.189Z" fill="white"/>
<path opacity="0.2" d="M273.11 185.197L260.708 227.06L265.844 290.946H270.907L265.688 227.577L276.211 187.335L275.756 185.259C275.691 184.96 275.528 184.693 275.292 184.499C275.056 184.304 274.762 184.195 274.457 184.188C274.152 184.181 273.853 184.277 273.609 184.46C273.365 184.643 273.189 184.902 273.11 185.197Z" fill="black"/>
<path d="M296.916 163.461V290.947H283.378L271.218 164.807L296.916 163.461Z" fill="#10B7F5"/>
<path opacity="0.2" d="M253.593 170.624L296.915 166.729L297.03 164.328L253.937 167.443L253.593 170.624Z" fill="black"/>
<path d="M279.699 89.8375L264.582 89.4805L250.272 93.9951C248.931 94.3308 247.726 95.0737 246.823 96.1215C245.921 97.1693 245.364 98.4708 245.23 99.8477L242.666 124.251L253.435 125.573L252.582 167.522L297.927 164.875L299.535 123.291L305.959 122.158L300.569 97.7423C300.264 96.3657 299.548 95.1139 298.518 94.1519C297.488 93.1903 296.19 92.5632 294.797 92.3534L279.699 89.8375Z" fill="#10B7F5"/>
<path d="M265.209 84.738C264.605 85.1394 263.875 85.3044 263.158 85.2018C259.822 84.9802 257.291 84.7708 256.712 81.4628C255.859 76.2546 255.892 64.5493 259.424 57.5352C262.407 58.7336 262.911 59.3574 262.911 59.3574C262.911 59.3574 267.014 57.6706 267.096 57.6172C267.08 57.5721 270.624 80.4163 265.209 84.738Z" fill="#21252B"/>
<path d="M275.233 80.3893L274.95 52.2178C276.349 51.8608 278.79 53.5148 279.529 54.2043C285.432 59.7901 287.91 72.2424 287.947 80.7094C287.988 83.9928 285.941 84.6208 282.802 85.5442C279.664 86.4677 275.963 87.1325 274.433 85.6632C273.686 84.8834 275.233 80.3893 275.233 80.3893Z" fill="#21252B"/>
<path d="M279.287 89.8183L277.646 73.0156L265.297 78.3511L264.674 89.7362L270.2 98.4166C270.291 98.5603 270.415 98.6805 270.562 98.7671C270.708 98.8541 270.873 98.905 271.043 98.9165C271.212 98.9276 271.383 98.8985 271.539 98.8316C271.696 98.7647 271.834 98.6621 271.943 98.5316L279.287 89.8183Z" fill="#FC9D9D"/>
<path opacity="0.15" d="M265.046 82.2959L265.243 79.5379L269.866 80.4901L269.825 80.5393C271.058 80.3694 272.249 79.9726 273.337 79.3697C273.412 79.3278 273.499 79.3171 273.581 79.3397C273.663 79.3623 273.732 79.4169 273.774 79.4907C273.816 79.565 273.827 79.6524 273.804 79.7345C273.782 79.8166 273.727 79.886 273.653 79.9278C272.42 80.6202 271.059 81.0544 269.653 81.2042C269.477 81.2042 269.296 81.233 269.112 81.2371C267.43 82.5052 265.046 82.2959 265.046 82.2959Z" fill="black"/>
<path d="M267.978 133.771L266.934 133.168L260.503 144.311L261.547 144.914L267.978 133.771Z" fill="#21252B"/>
<path d="M269.063 80.4979H269.691C274.335 80.4281 278.15 76.1967 278.036 71.4686L277.806 59.4719C277.792 58.7192 277.483 58.0022 276.946 57.4748C276.409 56.9474 275.687 56.6523 274.934 56.6523L263.935 56.7837C263.453 56.7927 262.978 56.8974 262.537 57.0919C262.096 57.2865 261.698 57.5668 261.366 57.9169C261.034 58.2665 260.775 58.679 260.605 59.1297C260.433 59.5807 260.354 60.0613 260.37 60.5432L260.588 71.719C260.715 76.3937 264.227 80.7072 269.063 80.4979Z" fill="#FC9D9D"/>
<path d="M269.603 74.5102L269.345 75.0192C269.176 75.3184 268.936 75.572 268.645 75.7571C268.355 75.9422 268.024 76.0535 267.682 76.081C267.339 76.1085 266.994 76.0518 266.678 75.9151C266.363 75.7785 266.085 75.5667 265.87 75.2983L265.46 74.7725C265.378 74.6576 265.423 74.502 265.562 74.5061L269.431 74.284C269.562 74.243 269.657 74.3994 269.603 74.5102Z" fill="white"/>
<path d="M270.109 70.0048C269.926 70.0385 269.738 70.0172 269.567 69.9433C269.396 69.8694 269.251 69.7467 269.15 69.5903C269.05 69.4343 268.997 69.2517 269 69.0658C269.003 68.8799 269.061 68.6989 269.167 68.5458C269.273 68.3927 269.421 68.2749 269.595 68.2063C269.767 68.1378 269.956 68.1226 270.138 68.162C270.32 68.201 270.486 68.2938 270.615 68.4271C270.745 68.5609 270.831 68.7301 270.864 68.9131C270.907 69.1577 270.852 69.4097 270.711 69.6141C270.569 69.8185 270.354 69.9589 270.109 70.0048Z" fill="#21252B"/>
<path d="M269.564 69.346C269.541 69.3501 269.518 69.3501 269.495 69.3452C269.472 69.3402 269.451 69.3312 269.431 69.318C269.412 69.3048 269.395 69.2879 269.383 69.2681C269.37 69.2488 269.361 69.2265 269.357 69.2039C269.352 69.1808 269.353 69.1573 269.357 69.1343C269.362 69.1112 269.372 69.0898 269.385 69.0704C269.398 69.0511 269.415 69.0346 269.434 69.0218C269.454 69.0091 269.476 69 269.499 68.9959C269.522 68.991 269.546 68.991 269.569 68.9959C269.592 69.0004 269.614 69.0099 269.634 69.0231C269.654 69.0367 269.67 69.054 269.683 69.0742C269.696 69.0939 269.704 69.1166 269.709 69.14C269.716 69.1862 269.705 69.2335 269.678 69.2718C269.651 69.3101 269.61 69.3369 269.564 69.346Z" fill="white"/>
<path d="M262.929 70.1928C262.747 70.2252 262.559 70.2035 262.39 70.1296C262.22 70.0557 262.076 69.933 261.976 69.7775C261.876 69.6215 261.825 69.4397 261.828 69.255C261.832 69.0699 261.89 68.8901 261.995 68.7378C262.101 68.586 262.249 68.4686 262.421 68.4009C262.593 68.3332 262.781 68.318 262.962 68.3574C263.143 68.3964 263.308 68.4883 263.436 68.6217C263.565 68.7547 263.651 68.923 263.684 69.1052C263.706 69.2263 263.705 69.3502 263.679 69.4709C263.653 69.5911 263.603 69.7052 263.533 69.8062C263.463 69.9076 263.373 69.9938 263.27 70.0599C263.166 70.1263 263.05 70.1715 262.929 70.1928Z" fill="#21252B"/>
<path d="M262.332 69.4802C262.309 69.4844 262.286 69.4839 262.263 69.479C262.24 69.4741 262.218 69.4646 262.2 69.451C262.18 69.4378 262.164 69.4205 262.151 69.4008C262.139 69.3814 262.13 69.3592 262.127 69.3361C262.121 69.3019 262.125 69.2661 262.139 69.2344C262.153 69.2023 262.177 69.1751 262.206 69.1565C262.236 69.1376 262.27 69.1281 262.305 69.129C262.34 69.1298 262.374 69.1409 262.402 69.1611C262.431 69.1808 262.453 69.2093 262.466 69.2418C262.479 69.2743 262.481 69.3097 262.474 69.3439C262.466 69.3781 262.449 69.4094 262.424 69.4337C262.398 69.458 262.367 69.4741 262.332 69.4802Z" fill="white"/>
<g opacity="0.15">
<path opacity="0.15" d="M266.846 72.9734L268.077 72.8626C268.217 72.8626 268.356 72.7148 268.311 72.5876C268.266 72.4604 268.163 72.3085 268.036 72.3536L266.805 72.4645C266.733 72.4719 266.66 72.4649 266.592 72.444C266.522 72.4234 266.458 72.389 266.402 72.3434C266.346 72.2974 266.299 72.2412 266.265 72.1776C266.231 72.114 266.209 72.0442 266.202 71.9719C266.195 71.9001 266.202 71.8275 266.223 71.7581C266.243 71.6892 266.278 71.6243 266.323 71.5685C266.369 71.5123 266.425 71.4659 266.489 71.4318C266.553 71.3974 266.622 71.376 266.695 71.3686C266.838 71.3686 266.973 71.2209 266.928 71.0936C266.883 70.9664 266.781 70.8145 266.658 70.8597C266.368 70.8929 266.103 71.0374 265.919 71.2627C265.734 71.4881 265.645 71.7762 265.669 72.0664C265.687 72.2034 265.731 72.3356 265.8 72.4555C265.869 72.5749 265.96 72.6799 266.07 72.7641C266.179 72.8482 266.304 72.9102 266.437 72.9463C266.57 72.982 266.709 72.9915 266.846 72.9734Z" fill="black"/>
</g>
<path d="M269.87 139.74L264.2 136.715L259.848 136.744L272.853 146.922L269.87 139.74Z" fill="#FC9D9D"/>
<path d="M258.16 62.3159L257.672 62.361C260.232 49.6133 273.606 48.4395 279.579 54.2387C283.181 57.752 285.146 63.8426 285.146 63.8426C284.297 66.2559 281.54 68.3573 280.757 70.04C280.424 70.7911 279.267 67.5364 278.648 67.1671C278.554 67.1342 277.91 67.9099 277.466 68.4476C277.409 68.5276 277.33 68.5892 277.239 68.6253C277.147 68.6614 277.048 68.6704 276.951 68.6507C276.855 68.6315 276.766 68.5843 276.696 68.5153C276.626 68.4464 276.577 68.3589 276.556 68.2629C276.201 66.7283 276.111 65.1445 276.289 63.58L276.474 62.1722C273.405 61.4786 264.1 58.815 262.041 58.3389C261.532 58.2075 261.163 59.0038 261.073 59.5045L260.06 66.9783L258.693 63.2968L258.16 62.3159Z" fill="#21252B"/>
<path d="M276.829 73.0626C276.829 73.0626 280.816 74.0312 282.289 70.1897C283.762 66.3481 278.958 64.809 277.579 68.7039L276.349 72.9929L276.829 73.0626Z" fill="#FC9D9D"/>
<path opacity="0.15" d="M281.4 67.8335C281.253 67.6693 281.073 67.5384 280.871 67.4498C280.67 67.3611 280.451 67.3172 280.231 67.3205C280.01 67.3394 279.796 67.4071 279.605 67.5183C279.413 67.6299 279.249 67.7822 279.123 67.9648C278.771 68.4019 278.529 68.917 278.417 69.4669L278.319 69.8773C278.262 70.1975 278.77 70.3739 278.869 70.0046L278.963 69.549C279.057 69.1037 279.247 68.6839 279.517 68.3178C279.604 68.2049 279.713 68.1105 279.837 68.0404C279.961 67.9698 280.097 67.9246 280.239 67.9074C280.541 67.9299 280.825 68.0629 281.035 68.2809C281.085 68.324 281.149 68.3473 281.215 68.3473C281.281 68.3473 281.345 68.324 281.396 68.2809C281.448 68.2185 281.477 68.1397 281.478 68.058C281.479 67.9767 281.451 67.8971 281.4 67.8335Z" fill="black"/>
<path d="M240.775 142.003L251.163 148.254L242.576 140.152L240.775 142.003Z" fill="#DADDDF"/>
<path d="M258.774 68.9177C258.766 69.4065 258.856 69.892 259.036 70.3464C259.216 70.8007 259.484 71.2152 259.825 71.5662C260.165 71.9171 260.571 72.1969 261.02 72.3911C261.468 72.5848 261.951 72.6882 262.439 72.6956C262.928 72.7026 263.413 72.6135 263.868 72.4334C264.322 72.2532 264.736 71.9848 265.087 71.6445C265.438 71.3039 265.718 70.8976 265.911 70.4486C266.105 70 266.209 69.5173 266.216 69.0285C266.228 68.3472 266.056 67.6753 265.719 67.0831C266.319 66.8725 266.969 66.8496 267.582 67.0174C267.429 67.3983 267.353 67.8054 267.356 68.2159C267.345 68.9517 267.552 69.6749 267.952 70.293C268.351 70.9115 268.925 71.3975 269.6 71.6897C270.276 71.9819 271.023 72.0668 271.746 71.9347C272.47 71.8021 273.139 71.4578 273.667 70.9452C274.196 70.433 274.56 69.775 274.715 69.0552C274.87 68.3357 274.807 67.5863 274.536 66.9017C274.265 66.2171 273.797 65.6286 273.192 65.2099C272.587 64.7917 271.871 64.5623 271.135 64.5508C270.45 64.5541 269.778 64.7424 269.191 65.0954C268.604 65.4488 268.123 65.954 267.799 66.5578C267.039 66.3267 266.222 66.3685 265.49 66.6768C265.151 66.2339 264.717 65.874 264.22 65.6228C263.723 65.372 263.175 65.237 262.618 65.228C261.625 65.2271 260.67 65.6109 259.953 66.2984C259.237 66.9862 258.814 67.9249 258.774 68.9177ZM267.865 68.2364C267.873 67.5945 268.072 66.9698 268.435 66.4408C268.799 65.9121 269.311 65.5029 269.907 65.2653C270.503 65.0281 271.156 64.9727 271.783 65.1069C272.41 65.2411 272.984 65.5584 273.431 66.0189C273.878 66.4789 274.178 67.0618 274.294 67.693C274.409 68.3242 274.335 68.9755 274.081 69.5649C273.826 70.1539 273.402 70.6542 272.863 71.0022C272.324 71.3498 271.694 71.53 271.053 71.5198C270.196 71.5025 269.381 71.1479 268.784 70.5331C268.188 69.9187 267.857 69.0933 267.865 68.2364ZM259.315 68.8807C259.324 68.2388 259.522 67.6142 259.886 67.0851C260.249 66.5565 260.761 66.1473 261.357 65.9097C261.953 65.6725 262.606 65.6171 263.233 65.7513C263.861 65.8855 264.434 66.2027 264.881 66.6632C265.328 67.1233 265.628 67.7061 265.744 68.3374C265.86 68.9686 265.785 69.6199 265.531 70.2093C265.276 70.7982 264.853 71.2985 264.313 71.6462C263.775 71.9942 263.145 72.1744 262.503 72.1641C262.077 72.1613 261.656 72.0738 261.264 71.9068C260.873 71.7397 260.518 71.4964 260.221 71.1906C259.925 70.8852 259.692 70.5233 259.536 70.1268C259.381 69.7303 259.306 69.3068 259.315 68.8807Z" fill="white"/>
<path d="M278.175 72.6248C278.012 72.6432 277.847 72.6125 277.702 72.5365C277.557 72.4606 277.438 72.3432 277.36 72.1992C277.282 72.0551 277.25 71.891 277.266 71.728C277.282 71.5651 277.346 71.4104 277.451 71.2844C277.556 71.1584 277.696 71.0668 277.853 71.0209C278.01 70.9753 278.178 70.9774 278.334 71.0279C278.49 71.0779 278.627 71.1735 278.728 71.3024C278.829 71.4309 278.889 71.5873 278.901 71.7506C278.916 71.962 278.849 72.1708 278.714 72.3338C278.578 72.4967 278.385 72.601 278.175 72.6248Z" fill="#10B7F5"/>
<path opacity="0.15" d="M277.757 72.433C277.986 72.4699 278.22 72.4145 278.408 72.2794C278.596 72.144 278.723 71.9396 278.762 71.711C278.793 71.5469 278.777 71.3778 278.717 71.2227C278.809 71.3109 278.879 71.4196 278.922 71.5403C278.965 71.6606 278.978 71.7894 278.963 71.9163C278.951 72.023 278.917 72.1264 278.864 72.2191C278.81 72.3123 278.737 72.3927 278.65 72.4559C278.563 72.5192 278.464 72.5631 278.359 72.5852C278.254 72.6074 278.145 72.6074 278.04 72.5852C277.879 72.5631 277.732 72.481 277.63 72.3554C277.622 72.4457 277.667 72.4412 277.757 72.433Z" fill="black"/>
<path opacity="0.15" d="M277.646 73.165L276.239 72.9844L277.63 76.3047L277.646 73.165Z" fill="black"/>
<path d="M261.064 59.6671C268.448 57.4509 268.083 66.3283 275.734 64.3172C282.906 62.4252 275.628 55.5957 275.628 55.5957L269.097 55.2305L260.522 56.9501L261.064 59.6671Z" fill="#21252B"/>
<path d="M277.646 73.1641C277.646 73.1641 277.014 80.7117 273.58 86.1005C273.58 86.1005 278.938 86.8475 282.893 85.5341C286.54 84.3357 277.646 73.1641 277.646 73.1641Z" fill="#21252B"/>
<path opacity="0.2" d="M299.442 134.215L289.896 108.297L288.665 108.662C288.427 108.733 288.224 108.887 288.093 109.098C287.961 109.308 287.911 109.559 287.951 109.803L292.382 136.571L292.14 165.202L297.912 164.792L299.442 134.215Z" fill="black"/>
<path d="M304.604 118.113L308.095 135.515C308.324 136.683 308.082 137.894 307.423 138.885C306.764 139.876 305.74 140.566 304.575 140.806L271.755 146.161L269.679 139.923L295.373 131.608L293.104 121.023L304.604 118.113Z" fill="#DADDDF"/>
<path d="M254.073 142.99L253.433 125.563L244.637 124.492L244.555 142.386" fill="#DADDDF"/>
<path opacity="0.15" d="M249.827 125.074L249.844 141.249L254.012 141.348L253.244 125.374L249.827 125.074Z" fill="black"/>
<path d="M288.576 108.544L292.355 125.178L306.336 122.153L302.397 106.02L288.576 108.544Z" fill="#10B7F5"/>
<path d="M236.559 132.4L235.39 130.668H250.237L251.447 132.4H236.559Z" fill="#10B7F5"/>
<path d="M278.976 151.074H254.754L231.329 131.797H255.583L278.976 151.074Z" fill="#3F4249"/>
<path opacity="0.3" d="M278.976 151.074H254.754L231.329 131.797H255.583L278.976 151.074Z" fill="black"/>
<path d="M278.94 151.082H278.185V151.649H278.94V151.082Z" fill="#3F4249"/>
<path opacity="0.3" d="M278.94 151.082H278.185V151.649H278.94V151.082Z" fill="black"/>
<path d="M230.952 132.364V131.797H231.974L232.084 132.553L230.952 132.364Z" fill="#3F4249"/>
<path opacity="0.3" d="M230.952 132.364V131.797H231.974L232.084 132.553L230.952 132.364Z" fill="black"/>
<path d="M278.973 151.645H255.474L230.912 132.367H255.544L278.973 151.645Z" fill="#3F4249"/>
<path opacity="0.2" d="M253.244 125.375V111.236C253.244 111.157 253.228 111.08 253.198 111.007C253.169 110.934 253.124 110.868 253.069 110.812C253.013 110.757 252.947 110.713 252.874 110.682C252.802 110.652 252.724 110.637 252.645 110.637C252.498 110.637 252.356 110.69 252.245 110.788C252.135 110.885 252.064 111.02 252.046 111.166L250.245 125.223L253.244 125.375Z" fill="black"/>
<path d="M232.971 134.525C232.971 134.525 233.442 140.271 240.027 142.061L242.579 140.152L236.917 134.406L232.971 134.525Z" fill="#FC9D9D"/>
<path opacity="0.15" d="M232.971 134.525C232.971 134.525 233.442 140.271 240.027 142.061L242.579 140.152L236.917 134.406L232.971 134.525Z" fill="black"/>
<path d="M237.297 134.387L233.301 134.522C233.075 134.529 232.858 134.613 232.686 134.76C232.573 134.856 232.482 134.976 232.42 135.111C232.359 135.246 232.328 135.394 232.33 135.542C232.333 135.69 232.368 135.837 232.434 135.97C232.5 136.103 232.594 136.22 232.71 136.312C232.939 136.493 233.204 136.623 233.487 136.694C233.77 136.765 234.065 136.775 234.351 136.722L238.663 135.901C238.763 135.879 238.855 135.828 238.927 135.755C239 135.682 239.051 135.591 239.074 135.491C239.094 135.393 239.087 135.291 239.053 135.197C239.019 135.103 238.959 135.02 238.881 134.957C238.436 134.587 237.876 134.385 237.297 134.387Z" fill="#FC9D9D"/>
<path d="M238.877 135.934L234.553 137.087C234.33 137.126 234.126 137.239 233.974 137.408C233.876 137.518 233.803 137.65 233.761 137.792C233.72 137.934 233.71 138.084 233.733 138.23C233.756 138.377 233.811 138.517 233.895 138.639C233.979 138.762 234.088 138.864 234.216 138.938C234.47 139.086 234.752 139.177 235.043 139.206C235.335 139.235 235.629 139.201 235.907 139.107L240.444 137.194C240.544 137.161 240.633 137.098 240.697 137.014C240.761 136.93 240.799 136.828 240.805 136.722C240.811 136.623 240.789 136.524 240.743 136.436C240.697 136.347 240.627 136.274 240.542 136.221C240.038 135.932 239.449 135.83 238.877 135.934Z" fill="#FC9D9D"/>
<path d="M240.644 137.279L236.476 138.921C236.259 138.987 236.069 139.122 235.938 139.307C235.852 139.428 235.795 139.566 235.769 139.712C235.743 139.859 235.751 140.008 235.79 140.151C235.829 140.294 235.9 140.427 235.996 140.539C236.093 140.652 236.213 140.741 236.348 140.801C236.615 140.922 236.905 140.985 237.198 140.985C237.491 140.985 237.78 140.922 238.047 140.801L242.338 138.388C242.433 138.342 242.513 138.27 242.568 138.179C242.623 138.089 242.649 137.985 242.646 137.879C242.641 137.779 242.609 137.682 242.552 137.599C242.496 137.517 242.417 137.451 242.326 137.411C241.799 137.168 241.202 137.121 240.644 137.279Z" fill="#FC9D9D"/>
<path d="M241.745 138.706L239.05 140.873C238.904 140.971 238.795 141.116 238.742 141.283C238.707 141.392 238.696 141.508 238.71 141.621C238.725 141.735 238.764 141.844 238.826 141.94C238.887 142.037 238.97 142.118 239.067 142.18C239.163 142.24 239.272 142.279 239.386 142.293C239.608 142.317 239.834 142.292 240.046 142.221C240.258 142.15 240.453 142.035 240.617 141.882L243.234 139.124C243.295 139.069 243.337 138.997 243.356 138.917C243.375 138.838 243.37 138.754 243.341 138.677C243.315 138.605 243.27 138.541 243.209 138.493C243.149 138.445 243.077 138.415 243 138.406C242.56 138.357 242.116 138.463 241.745 138.706Z" fill="#FC9D9D"/>
<path opacity="0.15" d="M271.758 146.162L304.578 140.806C305.743 140.566 306.767 139.876 307.426 138.885C308.085 137.895 308.327 136.683 308.098 135.515L307.351 131.797C307.351 131.797 308.036 137.465 302.371 138.979L271.409 145.103L271.758 146.162Z" fill="black"/>
<path opacity="0.2" d="M290.823 167.522L294.142 290.949H296.981V166.578L290.823 167.522Z" fill="black"/>
<path opacity="0.2" d="M262.504 90.0234L269.794 101.63C269.91 101.814 270.069 101.968 270.256 102.078C270.443 102.188 270.654 102.253 270.871 102.265C271.088 102.277 271.305 102.238 271.504 102.15C271.703 102.062 271.877 101.927 272.014 101.757L281.396 90.0234" stroke="black" stroke-width="0.92" stroke-miterlimit="10"/>
<path d="M243.817 62.8883C245.716 60.7796 246.776 58.0474 246.796 55.2093C246.796 48.2978 240.457 42.6914 232.642 42.6914C224.827 42.6914 218.488 48.2978 218.488 55.2093C218.488 62.1208 224.827 67.7272 232.642 67.7272C235.345 67.7387 238.005 67.041 240.355 65.7038L245.565 68.1376L243.817 62.8883Z" fill="white" stroke="#DADDDF" stroke-miterlimit="10"/>
<path d="M239.697 52.8325C239.32 51.1539 237.724 49.7092 236.005 49.8775C235.5 49.9472 235.014 50.1192 234.577 50.3823C234.14 50.6454 233.76 50.9942 233.462 51.4083C233.242 51.6833 233.043 51.9739 232.867 52.2784C232.692 51.9735 232.493 51.6825 232.272 51.4083C231.974 50.9942 231.596 50.645 231.159 50.3811C230.723 50.1172 230.238 49.9444 229.733 49.8734C228.018 49.701 226.418 51.1457 226.04 52.8243C225.663 54.5029 226.291 56.2883 227.324 57.6632C228.69 59.5831 230.709 60.9388 233.002 61.476C234.926 61.0327 237.367 59.0463 238.401 57.6714C239.435 56.2965 240.079 54.5152 239.697 52.8325Z" fill="#F15A22"/>
</svg>
