<svg width="90" height="90" viewBox="0 0 90 90" fill="none" xmlns="http://www.w3.org/2000/svg">
<path d="M77.3144 73.0211H43.2323C43.2144 73.0202 43.1983 73.0157 43.1805 73.0157C30.4697 73.0157 20.1271 62.674 20.1271 49.9623C20.1271 43.8182 22.5952 37.9233 26.9349 33.6087C28.3963 34.9513 30.2705 35.7043 32.2697 35.7276C32.3001 35.7276 32.3313 35.7276 32.3626 35.7276C34.0331 35.7276 35.624 35.2121 36.9658 34.2679L43.6611 41.124C43.9237 41.3929 44.2721 41.5278 44.6196 41.5278C44.9572 41.5278 45.2949 41.4009 45.5557 41.1463L46.9377 39.7974L50.702 43.6628C50.9495 43.9173 51.2889 44.063 51.6445 44.0674C51.6507 44.0674 51.6561 44.0674 51.6623 44.0674C52.0125 44.0674 52.3484 43.9307 52.5985 43.6869L57.4072 38.9953C57.6609 38.7469 57.8065 38.4075 57.8109 38.0519C57.8154 37.6964 57.6787 37.3543 57.4295 37.0997L53.6598 33.2379L54.7826 32.1428C55.0363 31.8944 55.1819 31.5559 55.1864 31.2003C55.1909 30.8457 55.0542 30.5027 54.805 30.2481L33.7883 8.71418C33.7472 8.67219 33.7008 8.63824 33.6552 8.60251C33.6195 8.55427 33.6016 8.498 33.5578 8.45333C30.6037 5.45899 25.7236 5.44023 22.6739 8.41581C19.6697 11.3628 19.5473 16.1634 22.371 19.181C22.4345 19.3328 22.5211 19.4767 22.6435 19.6017L25.8906 22.9266C24.8928 24.2746 24.3354 25.8905 24.3166 27.5968C24.3006 28.9787 24.6364 30.3088 25.276 31.4915C20.2941 36.3261 17.4498 42.999 17.4498 49.9623C17.4498 60.0575 23.2956 68.8083 31.7766 73.0211H14.2179C13.4782 73.0211 12.8779 73.6205 12.8779 74.361V81.7951C12.8779 82.5356 13.4782 83.135 14.2179 83.135H77.3161C78.0558 83.135 78.6561 82.5356 78.6561 81.7951V74.361C78.6543 73.6214 78.054 73.0211 77.3144 73.0211ZM54.5754 38.0126L51.6865 40.8319L48.8556 37.926L51.741 35.1094L54.5754 38.0126ZM24.5471 10.331C26.2908 8.6311 28.9448 8.4176 30.8681 9.69234L23.7664 16.6315C22.5354 14.685 22.8087 12.0364 24.5471 10.331ZM32.8057 11.545L51.9509 31.1601L44.6419 38.2931L25.4958 18.6879L32.8057 11.545ZM35.0586 32.3161C34.2367 32.8011 33.2988 33.0602 32.2992 33.0477C30.8663 33.0316 29.5264 32.4581 28.5223 31.4308C27.52 30.408 26.9778 29.0573 26.9939 27.628C27.0055 26.6409 27.2886 25.7003 27.796 24.8802L35.0586 32.3161ZM75.9744 80.4551H15.556V75.701H75.9744V80.4551Z" fill="#262728"/>
<path d="M55.2155 62.6534C55.4799 62.9348 55.8363 63.0777 56.1945 63.0777C56.5224 63.0777 56.8511 62.958 57.1093 62.7169L76.9852 44.1255C77.5256 43.6199 77.5542 42.7712 77.0486 42.2308C76.5421 41.6903 75.6944 41.6626 75.1548 42.1674L55.2789 60.7587C54.7384 61.2652 54.7107 62.113 55.2155 62.6534Z" fill="#262728"/>
</svg>
