<svg width="90" height="90" viewBox="0 0 90 90" fill="none" xmlns="http://www.w3.org/2000/svg">
<path d="M75.4781 55.6683C74.8385 55.6683 74.3195 56.1874 74.3195 56.8279V74.4457H15.7684V51.7682C15.7684 51.1277 15.2494 50.6086 14.6098 50.6086C13.9702 50.6086 13.4512 51.1277 13.4512 51.7682V75.6052C13.4512 76.2457 13.9702 76.7647 14.6098 76.7647H75.479C76.1186 76.7647 76.6376 76.2457 76.6376 75.6052V56.8279C76.6367 56.1874 76.1177 55.6683 75.4781 55.6683Z" fill="#252728"/>
<path d="M14.6087 30.9639C15.2483 30.9639 15.7674 30.4449 15.7674 29.8053V14.8843H74.3184V32.5066C74.3184 33.1462 74.8374 33.6653 75.477 33.6653C76.1166 33.6653 76.6357 33.1462 76.6357 32.5066V13.7257C76.6357 13.0861 76.1166 12.5671 75.477 12.5671H14.6078C13.9682 12.5671 13.4492 13.0861 13.4492 13.7257V29.8053C13.4501 30.4449 13.9691 30.9639 14.6087 30.9639Z" fill="#252728"/>
<path d="M83.5517 49.8341L71.0418 37.1733C70.8015 36.9312 70.4701 36.8133 70.1262 36.8329C69.7858 36.8597 69.4741 37.0357 69.2748 37.3135L52.076 61.3203L38.252 24.9278C38.0885 24.4981 37.6856 24.2042 37.2265 24.1819C36.7575 24.1578 36.3367 24.4106 36.1313 24.8224L23.8528 49.467L15.721 37.3421C15.5057 37.0214 15.1448 36.8285 14.758 36.8285C14.3712 36.8285 14.0112 37.0205 13.795 37.3421L4.55192 51.1223C4.19549 51.6538 4.33752 52.3738 4.86904 52.7302C5.40145 53.0894 6.12057 52.9446 6.477 52.414L14.758 40.0685L23.0381 52.414C23.2676 52.757 23.6607 52.9536 24.0752 52.925C24.487 52.8982 24.8542 52.6543 25.0382 52.2845L37.0246 28.225L50.6753 64.1619C50.8271 64.5603 51.1853 64.8444 51.6088 64.8989C51.6588 64.9061 51.7088 64.9096 51.7579 64.9096C52.1287 64.9096 52.4806 64.7319 52.7004 64.4255L70.3575 39.7791L81.9018 51.4626C82.352 51.9191 83.0854 51.9218 83.541 51.4725C83.9975 51.0231 84.0019 50.2897 83.5517 49.8341Z" fill="#252728"/>
</svg>
