<svg width="91" height="90" viewBox="0 0 91 90" fill="none" xmlns="http://www.w3.org/2000/svg">
<path d="M32.4161 58.4153H49.7571C50.4967 58.4153 51.097 57.8159 51.097 57.0753C51.097 56.3348 50.4967 55.7354 49.7571 55.7354H32.4161C31.6765 55.7354 31.0762 56.3348 31.0762 57.0753C31.0762 57.8159 31.6765 58.4153 32.4161 58.4153Z" fill="#252728"/>
<path d="M55.8908 62.261H25.8917C25.1521 62.261 24.5518 62.8604 24.5518 63.601C24.5518 64.3415 25.1521 64.9409 25.8917 64.9409H55.8908C56.6305 64.9409 57.2308 64.3415 57.2308 63.601C57.2308 62.8604 56.6305 62.261 55.8908 62.261Z" fill="#252728"/>
<path d="M49.7571 68.783H32.4161C31.6765 68.783 31.0762 69.3824 31.0762 70.1229C31.0762 70.8635 31.6765 71.4629 32.4161 71.4629H49.7571C50.4967 71.4629 51.097 70.8635 51.097 70.1229C51.097 69.3824 50.4967 68.783 49.7571 68.783Z" fill="#252728"/>
<path d="M32.5607 37.913H39.0372V44.393C39.0372 45.1336 39.6375 45.733 40.3771 45.733C41.1168 45.733 41.7171 45.1336 41.7171 44.393V37.913H48.1846C48.9243 37.913 49.5246 37.3135 49.5246 36.573C49.5246 35.8324 48.9243 35.233 48.1846 35.233H41.7171V28.7565C41.7171 28.016 41.1168 27.4166 40.3771 27.4166C39.6375 27.4166 39.0372 28.016 39.0372 28.7565V35.233H32.5607C31.821 35.233 31.2207 35.8324 31.2207 36.573C31.2207 37.3135 31.821 37.913 32.5607 37.913Z" fill="#252728"/>
<path d="M71.42 10.9117H24.9581C24.2184 10.9117 23.6181 11.5112 23.6181 12.2517V18.671H17.1407C16.4011 18.671 15.8008 19.2704 15.8008 20.011V78.8649C15.8008 79.6054 16.4011 80.2048 17.1407 80.2048H63.6098C64.3495 80.2048 64.9498 79.6054 64.9498 78.8649V72.4455H71.42C72.1597 72.4455 72.76 71.8461 72.76 71.1056V12.2508C72.76 11.512 72.1597 10.9117 71.42 10.9117ZM18.4807 77.5258V21.3518H62.2698V71.0466C62.2689 71.0672 62.2636 71.0868 62.2636 71.1074C62.2636 71.1279 62.2689 71.1476 62.2698 71.1681V77.5267H18.4807V77.5258ZM70.08 69.7665H64.9498V20.011C64.9498 19.2704 64.3495 18.671 63.6098 18.671H26.2981V13.5917H70.08V69.7665Z" fill="#252728"/>
</svg>
