<svg width="80" height="80" viewBox="0 0 80 80" fill="none" xmlns="http://www.w3.org/2000/svg">
<path d="M16.2552 15.3776L25.4982 19.4413C23.6656 22.1505 22.7094 25.258 22.7094 28.525C22.7094 37.4493 29.9604 44.78 38.9644 44.78C47.9684 44.78 55.2194 37.529 55.2194 28.525C55.2194 25.3377 54.2632 22.1505 52.5102 19.521L60.6377 15.6963V31.1545L58.1676 36.4134C58.0082 36.8118 58.0082 37.2102 58.2473 37.529C58.4863 37.8477 58.8847 38.0867 59.2831 38.0867H63.9843C64.3827 38.0867 64.7811 37.9274 64.9405 37.529C65.1795 37.2102 65.1795 36.8118 65.0202 36.4134L62.8688 31.1545V14.6604C62.8688 14.023 62.7891 13.5449 61.6736 13.0668C61.4345 12.9871 39.5222 3.26601 39.5222 3.26601C39.2034 3.10664 38.8847 3.10664 38.566 3.26601L16.2552 13.1465C15.8568 13.3058 15.5381 13.7839 15.5381 14.262C15.5381 14.7401 15.7771 15.1385 16.2552 15.3776ZM52.7492 28.525C52.7492 36.1744 46.5341 42.3895 38.8847 42.3895C31.2353 42.3895 25.0202 36.1744 25.0202 28.525C25.0202 25.5768 25.9763 22.7879 27.6496 20.3975L38.4863 25.258C38.6457 25.3377 38.805 25.3377 38.9644 25.3377C39.1237 25.3377 39.2831 25.3377 39.4425 25.258L50.1198 20.4772C51.8728 22.8676 52.7492 25.6564 52.7492 28.525ZM61.1158 35.6963L61.6736 34.5011L62.1516 35.6963H61.1158ZM39.0441 5.65644L58.4066 14.262L39.0441 22.8676L19.6815 14.262L39.0441 5.65644Z" fill="#10B7F5"/>
<path d="M39.3624 47.6484C23.8246 47.6484 11.1553 60.3178 11.1553 75.8556C11.1553 76.4931 11.713 77.0508 12.3505 77.0508H66.3744C67.0118 77.0508 67.5696 76.4931 67.5696 75.8556C67.5696 60.3178 54.9003 47.6484 39.3624 47.6484ZM13.6254 74.6604C14.2628 60.9552 25.5776 50.0389 39.4421 50.0389C53.3067 50.0389 64.5417 61.0349 65.1792 74.6604H13.6254Z" fill="#10B7F5"/>
</svg>
