<svg width="80" height="80" viewBox="0 0 80 80" fill="none" xmlns="http://www.w3.org/2000/svg">
<path d="M14.4688 56.1398C14.4688 60.1354 17.7196 63.3871 21.716 63.3871C25.7124 63.3871 28.9632 60.1354 28.9632 56.1398C28.9632 52.1442 25.7124 48.8926 21.716 48.8926C17.7196 48.8926 14.4688 52.1434 14.4688 56.1398ZM26.5811 56.1398C26.5811 58.8221 24.3983 61.0049 21.716 61.0049C19.0337 61.0049 16.8509 58.8221 16.8509 56.1398C16.8509 53.4575 19.0337 51.2747 21.716 51.2747C24.3983 51.2747 26.5811 53.4575 26.5811 56.1398Z" fill="#10B7F5"/>
<path d="M71.6376 29.0758C71.1469 28.6383 70.3949 28.6804 69.9558 29.1711L52.656 48.5481L43.7499 39.6421C43.2846 39.1768 42.5311 39.1768 42.0658 39.6421C41.6005 40.1075 41.6005 40.861 42.0658 41.3263L51.8635 51.1232C52.0874 51.3472 52.3899 51.4718 52.706 51.4718C52.7171 51.4718 52.7282 51.4718 52.7393 51.471C53.0665 51.4615 53.3762 51.3186 53.5945 51.074L71.7337 30.7568C72.1712 30.2669 72.1283 29.5133 71.6376 29.0758Z" fill="#10B7F5"/>
<path d="M53.1172 54.4508C52.459 54.4508 51.9262 54.9844 51.9262 55.6419V67.4946H9.75127V11.9114H51.9262V36.8659C51.9262 37.5233 52.459 38.0569 53.1172 38.0569C53.7755 38.0569 54.3083 37.5233 54.3083 36.8659V10.7204C54.3083 10.0629 53.7755 9.5293 53.1172 9.5293H8.56021C7.90194 9.5293 7.36914 10.0629 7.36914 10.7204V68.6856C7.36914 69.3431 7.90194 69.8767 8.56021 69.8767H53.1172C53.7755 69.8767 54.3083 69.3431 54.3083 68.6856V55.6419C54.3083 54.9844 53.7755 54.4508 53.1172 54.4508Z" fill="#10B7F5"/>
<path d="M39.1946 25.5892C39.8529 25.5892 40.3857 25.0556 40.3857 24.3981C40.3857 23.7406 39.8529 23.207 39.1946 23.207H15.2653C14.607 23.207 14.0742 23.7406 14.0742 24.3981C14.0742 25.0556 14.607 25.5892 15.2653 25.5892H39.1946Z" fill="#10B7F5"/>
<path d="M40.6782 34.9938C40.6782 34.3363 40.1454 33.8027 39.4871 33.8027H15.5641C14.9059 33.8027 14.373 34.3363 14.373 34.9938C14.373 35.6513 14.9059 36.1849 15.5641 36.1849H39.4871C40.1454 36.1849 40.6782 35.6513 40.6782 34.9938Z" fill="#10B7F5"/>
</svg>
