<svg width="80" height="80" viewBox="0 0 80 80" fill="none" xmlns="http://www.w3.org/2000/svg">
<path d="M28.8141 51.9251H44.2278C44.8852 51.9251 45.4188 51.3923 45.4188 50.7341C45.4188 50.0758 44.8852 49.543 44.2278 49.543H28.8141C28.1566 49.543 27.623 50.0758 27.623 50.7341C27.623 51.3923 28.1566 51.9251 28.8141 51.9251Z" fill="#10B7F5"/>
<path d="M49.6794 55.3438H23.0143C22.3568 55.3438 21.8232 55.8766 21.8232 56.5348C21.8232 57.1931 22.3568 57.7259 23.0143 57.7259H49.6794C50.3368 57.7259 50.8704 57.1931 50.8704 56.5348C50.8704 55.8766 50.3368 55.3438 49.6794 55.3438Z" fill="#10B7F5"/>
<path d="M44.2278 61.1406H28.8141C28.1566 61.1406 27.623 61.6734 27.623 62.3317C27.623 62.99 28.1566 63.5228 28.8141 63.5228H44.2278C44.8852 63.5228 45.4188 62.99 45.4188 62.3317C45.4188 61.6734 44.8852 61.1406 44.2278 61.1406Z" fill="#10B7F5"/>
<path d="M28.942 33.7012H34.6987V39.4613C34.6987 40.1195 35.2323 40.6524 35.8898 40.6524C36.5472 40.6524 37.0808 40.1195 37.0808 39.4613V33.7012H42.8296C43.487 33.7012 44.0206 33.1684 44.0206 32.5101C44.0206 31.8519 43.487 31.3191 42.8296 31.3191H37.0808V25.5622C37.0808 24.9039 36.5472 24.3711 35.8898 24.3711C35.2323 24.3711 34.6987 24.9039 34.6987 25.5622V31.3191H28.942C28.2846 31.3191 27.751 31.8519 27.751 32.5101C27.751 33.1684 28.2846 33.7012 28.942 33.7012Z" fill="#10B7F5"/>
<path d="M63.4828 9.69922H22.1845C21.5271 9.69922 20.9935 10.232 20.9935 10.8903V16.5964H15.236C14.5785 16.5964 14.0449 17.1292 14.0449 17.7874V70.102C14.0449 70.7603 14.5785 71.2931 15.236 71.2931H56.5406C57.198 71.2931 57.7316 70.7603 57.7316 70.102V64.3959H63.4828C64.1402 64.3959 64.6738 63.8631 64.6738 63.2049V10.8895C64.6738 10.2328 64.1402 9.69922 63.4828 9.69922ZM16.427 68.9117V18.9793H55.3495V63.1525C55.3487 63.1707 55.344 63.1882 55.344 63.2065C55.344 63.2247 55.3487 63.2422 55.3495 63.2605V68.9125H16.427V68.9117ZM62.2917 62.0146H57.7316V17.7874C57.7316 17.1292 57.198 16.5964 56.5406 16.5964H23.3756V12.0814H62.2917V62.0146Z" fill="#10B7F5"/>
</svg>
