<svg width="80" height="80" viewBox="0 0 80 80" fill="none" xmlns="http://www.w3.org/2000/svg">
<path d="M38.5175 56.8773C38.5175 56.2172 37.9826 55.6815 37.3217 55.6815H10.2867C10.9093 43.8919 20.6948 34.4931 32.6326 34.4931C36.9454 34.4931 41.1322 35.7224 44.7379 38.0494C45.2928 38.4065 46.0326 38.2479 46.3913 37.6922C46.7492 37.1374 46.589 36.3968 46.0349 36.0389C42.0402 33.4632 37.4062 32.1016 32.6326 32.1016C18.9753 32.1016 7.86328 43.2159 7.86328 56.8773C7.86328 57.5374 8.39819 58.0731 9.05906 58.0731H37.3217C37.9818 58.0731 38.5175 57.5374 38.5175 56.8773Z" fill="#10B7F5"/>
<path d="M32.2183 29.8853C40.12 29.8853 46.5485 23.456 46.5485 15.5527C46.5485 7.65579 40.12 1.23047 32.2183 1.23047C24.3222 1.23047 17.8984 7.65579 17.8984 15.5527C17.8984 23.4552 24.3222 29.8853 32.2183 29.8853ZM32.2183 3.62203C38.8007 3.62203 44.1569 8.97433 44.1569 15.5527C44.1569 22.1367 38.8015 27.4938 32.2183 27.4938C25.6415 27.4938 20.29 22.1367 20.29 15.5527C20.29 8.97433 25.6415 3.62203 32.2183 3.62203Z" fill="#10B7F5"/>
<path d="M71.6438 70.9391L63.3579 58.8888C64.9387 56.809 65.8148 54.2954 65.8323 51.6384C65.881 44.9229 60.4577 39.4183 53.7414 39.3673C47.0506 39.3354 41.5205 44.7515 41.4711 51.467C41.4528 54.191 42.3456 56.7053 43.8483 58.7469L35.3822 70.68C35.0976 71.0826 35.0881 71.6183 35.3591 72.0296C35.6301 72.441 36.1244 72.6442 36.6075 72.5414L43.3054 71.1097L44.4821 77.4018C44.5754 77.9001 44.9716 78.2851 45.4722 78.364C45.5344 78.3736 45.5966 78.3784 45.6571 78.3784C46.0916 78.3784 46.4982 78.1416 46.7086 77.751L53.5565 65.0805L60.2241 77.8467C60.4322 78.2453 60.8427 78.4892 61.2828 78.4892C61.3386 78.4892 61.3952 78.4852 61.4518 78.4772C61.9532 78.4055 62.3558 78.0268 62.4562 77.5302L63.7238 71.2579L70.3898 72.783C70.8681 72.8922 71.3696 72.6977 71.6462 72.2895C71.9244 71.8797 71.9228 71.344 71.6438 70.9391ZM53.6601 41.7589C53.6808 41.7589 53.7031 41.7589 53.7239 41.7589C59.1216 41.7995 63.4798 46.2247 63.44 51.6217V51.6225C63.4232 54.234 62.3877 56.6838 60.5239 58.5189C58.6784 60.3365 56.2422 61.3354 53.6561 61.3346C53.6322 61.3346 53.6067 61.3346 53.582 61.3346C48.1866 61.2979 43.8268 56.8783 43.8627 51.483C43.9017 46.1075 48.2918 41.7589 53.6601 41.7589ZM46.2128 73.6407L45.4323 69.4635C45.3733 69.147 45.1876 68.8664 44.9197 68.6878C44.6503 68.5076 44.3203 68.4447 44.0062 68.5132L39.1091 69.5599L45.4913 60.5645C47.1861 62.0999 49.3106 63.1609 51.6663 63.5492L46.2128 73.6407ZM63.0629 68.6511C62.7464 68.5786 62.418 68.6376 62.1477 68.8114C61.8767 68.9868 61.6886 69.2634 61.624 69.5799L60.7822 73.746L55.4713 63.5786C57.7768 63.2351 59.9196 62.2418 61.6894 60.6825L67.9353 69.7664L63.0629 68.6511Z" fill="#10B7F5"/>
</svg>
