<svg width="80" height="80" viewBox="0 0 80 80" fill="none" xmlns="http://www.w3.org/2000/svg">
<path d="M74.576 35.8272L41.3023 7.39164C40.8537 7.00732 40.1915 7.01049 39.7468 7.39878L7.18623 35.7327C6.68995 36.1638 6.63834 36.9166 7.0703 37.4129C7.50147 37.9092 8.25422 37.9616 8.7505 37.5288L15.7691 31.421V69.5209C15.7691 70.1791 16.3019 70.7119 16.9601 70.7119H63.5952C64.2534 70.7119 64.7862 70.1791 64.7862 69.5209V30.5936L73.0284 37.6376C73.2531 37.8297 73.5279 37.9234 73.8018 37.9234C74.1385 37.9234 74.4728 37.7821 74.7086 37.5066C75.1358 37.0063 75.0762 36.2544 74.576 35.8272ZM62.4041 68.3306H18.1512V29.3494L40.5361 9.87064L62.4049 28.5593L62.4041 68.3306Z" fill="#10B7F5"/>
<path d="M39.0867 31.8024V43.702H27.1911C26.5328 43.702 26 44.2348 26 44.893C26 45.5513 26.5328 46.0841 27.1911 46.0841H39.0867V57.9789C39.0867 58.6371 39.6195 59.1699 40.2777 59.1699C40.936 59.1699 41.4688 58.6371 41.4688 57.9789V46.0841H53.3644C54.0226 46.0841 54.5554 45.5513 54.5554 44.893C54.5554 44.2348 54.0226 43.702 53.3644 43.702H41.4688V31.8024C41.4688 31.1441 40.936 30.6113 40.2777 30.6113C39.6195 30.6113 39.0867 31.1449 39.0867 31.8024Z" fill="#10B7F5"/>
</svg>
