<svg width="80" height="80" viewBox="0 0 80 80" fill="none" xmlns="http://www.w3.org/2000/svg">
<path d="M39.7032 48.2773C26.1981 48.2773 15.2109 59.2645 15.2109 72.7697C15.2109 73.4279 15.7437 73.9607 16.402 73.9607H63.0045C63.6628 73.9607 64.1956 73.4279 64.1956 72.7697C64.1956 59.2645 53.2084 48.2773 39.7032 48.2773ZM17.6248 71.5786C18.2458 59.9387 27.9117 50.6595 39.7032 50.6595C51.4948 50.6595 61.1607 59.9387 61.7817 71.5786H17.6248Z" fill="#10B7F5"/>
<path d="M39.2994 46.1C47.1112 46.1 53.4676 39.7421 53.4676 31.9263C53.4676 29.1654 52.6711 26.5022 51.1728 24.2035V6.63443C51.1728 5.97616 50.64 5.44336 49.9817 5.44336H28.6187C27.9605 5.44336 27.4277 5.97616 27.4277 6.63443V24.1955C25.9253 26.499 25.1289 29.1678 25.1289 31.9263C25.1281 39.7421 31.4852 46.1 39.2994 46.1ZM29.809 7.82629H48.7899V23.6651H29.809V7.82629ZM29.0864 26.0464H49.5164C50.5447 27.8291 51.0854 29.8451 51.0854 31.9263C51.0846 38.4288 45.7979 43.7179 39.2994 43.7179C32.7994 43.7179 27.511 38.428 27.511 31.9263C27.511 29.8483 28.0558 27.8314 29.0864 26.0464Z" fill="#10B7F5"/>
<path d="M43.4498 14.6865H40.4904V11.7223C40.4904 11.0641 39.9576 10.5312 39.2994 10.5312C38.6411 10.5312 38.1083 11.0641 38.1083 11.7223V14.6865H35.1481C34.4898 14.6865 33.957 15.2193 33.957 15.8776C33.957 16.5358 34.4898 17.0686 35.1481 17.0686H38.1083V20.0288C38.1083 20.6871 38.6411 21.2199 39.2994 21.2199C39.9576 21.2199 40.4904 20.6871 40.4904 20.0288V17.0686H43.4498C44.1081 17.0686 44.6409 16.5358 44.6409 15.8776C44.6409 15.2193 44.1073 14.6865 43.4498 14.6865Z" fill="#10B7F5"/>
</svg>
