<svg width="36" height="36" viewBox="0 0 36 36" fill="none" xmlns="http://www.w3.org/2000/svg">
<circle cx="18" cy="18" r="18" fill="#03A9F4"/>
<g clip-path="url(#clip0)">
<path d="M27.7721 12.7743C27.0836 13.0763 26.35 13.2765 25.5851 13.3737C26.372 12.9039 26.9725 12.1656 27.2549 11.2758C26.5212 11.7132 25.7112 12.0221 24.848 12.1945C24.1514 11.4528 23.1586 10.9934 22.0755 10.9934C19.9741 10.9934 18.2824 12.699 18.2824 14.79C18.2824 15.0909 18.3078 15.3801 18.3703 15.6555C15.2148 15.5016 12.4226 13.9893 10.5469 11.6854C10.2194 12.2535 10.0273 12.9039 10.0273 13.6039C10.0273 14.9184 10.7042 16.0837 11.7133 16.7583C11.1035 16.7467 10.5052 16.5697 9.99838 16.2908C9.99838 16.3024 9.99838 16.3174 9.99838 16.3325C9.99838 18.177 11.3141 19.709 13.0394 20.0619C12.7304 20.1464 12.3937 20.1869 12.0442 20.1869C11.8012 20.1869 11.5559 20.173 11.3256 20.1221C11.8174 21.6252 13.2129 22.7303 14.8723 22.7662C13.5809 23.7764 11.9412 24.385 10.1662 24.385C9.8549 24.385 9.55636 24.3711 9.25781 24.333C10.9391 25.4172 12.9317 26.0363 15.0806 26.0363C22.0651 26.0363 25.8836 20.2506 25.8836 15.2355C25.8836 15.0677 25.8779 14.9057 25.8698 14.7449C26.6231 14.2103 27.256 13.5426 27.7721 12.7743Z" fill="white"/>
</g>
<defs>
<clipPath id="clip0">
<rect width="18.5143" height="18.5143" fill="white" transform="translate(9.25781 9.25781)"/>
</clipPath>
</defs>
</svg>
