<svg width="146" height="146" viewBox="0 0 146 146" fill="none" xmlns="http://www.w3.org/2000/svg">
<path d="M73 0C32.704 0 0 32.704 0 73C0 113.296 32.704 146 73 146C113.296 146 146 113.296 146 73C146 32.704 113.296 0 73 0ZM73 21.9C85.118 21.9 94.9 31.682 94.9 43.8C94.9 55.918 85.118 65.7 73 65.7C60.882 65.7 51.1 55.918 51.1 43.8C51.1 31.682 60.882 21.9 73 21.9ZM73 125.56C54.75 125.56 38.617 116.216 29.2 102.054C29.419 87.527 58.4 79.57 73 79.57C87.527 79.57 116.581 87.527 116.8 102.054C107.383 116.216 91.25 125.56 73 125.56Z" fill="#EFF2F6"/>
</svg>
