<svg width="30" height="30" viewBox="0 0 30 30" fill="none" xmlns="http://www.w3.org/2000/svg">
<circle cx="15" cy="15" r="15" fill="#2787F5"/>
<g clip-path="url(#clip0)">
<path d="M21.8815 18.315C21.8456 18.255 21.624 17.7733 20.5572 16.7832C19.4405 15.7465 19.5905 15.9148 20.9356 14.1222C21.7548 13.0304 22.0823 12.3637 21.9798 12.0787C21.8823 11.807 21.2798 11.8787 21.2798 11.8787L19.2763 11.8903C19.2763 11.8903 19.1279 11.8703 19.0171 11.9362C18.9096 12.0012 18.8404 12.1512 18.8404 12.1512C18.8404 12.1512 18.5229 12.9963 18.0995 13.7147C17.207 15.2306 16.8494 15.3106 16.7036 15.2164C16.3644 14.9972 16.4494 14.3347 16.4494 13.8647C16.4494 12.3954 16.6719 11.7828 16.0152 11.6245C15.7969 11.572 15.6369 11.537 15.0793 11.5312C14.3643 11.5237 13.7584 11.5337 13.4159 11.7012C13.1875 11.8128 13.0117 12.062 13.1192 12.0762C13.2517 12.0937 13.5517 12.157 13.7109 12.3737C13.9167 12.6529 13.9092 13.2813 13.9092 13.2813C13.9092 13.2813 14.0276 15.0106 13.6334 15.2256C13.3625 15.3731 12.9917 15.0723 12.1958 13.6963C11.7882 12.9921 11.4799 12.2129 11.4799 12.2129C11.4799 12.2129 11.4207 12.0679 11.3149 11.9904C11.1865 11.8962 11.0065 11.8662 11.0065 11.8662L9.10138 11.8778C9.10138 11.8778 8.81552 11.8862 8.71051 12.0104C8.61717 12.1212 8.70301 12.3496 8.70301 12.3496C8.70301 12.3496 10.1948 15.839 11.8832 17.5983C13.4325 19.2109 15.191 19.1051 15.191 19.1051H15.9877C15.9877 19.1051 16.2286 19.0784 16.3511 18.9459C16.4644 18.8242 16.4602 18.5958 16.4602 18.5958C16.4602 18.5958 16.4444 17.5266 16.9411 17.3691C17.4303 17.2141 18.0587 18.4025 18.7246 18.86C19.228 19.2059 19.6105 19.1301 19.6105 19.1301L21.3914 19.1051C21.3914 19.1051 22.3232 19.0475 21.8815 18.315Z" fill="white"/>
</g>
<defs>
<clipPath id="clip0">
<rect width="13.3333" height="13.3333" fill="white" transform="translate(8.66699 8.66663)"/>
</clipPath>
</defs>
</svg>
