<svg width="24" height="24" viewBox="0 0 24 24" fill="none" xmlns="http://www.w3.org/2000/svg">
<path d="M11.1092 4.29188C10.9303 3.63377 10.5399 3.0528 9.99806 2.63861C9.45627 2.22441 8.79323 2 8.11125 2C7.42927 2 6.76623 2.22441 6.22444 2.63861C5.68264 3.0528 5.2922 3.63377 5.11333 4.29188H2V5.95855H5.11333C5.2922 6.61666 5.68264 7.19763 6.22444 7.61182C6.76623 8.02602 7.42927 8.25043 8.11125 8.25043C8.79323 8.25043 9.45627 8.02602 9.99806 7.61182C10.5399 7.19763 10.9303 6.61666 11.1092 5.95855H22V4.29188H11.1092ZM8.11083 6.58355C7.8224 6.58355 7.54045 6.49802 7.30063 6.33778C7.0608 6.17753 6.87389 5.94977 6.76351 5.6833C6.65313 5.41682 6.62425 5.1236 6.68052 4.84071C6.73679 4.55782 6.87568 4.29797 7.07964 4.09402C7.28359 3.89007 7.54344 3.75117 7.82633 3.6949C8.10922 3.63863 8.40244 3.66751 8.66891 3.77789C8.93539 3.88827 9.16315 4.07519 9.32339 4.31501C9.48364 4.55483 9.56917 4.83678 9.56917 5.12522C9.56851 5.51179 9.41465 5.88234 9.1413 6.15568C8.86795 6.42903 8.4974 6.58289 8.11083 6.58355Z" fill="#A8B1BC"/>
<path d="M15.8892 8.875C15.2079 8.87744 14.5461 9.10275 14.0049 9.51654C13.4636 9.93033 13.0727 10.5099 12.8917 11.1667H2V12.8333H12.8917C13.0702 13.4916 13.4605 14.0728 14.0023 14.4871C14.544 14.9015 15.2071 15.126 15.8892 15.126C16.5712 15.126 17.2343 14.9015 17.7761 14.4871C18.3178 14.0728 18.7081 13.4916 18.8867 12.8333H22V11.1667H18.8867C18.7057 10.5099 18.3147 9.93033 17.7735 9.51654C17.2322 9.10275 16.5705 8.87744 15.8892 8.875ZM15.8892 13.4583C15.6007 13.4583 15.3188 13.3728 15.079 13.2126C14.8391 13.0523 14.6522 12.8246 14.5418 12.5581C14.4315 12.2916 14.4026 11.9984 14.4589 11.7155C14.5151 11.4326 14.654 11.1728 14.858 10.9688C15.0619 10.7649 15.3218 10.626 15.6047 10.5697C15.8875 10.5134 16.1808 10.5423 16.4472 10.6527C16.7137 10.7631 16.9415 10.95 17.1017 11.1898C17.262 11.4296 17.3475 11.7116 17.3475 12C17.3471 12.3866 17.1933 12.7573 16.9199 13.0307C16.6465 13.3041 16.2758 13.4579 15.8892 13.4583Z" fill="#A8B1BC"/>
<path d="M8.11083 15.75C7.42912 15.7519 6.76677 15.977 6.22503 16.3908C5.68329 16.8046 5.29195 17.3844 5.11083 18.0417H2V19.7083H5.11333C5.2922 20.3664 5.68264 20.9474 6.22444 21.3616C6.76623 21.7758 7.42927 22.0002 8.11125 22.0002C8.79323 22.0002 9.45627 21.7758 9.99806 21.3616C10.5399 20.9474 10.9303 20.3664 11.1092 19.7083H22V18.0417H11.1092C10.9281 17.3847 10.537 16.8051 9.99563 16.3913C9.45423 15.9775 8.79226 15.7523 8.11083 15.75ZM8.11083 20.3333C7.8224 20.3333 7.54045 20.2478 7.30063 20.0876C7.0608 19.9273 6.87389 19.6995 6.76351 19.4331C6.65313 19.1666 6.62425 18.8734 6.68052 18.5905C6.73679 18.3076 6.87568 18.0477 7.07964 17.8438C7.28359 17.6398 7.54344 17.501 7.82633 17.4447C8.10922 17.3884 8.40244 17.4173 8.66891 17.5277C8.93539 17.638 9.16315 17.825 9.32339 18.0648C9.48364 18.3046 9.56917 18.5866 9.56917 18.875C9.56851 19.2616 9.41465 19.6321 9.1413 19.9055C8.86795 20.1788 8.4974 20.3327 8.11083 20.3333Z" fill="#A8B1BC"/>
</svg>
