<svg width="16" height="16" viewBox="0 0 16 16" fill="none" xmlns="http://www.w3.org/2000/svg">
<g clip-path="url(#clip0)">
<path d="M8.73311 7.26703L8.73302 1.03671C8.73311 0.631349 8.40549 0.303722 8.00013 0.303818C7.59487 0.303818 7.26724 0.631446 7.26724 1.03671L7.26723 7.26713L1.03691 7.26704C0.631551 7.26713 0.304019 7.59467 0.304018 7.99993C0.303923 8.40529 0.63155 8.73291 1.03691 8.73282L7.26723 8.73291L7.26732 14.9632C7.26722 15.3686 7.59485 15.6962 8.00021 15.6961C8.20227 15.6962 8.38582 15.6142 8.51851 15.4815C8.65119 15.3488 8.7331 15.1654 8.7331 14.9632L8.73301 8.7329L14.9634 8.7329C15.1656 8.7329 15.349 8.65099 15.4817 8.51831C15.6144 8.38562 15.6963 8.20216 15.6963 8.00001C15.6964 7.59465 15.3688 7.26702 14.9634 7.26712L8.73311 7.26703Z" fill="#262728"/>
</g>
<defs>
<clipPath id="clip0">
<rect width="16" height="16" fill="white"/>
</clipPath>
</defs>
</svg>
