<svg width="7" height="10" viewBox="0 0 7 10" fill="none" xmlns="http://www.w3.org/2000/svg">
<path d="M2.01621 7.02574H3.60343V6.90181C3.61296 5.89133 3.94185 5.42898 4.71878 4.95234C5.59581 4.42803 6.14395 3.71306 6.14395 2.62154C6.14395 1.01049 4.89037 0 3.06959 0C1.40133 0 0.0476644 0.92469 0 2.73594H1.69685C1.73975 1.83985 2.38799 1.41087 3.06006 1.41087C3.78932 1.41087 4.3756 1.89705 4.3756 2.64538C4.3756 3.31268 3.93232 3.77026 3.35558 4.13251C2.51192 4.65682 2.02574 5.18589 2.01621 6.90181V7.02574ZM2.85033 10C3.41277 10 3.89419 9.53289 3.89895 8.95138C3.89419 8.37941 3.41277 7.9123 2.85033 7.9123C2.26883 7.9123 1.79695 8.37941 1.80172 8.95138C1.79695 9.53289 2.26883 10 2.85033 10Z" fill="#A8B1BC"/>
</svg>
