<svg width="24" height="24" viewBox="0 0 24 24" fill="none" xmlns="http://www.w3.org/2000/svg">
<path d="M16.9991 2.00416L14.4055 2C11.4918 2 9.60877 3.9319 9.60877 6.92203V9.19141H7.00107C6.77574 9.19141 6.59326 9.37409 6.59326 9.59943V12.8875C6.59326 13.1128 6.77594 13.2953 7.00107 13.2953H9.60877V21.5922C9.60877 21.8175 9.79125 22 10.0166 22H13.4189C13.6442 22 13.8267 21.8173 13.8267 21.5922V13.2953H16.8757C17.101 13.2953 17.2835 13.1128 17.2835 12.8875L17.2848 9.59943C17.2848 9.49123 17.2417 9.38762 17.1653 9.31105C17.089 9.23448 16.9849 9.19141 16.8768 9.19141H13.8267V7.26763C13.8267 6.34298 14.047 5.87358 15.2515 5.87358L16.9987 5.87295C17.2238 5.87295 17.4063 5.69027 17.4063 5.46514V2.41197C17.4063 2.18705 17.224 2.00458 16.9991 2.00416Z" fill="#A8B1BC"/>
</svg>
