<svg width="18" height="18" viewBox="0 0 18 18" fill="none" xmlns="http://www.w3.org/2000/svg">
<path d="M17.4265 16.3951L13.1425 11.9395C14.244 10.6301 14.8475 8.98262 14.8475 7.26749C14.8475 3.26026 11.5872 0 7.57999 0C3.57276 0 0.3125 3.26026 0.3125 7.26749C0.3125 11.2747 3.57276 14.535 7.57999 14.535C9.08436 14.535 10.518 14.0812 11.7436 13.2199L16.0602 17.7093C16.2406 17.8967 16.4833 18 16.7434 18C16.9895 18 17.223 17.9062 17.4003 17.7355C17.7769 17.3731 17.7889 16.7721 17.4265 16.3951ZM7.57999 1.89587C10.542 1.89587 12.9516 4.30552 12.9516 7.26749C12.9516 10.2295 10.542 12.6391 7.57999 12.6391C4.61802 12.6391 2.20837 10.2295 2.20837 7.26749C2.20837 4.30552 4.61802 1.89587 7.57999 1.89587Z" fill="#888C94"/>
</svg>
