<svg width="24" height="24" viewBox="0 0 24 24" fill="none" xmlns="http://www.w3.org/2000/svg">
<path d="M16.9287 1H7.07107C3.72349 1 1 3.72362 1 7.0712V16.9288C1 20.2765 3.72349 23 7.07107 23H16.9287C20.2765 23 23 20.2764 23 16.9288V7.0712C23.0001 3.72362 20.2765 1 16.9287 1ZM21.0482 16.9288C21.0482 19.2002 19.2002 21.0481 16.9288 21.0481H7.07107C4.79979 21.0482 2.95195 19.2002 2.95195 16.9288V7.0712C2.95195 4.79992 4.79979 2.95195 7.07107 2.95195H16.9287C19.2001 2.95195 21.0481 4.79992 21.0481 7.0712L21.0482 16.9288Z" fill="#A8B1BC"/>
<path d="M11.9989 6.33252C8.87308 6.33252 6.33008 8.87551 6.33008 12.0014C6.33008 15.1271 8.87308 17.6699 11.9989 17.6699C15.1248 17.6699 17.6678 15.1271 17.6678 12.0014C17.6678 8.87551 15.1248 6.33252 11.9989 6.33252ZM11.9989 15.7179C9.94951 15.7179 8.28203 14.0506 8.28203 12.0012C8.28203 9.95169 9.94938 8.28434 11.9989 8.28434C14.0485 8.28434 15.7158 9.95169 15.7158 12.0012C15.7158 14.0506 14.0483 15.7179 11.9989 15.7179Z" fill="#A8B1BC"/>
<path d="M17.9065 4.67383C17.5304 4.67383 17.161 4.82608 16.8954 5.09285C16.6285 5.35831 16.4751 5.72788 16.4751 6.10526C16.4751 6.48146 16.6287 6.8509 16.8954 7.11766C17.1609 7.38313 17.5304 7.53668 17.9065 7.53668C18.2839 7.53668 18.6522 7.38313 18.9189 7.11766C19.1857 6.8509 19.3379 6.48133 19.3379 6.10526C19.3379 5.72788 19.1857 5.35831 18.9189 5.09285C18.6535 4.82608 18.2839 4.67383 17.9065 4.67383Z" fill="#A8B1BC"/>
</svg>
