<svg width="24" height="24" viewBox="0 0 24 24" fill="none" xmlns="http://www.w3.org/2000/svg">
<path d="M7.78125 7.07812C9.40631 7.07812 10.8763 7.91199 11.7188 9.06097L13.7155 7.04993C12.5213 5.49701 10.2228 4.26562 7.78125 4.26562C3.50629 4.26562 0 7.72504 0 12C0 16.275 3.50629 19.7344 7.78125 19.7344C11.3251 19.7344 14.3062 17.3578 15.2203 14.1094C15.4171 13.4343 15.5156 12.7311 15.5156 12V11.2969H8.48438V14.1088H12.2109C11.4375 15.7683 9.7359 16.9219 7.78125 16.9219C5.06726 16.9219 2.8125 14.714 2.8125 12C2.8125 9.28601 5.06726 7.07812 7.78125 7.07812Z" fill="#A8B1BC"/>
<path d="M21.8438 8.48438H19.0312V10.5938H16.9219V13.4062H19.0312V15.5156H21.8438V13.4062H24V10.5938H21.8438V8.48438Z" fill="#A8B1BC"/>
</svg>
