<svg width="22" height="18" viewBox="0 0 22 18" fill="none" xmlns="http://www.w3.org/2000/svg">
<g clip-path="url(#clip0)">
<path fill-rule="evenodd" clip-rule="evenodd" d="M21.9983 2.1175C21.1874 2.47535 20.3174 2.71828 19.4048 2.82662C20.3371 2.26852 21.0528 1.38212 21.3877 0.328295C20.5144 0.847001 19.5492 1.22126 18.5217 1.4248C17.6976 0.548253 16.5256 0 15.2256 0C12.7338 0 10.7115 2.0223 10.7115 4.51406C10.7115 4.86862 10.7509 5.21333 10.8297 5.54162C7.07728 5.35449 3.75165 3.55544 1.52581 0.824021C1.13843 1.49046 0.915185 2.26524 0.915185 3.09254C0.915185 4.65851 1.71294 6.04063 2.92435 6.84824C2.18569 6.82525 1.4897 6.62171 0.879072 6.28357C0.879072 6.30327 0.879072 6.31968 0.879072 6.33938C0.879072 8.52582 2.43519 10.3511 4.50017 10.7648C4.12263 10.8666 3.72211 10.9224 3.31174 10.9224C3.01956 10.9224 2.73722 10.8928 2.46145 10.8403C3.03597 12.6328 4.70371 13.9394 6.67676 13.9755C5.13049 15.1869 3.18699 15.9092 1.06948 15.9092C0.705076 15.9092 0.347234 15.8862 -0.00732422 15.8468C1.98871 17.1272 4.36228 17.8757 6.91314 17.8757C15.2157 17.8757 19.756 10.9979 19.756 5.03276C19.756 4.83579 19.7528 4.64209 19.7429 4.4484C20.626 3.81151 21.3909 3.01703 21.995 2.11094L21.9983 2.1175Z" fill="#A8B1BC"/>
</g>
<defs>
<clipPath id="clip0">
<rect width="22" height="17.879" fill="white"/>
</clipPath>
</defs>
</svg>
